<?xml version="1.0" encoding="utf-8" standalone="no"?>
<!DOCTYPE svg PUBLIC "-//W3C//DTD SVG 1.1//EN"
  "http://www.w3.org/Graphics/SVG/1.1/DTD/svg11.dtd">
<svg xmlns:xlink="http://www.w3.org/1999/xlink" width="735.323437pt" height="370.91625pt" viewBox="0 0 735.323437 370.91625" xmlns="http://www.w3.org/2000/svg" version="1.1">
 <metadata>
  <rdf:RDF xmlns:dc="http://purl.org/dc/elements/1.1/" xmlns:cc="http://creativecommons.org/ns#" xmlns:rdf="http://www.w3.org/1999/02/22-rdf-syntax-ns#">
   <cc:Work>
    <dc:type rdf:resource="http://purl.org/dc/dcmitype/StillImage"/>
    <dc:date>2024-09-27T20:15:06.610960</dc:date>
    <dc:format>image/svg+xml</dc:format>
    <dc:creator>
     <cc:Agent>
      <dc:title>Matplotlib v3.5.2, https://matplotlib.org/</dc:title>
     </cc:Agent>
    </dc:creator>
   </cc:Work>
  </rdf:RDF>
 </metadata>
 <defs>
  <style type="text/css">*{stroke-linejoin: round; stroke-linecap: butt}</style>
 </defs>
 <g id="figure_1">
  <g id="patch_1">
   <path d="M 0 370.91625 
L 735.323437 370.91625 
L 735.323437 0 
L 0 0 
z
" style="fill: #ffffff"/>
  </g>
  <g id="axes_1">
   <g id="patch_2">
    <path d="M 58.523438 333.36 
L 362.887074 333.36 
L 362.887074 7.2 
L 58.523438 7.2 
z
" style="fill: #ffffff"/>
   </g>
   <g id="matplotlib.axis_1">
    <g id="xtick_1">
     <g id="line2d_1">
      <defs>
       <path id="m96376e068d" d="M 0 0 
L 0 3.5 
" style="stroke: #000000; stroke-width: 0.8"/>
      </defs>
      <g>
       <use xlink:href="#m96376e068d" x="72.358148" y="333.36" style="stroke: #000000; stroke-width: 0.8"/>
      </g>
     </g>
     <g id="text_1">
      <!-- 0 -->
      <g transform="translate(69.176898 347.958438)scale(0.1 -0.1)">
       <defs>
        <path id="DejaVuSans-30" d="M 2034 4250 
Q 1547 4250 1301 3770 
Q 1056 3291 1056 2328 
Q 1056 1369 1301 889 
Q 1547 409 2034 409 
Q 2525 409 2770 889 
Q 3016 1369 3016 2328 
Q 3016 3291 2770 3770 
Q 2525 4250 2034 4250 
z
M 2034 4750 
Q 2819 4750 3233 4129 
Q 3647 3509 3647 2328 
Q 3647 1150 3233 529 
Q 2819 -91 2034 -91 
Q 1250 -91 836 529 
Q 422 1150 422 2328 
Q 422 3509 836 4129 
Q 1250 4750 2034 4750 
z
" transform="scale(0.015625)"/>
       </defs>
       <use xlink:href="#DejaVuSans-30"/>
      </g>
     </g>
    </g>
    <g id="xtick_2">
     <g id="line2d_2">
      <g>
       <use xlink:href="#m96376e068d" x="109.25071" y="333.36" style="stroke: #000000; stroke-width: 0.8"/>
      </g>
     </g>
     <g id="text_2">
      <!-- 20 -->
      <g transform="translate(102.88821 347.958438)scale(0.1 -0.1)">
       <defs>
        <path id="DejaVuSans-32" d="M 1228 531 
L 3431 531 
L 3431 0 
L 469 0 
L 469 531 
Q 828 903 1448 1529 
Q 2069 2156 2228 2338 
Q 2531 2678 2651 2914 
Q 2772 3150 2772 3378 
Q 2772 3750 2511 3984 
Q 2250 4219 1831 4219 
Q 1534 4219 1204 4116 
Q 875 4013 500 3803 
L 500 4441 
Q 881 4594 1212 4672 
Q 1544 4750 1819 4750 
Q 2544 4750 2975 4387 
Q 3406 4025 3406 3419 
Q 3406 3131 3298 2873 
Q 3191 2616 2906 2266 
Q 2828 2175 2409 1742 
Q 1991 1309 1228 531 
z
" transform="scale(0.015625)"/>
       </defs>
       <use xlink:href="#DejaVuSans-32"/>
       <use xlink:href="#DejaVuSans-30" x="63.623047"/>
      </g>
     </g>
    </g>
    <g id="xtick_3">
     <g id="line2d_3">
      <g>
       <use xlink:href="#m96376e068d" x="146.143272" y="333.36" style="stroke: #000000; stroke-width: 0.8"/>
      </g>
     </g>
     <g id="text_3">
      <!-- 40 -->
      <g transform="translate(139.780772 347.958438)scale(0.1 -0.1)">
       <defs>
        <path id="DejaVuSans-34" d="M 2419 4116 
L 825 1625 
L 2419 1625 
L 2419 4116 
z
M 2253 4666 
L 3047 4666 
L 3047 1625 
L 3713 1625 
L 3713 1100 
L 3047 1100 
L 3047 0 
L 2419 0 
L 2419 1100 
L 313 1100 
L 313 1709 
L 2253 4666 
z
" transform="scale(0.015625)"/>
       </defs>
       <use xlink:href="#DejaVuSans-34"/>
       <use xlink:href="#DejaVuSans-30" x="63.623047"/>
      </g>
     </g>
    </g>
    <g id="xtick_4">
     <g id="line2d_4">
      <g>
       <use xlink:href="#m96376e068d" x="183.035834" y="333.36" style="stroke: #000000; stroke-width: 0.8"/>
      </g>
     </g>
     <g id="text_4">
      <!-- 60 -->
      <g transform="translate(176.673334 347.958438)scale(0.1 -0.1)">
       <defs>
        <path id="DejaVuSans-36" d="M 2113 2584 
Q 1688 2584 1439 2293 
Q 1191 2003 1191 1497 
Q 1191 994 1439 701 
Q 1688 409 2113 409 
Q 2538 409 2786 701 
Q 3034 994 3034 1497 
Q 3034 2003 2786 2293 
Q 2538 2584 2113 2584 
z
M 3366 4563 
L 3366 3988 
Q 3128 4100 2886 4159 
Q 2644 4219 2406 4219 
Q 1781 4219 1451 3797 
Q 1122 3375 1075 2522 
Q 1259 2794 1537 2939 
Q 1816 3084 2150 3084 
Q 2853 3084 3261 2657 
Q 3669 2231 3669 1497 
Q 3669 778 3244 343 
Q 2819 -91 2113 -91 
Q 1303 -91 875 529 
Q 447 1150 447 2328 
Q 447 3434 972 4092 
Q 1497 4750 2381 4750 
Q 2619 4750 2861 4703 
Q 3103 4656 3366 4563 
z
" transform="scale(0.015625)"/>
       </defs>
       <use xlink:href="#DejaVuSans-36"/>
       <use xlink:href="#DejaVuSans-30" x="63.623047"/>
      </g>
     </g>
    </g>
    <g id="xtick_5">
     <g id="line2d_5">
      <g>
       <use xlink:href="#m96376e068d" x="219.928396" y="333.36" style="stroke: #000000; stroke-width: 0.8"/>
      </g>
     </g>
     <g id="text_5">
      <!-- 80 -->
      <g transform="translate(213.565896 347.958438)scale(0.1 -0.1)">
       <defs>
        <path id="DejaVuSans-38" d="M 2034 2216 
Q 1584 2216 1326 1975 
Q 1069 1734 1069 1313 
Q 1069 891 1326 650 
Q 1584 409 2034 409 
Q 2484 409 2743 651 
Q 3003 894 3003 1313 
Q 3003 1734 2745 1975 
Q 2488 2216 2034 2216 
z
M 1403 2484 
Q 997 2584 770 2862 
Q 544 3141 544 3541 
Q 544 4100 942 4425 
Q 1341 4750 2034 4750 
Q 2731 4750 3128 4425 
Q 3525 4100 3525 3541 
Q 3525 3141 3298 2862 
Q 3072 2584 2669 2484 
Q 3125 2378 3379 2068 
Q 3634 1759 3634 1313 
Q 3634 634 3220 271 
Q 2806 -91 2034 -91 
Q 1263 -91 848 271 
Q 434 634 434 1313 
Q 434 1759 690 2068 
Q 947 2378 1403 2484 
z
M 1172 3481 
Q 1172 3119 1398 2916 
Q 1625 2713 2034 2713 
Q 2441 2713 2670 2916 
Q 2900 3119 2900 3481 
Q 2900 3844 2670 4047 
Q 2441 4250 2034 4250 
Q 1625 4250 1398 4047 
Q 1172 3844 1172 3481 
z
" transform="scale(0.015625)"/>
       </defs>
       <use xlink:href="#DejaVuSans-38"/>
       <use xlink:href="#DejaVuSans-30" x="63.623047"/>
      </g>
     </g>
    </g>
    <g id="xtick_6">
     <g id="line2d_6">
      <g>
       <use xlink:href="#m96376e068d" x="256.820958" y="333.36" style="stroke: #000000; stroke-width: 0.8"/>
      </g>
     </g>
     <g id="text_6">
      <!-- 100 -->
      <g transform="translate(247.277208 347.958438)scale(0.1 -0.1)">
       <defs>
        <path id="DejaVuSans-31" d="M 794 531 
L 1825 531 
L 1825 4091 
L 703 3866 
L 703 4441 
L 1819 4666 
L 2450 4666 
L 2450 531 
L 3481 531 
L 3481 0 
L 794 0 
L 794 531 
z
" transform="scale(0.015625)"/>
       </defs>
       <use xlink:href="#DejaVuSans-31"/>
       <use xlink:href="#DejaVuSans-30" x="63.623047"/>
       <use xlink:href="#DejaVuSans-30" x="127.246094"/>
      </g>
     </g>
    </g>
    <g id="xtick_7">
     <g id="line2d_7">
      <g>
       <use xlink:href="#m96376e068d" x="293.71352" y="333.36" style="stroke: #000000; stroke-width: 0.8"/>
      </g>
     </g>
     <g id="text_7">
      <!-- 120 -->
      <g transform="translate(284.16977 347.958438)scale(0.1 -0.1)">
       <use xlink:href="#DejaVuSans-31"/>
       <use xlink:href="#DejaVuSans-32" x="63.623047"/>
       <use xlink:href="#DejaVuSans-30" x="127.246094"/>
      </g>
     </g>
    </g>
    <g id="xtick_8">
     <g id="line2d_8">
      <g>
       <use xlink:href="#m96376e068d" x="330.606082" y="333.36" style="stroke: #000000; stroke-width: 0.8"/>
      </g>
     </g>
     <g id="text_8">
      <!-- 140 -->
      <g transform="translate(321.062332 347.958438)scale(0.1 -0.1)">
       <use xlink:href="#DejaVuSans-31"/>
       <use xlink:href="#DejaVuSans-34" x="63.623047"/>
       <use xlink:href="#DejaVuSans-30" x="127.246094"/>
      </g>
     </g>
    </g>
    <g id="text_9">
     <!-- Time (t) -->
     <g transform="translate(191.020881 361.636563)scale(0.1 -0.1)">
      <defs>
       <path id="DejaVuSans-54" d="M -19 4666 
L 3928 4666 
L 3928 4134 
L 2272 4134 
L 2272 0 
L 1638 0 
L 1638 4134 
L -19 4134 
L -19 4666 
z
" transform="scale(0.015625)"/>
       <path id="DejaVuSans-69" d="M 603 3500 
L 1178 3500 
L 1178 0 
L 603 0 
L 603 3500 
z
M 603 4863 
L 1178 4863 
L 1178 4134 
L 603 4134 
L 603 4863 
z
" transform="scale(0.015625)"/>
       <path id="DejaVuSans-6d" d="M 3328 2828 
Q 3544 3216 3844 3400 
Q 4144 3584 4550 3584 
Q 5097 3584 5394 3201 
Q 5691 2819 5691 2113 
L 5691 0 
L 5113 0 
L 5113 2094 
Q 5113 2597 4934 2840 
Q 4756 3084 4391 3084 
Q 3944 3084 3684 2787 
Q 3425 2491 3425 1978 
L 3425 0 
L 2847 0 
L 2847 2094 
Q 2847 2600 2669 2842 
Q 2491 3084 2119 3084 
Q 1678 3084 1418 2786 
Q 1159 2488 1159 1978 
L 1159 0 
L 581 0 
L 581 3500 
L 1159 3500 
L 1159 2956 
Q 1356 3278 1631 3431 
Q 1906 3584 2284 3584 
Q 2666 3584 2933 3390 
Q 3200 3197 3328 2828 
z
" transform="scale(0.015625)"/>
       <path id="DejaVuSans-65" d="M 3597 1894 
L 3597 1613 
L 953 1613 
Q 991 1019 1311 708 
Q 1631 397 2203 397 
Q 2534 397 2845 478 
Q 3156 559 3463 722 
L 3463 178 
Q 3153 47 2828 -22 
Q 2503 -91 2169 -91 
Q 1331 -91 842 396 
Q 353 884 353 1716 
Q 353 2575 817 3079 
Q 1281 3584 2069 3584 
Q 2775 3584 3186 3129 
Q 3597 2675 3597 1894 
z
M 3022 2063 
Q 3016 2534 2758 2815 
Q 2500 3097 2075 3097 
Q 1594 3097 1305 2825 
Q 1016 2553 972 2059 
L 3022 2063 
z
" transform="scale(0.015625)"/>
       <path id="DejaVuSans-20" transform="scale(0.015625)"/>
       <path id="DejaVuSans-28" d="M 1984 4856 
Q 1566 4138 1362 3434 
Q 1159 2731 1159 2009 
Q 1159 1288 1364 580 
Q 1569 -128 1984 -844 
L 1484 -844 
Q 1016 -109 783 600 
Q 550 1309 550 2009 
Q 550 2706 781 3412 
Q 1013 4119 1484 4856 
L 1984 4856 
z
" transform="scale(0.015625)"/>
       <path id="DejaVuSans-74" d="M 1172 4494 
L 1172 3500 
L 2356 3500 
L 2356 3053 
L 1172 3053 
L 1172 1153 
Q 1172 725 1289 603 
Q 1406 481 1766 481 
L 2356 481 
L 2356 0 
L 1766 0 
Q 1100 0 847 248 
Q 594 497 594 1153 
L 594 3053 
L 172 3053 
L 172 3500 
L 594 3500 
L 594 4494 
L 1172 4494 
z
" transform="scale(0.015625)"/>
       <path id="DejaVuSans-29" d="M 513 4856 
L 1013 4856 
Q 1481 4119 1714 3412 
Q 1947 2706 1947 2009 
Q 1947 1309 1714 600 
Q 1481 -109 1013 -844 
L 513 -844 
Q 928 -128 1133 580 
Q 1338 1288 1338 2009 
Q 1338 2731 1133 3434 
Q 928 4138 513 4856 
z
" transform="scale(0.015625)"/>
      </defs>
      <use xlink:href="#DejaVuSans-54"/>
      <use xlink:href="#DejaVuSans-69" x="57.958984"/>
      <use xlink:href="#DejaVuSans-6d" x="85.742188"/>
      <use xlink:href="#DejaVuSans-65" x="183.154297"/>
      <use xlink:href="#DejaVuSans-20" x="244.677734"/>
      <use xlink:href="#DejaVuSans-28" x="276.464844"/>
      <use xlink:href="#DejaVuSans-74" x="315.478516"/>
      <use xlink:href="#DejaVuSans-29" x="354.6875"/>
     </g>
    </g>
   </g>
   <g id="matplotlib.axis_2">
    <g id="ytick_1">
     <g id="line2d_9">
      <defs>
       <path id="m5e9db05997" d="M 0 0 
L -3.5 0 
" style="stroke: #000000; stroke-width: 0.8"/>
      </defs>
      <g>
       <use xlink:href="#m5e9db05997" x="58.523438" y="301.296824" style="stroke: #000000; stroke-width: 0.8"/>
      </g>
     </g>
     <g id="text_10">
      <!-- −0.75 -->
      <g transform="translate(20.878125 305.096043)scale(0.1 -0.1)">
       <defs>
        <path id="DejaVuSans-2212" d="M 678 2272 
L 4684 2272 
L 4684 1741 
L 678 1741 
L 678 2272 
z
" transform="scale(0.015625)"/>
        <path id="DejaVuSans-2e" d="M 684 794 
L 1344 794 
L 1344 0 
L 684 0 
L 684 794 
z
" transform="scale(0.015625)"/>
        <path id="DejaVuSans-37" d="M 525 4666 
L 3525 4666 
L 3525 4397 
L 1831 0 
L 1172 0 
L 2766 4134 
L 525 4134 
L 525 4666 
z
" transform="scale(0.015625)"/>
        <path id="DejaVuSans-35" d="M 691 4666 
L 3169 4666 
L 3169 4134 
L 1269 4134 
L 1269 2991 
Q 1406 3038 1543 3061 
Q 1681 3084 1819 3084 
Q 2600 3084 3056 2656 
Q 3513 2228 3513 1497 
Q 3513 744 3044 326 
Q 2575 -91 1722 -91 
Q 1428 -91 1123 -41 
Q 819 9 494 109 
L 494 744 
Q 775 591 1075 516 
Q 1375 441 1709 441 
Q 2250 441 2565 725 
Q 2881 1009 2881 1497 
Q 2881 1984 2565 2268 
Q 2250 2553 1709 2553 
Q 1456 2553 1204 2497 
Q 953 2441 691 2322 
L 691 4666 
z
" transform="scale(0.015625)"/>
       </defs>
       <use xlink:href="#DejaVuSans-2212"/>
       <use xlink:href="#DejaVuSans-30" x="83.789062"/>
       <use xlink:href="#DejaVuSans-2e" x="147.412109"/>
       <use xlink:href="#DejaVuSans-37" x="179.199219"/>
       <use xlink:href="#DejaVuSans-35" x="242.822266"/>
      </g>
     </g>
    </g>
    <g id="ytick_2">
     <g id="line2d_10">
      <g>
       <use xlink:href="#m5e9db05997" x="58.523438" y="261.400914" style="stroke: #000000; stroke-width: 0.8"/>
      </g>
     </g>
     <g id="text_11">
      <!-- −0.50 -->
      <g transform="translate(20.878125 265.200133)scale(0.1 -0.1)">
       <use xlink:href="#DejaVuSans-2212"/>
       <use xlink:href="#DejaVuSans-30" x="83.789062"/>
       <use xlink:href="#DejaVuSans-2e" x="147.412109"/>
       <use xlink:href="#DejaVuSans-35" x="179.199219"/>
       <use xlink:href="#DejaVuSans-30" x="242.822266"/>
      </g>
     </g>
    </g>
    <g id="ytick_3">
     <g id="line2d_11">
      <g>
       <use xlink:href="#m5e9db05997" x="58.523438" y="221.505004" style="stroke: #000000; stroke-width: 0.8"/>
      </g>
     </g>
     <g id="text_12">
      <!-- −0.25 -->
      <g transform="translate(20.878125 225.304223)scale(0.1 -0.1)">
       <use xlink:href="#DejaVuSans-2212"/>
       <use xlink:href="#DejaVuSans-30" x="83.789062"/>
       <use xlink:href="#DejaVuSans-2e" x="147.412109"/>
       <use xlink:href="#DejaVuSans-32" x="179.199219"/>
       <use xlink:href="#DejaVuSans-35" x="242.822266"/>
      </g>
     </g>
    </g>
    <g id="ytick_4">
     <g id="line2d_12">
      <g>
       <use xlink:href="#m5e9db05997" x="58.523438" y="181.609094" style="stroke: #000000; stroke-width: 0.8"/>
      </g>
     </g>
     <g id="text_13">
      <!-- 0.00 -->
      <g transform="translate(29.257812 185.408313)scale(0.1 -0.1)">
       <use xlink:href="#DejaVuSans-30"/>
       <use xlink:href="#DejaVuSans-2e" x="63.623047"/>
       <use xlink:href="#DejaVuSans-30" x="95.410156"/>
       <use xlink:href="#DejaVuSans-30" x="159.033203"/>
      </g>
     </g>
    </g>
    <g id="ytick_5">
     <g id="line2d_13">
      <g>
       <use xlink:href="#m5e9db05997" x="58.523438" y="141.713184" style="stroke: #000000; stroke-width: 0.8"/>
      </g>
     </g>
     <g id="text_14">
      <!-- 0.25 -->
      <g transform="translate(29.257812 145.512403)scale(0.1 -0.1)">
       <use xlink:href="#DejaVuSans-30"/>
       <use xlink:href="#DejaVuSans-2e" x="63.623047"/>
       <use xlink:href="#DejaVuSans-32" x="95.410156"/>
       <use xlink:href="#DejaVuSans-35" x="159.033203"/>
      </g>
     </g>
    </g>
    <g id="ytick_6">
     <g id="line2d_14">
      <g>
       <use xlink:href="#m5e9db05997" x="58.523438" y="101.817274" style="stroke: #000000; stroke-width: 0.8"/>
      </g>
     </g>
     <g id="text_15">
      <!-- 0.50 -->
      <g transform="translate(29.257812 105.616493)scale(0.1 -0.1)">
       <use xlink:href="#DejaVuSans-30"/>
       <use xlink:href="#DejaVuSans-2e" x="63.623047"/>
       <use xlink:href="#DejaVuSans-35" x="95.410156"/>
       <use xlink:href="#DejaVuSans-30" x="159.033203"/>
      </g>
     </g>
    </g>
    <g id="ytick_7">
     <g id="line2d_15">
      <g>
       <use xlink:href="#m5e9db05997" x="58.523438" y="61.921364" style="stroke: #000000; stroke-width: 0.8"/>
      </g>
     </g>
     <g id="text_16">
      <!-- 0.75 -->
      <g transform="translate(29.257812 65.720583)scale(0.1 -0.1)">
       <use xlink:href="#DejaVuSans-30"/>
       <use xlink:href="#DejaVuSans-2e" x="63.623047"/>
       <use xlink:href="#DejaVuSans-37" x="95.410156"/>
       <use xlink:href="#DejaVuSans-35" x="159.033203"/>
      </g>
     </g>
    </g>
    <g id="ytick_8">
     <g id="line2d_16">
      <g>
       <use xlink:href="#m5e9db05997" x="58.523438" y="22.025455" style="stroke: #000000; stroke-width: 0.8"/>
      </g>
     </g>
     <g id="text_17">
      <!-- 1.00 -->
      <g transform="translate(29.257812 25.824673)scale(0.1 -0.1)">
       <use xlink:href="#DejaVuSans-31"/>
       <use xlink:href="#DejaVuSans-2e" x="63.623047"/>
       <use xlink:href="#DejaVuSans-30" x="95.410156"/>
       <use xlink:href="#DejaVuSans-30" x="159.033203"/>
      </g>
     </g>
    </g>
    <g id="text_18">
     <!-- Displacement(x) -->
     <g transform="translate(14.798437 211.513594)rotate(-90)scale(0.1 -0.1)">
      <defs>
       <path id="DejaVuSans-44" d="M 1259 4147 
L 1259 519 
L 2022 519 
Q 2988 519 3436 956 
Q 3884 1394 3884 2338 
Q 3884 3275 3436 3711 
Q 2988 4147 2022 4147 
L 1259 4147 
z
M 628 4666 
L 1925 4666 
Q 3281 4666 3915 4102 
Q 4550 3538 4550 2338 
Q 4550 1131 3912 565 
Q 3275 0 1925 0 
L 628 0 
L 628 4666 
z
" transform="scale(0.015625)"/>
       <path id="DejaVuSans-73" d="M 2834 3397 
L 2834 2853 
Q 2591 2978 2328 3040 
Q 2066 3103 1784 3103 
Q 1356 3103 1142 2972 
Q 928 2841 928 2578 
Q 928 2378 1081 2264 
Q 1234 2150 1697 2047 
L 1894 2003 
Q 2506 1872 2764 1633 
Q 3022 1394 3022 966 
Q 3022 478 2636 193 
Q 2250 -91 1575 -91 
Q 1294 -91 989 -36 
Q 684 19 347 128 
L 347 722 
Q 666 556 975 473 
Q 1284 391 1588 391 
Q 1994 391 2212 530 
Q 2431 669 2431 922 
Q 2431 1156 2273 1281 
Q 2116 1406 1581 1522 
L 1381 1569 
Q 847 1681 609 1914 
Q 372 2147 372 2553 
Q 372 3047 722 3315 
Q 1072 3584 1716 3584 
Q 2034 3584 2315 3537 
Q 2597 3491 2834 3397 
z
" transform="scale(0.015625)"/>
       <path id="DejaVuSans-70" d="M 1159 525 
L 1159 -1331 
L 581 -1331 
L 581 3500 
L 1159 3500 
L 1159 2969 
Q 1341 3281 1617 3432 
Q 1894 3584 2278 3584 
Q 2916 3584 3314 3078 
Q 3713 2572 3713 1747 
Q 3713 922 3314 415 
Q 2916 -91 2278 -91 
Q 1894 -91 1617 61 
Q 1341 213 1159 525 
z
M 3116 1747 
Q 3116 2381 2855 2742 
Q 2594 3103 2138 3103 
Q 1681 3103 1420 2742 
Q 1159 2381 1159 1747 
Q 1159 1113 1420 752 
Q 1681 391 2138 391 
Q 2594 391 2855 752 
Q 3116 1113 3116 1747 
z
" transform="scale(0.015625)"/>
       <path id="DejaVuSans-6c" d="M 603 4863 
L 1178 4863 
L 1178 0 
L 603 0 
L 603 4863 
z
" transform="scale(0.015625)"/>
       <path id="DejaVuSans-61" d="M 2194 1759 
Q 1497 1759 1228 1600 
Q 959 1441 959 1056 
Q 959 750 1161 570 
Q 1363 391 1709 391 
Q 2188 391 2477 730 
Q 2766 1069 2766 1631 
L 2766 1759 
L 2194 1759 
z
M 3341 1997 
L 3341 0 
L 2766 0 
L 2766 531 
Q 2569 213 2275 61 
Q 1981 -91 1556 -91 
Q 1019 -91 701 211 
Q 384 513 384 1019 
Q 384 1609 779 1909 
Q 1175 2209 1959 2209 
L 2766 2209 
L 2766 2266 
Q 2766 2663 2505 2880 
Q 2244 3097 1772 3097 
Q 1472 3097 1187 3025 
Q 903 2953 641 2809 
L 641 3341 
Q 956 3463 1253 3523 
Q 1550 3584 1831 3584 
Q 2591 3584 2966 3190 
Q 3341 2797 3341 1997 
z
" transform="scale(0.015625)"/>
       <path id="DejaVuSans-63" d="M 3122 3366 
L 3122 2828 
Q 2878 2963 2633 3030 
Q 2388 3097 2138 3097 
Q 1578 3097 1268 2742 
Q 959 2388 959 1747 
Q 959 1106 1268 751 
Q 1578 397 2138 397 
Q 2388 397 2633 464 
Q 2878 531 3122 666 
L 3122 134 
Q 2881 22 2623 -34 
Q 2366 -91 2075 -91 
Q 1284 -91 818 406 
Q 353 903 353 1747 
Q 353 2603 823 3093 
Q 1294 3584 2113 3584 
Q 2378 3584 2631 3529 
Q 2884 3475 3122 3366 
z
" transform="scale(0.015625)"/>
       <path id="DejaVuSans-6e" d="M 3513 2113 
L 3513 0 
L 2938 0 
L 2938 2094 
Q 2938 2591 2744 2837 
Q 2550 3084 2163 3084 
Q 1697 3084 1428 2787 
Q 1159 2491 1159 1978 
L 1159 0 
L 581 0 
L 581 3500 
L 1159 3500 
L 1159 2956 
Q 1366 3272 1645 3428 
Q 1925 3584 2291 3584 
Q 2894 3584 3203 3211 
Q 3513 2838 3513 2113 
z
" transform="scale(0.015625)"/>
       <path id="DejaVuSans-78" d="M 3513 3500 
L 2247 1797 
L 3578 0 
L 2900 0 
L 1881 1375 
L 863 0 
L 184 0 
L 1544 1831 
L 300 3500 
L 978 3500 
L 1906 2253 
L 2834 3500 
L 3513 3500 
z
" transform="scale(0.015625)"/>
      </defs>
      <use xlink:href="#DejaVuSans-44"/>
      <use xlink:href="#DejaVuSans-69" x="77.001953"/>
      <use xlink:href="#DejaVuSans-73" x="104.785156"/>
      <use xlink:href="#DejaVuSans-70" x="156.884766"/>
      <use xlink:href="#DejaVuSans-6c" x="220.361328"/>
      <use xlink:href="#DejaVuSans-61" x="248.144531"/>
      <use xlink:href="#DejaVuSans-63" x="309.423828"/>
      <use xlink:href="#DejaVuSans-65" x="364.404297"/>
      <use xlink:href="#DejaVuSans-6d" x="425.927734"/>
      <use xlink:href="#DejaVuSans-65" x="523.339844"/>
      <use xlink:href="#DejaVuSans-6e" x="584.863281"/>
      <use xlink:href="#DejaVuSans-74" x="648.242188"/>
      <use xlink:href="#DejaVuSans-28" x="687.451172"/>
      <use xlink:href="#DejaVuSans-78" x="726.464844"/>
      <use xlink:href="#DejaVuSans-29" x="785.644531"/>
     </g>
    </g>
   </g>
   <g id="line2d_17">
    <path d="M 72.358148 181.609094 
L 73.464925 94.14819 
L 74.018314 62.04767 
L 74.571702 41.393527 
L 74.848396 35.902172 
L 75.12509 33.755566 
L 75.401785 34.934201 
L 75.678479 39.341844 
L 76.231867 57.241181 
L 76.785256 85.60559 
L 77.615338 141.389587 
L 79.275504 256.882348 
L 79.828892 284.160336 
L 80.38228 301.562951 
L 80.658975 306.1534 
L 80.935669 307.919419 
L 81.212363 306.852622 
L 81.489057 303.001482 
L 82.042446 287.480401 
L 82.595834 263.09563 
L 83.425917 215.371838 
L 85.086082 116.815459 
L 85.639471 93.684902 
L 86.192859 78.959112 
L 86.469553 75.097041 
L 86.746247 73.673393 
L 87.022942 74.693086 
L 87.299636 78.097128 
L 87.853024 91.50741 
L 88.406413 112.417291 
L 89.236495 153.297728 
L 90.896661 237.340694 
L 91.450049 257.007639 
L 92.003437 269.468845 
L 92.280132 272.671775 
L 92.556826 273.787856 
L 92.83352 272.834602 
L 93.110214 269.876505 
L 93.663603 258.338194 
L 94.216991 240.357775 
L 95.323768 192.605988 
L 96.707239 133.652696 
L 97.260628 116.947396 
L 97.814016 106.453463 
L 98.09071 103.779201 
L 98.367404 102.867033 
L 98.644099 103.718702 
L 98.920793 106.299621 
L 99.474181 116.299609 
L 100.02757 131.752815 
L 101.134347 172.592664 
L 102.517818 222.877957 
L 103.071206 237.040613 
L 103.624595 245.917926 
L 103.901289 248.164928 
L 104.177983 248.890327 
L 104.454677 248.094929 
L 104.731371 245.819307 
L 105.28476 237.184899 
L 105.838148 223.935051 
L 106.944925 188.975034 
L 108.051702 153.556212 
L 108.881785 134.080088 
L 109.435173 126.571684 
L 109.711867 124.712524 
L 109.988561 124.155116 
L 110.265256 124.885286 
L 110.54195 126.859946 
L 111.095338 134.287528 
L 111.648727 145.678928 
L 112.755504 175.604239 
L 113.86228 205.807748 
L 114.692363 222.363987 
L 115.245752 228.68347 
L 115.522446 230.233509 
L 115.79914 230.684439 
L 116.075834 230.037487 
L 116.352528 228.316908 
L 116.905917 221.882921 
L 117.459305 212.095074 
L 118.566082 186.503363 
L 119.672859 160.727517 
L 120.502942 146.676267 
L 121.05633 141.332069 
L 121.333024 140.031607 
L 121.609718 139.680337 
L 121.886413 140.27539 
L 122.163107 141.789162 
L 122.716495 147.341402 
L 123.269884 155.732847 
L 124.376661 177.637922 
L 125.483437 199.611919 
L 126.31352 211.55813 
L 126.866909 216.076026 
L 127.143603 217.149198 
L 127.420297 217.410496 
L 127.696991 216.870735 
L 127.973685 215.558676 
L 128.527074 210.78348 
L 129.080462 203.570535 
L 130.187239 184.822119 
L 131.294016 166.085647 
L 132.124099 155.932023 
L 132.677487 152.131906 
L 132.954181 151.238885 
L 133.230876 151.031272 
L 133.50757 151.506702 
L 133.784264 152.648409 
L 134.337652 156.782549 
L 134.891041 162.979024 
L 135.997818 179.011049 
L 137.104595 194.999572 
L 137.934677 203.615304 
L 138.488066 206.827574 
L 138.76476 207.575635 
L 139.041454 207.731842 
L 139.318148 207.299374 
L 139.594842 206.296781 
L 140.148231 202.7306 
L 140.701619 197.418812 
L 141.808396 183.697705 
L 142.915173 170.068484 
L 143.745256 162.744916 
L 144.298644 160.030362 
L 144.575338 159.414812 
L 144.852033 159.305593 
L 145.128727 159.694825 
L 145.405421 160.563191 
L 145.958809 163.629507 
L 146.512198 168.194069 
L 147.618975 179.936896 
L 148.725752 191.556668 
L 149.27914 196.045787 
L 149.832528 199.127364 
L 150.109223 200.062299 
L 150.385917 200.572911 
L 150.662611 200.656211 
L 150.939305 200.314967 
L 151.215999 199.560603 
L 151.769388 196.907888 
L 152.322776 192.986531 
L 153.429553 182.946101 
L 154.53633 173.031433 
L 155.089718 169.219367 
L 155.643107 166.612997 
L 155.919801 165.823856 
L 156.196495 165.39666 
L 156.47319 165.338185 
L 156.749884 165.645736 
L 157.026578 166.307104 
L 157.579966 168.595533 
L 158.133355 171.956337 
L 159.240132 180.548424 
L 160.346909 188.999815 
L 160.900297 192.239488 
L 161.453685 194.451645 
L 161.73038 195.115168 
L 162.007074 195.465775 
L 162.283768 195.500512 
L 162.560462 195.22481 
L 162.837157 194.651828 
L 163.390545 192.68488 
L 163.943933 189.798158 
L 165.05071 182.445064 
L 166.157487 175.240967 
L 166.710876 172.484566 
L 167.264264 170.614726 
L 167.540958 170.059993 
L 167.817652 169.770738 
L 168.094347 169.747925 
L 168.371041 169.988673 
L 168.647735 170.48524 
L 169.201123 172.184952 
L 170.031206 176.123097 
L 172.24476 188.353774 
L 172.798148 190.332995 
L 173.351537 191.486748 
L 173.628231 191.728512 
L 173.904925 191.740858 
L 174.181619 191.525797 
L 174.735008 190.450703 
L 175.288396 188.631884 
L 176.118479 184.917116 
L 177.778644 176.8803 
L 178.332033 174.892148 
L 178.885421 173.551634 
L 179.162115 173.158147 
L 179.438809 172.96001 
L 179.715504 172.958927 
L 179.992198 173.15137 
L 180.545586 174.079237 
L 181.098975 175.640989 
L 181.929057 178.82587 
L 183.589223 185.681907 
L 184.142611 187.3734 
L 184.695999 188.50717 
L 185.249388 188.997594 
L 185.526082 188.993366 
L 185.802776 188.825629 
L 186.356165 188.024418 
L 186.909553 186.678628 
L 187.739636 183.950694 
L 189.399801 178.09989 
L 189.95319 176.662885 
L 190.506578 175.705806 
L 191.059966 175.294655 
L 191.336661 175.301998 
L 191.613355 175.450442 
L 192.166743 176.147201 
L 192.720132 177.303602 
L 193.550214 179.638496 
L 195.21038 184.632061 
L 195.763768 185.851559 
L 196.317157 186.662657 
L 196.870545 187.006162 
L 197.147239 186.994245 
L 197.700628 186.613956 
L 198.254016 185.806503 
L 199.084099 183.981306 
L 201.297652 178.448718 
L 201.851041 177.577811 
L 202.404429 177.088552 
L 202.957818 177.012992 
L 203.511206 177.342221 
L 204.064595 178.037512 
L 204.894677 179.604552 
L 207.108231 184.325298 
L 207.661619 185.062892 
L 208.215008 185.473798 
L 208.768396 185.534136 
L 209.321785 185.246859 
L 209.875173 184.645734 
L 210.705256 183.303342 
L 212.918809 179.275322 
L 213.472198 178.650587 
L 214.025586 178.303559 
L 214.578975 178.257563 
L 215.132363 178.509801 
L 215.685752 179.02672 
L 216.515834 180.177182 
L 218.729388 183.613524 
L 219.282776 184.144184 
L 219.836165 184.436223 
L 220.389553 184.469372 
L 220.942942 184.250324 
L 221.49633 183.805996 
L 222.326413 182.81846 
L 224.539966 179.886939 
L 225.370049 179.287578 
L 225.923437 179.152404 
L 226.476826 179.236335 
L 227.030214 179.526917 
L 227.860297 180.277866 
L 230.627239 183.299747 
L 231.180628 183.595452 
L 231.734016 183.708439 
L 232.287404 183.633368 
L 232.840793 183.381112 
L 233.670876 182.737121 
L 236.437818 180.159393 
L 237.2679 179.841791 
L 237.821289 179.829242 
L 238.651371 180.100828 
L 239.481454 180.653226 
L 242.248396 182.852471 
L 243.078479 183.1202 
L 243.908561 183.080935 
L 244.738644 182.757684 
L 245.845421 182.018679 
L 247.78228 180.671486 
L 248.612363 180.363946 
L 249.442446 180.312622 
L 250.272528 180.515597 
L 251.379305 181.090074 
L 253.592859 182.414571 
L 254.422942 182.674386 
L 255.253024 182.716022 
L 256.083107 182.539525 
L 257.189884 182.047173 
L 259.403437 180.91741 
L 260.23352 180.697466 
L 261.063603 180.664264 
L 261.893685 180.817394 
L 263.000462 181.239458 
L 265.49071 182.281573 
L 266.597487 182.425131 
L 267.704264 182.282963 
L 269.087735 181.81076 
L 271.024595 181.099074 
L 272.131371 180.918902 
L 273.238148 180.983682 
L 274.621619 181.346368 
L 277.111867 182.103782 
L 278.218644 182.204189 
L 279.325421 182.09732 
L 280.985586 181.66769 
L 282.922446 181.184874 
L 284.305917 181.108006 
L 285.689388 181.295948 
L 289.563107 182.04008 
L 290.946578 181.962452 
L 293.160132 181.528347 
L 294.820297 181.270318 
L 296.203768 181.2581 
L 297.863933 181.476747 
L 300.630876 181.899239 
L 302.291041 181.889539 
L 304.504595 181.589619 
L 306.718148 181.347251 
L 308.378314 181.391662 
L 313.912198 181.812455 
L 316.955834 181.504187 
L 319.169388 181.415741 
L 321.659636 181.597336 
L 324.426578 181.777207 
L 326.640132 181.686732 
L 330.513851 181.465286 
L 333.280793 181.602304 
L 336.324429 181.731973 
L 339.368066 181.597144 
L 342.411702 181.506652 
L 349.052363 181.67874 
L 349.052363 181.67874 
" clip-path="url(#p1bdd5223cb)" style="fill: none; stroke: #1f77b4; stroke-width: 1.5; stroke-linecap: square"/>
   </g>
   <g id="line2d_18">
    <path d="M 72.358148 22.025455 
L 72.634842 26.175432 
L 72.911537 33.727133 
L 73.464925 58.098959 
L 74.295008 112.674946 
L 76.508561 276.498785 
L 77.06195 301.917547 
L 77.615338 316.040933 
L 77.892033 318.534545 
L 78.168727 317.922404 
L 78.445421 314.258317 
L 78.722115 307.676665 
L 79.275504 286.664258 
L 80.105586 239.882081 
L 82.31914 100.1163 
L 82.872528 78.51931 
L 83.425917 66.639605 
L 83.702611 64.63784 
L 83.979305 65.279222 
L 84.255999 68.490597 
L 84.532694 74.161024 
L 85.086082 92.221851 
L 85.916165 132.387724 
L 88.129718 251.626484 
L 88.683107 269.927093 
L 89.236495 279.885797 
L 89.51319 281.530676 
L 89.789884 280.937508 
L 90.066578 278.138657 
L 90.343272 273.217857 
L 90.896661 257.607371 
L 91.726743 223.1962 
L 93.940297 121.459861 
L 94.493685 105.967175 
L 95.047074 97.561033 
L 95.323768 96.212175 
L 95.600462 96.797475 
L 95.877157 99.278678 
L 96.430545 109.525262 
L 96.983933 125.779437 
L 97.814016 157.881891 
L 99.474181 224.693283 
L 100.02757 240.544266 
L 100.580958 250.757939 
L 100.857652 253.482107 
L 101.134347 254.554068 
L 101.411041 253.980727 
L 101.687735 251.811693 
L 102.241123 243.000136 
L 102.794512 229.030301 
L 103.624595 201.517166 
L 105.28476 144.529111 
L 105.838148 131.054716 
L 106.391537 122.448362 
L 106.668231 120.177064 
L 106.944925 119.301305 
L 107.221619 119.819137 
L 107.498314 121.707068 
L 108.051702 129.339069 
L 108.60509 141.364583 
L 109.435173 164.899725 
L 111.095338 213.530366 
L 111.648727 224.955799 
L 112.202115 232.230105 
L 112.478809 234.142576 
L 112.755504 234.855301 
L 113.032198 234.363855 
L 113.308892 232.694951 
L 113.86228 226.087306 
L 114.415669 215.78127 
L 115.245752 195.625759 
L 116.905917 154.151884 
L 117.459305 144.442085 
L 118.012694 138.279238 
L 118.289388 136.689714 
L 118.566082 136.13108 
L 118.842776 136.59641 
L 119.119471 138.052308 
L 119.672859 143.732856 
L 120.226247 152.588985 
L 121.333024 176.143406 
L 122.716495 205.233901 
L 123.269884 213.486451 
L 123.823272 218.676488 
L 124.099966 219.99961 
L 124.376661 220.452167 
L 124.653355 220.037241 
L 124.930049 218.771565 
L 125.483437 213.854119 
L 126.036826 206.232666 
L 127.143603 186.092 
L 128.527074 161.276328 
L 129.080462 154.280347 
L 129.633851 149.895321 
L 129.910545 148.782335 
L 130.187239 148.417847 
L 130.463933 148.80282 
L 130.740628 149.918877 
L 131.294016 154.17406 
L 131.847404 160.705015 
L 132.954181 177.94411 
L 134.060958 195.423975 
L 134.891041 205.03868 
L 135.444429 208.752492 
L 135.721123 209.675606 
L 135.997818 209.955603 
L 136.274512 209.598345 
L 136.551206 208.626202 
L 137.104595 204.969069 
L 137.657983 199.358105 
L 138.76476 184.596609 
L 139.871537 169.692805 
L 140.701619 161.5166 
L 141.255008 158.390872 
L 141.531702 157.62412 
L 141.808396 157.400415 
L 142.08509 157.716449 
L 142.361785 158.560453 
L 142.915173 161.724242 
L 143.468561 166.552137 
L 144.575338 179.173288 
L 145.682115 191.891288 
L 146.512198 198.83236 
L 147.065586 201.471812 
L 147.34228 202.116058 
L 147.618975 202.293603 
L 147.895669 202.004895 
L 148.172363 201.262361 
L 148.725752 198.525455 
L 149.27914 194.388954 
L 150.385917 183.587221 
L 151.492694 172.742293 
L 152.322776 166.845315 
L 152.876165 164.610371 
L 153.152859 164.076985 
L 153.429553 163.944822 
L 153.706247 164.209452 
L 153.982942 164.855958 
L 154.53633 167.207669 
L 155.089718 170.760278 
L 156.196495 180.008679 
L 157.303272 189.254175 
L 158.133355 194.268691 
L 158.686743 196.148703 
L 158.963437 196.59023 
L 159.240132 196.692864 
L 159.516826 196.459938 
L 159.79352 195.899733 
L 160.346909 193.867373 
L 160.900297 190.810407 
L 162.007074 182.903454 
L 163.113851 175.01509 
L 163.943933 170.758454 
L 164.497322 169.172485 
L 164.774016 168.802038 
L 165.05071 168.722235 
L 165.327404 168.932257 
L 165.604099 169.423907 
L 166.157487 171.182407 
L 166.710876 173.801224 
L 167.817652 180.567433 
L 168.924429 187.294156 
L 169.754512 190.908654 
L 170.3079 192.251502 
L 170.584595 192.557989 
L 170.861289 192.614185 
L 171.137983 192.42314 
L 171.414677 191.994542 
L 171.968066 190.483786 
L 172.521454 188.235833 
L 173.628231 182.443288 
L 174.735008 176.709468 
L 175.56509 173.635754 
L 176.118479 172.506413 
L 176.395173 172.254001 
L 176.671867 172.213299 
L 176.948561 172.381137 
L 177.225256 172.751584 
L 177.778644 174.055206 
L 178.332033 175.98964 
L 179.438809 180.942309 
L 180.545586 185.833258 
L 181.375669 188.442612 
L 181.929057 189.39385 
L 182.205752 189.605048 
L 182.482446 189.63552 
L 182.75914 189.486061 
L 183.312528 188.673021 
L 183.865917 187.261786 
L 184.695999 184.348717 
L 186.632859 177.11154 
L 187.186247 175.753412 
L 187.739636 174.948304 
L 188.01633 174.773347 
L 188.293024 174.754398 
L 188.569718 174.889523 
L 189.123107 175.593962 
L 189.676495 176.804674 
L 190.506578 179.302042 
L 192.443437 185.47462 
L 192.996826 186.628915 
L 193.550214 187.306489 
L 193.826909 187.449697 
L 194.103603 187.460489 
L 194.380297 187.341522 
L 194.933685 186.734259 
L 195.487074 185.692033 
L 196.317157 183.551129 
L 198.254016 178.28561 
L 198.807404 177.307048 
L 199.360793 176.737408 
L 199.914181 176.611404 
L 200.46757 176.928968 
L 201.020958 177.651977 
L 201.851041 179.316329 
L 204.064595 184.465948 
L 204.617983 185.295061 
L 205.171371 185.776572 
L 205.72476 185.87744 
L 206.278148 185.59728 
L 206.831537 184.975037 
L 207.661619 183.548646 
L 209.875173 179.154484 
L 210.428561 178.449989 
L 210.98195 178.044106 
L 211.535338 177.965726 
L 212.088727 178.209637 
L 212.642115 178.74458 
L 213.472198 179.96959 
L 215.685752 183.718869 
L 216.23914 184.316586 
L 216.792528 184.657151 
L 217.345917 184.719915 
L 217.899305 184.50799 
L 218.452694 184.045659 
L 219.282776 182.995055 
L 221.49633 179.795502 
L 222.326413 179.117072 
L 222.879801 178.947196 
L 223.43319 179.016651 
L 223.986578 179.313785 
L 224.816661 180.105866 
L 227.860297 183.596435 
L 228.413685 183.839018 
L 228.967074 183.877326 
L 229.520462 183.714136 
L 230.350545 183.143133 
L 231.457322 181.984933 
L 232.840793 180.504581 
L 233.670876 179.905801 
L 234.224264 179.702249 
L 234.777652 179.673202 
L 235.331041 179.814541 
L 236.161123 180.306155 
L 237.2679 181.297963 
L 238.651371 182.560315 
L 239.481454 183.068435 
L 240.311537 183.269315 
L 241.141619 183.13906 
L 241.971702 182.715014 
L 243.355173 181.635934 
L 244.738644 180.620492 
L 245.568727 180.271555 
L 246.398809 180.197482 
L 247.228892 180.402809 
L 248.335669 181.011708 
L 250.825917 182.580829 
L 251.655999 182.801548 
L 252.486082 182.779553 
L 253.316165 182.530898 
L 254.422942 181.95174 
L 256.359801 180.879681 
L 257.189884 180.628948 
L 258.019966 180.580867 
L 258.850049 180.734561 
L 259.956826 181.183265 
L 262.447074 182.324289 
L 263.277157 182.480676 
L 264.107239 182.460683 
L 265.214016 182.183805 
L 268.811041 180.891453 
L 269.917818 180.882626 
L 271.024595 181.121404 
L 274.898314 182.246263 
L 276.00509 182.194751 
L 277.388561 181.865165 
L 280.155504 181.114935 
L 281.26228 181.063014 
L 282.645752 181.257795 
L 286.519471 182.075027 
L 287.902942 181.999555 
L 289.839801 181.597234 
L 291.776661 181.246397 
L 293.160132 181.225155 
L 294.820297 181.455563 
L 297.587239 181.919824 
L 298.97071 181.936435 
L 300.90757 181.691954 
L 303.674512 181.327128 
L 305.334677 181.368569 
L 310.868561 181.832713 
L 313.358809 181.563262 
L 315.572363 181.396278 
L 317.509223 181.478374 
L 321.93633 181.789097 
L 324.426578 181.623684 
L 327.470214 181.452807 
L 329.960462 181.575871 
L 333.280793 181.742494 
L 336.047735 181.618067 
L 339.368066 181.497415 
L 343.241785 181.673435 
L 346.008727 181.686306 
L 349.052363 181.553678 
L 349.052363 181.553678 
" clip-path="url(#p1bdd5223cb)" style="fill: none; stroke: #ff7f0e; stroke-width: 1.5; stroke-linecap: square"/>
   </g>
   <g id="patch_3">
    <path d="M 58.523438 333.36 
L 58.523438 7.2 
" style="fill: none; stroke: #000000; stroke-width: 0.8; stroke-linejoin: miter; stroke-linecap: square"/>
   </g>
   <g id="patch_4">
    <path d="M 362.887074 333.36 
L 362.887074 7.2 
" style="fill: none; stroke: #000000; stroke-width: 0.8; stroke-linejoin: miter; stroke-linecap: square"/>
   </g>
   <g id="patch_5">
    <path d="M 58.523438 333.36 
L 362.887074 333.36 
" style="fill: none; stroke: #000000; stroke-width: 0.8; stroke-linejoin: miter; stroke-linecap: square"/>
   </g>
   <g id="patch_6">
    <path d="M 58.523438 7.2 
L 362.887074 7.2 
" style="fill: none; stroke: #000000; stroke-width: 0.8; stroke-linejoin: miter; stroke-linecap: square"/>
   </g>
   <g id="legend_1">
    <g id="patch_7">
     <path d="M 306.244886 44.55625 
L 355.887074 44.55625 
Q 357.887074 44.55625 357.887074 42.55625 
L 357.887074 14.2 
Q 357.887074 12.2 355.887074 12.2 
L 306.244886 12.2 
Q 304.244886 12.2 304.244886 14.2 
L 304.244886 42.55625 
Q 304.244886 44.55625 306.244886 44.55625 
z
" style="fill: #ffffff; opacity: 0.8; stroke: #cccccc; stroke-linejoin: miter"/>
    </g>
    <g id="line2d_19">
     <path d="M 308.244886 20.298437 
L 318.244886 20.298437 
L 328.244886 20.298437 
" style="fill: none; stroke: #1f77b4; stroke-width: 1.5; stroke-linecap: square"/>
    </g>
    <g id="text_19">
     <!-- x(t) -->
     <g transform="translate(336.244886 23.798437)scale(0.1 -0.1)">
      <use xlink:href="#DejaVuSans-78"/>
      <use xlink:href="#DejaVuSans-28" x="59.179688"/>
      <use xlink:href="#DejaVuSans-74" x="98.193359"/>
      <use xlink:href="#DejaVuSans-29" x="137.402344"/>
     </g>
    </g>
    <g id="line2d_20">
     <path d="M 308.244886 34.976562 
L 318.244886 34.976562 
L 328.244886 34.976562 
" style="fill: none; stroke: #ff7f0e; stroke-width: 1.5; stroke-linecap: square"/>
    </g>
    <g id="text_20">
     <!-- v(t) -->
     <g transform="translate(336.244886 38.476562)scale(0.1 -0.1)">
      <defs>
       <path id="DejaVuSans-76" d="M 191 3500 
L 800 3500 
L 1894 563 
L 2988 3500 
L 3597 3500 
L 2284 0 
L 1503 0 
L 191 3500 
z
" transform="scale(0.015625)"/>
      </defs>
      <use xlink:href="#DejaVuSans-76"/>
      <use xlink:href="#DejaVuSans-28" x="59.179688"/>
      <use xlink:href="#DejaVuSans-74" x="98.193359"/>
      <use xlink:href="#DejaVuSans-29" x="137.402344"/>
     </g>
    </g>
   </g>
  </g>
  <g id="axes_2">
   <g id="patch_8">
    <path d="M 423.759801 333.36 
L 728.123437 333.36 
L 728.123437 7.2 
L 423.759801 7.2 
z
" style="fill: #ffffff"/>
   </g>
   <g id="matplotlib.axis_3">
    <g id="xtick_9">
     <g id="line2d_21">
      <g>
       <use xlink:href="#m96376e068d" x="453.680284" y="333.36" style="stroke: #000000; stroke-width: 0.8"/>
      </g>
     </g>
     <g id="text_21">
      <!-- −0.75 -->
      <g transform="translate(438.357628 347.958438)scale(0.1 -0.1)">
       <use xlink:href="#DejaVuSans-2212"/>
       <use xlink:href="#DejaVuSans-30" x="83.789062"/>
       <use xlink:href="#DejaVuSans-2e" x="147.412109"/>
       <use xlink:href="#DejaVuSans-37" x="179.199219"/>
       <use xlink:href="#DejaVuSans-35" x="242.822266"/>
      </g>
     </g>
    </g>
    <g id="xtick_10">
     <g id="line2d_22">
      <g>
       <use xlink:href="#m96376e068d" x="490.910062" y="333.36" style="stroke: #000000; stroke-width: 0.8"/>
      </g>
     </g>
     <g id="text_22">
      <!-- −0.50 -->
      <g transform="translate(475.587406 347.958438)scale(0.1 -0.1)">
       <use xlink:href="#DejaVuSans-2212"/>
       <use xlink:href="#DejaVuSans-30" x="83.789062"/>
       <use xlink:href="#DejaVuSans-2e" x="147.412109"/>
       <use xlink:href="#DejaVuSans-35" x="179.199219"/>
       <use xlink:href="#DejaVuSans-30" x="242.822266"/>
      </g>
     </g>
    </g>
    <g id="xtick_11">
     <g id="line2d_23">
      <g>
       <use xlink:href="#m96376e068d" x="528.139839" y="333.36" style="stroke: #000000; stroke-width: 0.8"/>
      </g>
     </g>
     <g id="text_23">
      <!-- −0.25 -->
      <g transform="translate(512.817183 347.958438)scale(0.1 -0.1)">
       <use xlink:href="#DejaVuSans-2212"/>
       <use xlink:href="#DejaVuSans-30" x="83.789062"/>
       <use xlink:href="#DejaVuSans-2e" x="147.412109"/>
       <use xlink:href="#DejaVuSans-32" x="179.199219"/>
       <use xlink:href="#DejaVuSans-35" x="242.822266"/>
      </g>
     </g>
    </g>
    <g id="xtick_12">
     <g id="line2d_24">
      <g>
       <use xlink:href="#m96376e068d" x="565.369617" y="333.36" style="stroke: #000000; stroke-width: 0.8"/>
      </g>
     </g>
     <g id="text_24">
      <!-- 0.00 -->
      <g transform="translate(554.236804 347.958438)scale(0.1 -0.1)">
       <use xlink:href="#DejaVuSans-30"/>
       <use xlink:href="#DejaVuSans-2e" x="63.623047"/>
       <use xlink:href="#DejaVuSans-30" x="95.410156"/>
       <use xlink:href="#DejaVuSans-30" x="159.033203"/>
      </g>
     </g>
    </g>
    <g id="xtick_13">
     <g id="line2d_25">
      <g>
       <use xlink:href="#m96376e068d" x="602.599394" y="333.36" style="stroke: #000000; stroke-width: 0.8"/>
      </g>
     </g>
     <g id="text_25">
      <!-- 0.25 -->
      <g transform="translate(591.466582 347.958438)scale(0.1 -0.1)">
       <use xlink:href="#DejaVuSans-30"/>
       <use xlink:href="#DejaVuSans-2e" x="63.623047"/>
       <use xlink:href="#DejaVuSans-32" x="95.410156"/>
       <use xlink:href="#DejaVuSans-35" x="159.033203"/>
      </g>
     </g>
    </g>
    <g id="xtick_14">
     <g id="line2d_26">
      <g>
       <use xlink:href="#m96376e068d" x="639.829172" y="333.36" style="stroke: #000000; stroke-width: 0.8"/>
      </g>
     </g>
     <g id="text_26">
      <!-- 0.50 -->
      <g transform="translate(628.696359 347.958438)scale(0.1 -0.1)">
       <use xlink:href="#DejaVuSans-30"/>
       <use xlink:href="#DejaVuSans-2e" x="63.623047"/>
       <use xlink:href="#DejaVuSans-35" x="95.410156"/>
       <use xlink:href="#DejaVuSans-30" x="159.033203"/>
      </g>
     </g>
    </g>
    <g id="xtick_15">
     <g id="line2d_27">
      <g>
       <use xlink:href="#m96376e068d" x="677.058949" y="333.36" style="stroke: #000000; stroke-width: 0.8"/>
      </g>
     </g>
     <g id="text_27">
      <!-- 0.75 -->
      <g transform="translate(665.926137 347.958438)scale(0.1 -0.1)">
       <use xlink:href="#DejaVuSans-30"/>
       <use xlink:href="#DejaVuSans-2e" x="63.623047"/>
       <use xlink:href="#DejaVuSans-37" x="95.410156"/>
       <use xlink:href="#DejaVuSans-35" x="159.033203"/>
      </g>
     </g>
    </g>
    <g id="xtick_16">
     <g id="line2d_28">
      <g>
       <use xlink:href="#m96376e068d" x="714.288727" y="333.36" style="stroke: #000000; stroke-width: 0.8"/>
      </g>
     </g>
     <g id="text_28">
      <!-- 1.00 -->
      <g transform="translate(703.155914 347.958438)scale(0.1 -0.1)">
       <use xlink:href="#DejaVuSans-31"/>
       <use xlink:href="#DejaVuSans-2e" x="63.623047"/>
       <use xlink:href="#DejaVuSans-30" x="95.410156"/>
       <use xlink:href="#DejaVuSans-30" x="159.033203"/>
      </g>
     </g>
    </g>
    <g id="text_29">
     <!-- Displacement (x) -->
     <g transform="translate(533.118963 361.636563)scale(0.1 -0.1)">
      <use xlink:href="#DejaVuSans-44"/>
      <use xlink:href="#DejaVuSans-69" x="77.001953"/>
      <use xlink:href="#DejaVuSans-73" x="104.785156"/>
      <use xlink:href="#DejaVuSans-70" x="156.884766"/>
      <use xlink:href="#DejaVuSans-6c" x="220.361328"/>
      <use xlink:href="#DejaVuSans-61" x="248.144531"/>
      <use xlink:href="#DejaVuSans-63" x="309.423828"/>
      <use xlink:href="#DejaVuSans-65" x="364.404297"/>
      <use xlink:href="#DejaVuSans-6d" x="425.927734"/>
      <use xlink:href="#DejaVuSans-65" x="523.339844"/>
      <use xlink:href="#DejaVuSans-6e" x="584.863281"/>
      <use xlink:href="#DejaVuSans-74" x="648.242188"/>
      <use xlink:href="#DejaVuSans-20" x="687.451172"/>
      <use xlink:href="#DejaVuSans-28" x="719.238281"/>
      <use xlink:href="#DejaVuSans-78" x="758.251953"/>
      <use xlink:href="#DejaVuSans-29" x="817.431641"/>
     </g>
    </g>
   </g>
   <g id="matplotlib.axis_4">
    <g id="ytick_9">
     <g id="line2d_29">
      <g>
       <use xlink:href="#m5e9db05997" x="423.759801" y="329.250876" style="stroke: #000000; stroke-width: 0.8"/>
      </g>
     </g>
     <g id="text_30">
      <!-- −1.00 -->
      <g transform="translate(386.114489 333.050094)scale(0.1 -0.1)">
       <use xlink:href="#DejaVuSans-2212"/>
       <use xlink:href="#DejaVuSans-31" x="83.789062"/>
       <use xlink:href="#DejaVuSans-2e" x="147.412109"/>
       <use xlink:href="#DejaVuSans-30" x="179.199219"/>
       <use xlink:href="#DejaVuSans-30" x="242.822266"/>
      </g>
     </g>
    </g>
    <g id="ytick_10">
     <g id="line2d_30">
      <g>
       <use xlink:href="#m5e9db05997" x="423.759801" y="292.021098" style="stroke: #000000; stroke-width: 0.8"/>
      </g>
     </g>
     <g id="text_31">
      <!-- −0.75 -->
      <g transform="translate(386.114489 295.820317)scale(0.1 -0.1)">
       <use xlink:href="#DejaVuSans-2212"/>
       <use xlink:href="#DejaVuSans-30" x="83.789062"/>
       <use xlink:href="#DejaVuSans-2e" x="147.412109"/>
       <use xlink:href="#DejaVuSans-37" x="179.199219"/>
       <use xlink:href="#DejaVuSans-35" x="242.822266"/>
      </g>
     </g>
    </g>
    <g id="ytick_11">
     <g id="line2d_31">
      <g>
       <use xlink:href="#m5e9db05997" x="423.759801" y="254.791321" style="stroke: #000000; stroke-width: 0.8"/>
      </g>
     </g>
     <g id="text_32">
      <!-- −0.50 -->
      <g transform="translate(386.114489 258.590539)scale(0.1 -0.1)">
       <use xlink:href="#DejaVuSans-2212"/>
       <use xlink:href="#DejaVuSans-30" x="83.789062"/>
       <use xlink:href="#DejaVuSans-2e" x="147.412109"/>
       <use xlink:href="#DejaVuSans-35" x="179.199219"/>
       <use xlink:href="#DejaVuSans-30" x="242.822266"/>
      </g>
     </g>
    </g>
    <g id="ytick_12">
     <g id="line2d_32">
      <g>
       <use xlink:href="#m5e9db05997" x="423.759801" y="217.561543" style="stroke: #000000; stroke-width: 0.8"/>
      </g>
     </g>
     <g id="text_33">
      <!-- −0.25 -->
      <g transform="translate(386.114489 221.360762)scale(0.1 -0.1)">
       <use xlink:href="#DejaVuSans-2212"/>
       <use xlink:href="#DejaVuSans-30" x="83.789062"/>
       <use xlink:href="#DejaVuSans-2e" x="147.412109"/>
       <use xlink:href="#DejaVuSans-32" x="179.199219"/>
       <use xlink:href="#DejaVuSans-35" x="242.822266"/>
      </g>
     </g>
    </g>
    <g id="ytick_13">
     <g id="line2d_33">
      <g>
       <use xlink:href="#m5e9db05997" x="423.759801" y="180.331766" style="stroke: #000000; stroke-width: 0.8"/>
      </g>
     </g>
     <g id="text_34">
      <!-- 0.00 -->
      <g transform="translate(394.494176 184.130984)scale(0.1 -0.1)">
       <use xlink:href="#DejaVuSans-30"/>
       <use xlink:href="#DejaVuSans-2e" x="63.623047"/>
       <use xlink:href="#DejaVuSans-30" x="95.410156"/>
       <use xlink:href="#DejaVuSans-30" x="159.033203"/>
      </g>
     </g>
    </g>
    <g id="ytick_14">
     <g id="line2d_34">
      <g>
       <use xlink:href="#m5e9db05997" x="423.759801" y="143.101988" style="stroke: #000000; stroke-width: 0.8"/>
      </g>
     </g>
     <g id="text_35">
      <!-- 0.25 -->
      <g transform="translate(394.494176 146.901207)scale(0.1 -0.1)">
       <use xlink:href="#DejaVuSans-30"/>
       <use xlink:href="#DejaVuSans-2e" x="63.623047"/>
       <use xlink:href="#DejaVuSans-32" x="95.410156"/>
       <use xlink:href="#DejaVuSans-35" x="159.033203"/>
      </g>
     </g>
    </g>
    <g id="ytick_15">
     <g id="line2d_35">
      <g>
       <use xlink:href="#m5e9db05997" x="423.759801" y="105.872211" style="stroke: #000000; stroke-width: 0.8"/>
      </g>
     </g>
     <g id="text_36">
      <!-- 0.50 -->
      <g transform="translate(394.494176 109.671429)scale(0.1 -0.1)">
       <use xlink:href="#DejaVuSans-30"/>
       <use xlink:href="#DejaVuSans-2e" x="63.623047"/>
       <use xlink:href="#DejaVuSans-35" x="95.410156"/>
       <use xlink:href="#DejaVuSans-30" x="159.033203"/>
      </g>
     </g>
    </g>
    <g id="ytick_16">
     <g id="line2d_36">
      <g>
       <use xlink:href="#m5e9db05997" x="423.759801" y="68.642433" style="stroke: #000000; stroke-width: 0.8"/>
      </g>
     </g>
     <g id="text_37">
      <!-- 0.75 -->
      <g transform="translate(394.494176 72.441652)scale(0.1 -0.1)">
       <use xlink:href="#DejaVuSans-30"/>
       <use xlink:href="#DejaVuSans-2e" x="63.623047"/>
       <use xlink:href="#DejaVuSans-37" x="95.410156"/>
       <use xlink:href="#DejaVuSans-35" x="159.033203"/>
      </g>
     </g>
    </g>
    <g id="ytick_17">
     <g id="line2d_37">
      <g>
       <use xlink:href="#m5e9db05997" x="423.759801" y="31.412656" style="stroke: #000000; stroke-width: 0.8"/>
      </g>
     </g>
     <g id="text_38">
      <!-- 1.00 -->
      <g transform="translate(394.494176 35.211874)scale(0.1 -0.1)">
       <use xlink:href="#DejaVuSans-31"/>
       <use xlink:href="#DejaVuSans-2e" x="63.623047"/>
       <use xlink:href="#DejaVuSans-30" x="95.410156"/>
       <use xlink:href="#DejaVuSans-30" x="159.033203"/>
      </g>
     </g>
    </g>
    <g id="text_39">
     <!-- Velocity (v) -->
     <g transform="translate(380.034801 198.345625)rotate(-90)scale(0.1 -0.1)">
      <defs>
       <path id="DejaVuSans-56" d="M 1831 0 
L 50 4666 
L 709 4666 
L 2188 738 
L 3669 4666 
L 4325 4666 
L 2547 0 
L 1831 0 
z
" transform="scale(0.015625)"/>
       <path id="DejaVuSans-6f" d="M 1959 3097 
Q 1497 3097 1228 2736 
Q 959 2375 959 1747 
Q 959 1119 1226 758 
Q 1494 397 1959 397 
Q 2419 397 2687 759 
Q 2956 1122 2956 1747 
Q 2956 2369 2687 2733 
Q 2419 3097 1959 3097 
z
M 1959 3584 
Q 2709 3584 3137 3096 
Q 3566 2609 3566 1747 
Q 3566 888 3137 398 
Q 2709 -91 1959 -91 
Q 1206 -91 779 398 
Q 353 888 353 1747 
Q 353 2609 779 3096 
Q 1206 3584 1959 3584 
z
" transform="scale(0.015625)"/>
       <path id="DejaVuSans-79" d="M 2059 -325 
Q 1816 -950 1584 -1140 
Q 1353 -1331 966 -1331 
L 506 -1331 
L 506 -850 
L 844 -850 
Q 1081 -850 1212 -737 
Q 1344 -625 1503 -206 
L 1606 56 
L 191 3500 
L 800 3500 
L 1894 763 
L 2988 3500 
L 3597 3500 
L 2059 -325 
z
" transform="scale(0.015625)"/>
      </defs>
      <use xlink:href="#DejaVuSans-56"/>
      <use xlink:href="#DejaVuSans-65" x="60.658203"/>
      <use xlink:href="#DejaVuSans-6c" x="122.181641"/>
      <use xlink:href="#DejaVuSans-6f" x="149.964844"/>
      <use xlink:href="#DejaVuSans-63" x="211.146484"/>
      <use xlink:href="#DejaVuSans-69" x="266.126953"/>
      <use xlink:href="#DejaVuSans-74" x="293.910156"/>
      <use xlink:href="#DejaVuSans-79" x="333.119141"/>
      <use xlink:href="#DejaVuSans-20" x="392.298828"/>
      <use xlink:href="#DejaVuSans-28" x="424.085938"/>
      <use xlink:href="#DejaVuSans-76" x="463.099609"/>
      <use xlink:href="#DejaVuSans-29" x="522.279297"/>
     </g>
    </g>
   </g>
   <g id="line2d_38">
    <path d="M 714.288727 180.331766 
L 710.41608 158.243181 
L 703.369039 136.971619 
L 693.350827 116.986836 
L 680.625914 98.71563 
L 665.519892 82.534956 
L 648.406187 68.760298 
L 629.697088 57.667953 
L 609.83645 49.486414 
L 589.277864 44.362031 
L 568.484553 42.358877 
L 547.929374 43.458746 
L 528.071189 47.571839 
L 509.328347 54.57285 
L 492.122953 64.275014 
L 476.821139 76.43308 
L 463.730691 90.743908 
L 453.101043 106.846463 
L 445.121684 124.329001 
L 439.921484 142.800015 
L 437.594512 161.828733 
L 438.165745 180.981095 
L 441.584972 199.834481 
L 447.72679 217.977717 
L 456.39061 235.011069 
L 467.334997 250.574718 
L 480.299003 264.346194 
L 494.96627 276.029793 
L 510.990851 285.393576 
L 527.997281 292.269441 
L 545.580585 296.553122 
L 563.345202 298.201123 
L 580.894156 297.205618 
L 597.827013 293.611838 
L 613.776126 287.528537 
L 628.406638 279.127988 
L 641.416475 268.64598 
L 652.540943 256.372783 
L 661.570198 242.591477 
L 668.317565 227.630718 
L 672.656015 211.83824 
L 674.524008 195.572771 
L 673.925488 179.204039 
L 670.928721 163.109718 
L 665.637233 147.629107 
L 658.192651 133.108721 
L 648.783359 119.868108 
L 637.641115 108.182598 
L 625.041048 98.283302 
L 611.30166 90.357113 
L 596.75606 84.541595 
L 581.724573 80.937616 
L 566.557574 79.609107 
L 551.593381 80.560656 
L 537.157386 83.737215 
L 523.562055 89.0241 
L 511.103117 96.251326 
L 500.031294 105.238389 
L 490.583731 115.763857 
L 482.953663 127.574537 
L 477.28263 140.391956 
L 473.660472 153.912369 
L 472.125516 167.815327 
L 472.679044 181.797538 
L 475.290856 195.534948 
L 479.882812 208.721775 
L 486.327873 221.075921 
L 494.450093 232.338977 
L 504.024625 242.276218 
L 514.810279 250.691636 
L 526.561661 257.418845 
L 539.000778 262.320094 
L 551.844105 265.308981 
L 564.802624 266.350477 
L 577.581824 265.460927 
L 589.897542 262.700511 
L 601.490175 258.151089 
L 612.099096 251.933273 
L 621.499244 244.203645 
L 629.502283 235.154436 
L 635.956597 225.013533 
L 640.748413 214.039084 
L 643.800981 202.475835 
L 645.059698 190.593767 
L 644.513512 178.663297 
L 642.198121 166.947215 
L 638.195978 155.700686 
L 632.636288 145.171251 
L 625.671747 135.58016 
L 617.468334 127.126569 
L 608.225707 119.991228 
L 598.161477 114.314943 
L 587.511197 110.198575 
L 576.528253 107.703027 
L 565.457709 106.851817 
L 554.548378 107.646571 
L 544.048325 110.055014 
L 534.184877 114.005444 
L 525.164624 119.386731 
L 517.173413 126.048322 
L 510.372918 133.807243 
L 504.891298 142.485652 
L 500.841796 151.876457 
L 498.299677 161.761941 
L 497.299352 171.917878 
L 497.834378 182.113533 
L 499.858462 192.114138 
L 503.304589 201.709619 
L 508.081167 210.684762 
L 514.067823 218.842746 
L 521.117437 226.014548 
L 529.056146 232.058951 
L 537.683339 236.862538 
L 546.791946 240.343017 
L 556.18064 242.439858 
L 565.631002 243.116781 
L 574.932736 242.374537 
L 583.883915 240.250989 
L 592.290984 236.821107 
L 599.971648 232.193594 
L 606.771761 226.48275 
L 612.545587 219.829197 
L 617.175641 212.39253 
L 620.576802 204.347787 
L 622.696315 195.885445 
L 623.51355 187.20546 
L 623.030323 178.496916 
L 621.268558 169.961551 
L 618.279978 161.78895 
L 614.146582 154.153579 
L 608.98064 147.214781 
L 602.924699 141.116782 
L 596.129874 135.97899 
L 588.751026 131.90318 
L 580.962345 128.972352 
L 572.941044 127.237435 
L 564.867361 126.717276 
L 556.924558 127.398651 
L 549.288732 129.24135 
L 542.120772 132.191918 
L 535.581555 136.172567 
L 529.809442 141.083424 
L 524.919652 146.802712 
L 521.00426 153.18675 
L 518.131468 160.073753 
L 516.346801 167.310585 
L 515.681706 174.728198 
L 516.14031 182.158101 
L 517.697686 189.436914 
L 520.29985 196.406364 
L 523.86376 202.913291 
L 528.292636 208.821504 
L 533.481072 214.008269 
L 539.303087 218.363122 
L 545.621843 221.800611 
L 552.289647 224.260292 
L 559.148135 225.706746 
L 566.045246 226.127542 
L 572.825315 225.523823 
L 579.334637 223.918226 
L 585.432649 221.357839 
L 590.991939 217.914204 
L 595.898235 213.683316 
L 600.052859 208.780452 
L 603.377588 203.317463 
L 605.80386 197.424716 
L 607.28716 191.238513 
L 607.808462 184.898963 
L 607.374229 178.549986 
L 606.015625 172.337462 
L 603.776063 166.391522 
L 600.714692 160.845646 
L 596.908365 155.821086 
L 592.450394 151.421589 
L 587.45055 147.733402 
L 582.035065 144.825267 
L 576.332734 142.746341 
L 570.470049 141.532786 
L 564.583119 141.20499 
L 558.802664 141.760278 
L 553.253957 143.172889 
L 548.056825 145.393979 
L 543.32359 148.354087 
L 539.14901 151.980744 
L 535.622535 156.184756 
L 532.815593 160.86555 
L 530.779334 165.913165 
L 529.544633 171.208244 
L 529.122318 176.625975 
L 529.509516 182.048546 
L 530.69061 187.35043 
L 532.631517 192.414049 
L 535.279438 197.131512 
L 538.562863 201.404616 
L 542.39157 205.144841 
L 546.670606 208.279391 
L 551.302446 210.746234 
L 556.177926 212.495368 
L 561.186292 213.496823 
L 566.215203 213.74066 
L 571.150732 213.236969 
L 575.883608 212.012592 
L 580.314329 210.102404 
L 584.343601 207.556509 
L 587.886338 204.438551 
L 590.87206 200.825585 
L 593.244901 196.808077 
L 594.964047 192.487423 
L 596.002655 187.959505 
L 596.342785 183.330073 
L 595.983539 178.70414 
L 594.942065 174.183268 
L 593.253554 169.865569 
L 590.971244 165.845707 
L 588.156716 162.207631 
L 584.876734 159.026749 
L 581.210794 156.370622 
L 577.2449 154.291126 
L 573.071567 152.824455 
L 568.789681 151.991113 
L 564.493867 151.797374 
L 560.281137 152.241032 
L 556.246843 153.306442 
L 552.477946 154.962834 
L 549.053011 157.164309 
L 546.042208 159.849846 
L 543.505765 162.946691 
L 541.491269 166.384399 
L 540.040137 170.081008 
L 539.178711 173.951157 
L 538.917427 177.90734 
L 539.25081 181.859912 
L 540.157987 185.718205 
L 541.610668 189.401547 
L 543.570724 192.827395 
L 545.989111 195.920954 
L 548.806723 198.618496 
L 551.954394 200.867362 
L 555.352895 202.62596 
L 558.921747 203.864965 
L 562.58175 204.563034 
L 566.248027 204.708802 
L 569.839283 204.305235 
L 573.277826 203.369643 
L 576.489574 201.933676 
L 579.405308 200.04178 
L 581.966847 197.740056 
L 584.119386 195.084964 
L 585.819434 192.139881 
L 587.03623 188.973823 
L 587.751742 185.661444 
L 587.960498 182.2808 
L 587.665583 178.905168 
L 586.877982 175.612583 
L 585.620041 172.476071 
L 583.92562 169.562382 
L 581.840096 166.931991 
L 579.420359 164.639096 
L 576.72665 162.728228 
L 573.82 161.236826 
L 570.76892 160.19508 
L 567.642645 159.620665 
L 564.511127 159.518745 
L 561.445034 159.881966 
L 558.512432 160.692301 
L 555.774553 161.926961 
L 553.292678 163.553704 
L 551.119223 165.532011 
L 549.297334 167.813229 
L 547.860889 170.340567 
L 546.834269 173.05044 
L 546.233077 175.882697 
L 546.067396 178.771315 
L 546.336811 181.65076 
L 547.029723 184.457888 
L 548.123351 187.131946 
L 549.583729 189.61457 
L 551.371227 191.853814 
L 553.4438 193.803694 
L 555.75125 195.422735 
L 558.239563 196.679338 
L 560.850916 197.551794 
L 563.523683 198.028283 
L 566.198398 198.106017 
L 568.815379 197.787577 
L 571.315188 197.083625 
L 573.643875 196.014093 
L 575.752984 194.608183 
L 577.599552 192.904371 
L 579.146774 190.94888 
L 580.366009 188.786299 
L 581.232362 186.467976 
L 581.730104 184.047483 
L 581.853435 181.579424 
L 581.60649 179.119432 
L 581.003188 176.723864 
L 580.062411 174.442995 
L 578.808635 172.327325 
L 577.273196 170.423235 
L 575.493437 168.770009 
L 573.512713 167.399837 
L 571.38039 166.337816 
L 569.147486 165.601411 
L 566.863081 165.202763 
L 564.580251 165.148196 
L 562.349676 165.435194 
L 560.219519 166.052365 
L 558.235435 166.979442 
L 556.440105 168.187864 
L 554.869178 169.647918 
L 553.556026 171.324075 
L 552.527309 173.176342 
L 551.801649 175.161485 
L 551.389628 177.23303 
L 551.293853 179.341977 
L 551.511214 181.442775 
L 552.033982 183.487177 
L 552.8476 185.429582 
L 553.930525 187.228585 
L 555.25423 188.846979 
L 556.783202 190.25176 
L 558.478376 191.415478 
L 560.301962 192.316084 
L 562.210878 192.935266 
L 564.161756 193.262443 
L 566.111112 193.294858 
L 568.015347 193.037581 
L 569.831783 192.502889 
L 571.522962 191.705926 
L 573.051248 190.667388 
L 574.384151 189.413072 
L 575.495139 187.973577 
L 576.363646 186.384293 
L 576.975122 184.685061 
L 577.320813 182.913942 
L 577.395283 181.11187 
L 577.199297 179.319927 
L 576.740502 177.577431 
L 576.033436 175.921928 
L 575.099518 174.389202 
L 573.964834 173.011692 
L 572.655709 171.817004 
L 571.203843 170.830677 
L 569.643183 170.07212 
L 568.009755 169.554458 
L 566.341667 169.284534 
L 564.676975 169.263245 
L 563.051658 169.487905 
L 561.502937 169.951288 
L 560.064472 170.640588 
L 558.766219 171.537413 
L 557.634424 172.617784 
L 556.691521 173.852382 
L 555.954631 175.212382 
L 555.438411 176.665996 
L 555.152406 178.179437 
L 555.099965 179.718613 
L 555.278244 181.24913 
L 555.6782 182.736289 
L 556.286614 184.147916 
L 557.087996 185.454058 
L 558.062226 186.625717 
L 559.185725 187.63851 
L 560.431468 188.472672 
L 561.768978 189.113065 
L 563.165669 189.549323 
L 564.59117 189.774931 
L 566.012356 189.786452 
L 567.397482 189.585762 
L 568.716653 189.180191 
L 569.941815 188.582514 
L 571.046789 187.810927 
L 572.009516 186.885242 
L 572.810121 185.827461 
L 573.432084 184.66293 
L 573.863991 183.418721 
L 574.099535 182.12363 
L 574.137517 180.808169 
L 573.980896 179.501339 
L 573.635205 178.232184 
L 573.109931 177.029452 
L 572.418699 175.918984 
L 571.57927 174.92372 
L 570.613539 174.063694 
L 569.546859 173.355777 
L 568.403061 172.812763 
L 567.208949 172.445572 
L 565.991843 172.260675 
L 564.7788 172.259665 
L 563.596608 172.439247 
L 562.471757 172.791272 
L 561.427742 173.305108 
L 560.487001 173.967687 
L 559.669859 174.762492 
L 558.992764 175.670301 
L 558.46828 176.669191 
L 558.105095 177.734536 
L 557.90801 178.841654 
L 557.879575 179.965683 
L 558.019046 181.08067 
L 558.321483 182.162035 
L 558.777753 183.186561 
L 559.374523 184.132403 
L 560.094679 184.979367 
L 560.921284 185.710859 
L 561.834558 186.31138 
L 562.813076 186.768862 
L 563.834404 187.075253 
L 564.875101 187.226512 
L 565.91097 187.222567 
L 566.919983 187.066039 
L 567.879307 186.761896 
L 568.767732 186.318371 
L 569.566612 185.74698 
L 570.259867 185.062517 
L 570.83398 184.283056 
L 571.278475 183.428144 
L 571.585285 182.516883 
L 571.74855 181.57074 
L 571.766233 180.611111 
L 571.640138 179.659263 
L 571.375917 178.736341 
L 570.982774 177.862994 
L 570.470861 177.057071 
L 569.852971 176.336344 
L 569.144075 175.716098 
L 568.361013 175.208575 
L 567.522495 174.822978 
L 566.648981 174.565454 
L 565.759764 174.439302 
L 564.875136 174.446155 
L 564.015136 174.584679 
L 563.19841 174.850235 
L 562.442215 175.234876 
L 561.762414 175.727344 
L 561.172955 176.313997 
L 560.685257 176.981339 
L 560.309559 177.713301 
L 560.052963 178.492857 
L 559.919325 179.302168 
L 559.909255 180.122583 
L 560.020271 180.93515 
L 560.24825 181.722724 
L 560.586952 182.467345 
L 561.027722 183.152716 
L 561.559529 183.76458 
L 562.168972 184.290718 
L 562.840276 184.72095 
L 563.557363 185.047613 
L 564.304223 185.264689 
L 565.063464 185.368163 
L 565.818137 185.357042 
L 566.551738 185.233358 
L 567.248207 185.002167 
L 567.892307 184.671177 
L 568.471002 184.248674 
L 569.384169 183.172928 
L 569.915742 181.877804 
L 570.033325 180.485058 
L 569.736984 179.120403 
L 569.062291 177.903175 
L 568.083524 176.935185 
L 566.895762 176.294254 
L 565.608411 176.029535 
L 564.337809 176.1508 
L 563.195195 176.635143 
L 562.279213 177.432063 
L 561.662321 178.461181 
L 561.388284 179.623686 
L 561.474223 180.813728 
L 561.901869 181.926561 
L 562.620394 182.866453 
L 563.55968 183.554755 
L 564.631299 183.938202 
L 565.736176 183.994507 
L 566.77565 183.726429 
L 567.660193 183.165475 
L 568.317608 182.372791 
L 568.696367 181.424447 
L 568.769509 180.407528 
L 568.541898 179.413825 
L 568.042704 178.530065 
L 567.321763 177.832211 
L 566.450036 177.374885 
L 565.509481 177.190031 
L 564.584885 177.288424 
L 563.756501 177.652764 
L 563.094179 178.240801 
L 562.652344 178.995544 
L 562.463353 179.846133 
L 562.534404 180.714399 
L 562.853273 181.522862 
L 563.385797 182.202245 
L 564.076276 182.697443 
L 564.859775 182.969965 
L 565.665193 183.000899 
L 566.420948 182.796489 
L 567.062012 182.381855 
L 567.534192 181.798202 
L 567.802087 181.102627 
L 567.848989 180.359998 
L 567.675168 179.637207 
L 567.30283 178.996762 
L 566.772389 178.492392 
L 566.134165 178.165389 
L 565.447116 178.039249 
L 564.773426 178.117571 
L 564.172516 178.388734 
L 563.695149 178.824075 
L 563.37871 179.378559 
L 563.246692 180.000269 
L 563.306567 180.632939 
L 563.545884 181.220517 
L 563.938093 181.712671 
L 564.445242 182.067937 
L 565.018894 182.259992 
L 565.606386 182.277503 
L 566.155254 182.122412 
L 566.61878 181.81364 
L 566.959084 181.38441 
L 567.149033 180.875258 
L 567.176139 180.332954 
L 567.044245 179.806519 
L 566.76886 179.342072 
L 566.377538 178.978943 
L 565.659956 178.682566 
L 564.91783 178.721063 
L 564.296058 179.071636 
L 563.911113 179.65181 
L 563.826997 180.339252 
L 564.046871 180.994652 
L 564.515559 181.492051 
L 565.12915 181.741888 
L 565.762807 181.705247 
L 566.292154 181.403598 
L 566.617772 180.905611 
L 566.686895 180.318203 
L 566.495289 179.75943 
L 566.093467 179.336433 
L 565.568303 179.1265 
L 565.027333 179.159998 
L 564.577262 179.42063 
L 564.301113 179.84743 
L 564.24525 180.349347 
L 564.411276 180.825981 
L 564.756098 181.185342 
L 565.205707 181.362191 
L 565.667271 181.331259 
L 566.050286 181.106033 
L 566.284263 180.740568 
L 566.32913 180.3114 
L 566.185707 179.904928 
L 565.889263 179.599918 
L 565.504601 179.45059 
L 565.110882 179.479572 
L 564.784773 179.673584 
L 564.586939 179.986831 
L 564.574937 180.475113 
L 564.833312 180.885975 
L 565.25849 181.085238 
L 565.696489 181.016701 
L 565.998144 180.720309 
L 566.06897 180.309034 
L 565.898201 179.929743 
L 565.558271 179.708659 
L 565.17411 179.712302 
L 564.878663 179.925458 
L 564.767005 180.264383 
L 564.866494 180.60613 
L 565.130659 180.835087 
L 565.460584 180.879599 
L 565.74039 180.736027 
L 565.878094 180.463323 
L 565.797751 180.094971 
L 565.501995 179.875726 
L 565.158951 179.908097 
L 564.949823 180.157637 
L 564.973118 180.478935 
L 565.199617 180.700908 
L 565.497907 180.715948 
L 565.708076 180.530868 
L 565.727898 180.256414 
L 565.56111 180.040703 
L 565.258188 180.004227 
L 565.062144 180.208262 
L 565.105781 180.484051 
L 565.336691 180.625651 
L 565.571467 180.542208 
L 565.639836 180.313591 
L 565.506644 180.117737 
L 565.252458 180.108908 
L 565.135523 180.313751 
L 565.253751 180.515325 
L 565.470822 180.521537 
L 565.569581 180.345905 
L 565.441631 180.161597 
L 565.241606 180.20288 
L 565.218302 180.394506 
L 565.402724 180.485642 
L 565.51546 180.340163 
L 565.40062 180.200715 
L 565.248925 180.288318 
L 565.326983 180.438706 
L 565.472973 180.368211 
L 565.390837 180.235896 
L 565.2789 180.314758 
L 565.278741 180.328393 
L 565.377302 180.415271 
L 565.401052 180.409341 
L 565.42133 180.396757 
L 565.42133 180.396757 
" clip-path="url(#p951207e957)" style="fill: none; stroke: #000000; stroke-width: 1.5; stroke-linecap: square"/>
   </g>
   <g id="patch_9">
    <path d="M 423.759801 333.36 
L 423.759801 7.2 
" style="fill: none; stroke: #000000; stroke-width: 0.8; stroke-linejoin: miter; stroke-linecap: square"/>
   </g>
   <g id="patch_10">
    <path d="M 728.123437 333.36 
L 728.123437 7.2 
" style="fill: none; stroke: #000000; stroke-width: 0.8; stroke-linejoin: miter; stroke-linecap: square"/>
   </g>
   <g id="patch_11">
    <path d="M 423.759801 333.36 
L 728.123437 333.36 
" style="fill: none; stroke: #000000; stroke-width: 0.8; stroke-linejoin: miter; stroke-linecap: square"/>
   </g>
   <g id="patch_12">
    <path d="M 423.759801 7.2 
L 728.123437 7.2 
" style="fill: none; stroke: #000000; stroke-width: 0.8; stroke-linejoin: miter; stroke-linecap: square"/>
   </g>
  </g>
 </g>
 <defs>
  <clipPath id="p1bdd5223cb">
   <rect x="58.523438" y="7.2" width="304.363636" height="326.16"/>
  </clipPath>
  <clipPath id="p951207e957">
   <rect x="423.759801" y="7.2" width="304.363636" height="326.16"/>
  </clipPath>
 </defs>
</svg>
