<?xml version="1.0" encoding="utf-8" standalone="no"?>
<!DOCTYPE svg PUBLIC "-//W3C//DTD SVG 1.1//EN"
  "http://www.w3.org/Graphics/SVG/1.1/DTD/svg11.dtd">
<svg xmlns:xlink="http://www.w3.org/1999/xlink" width="735.323437pt" height="316.55625pt" viewBox="0 0 735.323437 316.55625" xmlns="http://www.w3.org/2000/svg" version="1.1">
 <metadata>
  <rdf:RDF xmlns:dc="http://purl.org/dc/elements/1.1/" xmlns:cc="http://creativecommons.org/ns#" xmlns:rdf="http://www.w3.org/1999/02/22-rdf-syntax-ns#">
   <cc:Work>
    <dc:type rdf:resource="http://purl.org/dc/dcmitype/StillImage"/>
    <dc:date>2024-09-27T18:22:35.038916</dc:date>
    <dc:format>image/svg+xml</dc:format>
    <dc:creator>
     <cc:Agent>
      <dc:title>Matplotlib v3.5.2, https://matplotlib.org/</dc:title>
     </cc:Agent>
    </dc:creator>
   </cc:Work>
  </rdf:RDF>
 </metadata>
 <defs>
  <style type="text/css">*{stroke-linejoin: round; stroke-linecap: butt}</style>
 </defs>
 <g id="figure_1">
  <g id="patch_1">
   <path d="M 0 316.55625 
L 735.323437 316.55625 
L 735.323437 0 
L 0 0 
z
" style="fill: #ffffff"/>
  </g>
  <g id="axes_1">
   <g id="patch_2">
    <path d="M 58.523438 279 
L 362.887074 279 
L 362.887074 7.2 
L 58.523438 7.2 
z
" style="fill: #ffffff"/>
   </g>
   <g id="matplotlib.axis_1">
    <g id="xtick_1">
     <g id="line2d_1">
      <defs>
       <path id="mbdedf30d07" d="M 0 0 
L 0 3.5 
" style="stroke: #000000; stroke-width: 0.8"/>
      </defs>
      <g>
       <use xlink:href="#mbdedf30d07" x="72.358148" y="279" style="stroke: #000000; stroke-width: 0.8"/>
      </g>
     </g>
     <g id="text_1">
      <!-- 0 -->
      <g transform="translate(69.176898 293.598437)scale(0.1 -0.1)">
       <defs>
        <path id="DejaVuSans-30" d="M 2034 4250 
Q 1547 4250 1301 3770 
Q 1056 3291 1056 2328 
Q 1056 1369 1301 889 
Q 1547 409 2034 409 
Q 2525 409 2770 889 
Q 3016 1369 3016 2328 
Q 3016 3291 2770 3770 
Q 2525 4250 2034 4250 
z
M 2034 4750 
Q 2819 4750 3233 4129 
Q 3647 3509 3647 2328 
Q 3647 1150 3233 529 
Q 2819 -91 2034 -91 
Q 1250 -91 836 529 
Q 422 1150 422 2328 
Q 422 3509 836 4129 
Q 1250 4750 2034 4750 
z
" transform="scale(0.015625)"/>
       </defs>
       <use xlink:href="#DejaVuSans-30"/>
      </g>
     </g>
    </g>
    <g id="xtick_2">
     <g id="line2d_2">
      <g>
       <use xlink:href="#mbdedf30d07" x="106.944925" y="279" style="stroke: #000000; stroke-width: 0.8"/>
      </g>
     </g>
     <g id="text_2">
      <!-- 25 -->
      <g transform="translate(100.582425 293.598437)scale(0.1 -0.1)">
       <defs>
        <path id="DejaVuSans-32" d="M 1228 531 
L 3431 531 
L 3431 0 
L 469 0 
L 469 531 
Q 828 903 1448 1529 
Q 2069 2156 2228 2338 
Q 2531 2678 2651 2914 
Q 2772 3150 2772 3378 
Q 2772 3750 2511 3984 
Q 2250 4219 1831 4219 
Q 1534 4219 1204 4116 
Q 875 4013 500 3803 
L 500 4441 
Q 881 4594 1212 4672 
Q 1544 4750 1819 4750 
Q 2544 4750 2975 4387 
Q 3406 4025 3406 3419 
Q 3406 3131 3298 2873 
Q 3191 2616 2906 2266 
Q 2828 2175 2409 1742 
Q 1991 1309 1228 531 
z
" transform="scale(0.015625)"/>
        <path id="DejaVuSans-35" d="M 691 4666 
L 3169 4666 
L 3169 4134 
L 1269 4134 
L 1269 2991 
Q 1406 3038 1543 3061 
Q 1681 3084 1819 3084 
Q 2600 3084 3056 2656 
Q 3513 2228 3513 1497 
Q 3513 744 3044 326 
Q 2575 -91 1722 -91 
Q 1428 -91 1123 -41 
Q 819 9 494 109 
L 494 744 
Q 775 591 1075 516 
Q 1375 441 1709 441 
Q 2250 441 2565 725 
Q 2881 1009 2881 1497 
Q 2881 1984 2565 2268 
Q 2250 2553 1709 2553 
Q 1456 2553 1204 2497 
Q 953 2441 691 2322 
L 691 4666 
z
" transform="scale(0.015625)"/>
       </defs>
       <use xlink:href="#DejaVuSans-32"/>
       <use xlink:href="#DejaVuSans-35" x="63.623047"/>
      </g>
     </g>
    </g>
    <g id="xtick_3">
     <g id="line2d_3">
      <g>
       <use xlink:href="#mbdedf30d07" x="141.531702" y="279" style="stroke: #000000; stroke-width: 0.8"/>
      </g>
     </g>
     <g id="text_3">
      <!-- 50 -->
      <g transform="translate(135.169202 293.598437)scale(0.1 -0.1)">
       <use xlink:href="#DejaVuSans-35"/>
       <use xlink:href="#DejaVuSans-30" x="63.623047"/>
      </g>
     </g>
    </g>
    <g id="xtick_4">
     <g id="line2d_4">
      <g>
       <use xlink:href="#mbdedf30d07" x="176.118479" y="279" style="stroke: #000000; stroke-width: 0.8"/>
      </g>
     </g>
     <g id="text_4">
      <!-- 75 -->
      <g transform="translate(169.755979 293.598437)scale(0.1 -0.1)">
       <defs>
        <path id="DejaVuSans-37" d="M 525 4666 
L 3525 4666 
L 3525 4397 
L 1831 0 
L 1172 0 
L 2766 4134 
L 525 4134 
L 525 4666 
z
" transform="scale(0.015625)"/>
       </defs>
       <use xlink:href="#DejaVuSans-37"/>
       <use xlink:href="#DejaVuSans-35" x="63.623047"/>
      </g>
     </g>
    </g>
    <g id="xtick_5">
     <g id="line2d_5">
      <g>
       <use xlink:href="#mbdedf30d07" x="210.705256" y="279" style="stroke: #000000; stroke-width: 0.8"/>
      </g>
     </g>
     <g id="text_5">
      <!-- 100 -->
      <g transform="translate(201.161506 293.598437)scale(0.1 -0.1)">
       <defs>
        <path id="DejaVuSans-31" d="M 794 531 
L 1825 531 
L 1825 4091 
L 703 3866 
L 703 4441 
L 1819 4666 
L 2450 4666 
L 2450 531 
L 3481 531 
L 3481 0 
L 794 0 
L 794 531 
z
" transform="scale(0.015625)"/>
       </defs>
       <use xlink:href="#DejaVuSans-31"/>
       <use xlink:href="#DejaVuSans-30" x="63.623047"/>
       <use xlink:href="#DejaVuSans-30" x="127.246094"/>
      </g>
     </g>
    </g>
    <g id="xtick_6">
     <g id="line2d_6">
      <g>
       <use xlink:href="#mbdedf30d07" x="245.292033" y="279" style="stroke: #000000; stroke-width: 0.8"/>
      </g>
     </g>
     <g id="text_6">
      <!-- 125 -->
      <g transform="translate(235.748283 293.598437)scale(0.1 -0.1)">
       <use xlink:href="#DejaVuSans-31"/>
       <use xlink:href="#DejaVuSans-32" x="63.623047"/>
       <use xlink:href="#DejaVuSans-35" x="127.246094"/>
      </g>
     </g>
    </g>
    <g id="xtick_7">
     <g id="line2d_7">
      <g>
       <use xlink:href="#mbdedf30d07" x="279.878809" y="279" style="stroke: #000000; stroke-width: 0.8"/>
      </g>
     </g>
     <g id="text_7">
      <!-- 150 -->
      <g transform="translate(270.335059 293.598437)scale(0.1 -0.1)">
       <use xlink:href="#DejaVuSans-31"/>
       <use xlink:href="#DejaVuSans-35" x="63.623047"/>
       <use xlink:href="#DejaVuSans-30" x="127.246094"/>
      </g>
     </g>
    </g>
    <g id="xtick_8">
     <g id="line2d_8">
      <g>
       <use xlink:href="#mbdedf30d07" x="314.465586" y="279" style="stroke: #000000; stroke-width: 0.8"/>
      </g>
     </g>
     <g id="text_8">
      <!-- 175 -->
      <g transform="translate(304.921836 293.598437)scale(0.1 -0.1)">
       <use xlink:href="#DejaVuSans-31"/>
       <use xlink:href="#DejaVuSans-37" x="63.623047"/>
       <use xlink:href="#DejaVuSans-35" x="127.246094"/>
      </g>
     </g>
    </g>
    <g id="xtick_9">
     <g id="line2d_9">
      <g>
       <use xlink:href="#mbdedf30d07" x="349.052363" y="279" style="stroke: #000000; stroke-width: 0.8"/>
      </g>
     </g>
     <g id="text_9">
      <!-- 200 -->
      <g transform="translate(339.508613 293.598437)scale(0.1 -0.1)">
       <use xlink:href="#DejaVuSans-32"/>
       <use xlink:href="#DejaVuSans-30" x="63.623047"/>
       <use xlink:href="#DejaVuSans-30" x="127.246094"/>
      </g>
     </g>
    </g>
    <g id="text_10">
     <!-- Time (t) -->
     <g transform="translate(191.020881 307.276562)scale(0.1 -0.1)">
      <defs>
       <path id="DejaVuSans-54" d="M -19 4666 
L 3928 4666 
L 3928 4134 
L 2272 4134 
L 2272 0 
L 1638 0 
L 1638 4134 
L -19 4134 
L -19 4666 
z
" transform="scale(0.015625)"/>
       <path id="DejaVuSans-69" d="M 603 3500 
L 1178 3500 
L 1178 0 
L 603 0 
L 603 3500 
z
M 603 4863 
L 1178 4863 
L 1178 4134 
L 603 4134 
L 603 4863 
z
" transform="scale(0.015625)"/>
       <path id="DejaVuSans-6d" d="M 3328 2828 
Q 3544 3216 3844 3400 
Q 4144 3584 4550 3584 
Q 5097 3584 5394 3201 
Q 5691 2819 5691 2113 
L 5691 0 
L 5113 0 
L 5113 2094 
Q 5113 2597 4934 2840 
Q 4756 3084 4391 3084 
Q 3944 3084 3684 2787 
Q 3425 2491 3425 1978 
L 3425 0 
L 2847 0 
L 2847 2094 
Q 2847 2600 2669 2842 
Q 2491 3084 2119 3084 
Q 1678 3084 1418 2786 
Q 1159 2488 1159 1978 
L 1159 0 
L 581 0 
L 581 3500 
L 1159 3500 
L 1159 2956 
Q 1356 3278 1631 3431 
Q 1906 3584 2284 3584 
Q 2666 3584 2933 3390 
Q 3200 3197 3328 2828 
z
" transform="scale(0.015625)"/>
       <path id="DejaVuSans-65" d="M 3597 1894 
L 3597 1613 
L 953 1613 
Q 991 1019 1311 708 
Q 1631 397 2203 397 
Q 2534 397 2845 478 
Q 3156 559 3463 722 
L 3463 178 
Q 3153 47 2828 -22 
Q 2503 -91 2169 -91 
Q 1331 -91 842 396 
Q 353 884 353 1716 
Q 353 2575 817 3079 
Q 1281 3584 2069 3584 
Q 2775 3584 3186 3129 
Q 3597 2675 3597 1894 
z
M 3022 2063 
Q 3016 2534 2758 2815 
Q 2500 3097 2075 3097 
Q 1594 3097 1305 2825 
Q 1016 2553 972 2059 
L 3022 2063 
z
" transform="scale(0.015625)"/>
       <path id="DejaVuSans-20" transform="scale(0.015625)"/>
       <path id="DejaVuSans-28" d="M 1984 4856 
Q 1566 4138 1362 3434 
Q 1159 2731 1159 2009 
Q 1159 1288 1364 580 
Q 1569 -128 1984 -844 
L 1484 -844 
Q 1016 -109 783 600 
Q 550 1309 550 2009 
Q 550 2706 781 3412 
Q 1013 4119 1484 4856 
L 1984 4856 
z
" transform="scale(0.015625)"/>
       <path id="DejaVuSans-74" d="M 1172 4494 
L 1172 3500 
L 2356 3500 
L 2356 3053 
L 1172 3053 
L 1172 1153 
Q 1172 725 1289 603 
Q 1406 481 1766 481 
L 2356 481 
L 2356 0 
L 1766 0 
Q 1100 0 847 248 
Q 594 497 594 1153 
L 594 3053 
L 172 3053 
L 172 3500 
L 594 3500 
L 594 4494 
L 1172 4494 
z
" transform="scale(0.015625)"/>
       <path id="DejaVuSans-29" d="M 513 4856 
L 1013 4856 
Q 1481 4119 1714 3412 
Q 1947 2706 1947 2009 
Q 1947 1309 1714 600 
Q 1481 -109 1013 -844 
L 513 -844 
Q 928 -128 1133 580 
Q 1338 1288 1338 2009 
Q 1338 2731 1133 3434 
Q 928 4138 513 4856 
z
" transform="scale(0.015625)"/>
      </defs>
      <use xlink:href="#DejaVuSans-54"/>
      <use xlink:href="#DejaVuSans-69" x="57.958984"/>
      <use xlink:href="#DejaVuSans-6d" x="85.742188"/>
      <use xlink:href="#DejaVuSans-65" x="183.154297"/>
      <use xlink:href="#DejaVuSans-20" x="244.677734"/>
      <use xlink:href="#DejaVuSans-28" x="276.464844"/>
      <use xlink:href="#DejaVuSans-74" x="315.478516"/>
      <use xlink:href="#DejaVuSans-29" x="354.6875"/>
     </g>
    </g>
   </g>
   <g id="matplotlib.axis_2">
    <g id="ytick_1">
     <g id="line2d_10">
      <defs>
       <path id="m77c08a7b8a" d="M 0 0 
L -3.5 0 
" style="stroke: #000000; stroke-width: 0.8"/>
      </defs>
      <g>
       <use xlink:href="#m77c08a7b8a" x="58.523438" y="276.440486" style="stroke: #000000; stroke-width: 0.8"/>
      </g>
     </g>
     <g id="text_11">
      <!-- −1.00 -->
      <g transform="translate(20.878125 280.239704)scale(0.1 -0.1)">
       <defs>
        <path id="DejaVuSans-2212" d="M 678 2272 
L 4684 2272 
L 4684 1741 
L 678 1741 
L 678 2272 
z
" transform="scale(0.015625)"/>
        <path id="DejaVuSans-2e" d="M 684 794 
L 1344 794 
L 1344 0 
L 684 0 
L 684 794 
z
" transform="scale(0.015625)"/>
       </defs>
       <use xlink:href="#DejaVuSans-2212"/>
       <use xlink:href="#DejaVuSans-31" x="83.789062"/>
       <use xlink:href="#DejaVuSans-2e" x="147.412109"/>
       <use xlink:href="#DejaVuSans-30" x="179.199219"/>
       <use xlink:href="#DejaVuSans-30" x="242.822266"/>
      </g>
     </g>
    </g>
    <g id="ytick_2">
     <g id="line2d_11">
      <g>
       <use xlink:href="#m77c08a7b8a" x="58.523438" y="244.329743" style="stroke: #000000; stroke-width: 0.8"/>
      </g>
     </g>
     <g id="text_12">
      <!-- −0.75 -->
      <g transform="translate(20.878125 248.128962)scale(0.1 -0.1)">
       <use xlink:href="#DejaVuSans-2212"/>
       <use xlink:href="#DejaVuSans-30" x="83.789062"/>
       <use xlink:href="#DejaVuSans-2e" x="147.412109"/>
       <use xlink:href="#DejaVuSans-37" x="179.199219"/>
       <use xlink:href="#DejaVuSans-35" x="242.822266"/>
      </g>
     </g>
    </g>
    <g id="ytick_3">
     <g id="line2d_12">
      <g>
       <use xlink:href="#m77c08a7b8a" x="58.523438" y="212.219001" style="stroke: #000000; stroke-width: 0.8"/>
      </g>
     </g>
     <g id="text_13">
      <!-- −0.50 -->
      <g transform="translate(20.878125 216.018219)scale(0.1 -0.1)">
       <use xlink:href="#DejaVuSans-2212"/>
       <use xlink:href="#DejaVuSans-30" x="83.789062"/>
       <use xlink:href="#DejaVuSans-2e" x="147.412109"/>
       <use xlink:href="#DejaVuSans-35" x="179.199219"/>
       <use xlink:href="#DejaVuSans-30" x="242.822266"/>
      </g>
     </g>
    </g>
    <g id="ytick_4">
     <g id="line2d_13">
      <g>
       <use xlink:href="#m77c08a7b8a" x="58.523438" y="180.108258" style="stroke: #000000; stroke-width: 0.8"/>
      </g>
     </g>
     <g id="text_14">
      <!-- −0.25 -->
      <g transform="translate(20.878125 183.907477)scale(0.1 -0.1)">
       <use xlink:href="#DejaVuSans-2212"/>
       <use xlink:href="#DejaVuSans-30" x="83.789062"/>
       <use xlink:href="#DejaVuSans-2e" x="147.412109"/>
       <use xlink:href="#DejaVuSans-32" x="179.199219"/>
       <use xlink:href="#DejaVuSans-35" x="242.822266"/>
      </g>
     </g>
    </g>
    <g id="ytick_5">
     <g id="line2d_14">
      <g>
       <use xlink:href="#m77c08a7b8a" x="58.523438" y="147.997516" style="stroke: #000000; stroke-width: 0.8"/>
      </g>
     </g>
     <g id="text_15">
      <!-- 0.00 -->
      <g transform="translate(29.257812 151.796734)scale(0.1 -0.1)">
       <use xlink:href="#DejaVuSans-30"/>
       <use xlink:href="#DejaVuSans-2e" x="63.623047"/>
       <use xlink:href="#DejaVuSans-30" x="95.410156"/>
       <use xlink:href="#DejaVuSans-30" x="159.033203"/>
      </g>
     </g>
    </g>
    <g id="ytick_6">
     <g id="line2d_15">
      <g>
       <use xlink:href="#m77c08a7b8a" x="58.523438" y="115.886773" style="stroke: #000000; stroke-width: 0.8"/>
      </g>
     </g>
     <g id="text_16">
      <!-- 0.25 -->
      <g transform="translate(29.257812 119.685992)scale(0.1 -0.1)">
       <use xlink:href="#DejaVuSans-30"/>
       <use xlink:href="#DejaVuSans-2e" x="63.623047"/>
       <use xlink:href="#DejaVuSans-32" x="95.410156"/>
       <use xlink:href="#DejaVuSans-35" x="159.033203"/>
      </g>
     </g>
    </g>
    <g id="ytick_7">
     <g id="line2d_16">
      <g>
       <use xlink:href="#m77c08a7b8a" x="58.523438" y="83.776031" style="stroke: #000000; stroke-width: 0.8"/>
      </g>
     </g>
     <g id="text_17">
      <!-- 0.50 -->
      <g transform="translate(29.257812 87.575249)scale(0.1 -0.1)">
       <use xlink:href="#DejaVuSans-30"/>
       <use xlink:href="#DejaVuSans-2e" x="63.623047"/>
       <use xlink:href="#DejaVuSans-35" x="95.410156"/>
       <use xlink:href="#DejaVuSans-30" x="159.033203"/>
      </g>
     </g>
    </g>
    <g id="ytick_8">
     <g id="line2d_17">
      <g>
       <use xlink:href="#m77c08a7b8a" x="58.523438" y="51.665288" style="stroke: #000000; stroke-width: 0.8"/>
      </g>
     </g>
     <g id="text_18">
      <!-- 0.75 -->
      <g transform="translate(29.257812 55.464507)scale(0.1 -0.1)">
       <use xlink:href="#DejaVuSans-30"/>
       <use xlink:href="#DejaVuSans-2e" x="63.623047"/>
       <use xlink:href="#DejaVuSans-37" x="95.410156"/>
       <use xlink:href="#DejaVuSans-35" x="159.033203"/>
      </g>
     </g>
    </g>
    <g id="ytick_9">
     <g id="line2d_18">
      <g>
       <use xlink:href="#m77c08a7b8a" x="58.523438" y="19.554545" style="stroke: #000000; stroke-width: 0.8"/>
      </g>
     </g>
     <g id="text_19">
      <!-- 1.00 -->
      <g transform="translate(29.257812 23.353764)scale(0.1 -0.1)">
       <use xlink:href="#DejaVuSans-31"/>
       <use xlink:href="#DejaVuSans-2e" x="63.623047"/>
       <use xlink:href="#DejaVuSans-30" x="95.410156"/>
       <use xlink:href="#DejaVuSans-30" x="159.033203"/>
      </g>
     </g>
    </g>
    <g id="text_20">
     <!-- Displacement (x) -->
     <g transform="translate(14.798437 185.922656)rotate(-90)scale(0.1 -0.1)">
      <defs>
       <path id="DejaVuSans-44" d="M 1259 4147 
L 1259 519 
L 2022 519 
Q 2988 519 3436 956 
Q 3884 1394 3884 2338 
Q 3884 3275 3436 3711 
Q 2988 4147 2022 4147 
L 1259 4147 
z
M 628 4666 
L 1925 4666 
Q 3281 4666 3915 4102 
Q 4550 3538 4550 2338 
Q 4550 1131 3912 565 
Q 3275 0 1925 0 
L 628 0 
L 628 4666 
z
" transform="scale(0.015625)"/>
       <path id="DejaVuSans-73" d="M 2834 3397 
L 2834 2853 
Q 2591 2978 2328 3040 
Q 2066 3103 1784 3103 
Q 1356 3103 1142 2972 
Q 928 2841 928 2578 
Q 928 2378 1081 2264 
Q 1234 2150 1697 2047 
L 1894 2003 
Q 2506 1872 2764 1633 
Q 3022 1394 3022 966 
Q 3022 478 2636 193 
Q 2250 -91 1575 -91 
Q 1294 -91 989 -36 
Q 684 19 347 128 
L 347 722 
Q 666 556 975 473 
Q 1284 391 1588 391 
Q 1994 391 2212 530 
Q 2431 669 2431 922 
Q 2431 1156 2273 1281 
Q 2116 1406 1581 1522 
L 1381 1569 
Q 847 1681 609 1914 
Q 372 2147 372 2553 
Q 372 3047 722 3315 
Q 1072 3584 1716 3584 
Q 2034 3584 2315 3537 
Q 2597 3491 2834 3397 
z
" transform="scale(0.015625)"/>
       <path id="DejaVuSans-70" d="M 1159 525 
L 1159 -1331 
L 581 -1331 
L 581 3500 
L 1159 3500 
L 1159 2969 
Q 1341 3281 1617 3432 
Q 1894 3584 2278 3584 
Q 2916 3584 3314 3078 
Q 3713 2572 3713 1747 
Q 3713 922 3314 415 
Q 2916 -91 2278 -91 
Q 1894 -91 1617 61 
Q 1341 213 1159 525 
z
M 3116 1747 
Q 3116 2381 2855 2742 
Q 2594 3103 2138 3103 
Q 1681 3103 1420 2742 
Q 1159 2381 1159 1747 
Q 1159 1113 1420 752 
Q 1681 391 2138 391 
Q 2594 391 2855 752 
Q 3116 1113 3116 1747 
z
" transform="scale(0.015625)"/>
       <path id="DejaVuSans-6c" d="M 603 4863 
L 1178 4863 
L 1178 0 
L 603 0 
L 603 4863 
z
" transform="scale(0.015625)"/>
       <path id="DejaVuSans-61" d="M 2194 1759 
Q 1497 1759 1228 1600 
Q 959 1441 959 1056 
Q 959 750 1161 570 
Q 1363 391 1709 391 
Q 2188 391 2477 730 
Q 2766 1069 2766 1631 
L 2766 1759 
L 2194 1759 
z
M 3341 1997 
L 3341 0 
L 2766 0 
L 2766 531 
Q 2569 213 2275 61 
Q 1981 -91 1556 -91 
Q 1019 -91 701 211 
Q 384 513 384 1019 
Q 384 1609 779 1909 
Q 1175 2209 1959 2209 
L 2766 2209 
L 2766 2266 
Q 2766 2663 2505 2880 
Q 2244 3097 1772 3097 
Q 1472 3097 1187 3025 
Q 903 2953 641 2809 
L 641 3341 
Q 956 3463 1253 3523 
Q 1550 3584 1831 3584 
Q 2591 3584 2966 3190 
Q 3341 2797 3341 1997 
z
" transform="scale(0.015625)"/>
       <path id="DejaVuSans-63" d="M 3122 3366 
L 3122 2828 
Q 2878 2963 2633 3030 
Q 2388 3097 2138 3097 
Q 1578 3097 1268 2742 
Q 959 2388 959 1747 
Q 959 1106 1268 751 
Q 1578 397 2138 397 
Q 2388 397 2633 464 
Q 2878 531 3122 666 
L 3122 134 
Q 2881 22 2623 -34 
Q 2366 -91 2075 -91 
Q 1284 -91 818 406 
Q 353 903 353 1747 
Q 353 2603 823 3093 
Q 1294 3584 2113 3584 
Q 2378 3584 2631 3529 
Q 2884 3475 3122 3366 
z
" transform="scale(0.015625)"/>
       <path id="DejaVuSans-6e" d="M 3513 2113 
L 3513 0 
L 2938 0 
L 2938 2094 
Q 2938 2591 2744 2837 
Q 2550 3084 2163 3084 
Q 1697 3084 1428 2787 
Q 1159 2491 1159 1978 
L 1159 0 
L 581 0 
L 581 3500 
L 1159 3500 
L 1159 2956 
Q 1366 3272 1645 3428 
Q 1925 3584 2291 3584 
Q 2894 3584 3203 3211 
Q 3513 2838 3513 2113 
z
" transform="scale(0.015625)"/>
       <path id="DejaVuSans-78" d="M 3513 3500 
L 2247 1797 
L 3578 0 
L 2900 0 
L 1881 1375 
L 863 0 
L 184 0 
L 1544 1831 
L 300 3500 
L 978 3500 
L 1906 2253 
L 2834 3500 
L 3513 3500 
z
" transform="scale(0.015625)"/>
      </defs>
      <use xlink:href="#DejaVuSans-44"/>
      <use xlink:href="#DejaVuSans-69" x="77.001953"/>
      <use xlink:href="#DejaVuSans-73" x="104.785156"/>
      <use xlink:href="#DejaVuSans-70" x="156.884766"/>
      <use xlink:href="#DejaVuSans-6c" x="220.361328"/>
      <use xlink:href="#DejaVuSans-61" x="248.144531"/>
      <use xlink:href="#DejaVuSans-63" x="309.423828"/>
      <use xlink:href="#DejaVuSans-65" x="364.404297"/>
      <use xlink:href="#DejaVuSans-6d" x="425.927734"/>
      <use xlink:href="#DejaVuSans-65" x="523.339844"/>
      <use xlink:href="#DejaVuSans-6e" x="584.863281"/>
      <use xlink:href="#DejaVuSans-74" x="648.242188"/>
      <use xlink:href="#DejaVuSans-20" x="687.451172"/>
      <use xlink:href="#DejaVuSans-28" x="719.238281"/>
      <use xlink:href="#DejaVuSans-78" x="758.251953"/>
      <use xlink:href="#DejaVuSans-29" x="817.431641"/>
     </g>
    </g>
   </g>
   <g id="line2d_19">
    <path d="M 72.358148 19.554545 
L 72.635119 22.102562 
L 72.912091 29.577534 
L 73.466033 57.577538 
L 74.296947 121.702826 
L 75.404831 211.048473 
L 75.958774 241.691164 
L 76.235745 251.302097 
L 76.512716 256.651933 
L 76.789687 257.577913 
L 77.066658 254.122548 
L 77.34363 246.536147 
L 77.897572 220.700124 
L 78.728486 164.523444 
L 79.83637 89.611025 
L 80.390313 65.176489 
L 80.667284 58.019683 
L 80.944255 54.582822 
L 81.221226 54.907214 
L 81.498197 58.884411 
L 81.775169 66.303495 
L 82.329111 89.968067 
L 83.436996 156.242108 
L 84.267909 201.578527 
L 84.821852 220.837023 
L 85.098823 226.027406 
L 85.375794 228.048074 
L 85.652765 226.869626 
L 85.929736 222.578767 
L 86.483679 205.701528 
L 87.314592 166.198827 
L 88.422477 110.140587 
L 88.976419 90.50972 
L 89.253391 84.205474 
L 89.530362 80.536031 
L 89.807333 79.61709 
L 90.084304 81.439551 
L 90.361275 85.865047 
L 90.915218 101.472312 
L 91.746131 136.138497 
L 92.854016 183.213212 
L 93.407958 198.916124 
L 93.68493 203.655991 
L 93.961901 206.087598 
L 94.238872 206.170859 
L 94.515843 203.96561 
L 94.792814 199.595341 
L 95.346757 185.253007 
L 96.17767 154.961508 
L 97.285555 115.555276 
L 97.839497 103.127679 
L 98.116469 99.653325 
L 98.39344 98.149399 
L 98.670411 98.639646 
L 98.947382 101.080602 
L 99.501324 111.211077 
L 100.332238 135.527336 
L 101.440123 170.677545 
L 101.994065 183.238515 
L 102.548008 189.856392 
L 102.824979 190.642028 
L 103.10195 189.713911 
L 103.378921 187.14756 
L 103.932863 177.735103 
L 104.763777 156.358082 
L 105.871662 126.795913 
L 106.425604 116.719197 
L 106.702575 113.592252 
L 106.979547 111.896378 
L 107.256518 111.665725 
L 107.533489 112.868962 
L 107.81046 115.432947 
L 108.364402 124.111978 
L 109.195316 142.826683 
L 110.303201 167.609781 
L 110.857143 175.616125 
L 111.134114 177.930052 
L 111.411085 179.0194 
L 111.688057 178.866297 
L 111.965028 177.491653 
L 112.241999 174.968964 
L 112.795941 167.033053 
L 113.903826 144.999376 
L 114.73474 130.027759 
L 115.288682 123.724485 
L 115.565653 122.041556 
L 115.842624 121.41925 
L 116.119596 121.867332 
L 116.396567 123.345544 
L 116.950509 129.012099 
L 117.781423 142.184697 
L 118.889308 160.737097 
L 119.44325 167.194327 
L 119.720221 169.24999 
L 119.997192 170.419282 
L 120.274163 170.674969 
L 120.551135 170.032085 
L 120.828106 168.534555 
L 121.382048 163.291133 
L 122.212962 151.737138 
L 123.320846 136.161139 
L 123.874789 131.011195 
L 124.15176 129.476922 
L 124.428731 128.703504 
L 124.705702 128.703928 
L 124.982674 129.468558 
L 125.259645 130.956046 
L 125.813587 135.770998 
L 126.921472 149.432055 
L 127.752385 158.885083 
L 128.306328 162.9538 
L 128.583299 164.081765 
L 128.86027 164.552171 
L 129.137241 164.354682 
L 129.414213 163.510022 
L 129.968155 160.104965 
L 130.799069 151.994374 
L 131.906953 140.358538 
L 132.460896 136.226286 
L 133.014838 134.080541 
L 133.291809 133.851054 
L 133.56878 134.184814 
L 133.845752 135.055075 
L 134.399694 138.217528 
L 135.230607 145.345271 
L 136.338492 155.128339 
L 136.892435 158.435951 
L 137.169406 159.449319 
L 137.446377 159.990121 
L 137.723348 160.048932 
L 138.000319 159.630121 
L 138.277291 158.756691 
L 138.831233 155.839564 
L 139.662146 149.611254 
L 140.770031 141.410929 
L 141.323974 138.7889 
L 141.600945 138.037123 
L 141.877916 137.692679 
L 142.154887 137.764518 
L 142.431858 138.242523 
L 142.985801 140.284504 
L 143.816714 145.274197 
L 144.924599 152.567776 
L 145.478541 155.208799 
L 146.032484 156.630076 
L 146.309455 156.817079 
L 146.586426 156.651004 
L 146.863397 156.148109 
L 147.41734 154.244025 
L 148.248253 149.850418 
L 149.356138 143.709569 
L 149.91008 141.588165 
L 150.187052 140.921167 
L 150.464023 140.547689 
L 150.740994 140.474645 
L 151.017965 140.699573 
L 151.294936 141.20986 
L 151.848879 142.97449 
L 152.679792 146.820416 
L 153.787677 151.975814 
L 154.341619 153.66301 
L 154.618591 154.161437 
L 154.895562 154.407766 
L 155.172533 154.395185 
L 155.449504 154.12803 
L 156.003446 152.905925 
L 156.557389 150.973365 
L 158.219216 144.34541 
L 158.773158 143.010868 
L 159.050129 142.646407 
L 159.327101 142.502109 
L 159.604072 142.579139 
L 159.881043 142.868244 
L 160.434985 144.012794 
L 161.265899 146.718567 
L 162.373784 150.570964 
L 162.927726 151.929458 
L 163.481668 152.622833 
L 163.75864 152.690668 
L 164.035611 152.572691 
L 164.312582 152.276116 
L 164.866524 151.211243 
L 165.697438 148.837334 
L 166.805323 145.598883 
L 167.359265 144.51444 
L 167.913207 144.012645 
L 168.190179 144.000462 
L 168.46715 144.147387 
L 169.021092 144.877029 
L 169.575035 146.059885 
L 171.513833 150.696587 
L 172.067775 151.312023 
L 172.344746 151.419464 
L 172.621718 151.3885 
L 173.17566 150.934959 
L 173.729602 150.045063 
L 175.945372 145.587788 
L 176.499314 145.127368 
L 176.776285 145.071053 
L 177.330228 145.30282 
L 177.88417 145.943762 
L 178.715084 147.408245 
L 179.822968 149.440918 
L 180.376911 150.137159 
L 180.930853 150.473218 
L 181.484796 150.413628 
L 182.038738 149.979855 
L 182.869651 148.823161 
L 184.254507 146.660712 
L 184.80845 146.107651 
L 185.362392 145.868333 
L 185.916335 145.969477 
L 186.470277 146.381614 
L 187.30119 147.40513 
L 188.686046 149.222948 
L 189.239989 149.659886 
L 189.793931 149.821624 
L 190.347874 149.693384 
L 190.901816 149.308059 
L 191.732729 148.405742 
L 193.117585 146.882934 
L 193.671528 146.541791 
L 194.22547 146.440583 
L 194.779412 146.583874 
L 195.333355 146.941744 
L 196.44124 148.021383 
L 197.549124 149.004127 
L 198.103067 149.266638 
L 198.657009 149.322705 
L 199.210951 149.170618 
L 200.041865 148.629477 
L 201.980663 147.094725 
L 202.534606 146.894917 
L 203.088548 146.873705 
L 203.64249 147.028501 
L 204.473404 147.514531 
L 206.412202 148.802604 
L 207.243116 148.968837 
L 208.074029 148.794875 
L 209.181914 148.184105 
L 210.56677 147.383954 
L 211.397684 147.174694 
L 212.228597 147.257233 
L 213.059511 147.586902 
L 215.27528 148.628228 
L 216.106194 148.700216 
L 216.937107 148.52919 
L 218.321963 147.926219 
L 219.429848 147.504033 
L 220.260762 147.392134 
L 221.091675 147.492573 
L 222.476531 147.979923 
L 223.861387 148.436166 
L 224.692301 148.514192 
L 225.800185 148.343838 
L 228.846868 147.557585 
L 229.954753 147.659535 
L 233.555379 148.369665 
L 234.663263 148.21684 
L 237.432975 147.680094 
L 238.54086 147.734975 
L 242.695428 148.24165 
L 244.634226 147.932252 
L 246.296053 147.762696 
L 247.680909 147.856601 
L 250.727592 148.198426 
L 252.389419 148.07447 
L 254.88216 147.827491 
L 256.543987 147.911042 
L 259.59067 148.143093 
L 261.80644 147.983975 
L 264.022209 147.87424 
L 266.51495 148.037583 
L 268.730719 148.094475 
L 274.270143 147.970607 
L 277.593797 148.063787 
L 283.133221 147.985263 
L 286.456875 148.042034 
L 291.996299 147.994113 
L 295.873895 148.013287 
L 300.582406 147.992573 
L 305.290916 147.994304 
L 309.999426 148.006298 
L 315.53885 147.979107 
L 349.052363 147.994978 
L 349.052363 147.994978 
" clip-path="url(#p41921f2ac1)" style="fill: none; stroke: #000000; stroke-width: 1.5; stroke-linecap: square"/>
   </g>
   <g id="line2d_20">
    <path d="M 72.358148 147.997516 
L 73.189062 218.451242 
L 73.743004 250.93809 
L 74.019975 260.898029 
L 74.296947 266.167773 
L 74.573918 266.645455 
L 74.850889 262.445456 
L 75.12786 253.820102 
L 75.681802 225.059155 
L 76.512716 163.620351 
L 77.620601 82.960031 
L 78.174543 57.185398 
L 78.451514 49.849203 
L 78.728486 46.524107 
L 79.005457 47.257769 
L 79.282428 51.973052 
L 79.83637 72.183401 
L 80.667284 121.382508 
L 81.775169 193.196221 
L 82.329111 219.132973 
L 82.883053 233.045193 
L 83.160025 234.876901 
L 83.436996 233.213366 
L 83.713967 228.19543 
L 84.267909 209.365901 
L 85.098823 166.073606 
L 86.206708 105.62628 
L 86.76065 84.792897 
L 87.037621 78.235453 
L 87.314592 74.583507 
L 87.591563 73.919504 
L 87.868535 76.18746 
L 88.145506 81.236438 
L 88.699448 98.626015 
L 89.530362 136.568747 
L 90.638247 187.28016 
L 91.192189 203.870459 
L 91.46916 208.745022 
L 91.746131 211.127229 
L 92.023102 210.980373 
L 92.300074 208.341282 
L 92.577045 203.350344 
L 93.130987 187.406939 
L 94.238872 142.642567 
L 95.069786 111.930006 
L 95.623728 98.845082 
L 95.900699 95.279102 
L 96.17767 93.867651 
L 96.454641 94.638209 
L 96.731613 97.516594 
L 97.285555 108.840961 
L 98.116469 135.505926 
L 99.224353 173.429051 
L 99.778296 186.770528 
L 100.055267 191.073209 
L 100.332238 193.577477 
L 100.609209 194.22044 
L 100.88618 193.02662 
L 101.163152 190.085767 
L 101.717094 179.588349 
L 102.548008 156.173655 
L 103.655892 124.311593 
L 104.209835 113.649219 
L 104.486806 110.42395 
L 104.763777 108.746514 
L 105.040748 108.644639 
L 105.317719 110.101389 
L 105.594691 113.038034 
L 106.148633 122.703588 
L 106.979547 143.145293 
L 108.087431 169.832301 
L 108.641374 178.271434 
L 108.918345 180.654475 
L 109.195316 181.701985 
L 109.472287 181.388568 
L 109.749258 179.751824 
L 110.303201 172.954716 
L 111.134114 156.544202 
L 112.241999 132.766823 
L 112.795941 124.233889 
L 113.349884 119.716722 
L 113.626855 119.172765 
L 113.903826 119.77915 
L 114.180797 121.482518 
L 114.73474 127.808397 
L 115.565653 142.246739 
L 116.673538 162.252929 
L 117.22748 169.095597 
L 117.504452 171.221699 
L 117.781423 172.387064 
L 118.058394 172.570818 
L 118.335365 171.780743 
L 118.612336 170.060456 
L 119.166279 164.209548 
L 119.997192 151.583237 
L 121.105077 134.799835 
L 121.659019 129.36569 
L 121.935991 127.781327 
L 122.212962 127.024271 
L 122.489933 127.115127 
L 122.766904 128.035999 
L 123.320846 132.107018 
L 123.874789 138.475836 
L 125.536616 160.091123 
L 126.090558 164.384279 
L 126.36753 165.533415 
L 126.644501 165.961956 
L 126.921472 165.670382 
L 127.198443 164.690008 
L 127.752385 160.88495 
L 128.583299 151.988776 
L 129.691184 139.434709 
L 130.245126 135.049535 
L 130.522097 133.652613 
L 130.799069 132.851686 
L 131.07604 132.662461 
L 131.353011 133.081199 
L 131.629982 134.083944 
L 132.183924 137.619656 
L 133.014838 145.413447 
L 134.122723 155.961212 
L 134.676665 159.455256 
L 134.953636 160.503905 
L 135.230607 161.040244 
L 135.507579 161.048956 
L 135.78455 160.537645 
L 136.061521 159.538195 
L 136.615463 156.301888 
L 137.723348 147.072185 
L 138.554262 140.672105 
L 139.108204 137.902086 
L 139.385175 137.131306 
L 139.662146 136.808276 
L 139.939118 136.935724 
L 140.216089 137.495889 
L 140.770031 139.780256 
L 141.600945 145.25713 
L 142.70883 153.130157 
L 143.262772 155.936552 
L 143.816714 157.397309 
L 144.093685 157.561655 
L 144.370657 157.346597 
L 144.647628 156.765349 
L 145.20157 154.633001 
L 146.032484 149.825065 
L 147.140368 143.200789 
L 147.694311 140.957193 
L 147.971282 140.265781 
L 148.248253 139.891747 
L 148.525224 139.845564 
L 148.802196 140.124748 
L 149.079167 140.711829 
L 149.633109 142.672619 
L 150.464023 146.878407 
L 151.571907 152.428206 
L 152.12585 154.211989 
L 152.402821 154.726239 
L 152.679792 154.962689 
L 152.956763 154.917416 
L 153.233735 154.599825 
L 153.787677 153.231011 
L 154.618591 149.862264 
L 156.003446 143.941524 
L 156.557389 142.536254 
L 156.83436 142.167215 
L 157.111331 142.036098 
L 157.388302 142.141838 
L 157.665274 142.476663 
L 158.219216 143.75952 
L 159.050129 146.723977 
L 160.158014 150.881031 
L 160.711957 152.320072 
L 161.265899 153.031739 
L 161.54287 153.085823 
L 161.819841 152.936813 
L 162.373784 152.075393 
L 162.927726 150.617816 
L 164.866524 144.676477 
L 165.420467 143.833963 
L 165.697438 143.664532 
L 165.974409 143.670982 
L 166.25138 143.849134 
L 166.805323 144.668144 
L 167.636236 146.738295 
L 169.021092 150.455806 
L 169.575035 151.36344 
L 170.128977 151.711497 
L 170.405948 151.662829 
L 170.95989 151.145543 
L 171.513833 150.157886 
L 173.729602 145.345866 
L 174.283545 144.872771 
L 174.560516 144.823678 
L 174.837487 144.900935 
L 175.391429 145.410389 
L 175.945372 146.300866 
L 177.88417 150.023152 
L 178.438113 150.571875 
L 178.992055 150.700865 
L 179.545997 150.403373 
L 180.09994 149.745767 
L 181.207824 147.843331 
L 182.038738 146.509629 
L 182.59268 145.924832 
L 183.146623 145.684812 
L 183.700565 145.813621 
L 184.254507 146.274952 
L 185.085421 147.398991 
L 186.470277 149.357904 
L 187.024219 149.817497 
L 187.578162 149.975961 
L 188.132104 149.822566 
L 188.686046 149.390724 
L 189.51696 148.40264 
L 190.624845 147.026636 
L 191.178787 146.554309 
L 191.732729 146.324455 
L 192.286672 146.362409 
L 192.840614 146.653914 
L 193.671528 147.433797 
L 195.056384 148.896973 
L 195.610326 149.272727 
L 196.164268 149.436709 
L 196.718211 149.369981 
L 197.272153 149.093411 
L 198.103067 148.402627 
L 199.487923 147.172413 
L 200.041865 146.875373 
L 200.595807 146.764522 
L 201.14975 146.849298 
L 201.980663 147.289999 
L 204.196433 148.88334 
L 204.750375 149.036319 
L 205.304318 149.022579 
L 206.135231 148.713861 
L 208.904943 147.140455 
L 209.735857 147.135263 
L 210.56677 147.424219 
L 213.336482 148.742303 
L 214.167396 148.719755 
L 214.998309 148.452948 
L 217.49105 147.390932 
L 218.321963 147.355273 
L 219.152877 147.539807 
L 222.19956 148.553647 
L 223.030473 148.498719 
L 224.138358 148.179165 
L 226.077157 147.571759 
L 226.90807 147.522359 
L 228.015955 147.704874 
L 230.785667 148.397337 
L 231.893551 148.339708 
L 233.555379 147.935741 
L 234.940234 147.670027 
L 236.048119 147.681445 
L 237.709946 148.005418 
L 239.371773 148.282955 
L 240.479658 148.259588 
L 242.418456 147.921459 
L 243.803312 147.749674 
L 245.188168 147.811688 
L 248.788794 148.210169 
L 250.450621 148.037521 
L 252.66639 147.812734 
L 254.328217 147.906964 
L 257.374901 148.154945 
L 259.313699 148.00918 
L 261.529468 147.861728 
L 263.468267 147.969924 
L 265.961007 148.113328 
L 268.453748 147.972285 
L 270.669517 147.903396 
L 277.039855 147.985098 
L 279.809567 147.939217 
L 285.072019 148.015669 
L 288.949616 147.966754 
L 293.658126 148.013897 
L 298.089665 147.985742 
L 302.798175 147.999619 
L 307.506685 148.002587 
L 312.492167 147.984203 
L 322.7401 147.982846 
L 349.052363 147.99207 
L 349.052363 147.99207 
" clip-path="url(#p41921f2ac1)" style="fill: none; stroke: #ff7f0e; stroke-width: 1.5; stroke-linecap: square"/>
   </g>
   <g id="patch_3">
    <path d="M 58.523438 279 
L 58.523438 7.2 
" style="fill: none; stroke: #000000; stroke-width: 0.8; stroke-linejoin: miter; stroke-linecap: square"/>
   </g>
   <g id="patch_4">
    <path d="M 362.887074 279 
L 362.887074 7.2 
" style="fill: none; stroke: #000000; stroke-width: 0.8; stroke-linejoin: miter; stroke-linecap: square"/>
   </g>
   <g id="patch_5">
    <path d="M 58.523438 279 
L 362.887074 279 
" style="fill: none; stroke: #000000; stroke-width: 0.8; stroke-linejoin: miter; stroke-linecap: square"/>
   </g>
   <g id="patch_6">
    <path d="M 58.523438 7.2 
L 362.887074 7.2 
" style="fill: none; stroke: #000000; stroke-width: 0.8; stroke-linejoin: miter; stroke-linecap: square"/>
   </g>
   <g id="legend_1">
    <g id="patch_7">
     <path d="M 306.244886 44.55625 
L 355.887074 44.55625 
Q 357.887074 44.55625 357.887074 42.55625 
L 357.887074 14.2 
Q 357.887074 12.2 355.887074 12.2 
L 306.244886 12.2 
Q 304.244886 12.2 304.244886 14.2 
L 304.244886 42.55625 
Q 304.244886 44.55625 306.244886 44.55625 
z
" style="fill: #ffffff; opacity: 0.8; stroke: #cccccc; stroke-linejoin: miter"/>
    </g>
    <g id="line2d_21">
     <path d="M 308.244886 20.298437 
L 318.244886 20.298437 
L 328.244886 20.298437 
" style="fill: none; stroke: #000000; stroke-width: 1.5; stroke-linecap: square"/>
    </g>
    <g id="text_21">
     <!-- x(t) -->
     <g transform="translate(336.244886 23.798437)scale(0.1 -0.1)">
      <use xlink:href="#DejaVuSans-78"/>
      <use xlink:href="#DejaVuSans-28" x="59.179688"/>
      <use xlink:href="#DejaVuSans-74" x="98.193359"/>
      <use xlink:href="#DejaVuSans-29" x="137.402344"/>
     </g>
    </g>
    <g id="line2d_22">
     <path d="M 308.244886 34.976562 
L 318.244886 34.976562 
L 328.244886 34.976562 
" style="fill: none; stroke: #ff7f0e; stroke-width: 1.5; stroke-linecap: square"/>
    </g>
    <g id="text_22">
     <!-- v(t) -->
     <g transform="translate(336.244886 38.476562)scale(0.1 -0.1)">
      <defs>
       <path id="DejaVuSans-76" d="M 191 3500 
L 800 3500 
L 1894 563 
L 2988 3500 
L 3597 3500 
L 2284 0 
L 1503 0 
L 191 3500 
z
" transform="scale(0.015625)"/>
      </defs>
      <use xlink:href="#DejaVuSans-76"/>
      <use xlink:href="#DejaVuSans-28" x="59.179688"/>
      <use xlink:href="#DejaVuSans-74" x="98.193359"/>
      <use xlink:href="#DejaVuSans-29" x="137.402344"/>
     </g>
    </g>
   </g>
  </g>
  <g id="axes_2">
   <g id="patch_8">
    <path d="M 423.759801 279 
L 728.123437 279 
L 728.123437 7.2 
L 423.759801 7.2 
z
" style="fill: #ffffff"/>
   </g>
   <g id="matplotlib.axis_3">
    <g id="xtick_10">
     <g id="line2d_23">
      <g>
       <use xlink:href="#mbdedf30d07" x="452.995067" y="279" style="stroke: #000000; stroke-width: 0.8"/>
      </g>
     </g>
     <g id="text_23">
      <!-- −0.75 -->
      <g transform="translate(437.67241 293.598437)scale(0.1 -0.1)">
       <use xlink:href="#DejaVuSans-2212"/>
       <use xlink:href="#DejaVuSans-30" x="83.789062"/>
       <use xlink:href="#DejaVuSans-2e" x="147.412109"/>
       <use xlink:href="#DejaVuSans-37" x="179.199219"/>
       <use xlink:href="#DejaVuSans-35" x="242.822266"/>
      </g>
     </g>
    </g>
    <g id="xtick_11">
     <g id="line2d_24">
      <g>
       <use xlink:href="#mbdedf30d07" x="490.322732" y="279" style="stroke: #000000; stroke-width: 0.8"/>
      </g>
     </g>
     <g id="text_24">
      <!-- −0.50 -->
      <g transform="translate(475.000076 293.598437)scale(0.1 -0.1)">
       <use xlink:href="#DejaVuSans-2212"/>
       <use xlink:href="#DejaVuSans-30" x="83.789062"/>
       <use xlink:href="#DejaVuSans-2e" x="147.412109"/>
       <use xlink:href="#DejaVuSans-35" x="179.199219"/>
       <use xlink:href="#DejaVuSans-30" x="242.822266"/>
      </g>
     </g>
    </g>
    <g id="xtick_12">
     <g id="line2d_25">
      <g>
       <use xlink:href="#mbdedf30d07" x="527.650398" y="279" style="stroke: #000000; stroke-width: 0.8"/>
      </g>
     </g>
     <g id="text_25">
      <!-- −0.25 -->
      <g transform="translate(512.327742 293.598437)scale(0.1 -0.1)">
       <use xlink:href="#DejaVuSans-2212"/>
       <use xlink:href="#DejaVuSans-30" x="83.789062"/>
       <use xlink:href="#DejaVuSans-2e" x="147.412109"/>
       <use xlink:href="#DejaVuSans-32" x="179.199219"/>
       <use xlink:href="#DejaVuSans-35" x="242.822266"/>
      </g>
     </g>
    </g>
    <g id="xtick_13">
     <g id="line2d_26">
      <g>
       <use xlink:href="#mbdedf30d07" x="564.978064" y="279" style="stroke: #000000; stroke-width: 0.8"/>
      </g>
     </g>
     <g id="text_26">
      <!-- 0.00 -->
      <g transform="translate(553.845251 293.598437)scale(0.1 -0.1)">
       <use xlink:href="#DejaVuSans-30"/>
       <use xlink:href="#DejaVuSans-2e" x="63.623047"/>
       <use xlink:href="#DejaVuSans-30" x="95.410156"/>
       <use xlink:href="#DejaVuSans-30" x="159.033203"/>
      </g>
     </g>
    </g>
    <g id="xtick_14">
     <g id="line2d_27">
      <g>
       <use xlink:href="#mbdedf30d07" x="602.30573" y="279" style="stroke: #000000; stroke-width: 0.8"/>
      </g>
     </g>
     <g id="text_27">
      <!-- 0.25 -->
      <g transform="translate(591.172917 293.598437)scale(0.1 -0.1)">
       <use xlink:href="#DejaVuSans-30"/>
       <use xlink:href="#DejaVuSans-2e" x="63.623047"/>
       <use xlink:href="#DejaVuSans-32" x="95.410156"/>
       <use xlink:href="#DejaVuSans-35" x="159.033203"/>
      </g>
     </g>
    </g>
    <g id="xtick_15">
     <g id="line2d_28">
      <g>
       <use xlink:href="#mbdedf30d07" x="639.633395" y="279" style="stroke: #000000; stroke-width: 0.8"/>
      </g>
     </g>
     <g id="text_28">
      <!-- 0.50 -->
      <g transform="translate(628.500583 293.598437)scale(0.1 -0.1)">
       <use xlink:href="#DejaVuSans-30"/>
       <use xlink:href="#DejaVuSans-2e" x="63.623047"/>
       <use xlink:href="#DejaVuSans-35" x="95.410156"/>
       <use xlink:href="#DejaVuSans-30" x="159.033203"/>
      </g>
     </g>
    </g>
    <g id="xtick_16">
     <g id="line2d_29">
      <g>
       <use xlink:href="#mbdedf30d07" x="676.961061" y="279" style="stroke: #000000; stroke-width: 0.8"/>
      </g>
     </g>
     <g id="text_29">
      <!-- 0.75 -->
      <g transform="translate(665.828249 293.598437)scale(0.1 -0.1)">
       <use xlink:href="#DejaVuSans-30"/>
       <use xlink:href="#DejaVuSans-2e" x="63.623047"/>
       <use xlink:href="#DejaVuSans-37" x="95.410156"/>
       <use xlink:href="#DejaVuSans-35" x="159.033203"/>
      </g>
     </g>
    </g>
    <g id="xtick_17">
     <g id="line2d_30">
      <g>
       <use xlink:href="#mbdedf30d07" x="714.288727" y="279" style="stroke: #000000; stroke-width: 0.8"/>
      </g>
     </g>
     <g id="text_30">
      <!-- 1.00 -->
      <g transform="translate(703.155914 293.598437)scale(0.1 -0.1)">
       <use xlink:href="#DejaVuSans-31"/>
       <use xlink:href="#DejaVuSans-2e" x="63.623047"/>
       <use xlink:href="#DejaVuSans-30" x="95.410156"/>
       <use xlink:href="#DejaVuSans-30" x="159.033203"/>
      </g>
     </g>
    </g>
    <g id="text_31">
     <!-- Displacement (x) -->
     <g transform="translate(533.118963 307.276562)scale(0.1 -0.1)">
      <use xlink:href="#DejaVuSans-44"/>
      <use xlink:href="#DejaVuSans-69" x="77.001953"/>
      <use xlink:href="#DejaVuSans-73" x="104.785156"/>
      <use xlink:href="#DejaVuSans-70" x="156.884766"/>
      <use xlink:href="#DejaVuSans-6c" x="220.361328"/>
      <use xlink:href="#DejaVuSans-61" x="248.144531"/>
      <use xlink:href="#DejaVuSans-63" x="309.423828"/>
      <use xlink:href="#DejaVuSans-65" x="364.404297"/>
      <use xlink:href="#DejaVuSans-6d" x="425.927734"/>
      <use xlink:href="#DejaVuSans-65" x="523.339844"/>
      <use xlink:href="#DejaVuSans-6e" x="584.863281"/>
      <use xlink:href="#DejaVuSans-74" x="648.242188"/>
      <use xlink:href="#DejaVuSans-20" x="687.451172"/>
      <use xlink:href="#DejaVuSans-28" x="719.238281"/>
      <use xlink:href="#DejaVuSans-78" x="758.251953"/>
      <use xlink:href="#DejaVuSans-29" x="817.431641"/>
     </g>
    </g>
   </g>
   <g id="matplotlib.axis_4">
    <g id="ytick_10">
     <g id="line2d_31">
      <g>
       <use xlink:href="#m77c08a7b8a" x="423.759801" y="277.640586" style="stroke: #000000; stroke-width: 0.8"/>
      </g>
     </g>
     <g id="text_32">
      <!-- −1.00 -->
      <g transform="translate(386.114489 281.439805)scale(0.1 -0.1)">
       <use xlink:href="#DejaVuSans-2212"/>
       <use xlink:href="#DejaVuSans-31" x="83.789062"/>
       <use xlink:href="#DejaVuSans-2e" x="147.412109"/>
       <use xlink:href="#DejaVuSans-30" x="179.199219"/>
       <use xlink:href="#DejaVuSans-30" x="242.822266"/>
      </g>
     </g>
    </g>
    <g id="ytick_11">
     <g id="line2d_32">
      <g>
       <use xlink:href="#m77c08a7b8a" x="423.759801" y="241.595592" style="stroke: #000000; stroke-width: 0.8"/>
      </g>
     </g>
     <g id="text_33">
      <!-- −0.75 -->
      <g transform="translate(386.114489 245.394811)scale(0.1 -0.1)">
       <use xlink:href="#DejaVuSans-2212"/>
       <use xlink:href="#DejaVuSans-30" x="83.789062"/>
       <use xlink:href="#DejaVuSans-2e" x="147.412109"/>
       <use xlink:href="#DejaVuSans-37" x="179.199219"/>
       <use xlink:href="#DejaVuSans-35" x="242.822266"/>
      </g>
     </g>
    </g>
    <g id="ytick_12">
     <g id="line2d_33">
      <g>
       <use xlink:href="#m77c08a7b8a" x="423.759801" y="205.550599" style="stroke: #000000; stroke-width: 0.8"/>
      </g>
     </g>
     <g id="text_34">
      <!-- −0.50 -->
      <g transform="translate(386.114489 209.349818)scale(0.1 -0.1)">
       <use xlink:href="#DejaVuSans-2212"/>
       <use xlink:href="#DejaVuSans-30" x="83.789062"/>
       <use xlink:href="#DejaVuSans-2e" x="147.412109"/>
       <use xlink:href="#DejaVuSans-35" x="179.199219"/>
       <use xlink:href="#DejaVuSans-30" x="242.822266"/>
      </g>
     </g>
    </g>
    <g id="ytick_13">
     <g id="line2d_34">
      <g>
       <use xlink:href="#m77c08a7b8a" x="423.759801" y="169.505605" style="stroke: #000000; stroke-width: 0.8"/>
      </g>
     </g>
     <g id="text_35">
      <!-- −0.25 -->
      <g transform="translate(386.114489 173.304824)scale(0.1 -0.1)">
       <use xlink:href="#DejaVuSans-2212"/>
       <use xlink:href="#DejaVuSans-30" x="83.789062"/>
       <use xlink:href="#DejaVuSans-2e" x="147.412109"/>
       <use xlink:href="#DejaVuSans-32" x="179.199219"/>
       <use xlink:href="#DejaVuSans-35" x="242.822266"/>
      </g>
     </g>
    </g>
    <g id="ytick_14">
     <g id="line2d_35">
      <g>
       <use xlink:href="#m77c08a7b8a" x="423.759801" y="133.460612" style="stroke: #000000; stroke-width: 0.8"/>
      </g>
     </g>
     <g id="text_36">
      <!-- 0.00 -->
      <g transform="translate(394.494176 137.25983)scale(0.1 -0.1)">
       <use xlink:href="#DejaVuSans-30"/>
       <use xlink:href="#DejaVuSans-2e" x="63.623047"/>
       <use xlink:href="#DejaVuSans-30" x="95.410156"/>
       <use xlink:href="#DejaVuSans-30" x="159.033203"/>
      </g>
     </g>
    </g>
    <g id="ytick_15">
     <g id="line2d_36">
      <g>
       <use xlink:href="#m77c08a7b8a" x="423.759801" y="97.415618" style="stroke: #000000; stroke-width: 0.8"/>
      </g>
     </g>
     <g id="text_37">
      <!-- 0.25 -->
      <g transform="translate(394.494176 101.214837)scale(0.1 -0.1)">
       <use xlink:href="#DejaVuSans-30"/>
       <use xlink:href="#DejaVuSans-2e" x="63.623047"/>
       <use xlink:href="#DejaVuSans-32" x="95.410156"/>
       <use xlink:href="#DejaVuSans-35" x="159.033203"/>
      </g>
     </g>
    </g>
    <g id="ytick_16">
     <g id="line2d_37">
      <g>
       <use xlink:href="#m77c08a7b8a" x="423.759801" y="61.370625" style="stroke: #000000; stroke-width: 0.8"/>
      </g>
     </g>
     <g id="text_38">
      <!-- 0.50 -->
      <g transform="translate(394.494176 65.169843)scale(0.1 -0.1)">
       <use xlink:href="#DejaVuSans-30"/>
       <use xlink:href="#DejaVuSans-2e" x="63.623047"/>
       <use xlink:href="#DejaVuSans-35" x="95.410156"/>
       <use xlink:href="#DejaVuSans-30" x="159.033203"/>
      </g>
     </g>
    </g>
    <g id="ytick_17">
     <g id="line2d_38">
      <g>
       <use xlink:href="#m77c08a7b8a" x="423.759801" y="25.325631" style="stroke: #000000; stroke-width: 0.8"/>
      </g>
     </g>
     <g id="text_39">
      <!-- 0.75 -->
      <g transform="translate(394.494176 29.12485)scale(0.1 -0.1)">
       <use xlink:href="#DejaVuSans-30"/>
       <use xlink:href="#DejaVuSans-2e" x="63.623047"/>
       <use xlink:href="#DejaVuSans-37" x="95.410156"/>
       <use xlink:href="#DejaVuSans-35" x="159.033203"/>
      </g>
     </g>
    </g>
    <g id="text_40">
     <!-- Velocity (v) -->
     <g transform="translate(380.034801 171.165625)rotate(-90)scale(0.1 -0.1)">
      <defs>
       <path id="DejaVuSans-56" d="M 1831 0 
L 50 4666 
L 709 4666 
L 2188 738 
L 3669 4666 
L 4325 4666 
L 2547 0 
L 1831 0 
z
" transform="scale(0.015625)"/>
       <path id="DejaVuSans-6f" d="M 1959 3097 
Q 1497 3097 1228 2736 
Q 959 2375 959 1747 
Q 959 1119 1226 758 
Q 1494 397 1959 397 
Q 2419 397 2687 759 
Q 2956 1122 2956 1747 
Q 2956 2369 2687 2733 
Q 2419 3097 1959 3097 
z
M 1959 3584 
Q 2709 3584 3137 3096 
Q 3566 2609 3566 1747 
Q 3566 888 3137 398 
Q 2709 -91 1959 -91 
Q 1206 -91 779 398 
Q 353 888 353 1747 
Q 353 2609 779 3096 
Q 1206 3584 1959 3584 
z
" transform="scale(0.015625)"/>
       <path id="DejaVuSans-79" d="M 2059 -325 
Q 1816 -950 1584 -1140 
Q 1353 -1331 966 -1331 
L 506 -1331 
L 506 -850 
L 844 -850 
Q 1081 -850 1212 -737 
Q 1344 -625 1503 -206 
L 1606 56 
L 191 3500 
L 800 3500 
L 1894 763 
L 2988 3500 
L 3597 3500 
L 2059 -325 
z
" transform="scale(0.015625)"/>
      </defs>
      <use xlink:href="#DejaVuSans-56"/>
      <use xlink:href="#DejaVuSans-65" x="60.658203"/>
      <use xlink:href="#DejaVuSans-6c" x="122.181641"/>
      <use xlink:href="#DejaVuSans-6f" x="149.964844"/>
      <use xlink:href="#DejaVuSans-63" x="211.146484"/>
      <use xlink:href="#DejaVuSans-69" x="266.126953"/>
      <use xlink:href="#DejaVuSans-74" x="293.910156"/>
      <use xlink:href="#DejaVuSans-79" x="333.119141"/>
      <use xlink:href="#DejaVuSans-20" x="392.298828"/>
      <use xlink:href="#DejaVuSans-28" x="424.085938"/>
      <use xlink:href="#DejaVuSans-76" x="463.099609"/>
      <use xlink:href="#DejaVuSans-29" x="522.279297"/>
     </g>
    </g>
   </g>
   <g id="line2d_39">
    <path d="M 714.288727 133.460612 
L 711.326743 161.849798 
L 702.637337 188.556032 
L 688.671294 212.546422 
L 670.088268 232.935694 
L 647.717562 249.013602 
L 622.523211 260.193847 
L 595.544762 266.109246 
L 567.878537 266.645455 
L 540.651707 261.930866 
L 514.912277 252.248722 
L 491.683432 238.049592 
L 471.833677 219.963946 
L 456.062326 198.800015 
L 444.889938 175.498975 
L 438.670933 150.997578 
L 437.594512 126.297791 
L 441.611258 102.368519 
L 450.430196 80.138813 
L 463.573941 60.454648 
L 480.463709 44.04749 
L 500.369529 31.522072 
L 522.449424 23.287036 
L 545.767223 19.554545 
L 569.390663 20.378096 
L 592.358326 25.671103 
L 613.779966 35.155397 
L 632.850409 48.357651 
L 648.86352 64.63452 
L 661.254741 83.30408 
L 669.57429 103.584698 
L 673.569525 124.653514 
L 673.19243 145.655615 
L 668.569072 165.764935 
L 659.944634 184.197122 
L 647.716853 200.238708 
L 632.43536 213.31168 
L 614.799086 222.974189 
L 595.550306 228.928445 
L 575.47983 230.984575 
L 555.394 229.117222 
L 536.078371 223.484482 
L 518.290635 214.421191 
L 502.691927 202.347933 
L 489.877858 187.789314 
L 480.304569 171.359609 
L 474.270923 153.751409 
L 471.921963 135.692914 
L 473.29187 117.902528 
L 478.27985 101.091736 
L 486.623578 85.897995 
L 497.899076 72.884066 
L 511.583463 62.512078 
L 527.105314 55.151208 
L 543.819647 51.051821 
L 561.048617 50.306463 
L 578.088294 52.852292 
L 594.281758 58.519878 
L 608.985479 67.04204 
L 621.643199 78.040049 
L 631.805706 91.026061 
L 639.134182 105.417356 
L 643.399787 120.631575 
L 644.468024 136.045331 
L 642.349474 151.050914 
L 637.204983 165.067344 
L 629.325666 177.556218 
L 619.062059 188.057302 
L 606.859671 196.179183 
L 593.234039 201.650984 
L 578.763776 204.325062 
L 564.029623 204.160213 
L 549.631847 201.197777 
L 536.132912 195.595343 
L 524.040992 187.631523 
L 513.80568 177.69853 
L 505.786882 166.219439 
L 500.276945 153.674735 
L 497.450284 140.575031 
L 497.353495 127.449567 
L 499.917024 114.82175 
L 504.997315 103.178015 
L 512.358231 92.974063 
L 521.669799 84.581354 
L 532.508478 78.285956 
L 544.407843 74.283067 
L 556.882655 72.698683 
L 569.427635 73.563651 
L 581.551781 76.7947 
L 592.7796 82.195577 
L 602.691084 89.506544 
L 610.909615 98.410004 
L 617.13775 108.528902 
L 621.176571 119.438535 
L 622.924835 130.683231 
L 622.354938 141.81784 
L 619.517409 152.39395 
L 614.562571 162.008053 
L 607.74107 170.304051 
L 599.37844 176.984146 
L 589.823059 181.813996 
L 579.474231 184.625091 
L 568.751642 185.34683 
L 558.093306 184.006742 
L 547.913065 180.705572 
L 538.613287 175.601472 
L 530.549951 168.921996 
L 524.011579 160.961917 
L 519.218253 152.079475 
L 516.318518 142.638503 
L 515.405243 133.025296 
L 516.484147 123.621222 
L 519.467445 114.790073 
L 524.180456 106.872658 
L 530.409112 100.159978 
L 537.882452 94.903916 
L 546.284656 91.283482 
L 555.259185 89.400525 
L 564.442878 89.286168 
L 573.463005 90.921402 
L 581.963763 94.217848 
L 589.624218 99.012224 
L 596.159097 105.067638 
L 601.338064 112.119657 
L 604.973034 119.874141 
L 606.94443 128.013889 
L 607.212557 136.211195 
L 605.813834 144.136223 
L 602.833287 151.485893 
L 598.410781 157.970624 
L 592.744203 163.351537 
L 586.088889 167.443731 
L 578.738009 170.118746 
L 570.988984 171.294598 
L 563.158314 170.942781 
L 555.553166 169.1055 
L 548.470729 165.895888 
L 542.17946 161.475601 
L 536.915373 156.036003 
L 532.872353 149.808803 
L 530.182489 143.054449 
L 528.916159 136.056602 
L 529.094137 129.092125 
L 530.692114 122.442658 
L 533.624656 116.363835 
L 537.744159 111.081051 
L 542.849887 106.785434 
L 548.727661 103.62597 
L 555.13105 101.714818 
L 561.800047 101.104214 
L 568.463302 101.784895 
L 574.858337 103.696961 
L 580.735678 106.74686 
L 585.867305 110.797895 
L 590.067834 115.672118 
L 593.194652 121.150789 
L 595.150999 127.005243 
L 595.874409 132.997298 
L 595.353529 138.88733 
L 593.635158 144.447404 
L 590.82268 149.462617 
L 587.047976 153.748384 
L 582.475301 157.143659 
L 577.298205 159.530254 
L 571.735272 160.8384 
L 566.015242 161.044668 
L 560.367555 160.157792 
L 555.01774 158.226733 
L 550.168726 155.346663 
L 546.00081 151.658964 
L 542.662412 147.330552 
L 540.272772 142.540303 
L 538.913509 137.48566 
L 538.616282 132.369643 
L 539.363613 127.3989 
L 541.104441 122.76344 
L 543.756018 118.645934 
L 547.199745 115.200256 
L 551.282007 112.54599 
L 555.820356 110.767509 
L 560.630878 109.917697 
L 565.516084 110.019685 
L 570.283522 111.053384 
L 574.747881 112.95469 
L 578.737456 115.623189 
L 582.104829 118.943149 
L 584.724094 122.772323 
L 586.507636 126.950918 
L 587.406708 131.303324 
L 587.406215 135.656599 
L 586.517358 139.834683 
L 584.788203 143.675387 
L 582.305247 147.035944 
L 579.190983 149.794161 
L 575.578324 151.855103 
L 571.618779 153.145033 
L 567.473609 153.62608 
L 563.310459 153.298782 
L 559.296013 152.19829 
L 555.584482 150.380361 
L 552.32163 147.927032 
L 549.626705 144.945638 
L 547.591883 141.568665 
L 546.280661 137.940887 
L 545.733829 134.208113 
L 545.963405 130.521182 
L 546.945293 127.023054 
L 548.619386 123.848678 
L 550.903558 121.115751 
L 553.698694 118.926228 
L 556.88603 117.358152 
L 560.33185 116.459095 
L 563.892382 116.246686 
L 567.426349 116.716728 
L 570.791128 117.842331 
L 573.85812 119.568346 
L 576.513587 121.811243 
L 578.661725 124.465832 
L 580.227613 127.422985 
L 581.156083 130.559939 
L 581.422853 133.750733 
L 581.034868 136.866846 
L 580.023218 139.787863 
L 578.43687 142.400031 
L 576.346973 144.60396 
L 573.845812 146.32217 
L 571.045583 147.499301 
L 568.06121 148.101352 
L 565.015204 148.111132 
L 562.028472 147.537175 
L 559.216688 146.415271 
L 556.68872 144.806592 
L 554.537431 142.782447 
L 552.843731 140.429707 
L 551.665725 137.84656 
L 551.03706 135.141067 
L 550.968695 132.421909 
L 551.455549 129.798298 
L 552.470882 127.373371 
L 553.964277 125.237682 
L 555.861944 123.46905 
L 558.0805 122.128277 
L 560.527308 121.26306 
L 563.102146 120.900452 
L 565.701387 121.043515 
L 568.220007 121.672312 
L 570.56195 122.753042 
L 572.634751 124.236562 
L 574.361553 126.058121 
L 575.682772 128.137763 
L 576.556687 130.38447 
L 576.957092 132.708439 
L 576.873581 135.01502 
L 576.317917 137.214374 
L 575.324267 139.222111 
L 573.944183 140.962685 
L 572.237288 142.372349 
L 570.276559 143.399603 
L 568.143831 144.012081 
L 565.928677 144.196563 
L 563.718821 143.955156 
L 561.603761 143.302692 
L 559.665288 142.270964 
L 557.975314 140.909086 
L 556.595188 139.282054 
L 555.572242 137.457784 
L 554.943001 135.512075 
L 554.725616 133.523318 
L 554.918672 131.570876 
L 555.503271 129.731871 
L 556.450203 128.076184 
L 557.716705 126.668003 
L 559.247328 125.5577 
L 560.974049 124.781575 
L 562.824127 124.361714 
L 564.722351 124.309872 
L 566.59244 124.623263 
L 568.362001 125.282273 
L 569.962658 126.250606 
L 571.335338 127.483301 
L 572.42872 128.927739 
L 573.204083 130.523446 
L 573.638239 132.204389 
L 573.72315 133.901479 
L 573.461678 135.548042 
L 572.868487 137.07818 
L 571.972544 138.434156 
L 570.817163 139.566726 
L 569.455904 140.436491 
L 567.944778 141.013747 
L 566.346403 141.279168 
L 564.724862 141.228348 
L 563.145508 140.871844 
L 561.669216 140.231031 
L 560.353425 139.335322 
L 559.248146 138.223865 
L 558.392116 136.944617 
L 557.812711 135.553832 
L 557.526362 134.107834 
L 557.540986 132.6655 
L 557.851545 131.283639 
L 558.439214 130.014994 
L 559.272201 128.907674 
L 560.313566 128.001545 
L 561.518739 127.330229 
L 562.837582 126.915975 
L 564.215215 126.768794 
L 565.595808 126.887488 
L 566.924677 127.263336 
L 568.149167 127.878132 
L 569.223514 128.703371 
L 570.108859 129.700255 
L 570.774875 130.824771 
L 571.198549 132.031038 
L 571.36629 133.269796 
L 571.276746 134.492021 
L 570.940671 135.649128 
L 570.376601 136.69742 
L 569.610169 137.596351 
L 568.674768 138.312774 
L 567.610908 138.822752 
L 566.464798 139.111635 
L 565.282427 139.172345 
L 564.112042 139.005079 
L 562.999252 138.620146 
L 561.986516 138.038117 
L 561.112026 137.288141 
L 560.407313 136.401955 
L 559.89833 135.416979 
L 559.601287 134.373595 
L 559.522431 133.314833 
L 559.659575 132.282353 
L 560.004334 131.317245 
L 560.540191 130.456889 
L 561.242213 129.732675 
L 562.077289 129.169923 
L 563.010014 128.786935 
L 564.001803 128.596745 
L 565.012613 128.603986 
L 566.002448 128.803964 
L 566.93199 129.183123 
L 567.766394 129.723321 
L 568.473269 130.400756 
L 569.027023 131.186556 
L 569.409569 132.04711 
L 569.610343 132.945997 
L 569.624505 133.847547 
L 569.453709 134.715392 
L 569.107937 135.516262 
L 568.605526 136.220096 
L 567.97082 136.801247 
L 567.230494 137.238934 
L 566.415641 137.517634 
L 565.559578 137.629635 
L 564.697633 137.575004 
L 563.863396 137.359681 
L 563.090163 136.99434 
L 562.407626 136.495535 
L 561.840483 135.885674 
L 561.408339 135.192703 
L 561.12506 134.445202 
L 561.000163 133.673846 
L 561.036158 132.909389 
L 561.227961 132.181633 
L 561.563383 131.518943 
L 562.026796 130.945825 
L 562.597859 130.484078 
L 563.252272 130.149804 
L 563.962029 129.95302 
L 564.697874 129.897911 
L 565.430137 129.984634 
L 566.129594 130.207955 
L 566.769617 130.556506 
L 567.326172 131.012788 
L 567.779291 131.556087 
L 568.11258 132.163813 
L 568.314515 132.810867 
L 568.379978 133.471129 
L 568.310145 134.117766 
L 568.110557 134.725992 
L 567.790861 135.271712 
L 567.365484 135.734432 
L 566.853575 136.09793 
L 566.278312 136.350385 
L 565.663071 136.48413 
L 565.033167 136.49518 
L 564.413518 136.385114 
L 563.828288 136.161238 
L 563.300157 135.835794 
L 562.848632 135.423061 
L 562.4908 134.940793 
L 562.238892 134.409155 
L 562.100142 133.850588 
L 562.077191 133.287536 
L 562.169414 132.742635 
L 562.371622 132.237298 
L 562.67366 131.790427 
L 563.515007 131.13398 
L 564.549648 130.864553 
L 565.610646 131.009143 
L 566.532054 131.526998 
L 567.174968 132.32597 
L 567.453167 133.268969 
L 567.335591 134.204217 
L 566.856495 134.987676 
L 566.105801 135.50358 
L 565.209097 135.681459 
L 564.311616 135.50927 
L 563.55354 135.024517 
L 563.045614 134.31655 
L 562.857599 133.504156 
L 563.006673 132.716604 
L 563.454601 132.075162 
L 564.122226 131.674814 
L 564.896071 131.566082 
L 565.651886 131.756264 
L 566.273728 132.20374 
L 566.670295 132.827825 
L 566.787945 133.52593 
L 566.621375 134.186695 
L 566.205364 134.708154 
L 565.615473 135.016104 
L 564.950319 135.070653 
L 564.315365 134.872504 
L 563.807912 134.464016 
L 563.502751 133.915358 
L 563.437576 133.317754 
L 563.614371 132.766135 
L 563.996251 132.343835 
L 564.514731 132.111013 
L 565.085038 132.097572 
L 565.616521 132.295228 
L 566.027528 132.666409 
L 566.259798 133.146394 
L 566.284456 133.65589 
L 566.104511 134.115077 
L 565.757682 134.454968 
L 565.303301 134.626691 
L 564.816168 134.611267 
L 564.37353 134.417908 
L 564.042176 134.082987 
L 563.868509 133.665243 
L 563.874612 133.232104 
L 564.051161 132.851238 
L 564.364587 132.580164 
L 564.761159 132.456374 
L 565.175607 132.492715 
L 565.543003 132.678673 
L 565.808605 132.978109 
L 565.934567 133.340599 
L 565.838618 133.874738 
L 565.455388 134.236443 
L 564.932662 134.313942 
L 564.455747 134.096213 
L 564.184364 133.675607 
L 564.198223 133.206226 
L 564.476941 132.851053 
L 564.909222 132.723395 
L 565.339948 132.854156 
L 565.622237 133.183229 
L 565.669486 133.587485 
L 565.478386 133.924787 
L 565.128863 134.084881 
L 564.748186 134.023224 
L 564.468148 133.773974 
L 564.377445 133.432726 
L 564.496693 133.121032 
L 564.772166 132.942799 
L 565.101824 132.951094 
L 565.369938 133.132115 
L 565.489469 133.414232 
L 565.427761 133.695546 
L 565.217186 133.880682 
L 564.846067 133.886676 
L 564.580843 133.642958 
L 564.568293 133.31172 
L 564.796018 133.092999 
L 565.112727 133.105816 
L 565.326343 133.325275 
L 565.319763 133.606731 
L 565.114108 133.781024 
L 564.844796 133.754793 
L 564.674005 133.558452 
L 564.694265 133.320108 
L 564.878777 133.182405 
L 565.153988 133.252016 
L 565.248611 133.497949 
L 565.096912 133.68768 
L 564.855411 133.660163 
L 564.744513 133.460197 
L 564.849057 133.279646 
L 565.056849 133.275037 
L 565.177208 133.472371 
L 565.043958 133.633057 
L 564.846474 133.567687 
L 564.829994 133.380726 
L 564.993804 133.311216 
L 565.123684 133.457879 
L 565.010395 133.589632 
L 564.861804 133.50371 
L 564.9347 133.353675 
L 565.079545 133.429783 
L 565.009344 133.553349 
L 564.887297 133.46408 
L 564.97314 133.379488 
L 564.989799 133.381746 
L 565.053812 133.476938 
L 565.041372 133.502966 
L 564.928546 133.504313 
L 564.915097 133.48099 
L 564.957509 133.402987 
L 565.014551 133.41737 
L 565.019995 133.49639 
L 564.944159 133.428085 
L 564.981013 133.454499 
" clip-path="url(#p0f084bcb26)" style="fill: none; stroke: #000000; stroke-width: 1.5; stroke-linecap: square"/>
   </g>
   <g id="patch_9">
    <path d="M 423.759801 279 
L 423.759801 7.2 
" style="fill: none; stroke: #000000; stroke-width: 0.8; stroke-linejoin: miter; stroke-linecap: square"/>
   </g>
   <g id="patch_10">
    <path d="M 728.123437 279 
L 728.123437 7.2 
" style="fill: none; stroke: #000000; stroke-width: 0.8; stroke-linejoin: miter; stroke-linecap: square"/>
   </g>
   <g id="patch_11">
    <path d="M 423.759801 279 
L 728.123437 279 
" style="fill: none; stroke: #000000; stroke-width: 0.8; stroke-linejoin: miter; stroke-linecap: square"/>
   </g>
   <g id="patch_12">
    <path d="M 423.759801 7.2 
L 728.123437 7.2 
" style="fill: none; stroke: #000000; stroke-width: 0.8; stroke-linejoin: miter; stroke-linecap: square"/>
   </g>
   <g id="legend_2">
    <g id="patch_13">
     <path d="M 590.192187 29.878125 
L 721.123437 29.878125 
Q 723.123437 29.878125 723.123437 27.878125 
L 723.123437 14.2 
Q 723.123437 12.2 721.123437 12.2 
L 590.192187 12.2 
Q 588.192187 12.2 588.192187 14.2 
L 588.192187 27.878125 
Q 588.192187 29.878125 590.192187 29.878125 
z
" style="fill: #ffffff; opacity: 0.8; stroke: #cccccc; stroke-linejoin: miter"/>
    </g>
    <g id="line2d_40">
     <path d="M 592.192187 20.298438 
L 602.192187 20.298438 
L 612.192187 20.298438 
" style="fill: none; stroke: #000000; stroke-width: 1.5; stroke-linecap: square"/>
    </g>
    <g id="text_41">
     <!-- b = 0.1, omega = 1 -->
     <g transform="translate(620.192187 23.798438)scale(0.1 -0.1)">
      <defs>
       <path id="DejaVuSans-62" d="M 3116 1747 
Q 3116 2381 2855 2742 
Q 2594 3103 2138 3103 
Q 1681 3103 1420 2742 
Q 1159 2381 1159 1747 
Q 1159 1113 1420 752 
Q 1681 391 2138 391 
Q 2594 391 2855 752 
Q 3116 1113 3116 1747 
z
M 1159 2969 
Q 1341 3281 1617 3432 
Q 1894 3584 2278 3584 
Q 2916 3584 3314 3078 
Q 3713 2572 3713 1747 
Q 3713 922 3314 415 
Q 2916 -91 2278 -91 
Q 1894 -91 1617 61 
Q 1341 213 1159 525 
L 1159 0 
L 581 0 
L 581 4863 
L 1159 4863 
L 1159 2969 
z
" transform="scale(0.015625)"/>
       <path id="DejaVuSans-3d" d="M 678 2906 
L 4684 2906 
L 4684 2381 
L 678 2381 
L 678 2906 
z
M 678 1631 
L 4684 1631 
L 4684 1100 
L 678 1100 
L 678 1631 
z
" transform="scale(0.015625)"/>
       <path id="DejaVuSans-2c" d="M 750 794 
L 1409 794 
L 1409 256 
L 897 -744 
L 494 -744 
L 750 256 
L 750 794 
z
" transform="scale(0.015625)"/>
       <path id="DejaVuSans-67" d="M 2906 1791 
Q 2906 2416 2648 2759 
Q 2391 3103 1925 3103 
Q 1463 3103 1205 2759 
Q 947 2416 947 1791 
Q 947 1169 1205 825 
Q 1463 481 1925 481 
Q 2391 481 2648 825 
Q 2906 1169 2906 1791 
z
M 3481 434 
Q 3481 -459 3084 -895 
Q 2688 -1331 1869 -1331 
Q 1566 -1331 1297 -1286 
Q 1028 -1241 775 -1147 
L 775 -588 
Q 1028 -725 1275 -790 
Q 1522 -856 1778 -856 
Q 2344 -856 2625 -561 
Q 2906 -266 2906 331 
L 2906 616 
Q 2728 306 2450 153 
Q 2172 0 1784 0 
Q 1141 0 747 490 
Q 353 981 353 1791 
Q 353 2603 747 3093 
Q 1141 3584 1784 3584 
Q 2172 3584 2450 3431 
Q 2728 3278 2906 2969 
L 2906 3500 
L 3481 3500 
L 3481 434 
z
" transform="scale(0.015625)"/>
      </defs>
      <use xlink:href="#DejaVuSans-62"/>
      <use xlink:href="#DejaVuSans-20" x="63.476562"/>
      <use xlink:href="#DejaVuSans-3d" x="95.263672"/>
      <use xlink:href="#DejaVuSans-20" x="179.052734"/>
      <use xlink:href="#DejaVuSans-30" x="210.839844"/>
      <use xlink:href="#DejaVuSans-2e" x="274.462891"/>
      <use xlink:href="#DejaVuSans-31" x="306.25"/>
      <use xlink:href="#DejaVuSans-2c" x="369.873047"/>
      <use xlink:href="#DejaVuSans-20" x="401.660156"/>
      <use xlink:href="#DejaVuSans-6f" x="433.447266"/>
      <use xlink:href="#DejaVuSans-6d" x="494.628906"/>
      <use xlink:href="#DejaVuSans-65" x="592.041016"/>
      <use xlink:href="#DejaVuSans-67" x="653.564453"/>
      <use xlink:href="#DejaVuSans-61" x="717.041016"/>
      <use xlink:href="#DejaVuSans-20" x="778.320312"/>
      <use xlink:href="#DejaVuSans-3d" x="810.107422"/>
      <use xlink:href="#DejaVuSans-20" x="893.896484"/>
      <use xlink:href="#DejaVuSans-31" x="925.683594"/>
     </g>
    </g>
   </g>
  </g>
 </g>
 <defs>
  <clipPath id="p41921f2ac1">
   <rect x="58.523438" y="7.2" width="304.363636" height="271.8"/>
  </clipPath>
  <clipPath id="p0f084bcb26">
   <rect x="423.759801" y="7.2" width="304.363636" height="271.8"/>
  </clipPath>
 </defs>
</svg>
