<?xml version="1.0" encoding="utf-8" standalone="no"?>
<!DOCTYPE svg PUBLIC "-//W3C//DTD SVG 1.1//EN"
  "http://www.w3.org/Graphics/SVG/1.1/DTD/svg11.dtd">
<svg xmlns:xlink="http://www.w3.org/1999/xlink" width="735.323437pt" height="316.55625pt" viewBox="0 0 735.323437 316.55625" xmlns="http://www.w3.org/2000/svg" version="1.1">
 <metadata>
  <rdf:RDF xmlns:dc="http://purl.org/dc/elements/1.1/" xmlns:cc="http://creativecommons.org/ns#" xmlns:rdf="http://www.w3.org/1999/02/22-rdf-syntax-ns#">
   <cc:Work>
    <dc:type rdf:resource="http://purl.org/dc/dcmitype/StillImage"/>
    <dc:date>2024-09-27T19:56:45.345791</dc:date>
    <dc:format>image/svg+xml</dc:format>
    <dc:creator>
     <cc:Agent>
      <dc:title>Matplotlib v3.5.2, https://matplotlib.org/</dc:title>
     </cc:Agent>
    </dc:creator>
   </cc:Work>
  </rdf:RDF>
 </metadata>
 <defs>
  <style type="text/css">*{stroke-linejoin: round; stroke-linecap: butt}</style>
 </defs>
 <g id="figure_1">
  <g id="patch_1">
   <path d="M 0 316.55625 
L 735.323437 316.55625 
L 735.323437 0 
L 0 0 
z
" style="fill: #ffffff"/>
  </g>
  <g id="axes_1">
   <g id="patch_2">
    <path d="M 58.523438 279 
L 362.887074 279 
L 362.887074 7.2 
L 58.523438 7.2 
z
" style="fill: #ffffff"/>
   </g>
   <g id="matplotlib.axis_1">
    <g id="xtick_1">
     <g id="line2d_1">
      <defs>
       <path id="m5f3685cf32" d="M 0 0 
L 0 3.5 
" style="stroke: #000000; stroke-width: 0.8"/>
      </defs>
      <g>
       <use xlink:href="#m5f3685cf32" x="72.358148" y="279" style="stroke: #000000; stroke-width: 0.8"/>
      </g>
     </g>
     <g id="text_1">
      <!-- 0 -->
      <g transform="translate(69.176898 293.598437)scale(0.1 -0.1)">
       <defs>
        <path id="DejaVuSans-30" d="M 2034 4250 
Q 1547 4250 1301 3770 
Q 1056 3291 1056 2328 
Q 1056 1369 1301 889 
Q 1547 409 2034 409 
Q 2525 409 2770 889 
Q 3016 1369 3016 2328 
Q 3016 3291 2770 3770 
Q 2525 4250 2034 4250 
z
M 2034 4750 
Q 2819 4750 3233 4129 
Q 3647 3509 3647 2328 
Q 3647 1150 3233 529 
Q 2819 -91 2034 -91 
Q 1250 -91 836 529 
Q 422 1150 422 2328 
Q 422 3509 836 4129 
Q 1250 4750 2034 4750 
z
" transform="scale(0.015625)"/>
       </defs>
       <use xlink:href="#DejaVuSans-30"/>
      </g>
     </g>
    </g>
    <g id="xtick_2">
     <g id="line2d_2">
      <g>
       <use xlink:href="#m5f3685cf32" x="109.25071" y="279" style="stroke: #000000; stroke-width: 0.8"/>
      </g>
     </g>
     <g id="text_2">
      <!-- 20 -->
      <g transform="translate(102.88821 293.598437)scale(0.1 -0.1)">
       <defs>
        <path id="DejaVuSans-32" d="M 1228 531 
L 3431 531 
L 3431 0 
L 469 0 
L 469 531 
Q 828 903 1448 1529 
Q 2069 2156 2228 2338 
Q 2531 2678 2651 2914 
Q 2772 3150 2772 3378 
Q 2772 3750 2511 3984 
Q 2250 4219 1831 4219 
Q 1534 4219 1204 4116 
Q 875 4013 500 3803 
L 500 4441 
Q 881 4594 1212 4672 
Q 1544 4750 1819 4750 
Q 2544 4750 2975 4387 
Q 3406 4025 3406 3419 
Q 3406 3131 3298 2873 
Q 3191 2616 2906 2266 
Q 2828 2175 2409 1742 
Q 1991 1309 1228 531 
z
" transform="scale(0.015625)"/>
       </defs>
       <use xlink:href="#DejaVuSans-32"/>
       <use xlink:href="#DejaVuSans-30" x="63.623047"/>
      </g>
     </g>
    </g>
    <g id="xtick_3">
     <g id="line2d_3">
      <g>
       <use xlink:href="#m5f3685cf32" x="146.143272" y="279" style="stroke: #000000; stroke-width: 0.8"/>
      </g>
     </g>
     <g id="text_3">
      <!-- 40 -->
      <g transform="translate(139.780772 293.598437)scale(0.1 -0.1)">
       <defs>
        <path id="DejaVuSans-34" d="M 2419 4116 
L 825 1625 
L 2419 1625 
L 2419 4116 
z
M 2253 4666 
L 3047 4666 
L 3047 1625 
L 3713 1625 
L 3713 1100 
L 3047 1100 
L 3047 0 
L 2419 0 
L 2419 1100 
L 313 1100 
L 313 1709 
L 2253 4666 
z
" transform="scale(0.015625)"/>
       </defs>
       <use xlink:href="#DejaVuSans-34"/>
       <use xlink:href="#DejaVuSans-30" x="63.623047"/>
      </g>
     </g>
    </g>
    <g id="xtick_4">
     <g id="line2d_4">
      <g>
       <use xlink:href="#m5f3685cf32" x="183.035834" y="279" style="stroke: #000000; stroke-width: 0.8"/>
      </g>
     </g>
     <g id="text_4">
      <!-- 60 -->
      <g transform="translate(176.673334 293.598437)scale(0.1 -0.1)">
       <defs>
        <path id="DejaVuSans-36" d="M 2113 2584 
Q 1688 2584 1439 2293 
Q 1191 2003 1191 1497 
Q 1191 994 1439 701 
Q 1688 409 2113 409 
Q 2538 409 2786 701 
Q 3034 994 3034 1497 
Q 3034 2003 2786 2293 
Q 2538 2584 2113 2584 
z
M 3366 4563 
L 3366 3988 
Q 3128 4100 2886 4159 
Q 2644 4219 2406 4219 
Q 1781 4219 1451 3797 
Q 1122 3375 1075 2522 
Q 1259 2794 1537 2939 
Q 1816 3084 2150 3084 
Q 2853 3084 3261 2657 
Q 3669 2231 3669 1497 
Q 3669 778 3244 343 
Q 2819 -91 2113 -91 
Q 1303 -91 875 529 
Q 447 1150 447 2328 
Q 447 3434 972 4092 
Q 1497 4750 2381 4750 
Q 2619 4750 2861 4703 
Q 3103 4656 3366 4563 
z
" transform="scale(0.015625)"/>
       </defs>
       <use xlink:href="#DejaVuSans-36"/>
       <use xlink:href="#DejaVuSans-30" x="63.623047"/>
      </g>
     </g>
    </g>
    <g id="xtick_5">
     <g id="line2d_5">
      <g>
       <use xlink:href="#m5f3685cf32" x="219.928396" y="279" style="stroke: #000000; stroke-width: 0.8"/>
      </g>
     </g>
     <g id="text_5">
      <!-- 80 -->
      <g transform="translate(213.565896 293.598437)scale(0.1 -0.1)">
       <defs>
        <path id="DejaVuSans-38" d="M 2034 2216 
Q 1584 2216 1326 1975 
Q 1069 1734 1069 1313 
Q 1069 891 1326 650 
Q 1584 409 2034 409 
Q 2484 409 2743 651 
Q 3003 894 3003 1313 
Q 3003 1734 2745 1975 
Q 2488 2216 2034 2216 
z
M 1403 2484 
Q 997 2584 770 2862 
Q 544 3141 544 3541 
Q 544 4100 942 4425 
Q 1341 4750 2034 4750 
Q 2731 4750 3128 4425 
Q 3525 4100 3525 3541 
Q 3525 3141 3298 2862 
Q 3072 2584 2669 2484 
Q 3125 2378 3379 2068 
Q 3634 1759 3634 1313 
Q 3634 634 3220 271 
Q 2806 -91 2034 -91 
Q 1263 -91 848 271 
Q 434 634 434 1313 
Q 434 1759 690 2068 
Q 947 2378 1403 2484 
z
M 1172 3481 
Q 1172 3119 1398 2916 
Q 1625 2713 2034 2713 
Q 2441 2713 2670 2916 
Q 2900 3119 2900 3481 
Q 2900 3844 2670 4047 
Q 2441 4250 2034 4250 
Q 1625 4250 1398 4047 
Q 1172 3844 1172 3481 
z
" transform="scale(0.015625)"/>
       </defs>
       <use xlink:href="#DejaVuSans-38"/>
       <use xlink:href="#DejaVuSans-30" x="63.623047"/>
      </g>
     </g>
    </g>
    <g id="xtick_6">
     <g id="line2d_6">
      <g>
       <use xlink:href="#m5f3685cf32" x="256.820958" y="279" style="stroke: #000000; stroke-width: 0.8"/>
      </g>
     </g>
     <g id="text_6">
      <!-- 100 -->
      <g transform="translate(247.277208 293.598437)scale(0.1 -0.1)">
       <defs>
        <path id="DejaVuSans-31" d="M 794 531 
L 1825 531 
L 1825 4091 
L 703 3866 
L 703 4441 
L 1819 4666 
L 2450 4666 
L 2450 531 
L 3481 531 
L 3481 0 
L 794 0 
L 794 531 
z
" transform="scale(0.015625)"/>
       </defs>
       <use xlink:href="#DejaVuSans-31"/>
       <use xlink:href="#DejaVuSans-30" x="63.623047"/>
       <use xlink:href="#DejaVuSans-30" x="127.246094"/>
      </g>
     </g>
    </g>
    <g id="xtick_7">
     <g id="line2d_7">
      <g>
       <use xlink:href="#m5f3685cf32" x="293.71352" y="279" style="stroke: #000000; stroke-width: 0.8"/>
      </g>
     </g>
     <g id="text_7">
      <!-- 120 -->
      <g transform="translate(284.16977 293.598437)scale(0.1 -0.1)">
       <use xlink:href="#DejaVuSans-31"/>
       <use xlink:href="#DejaVuSans-32" x="63.623047"/>
       <use xlink:href="#DejaVuSans-30" x="127.246094"/>
      </g>
     </g>
    </g>
    <g id="xtick_8">
     <g id="line2d_8">
      <g>
       <use xlink:href="#m5f3685cf32" x="330.606082" y="279" style="stroke: #000000; stroke-width: 0.8"/>
      </g>
     </g>
     <g id="text_8">
      <!-- 140 -->
      <g transform="translate(321.062332 293.598437)scale(0.1 -0.1)">
       <use xlink:href="#DejaVuSans-31"/>
       <use xlink:href="#DejaVuSans-34" x="63.623047"/>
       <use xlink:href="#DejaVuSans-30" x="127.246094"/>
      </g>
     </g>
    </g>
    <g id="text_9">
     <!-- Time (t) -->
     <g transform="translate(191.020881 307.276562)scale(0.1 -0.1)">
      <defs>
       <path id="DejaVuSans-54" d="M -19 4666 
L 3928 4666 
L 3928 4134 
L 2272 4134 
L 2272 0 
L 1638 0 
L 1638 4134 
L -19 4134 
L -19 4666 
z
" transform="scale(0.015625)"/>
       <path id="DejaVuSans-69" d="M 603 3500 
L 1178 3500 
L 1178 0 
L 603 0 
L 603 3500 
z
M 603 4863 
L 1178 4863 
L 1178 4134 
L 603 4134 
L 603 4863 
z
" transform="scale(0.015625)"/>
       <path id="DejaVuSans-6d" d="M 3328 2828 
Q 3544 3216 3844 3400 
Q 4144 3584 4550 3584 
Q 5097 3584 5394 3201 
Q 5691 2819 5691 2113 
L 5691 0 
L 5113 0 
L 5113 2094 
Q 5113 2597 4934 2840 
Q 4756 3084 4391 3084 
Q 3944 3084 3684 2787 
Q 3425 2491 3425 1978 
L 3425 0 
L 2847 0 
L 2847 2094 
Q 2847 2600 2669 2842 
Q 2491 3084 2119 3084 
Q 1678 3084 1418 2786 
Q 1159 2488 1159 1978 
L 1159 0 
L 581 0 
L 581 3500 
L 1159 3500 
L 1159 2956 
Q 1356 3278 1631 3431 
Q 1906 3584 2284 3584 
Q 2666 3584 2933 3390 
Q 3200 3197 3328 2828 
z
" transform="scale(0.015625)"/>
       <path id="DejaVuSans-65" d="M 3597 1894 
L 3597 1613 
L 953 1613 
Q 991 1019 1311 708 
Q 1631 397 2203 397 
Q 2534 397 2845 478 
Q 3156 559 3463 722 
L 3463 178 
Q 3153 47 2828 -22 
Q 2503 -91 2169 -91 
Q 1331 -91 842 396 
Q 353 884 353 1716 
Q 353 2575 817 3079 
Q 1281 3584 2069 3584 
Q 2775 3584 3186 3129 
Q 3597 2675 3597 1894 
z
M 3022 2063 
Q 3016 2534 2758 2815 
Q 2500 3097 2075 3097 
Q 1594 3097 1305 2825 
Q 1016 2553 972 2059 
L 3022 2063 
z
" transform="scale(0.015625)"/>
       <path id="DejaVuSans-20" transform="scale(0.015625)"/>
       <path id="DejaVuSans-28" d="M 1984 4856 
Q 1566 4138 1362 3434 
Q 1159 2731 1159 2009 
Q 1159 1288 1364 580 
Q 1569 -128 1984 -844 
L 1484 -844 
Q 1016 -109 783 600 
Q 550 1309 550 2009 
Q 550 2706 781 3412 
Q 1013 4119 1484 4856 
L 1984 4856 
z
" transform="scale(0.015625)"/>
       <path id="DejaVuSans-74" d="M 1172 4494 
L 1172 3500 
L 2356 3500 
L 2356 3053 
L 1172 3053 
L 1172 1153 
Q 1172 725 1289 603 
Q 1406 481 1766 481 
L 2356 481 
L 2356 0 
L 1766 0 
Q 1100 0 847 248 
Q 594 497 594 1153 
L 594 3053 
L 172 3053 
L 172 3500 
L 594 3500 
L 594 4494 
L 1172 4494 
z
" transform="scale(0.015625)"/>
       <path id="DejaVuSans-29" d="M 513 4856 
L 1013 4856 
Q 1481 4119 1714 3412 
Q 1947 2706 1947 2009 
Q 1947 1309 1714 600 
Q 1481 -109 1013 -844 
L 513 -844 
Q 928 -128 1133 580 
Q 1338 1288 1338 2009 
Q 1338 2731 1133 3434 
Q 928 4138 513 4856 
z
" transform="scale(0.015625)"/>
      </defs>
      <use xlink:href="#DejaVuSans-54"/>
      <use xlink:href="#DejaVuSans-69" x="57.958984"/>
      <use xlink:href="#DejaVuSans-6d" x="85.742188"/>
      <use xlink:href="#DejaVuSans-65" x="183.154297"/>
      <use xlink:href="#DejaVuSans-20" x="244.677734"/>
      <use xlink:href="#DejaVuSans-28" x="276.464844"/>
      <use xlink:href="#DejaVuSans-74" x="315.478516"/>
      <use xlink:href="#DejaVuSans-29" x="354.6875"/>
     </g>
    </g>
   </g>
   <g id="matplotlib.axis_2">
    <g id="ytick_1">
     <g id="line2d_9">
      <defs>
       <path id="m954c3e1f44" d="M 0 0 
L -3.5 0 
" style="stroke: #000000; stroke-width: 0.8"/>
      </defs>
      <g>
       <use xlink:href="#m954c3e1f44" x="58.523438" y="276.069107" style="stroke: #000000; stroke-width: 0.8"/>
      </g>
     </g>
     <g id="text_10">
      <!-- −1.00 -->
      <g transform="translate(20.878125 279.868326)scale(0.1 -0.1)">
       <defs>
        <path id="DejaVuSans-2212" d="M 678 2272 
L 4684 2272 
L 4684 1741 
L 678 1741 
L 678 2272 
z
" transform="scale(0.015625)"/>
        <path id="DejaVuSans-2e" d="M 684 794 
L 1344 794 
L 1344 0 
L 684 0 
L 684 794 
z
" transform="scale(0.015625)"/>
       </defs>
       <use xlink:href="#DejaVuSans-2212"/>
       <use xlink:href="#DejaVuSans-31" x="83.789062"/>
       <use xlink:href="#DejaVuSans-2e" x="147.412109"/>
       <use xlink:href="#DejaVuSans-30" x="179.199219"/>
       <use xlink:href="#DejaVuSans-30" x="242.822266"/>
      </g>
     </g>
    </g>
    <g id="ytick_2">
     <g id="line2d_10">
      <g>
       <use xlink:href="#m954c3e1f44" x="58.523438" y="244.004787" style="stroke: #000000; stroke-width: 0.8"/>
      </g>
     </g>
     <g id="text_11">
      <!-- −0.75 -->
      <g transform="translate(20.878125 247.804006)scale(0.1 -0.1)">
       <defs>
        <path id="DejaVuSans-37" d="M 525 4666 
L 3525 4666 
L 3525 4397 
L 1831 0 
L 1172 0 
L 2766 4134 
L 525 4134 
L 525 4666 
z
" transform="scale(0.015625)"/>
        <path id="DejaVuSans-35" d="M 691 4666 
L 3169 4666 
L 3169 4134 
L 1269 4134 
L 1269 2991 
Q 1406 3038 1543 3061 
Q 1681 3084 1819 3084 
Q 2600 3084 3056 2656 
Q 3513 2228 3513 1497 
Q 3513 744 3044 326 
Q 2575 -91 1722 -91 
Q 1428 -91 1123 -41 
Q 819 9 494 109 
L 494 744 
Q 775 591 1075 516 
Q 1375 441 1709 441 
Q 2250 441 2565 725 
Q 2881 1009 2881 1497 
Q 2881 1984 2565 2268 
Q 2250 2553 1709 2553 
Q 1456 2553 1204 2497 
Q 953 2441 691 2322 
L 691 4666 
z
" transform="scale(0.015625)"/>
       </defs>
       <use xlink:href="#DejaVuSans-2212"/>
       <use xlink:href="#DejaVuSans-30" x="83.789062"/>
       <use xlink:href="#DejaVuSans-2e" x="147.412109"/>
       <use xlink:href="#DejaVuSans-37" x="179.199219"/>
       <use xlink:href="#DejaVuSans-35" x="242.822266"/>
      </g>
     </g>
    </g>
    <g id="ytick_3">
     <g id="line2d_11">
      <g>
       <use xlink:href="#m954c3e1f44" x="58.523438" y="211.940467" style="stroke: #000000; stroke-width: 0.8"/>
      </g>
     </g>
     <g id="text_12">
      <!-- −0.50 -->
      <g transform="translate(20.878125 215.739685)scale(0.1 -0.1)">
       <use xlink:href="#DejaVuSans-2212"/>
       <use xlink:href="#DejaVuSans-30" x="83.789062"/>
       <use xlink:href="#DejaVuSans-2e" x="147.412109"/>
       <use xlink:href="#DejaVuSans-35" x="179.199219"/>
       <use xlink:href="#DejaVuSans-30" x="242.822266"/>
      </g>
     </g>
    </g>
    <g id="ytick_4">
     <g id="line2d_12">
      <g>
       <use xlink:href="#m954c3e1f44" x="58.523438" y="179.876147" style="stroke: #000000; stroke-width: 0.8"/>
      </g>
     </g>
     <g id="text_13">
      <!-- −0.25 -->
      <g transform="translate(20.878125 183.675365)scale(0.1 -0.1)">
       <use xlink:href="#DejaVuSans-2212"/>
       <use xlink:href="#DejaVuSans-30" x="83.789062"/>
       <use xlink:href="#DejaVuSans-2e" x="147.412109"/>
       <use xlink:href="#DejaVuSans-32" x="179.199219"/>
       <use xlink:href="#DejaVuSans-35" x="242.822266"/>
      </g>
     </g>
    </g>
    <g id="ytick_5">
     <g id="line2d_13">
      <g>
       <use xlink:href="#m954c3e1f44" x="58.523438" y="147.811826" style="stroke: #000000; stroke-width: 0.8"/>
      </g>
     </g>
     <g id="text_14">
      <!-- 0.00 -->
      <g transform="translate(29.257812 151.611045)scale(0.1 -0.1)">
       <use xlink:href="#DejaVuSans-30"/>
       <use xlink:href="#DejaVuSans-2e" x="63.623047"/>
       <use xlink:href="#DejaVuSans-30" x="95.410156"/>
       <use xlink:href="#DejaVuSans-30" x="159.033203"/>
      </g>
     </g>
    </g>
    <g id="ytick_6">
     <g id="line2d_14">
      <g>
       <use xlink:href="#m954c3e1f44" x="58.523438" y="115.747506" style="stroke: #000000; stroke-width: 0.8"/>
      </g>
     </g>
     <g id="text_15">
      <!-- 0.25 -->
      <g transform="translate(29.257812 119.546725)scale(0.1 -0.1)">
       <use xlink:href="#DejaVuSans-30"/>
       <use xlink:href="#DejaVuSans-2e" x="63.623047"/>
       <use xlink:href="#DejaVuSans-32" x="95.410156"/>
       <use xlink:href="#DejaVuSans-35" x="159.033203"/>
      </g>
     </g>
    </g>
    <g id="ytick_7">
     <g id="line2d_15">
      <g>
       <use xlink:href="#m954c3e1f44" x="58.523438" y="83.683186" style="stroke: #000000; stroke-width: 0.8"/>
      </g>
     </g>
     <g id="text_16">
      <!-- 0.50 -->
      <g transform="translate(29.257812 87.482405)scale(0.1 -0.1)">
       <use xlink:href="#DejaVuSans-30"/>
       <use xlink:href="#DejaVuSans-2e" x="63.623047"/>
       <use xlink:href="#DejaVuSans-35" x="95.410156"/>
       <use xlink:href="#DejaVuSans-30" x="159.033203"/>
      </g>
     </g>
    </g>
    <g id="ytick_8">
     <g id="line2d_16">
      <g>
       <use xlink:href="#m954c3e1f44" x="58.523438" y="51.618866" style="stroke: #000000; stroke-width: 0.8"/>
      </g>
     </g>
     <g id="text_17">
      <!-- 0.75 -->
      <g transform="translate(29.257812 55.418084)scale(0.1 -0.1)">
       <use xlink:href="#DejaVuSans-30"/>
       <use xlink:href="#DejaVuSans-2e" x="63.623047"/>
       <use xlink:href="#DejaVuSans-37" x="95.410156"/>
       <use xlink:href="#DejaVuSans-35" x="159.033203"/>
      </g>
     </g>
    </g>
    <g id="ytick_9">
     <g id="line2d_17">
      <g>
       <use xlink:href="#m954c3e1f44" x="58.523438" y="19.554545" style="stroke: #000000; stroke-width: 0.8"/>
      </g>
     </g>
     <g id="text_18">
      <!-- 1.00 -->
      <g transform="translate(29.257812 23.353764)scale(0.1 -0.1)">
       <use xlink:href="#DejaVuSans-31"/>
       <use xlink:href="#DejaVuSans-2e" x="63.623047"/>
       <use xlink:href="#DejaVuSans-30" x="95.410156"/>
       <use xlink:href="#DejaVuSans-30" x="159.033203"/>
      </g>
     </g>
    </g>
    <g id="text_19">
     <!-- Displacement (x) -->
     <g transform="translate(14.798437 185.922656)rotate(-90)scale(0.1 -0.1)">
      <defs>
       <path id="DejaVuSans-44" d="M 1259 4147 
L 1259 519 
L 2022 519 
Q 2988 519 3436 956 
Q 3884 1394 3884 2338 
Q 3884 3275 3436 3711 
Q 2988 4147 2022 4147 
L 1259 4147 
z
M 628 4666 
L 1925 4666 
Q 3281 4666 3915 4102 
Q 4550 3538 4550 2338 
Q 4550 1131 3912 565 
Q 3275 0 1925 0 
L 628 0 
L 628 4666 
z
" transform="scale(0.015625)"/>
       <path id="DejaVuSans-73" d="M 2834 3397 
L 2834 2853 
Q 2591 2978 2328 3040 
Q 2066 3103 1784 3103 
Q 1356 3103 1142 2972 
Q 928 2841 928 2578 
Q 928 2378 1081 2264 
Q 1234 2150 1697 2047 
L 1894 2003 
Q 2506 1872 2764 1633 
Q 3022 1394 3022 966 
Q 3022 478 2636 193 
Q 2250 -91 1575 -91 
Q 1294 -91 989 -36 
Q 684 19 347 128 
L 347 722 
Q 666 556 975 473 
Q 1284 391 1588 391 
Q 1994 391 2212 530 
Q 2431 669 2431 922 
Q 2431 1156 2273 1281 
Q 2116 1406 1581 1522 
L 1381 1569 
Q 847 1681 609 1914 
Q 372 2147 372 2553 
Q 372 3047 722 3315 
Q 1072 3584 1716 3584 
Q 2034 3584 2315 3537 
Q 2597 3491 2834 3397 
z
" transform="scale(0.015625)"/>
       <path id="DejaVuSans-70" d="M 1159 525 
L 1159 -1331 
L 581 -1331 
L 581 3500 
L 1159 3500 
L 1159 2969 
Q 1341 3281 1617 3432 
Q 1894 3584 2278 3584 
Q 2916 3584 3314 3078 
Q 3713 2572 3713 1747 
Q 3713 922 3314 415 
Q 2916 -91 2278 -91 
Q 1894 -91 1617 61 
Q 1341 213 1159 525 
z
M 3116 1747 
Q 3116 2381 2855 2742 
Q 2594 3103 2138 3103 
Q 1681 3103 1420 2742 
Q 1159 2381 1159 1747 
Q 1159 1113 1420 752 
Q 1681 391 2138 391 
Q 2594 391 2855 752 
Q 3116 1113 3116 1747 
z
" transform="scale(0.015625)"/>
       <path id="DejaVuSans-6c" d="M 603 4863 
L 1178 4863 
L 1178 0 
L 603 0 
L 603 4863 
z
" transform="scale(0.015625)"/>
       <path id="DejaVuSans-61" d="M 2194 1759 
Q 1497 1759 1228 1600 
Q 959 1441 959 1056 
Q 959 750 1161 570 
Q 1363 391 1709 391 
Q 2188 391 2477 730 
Q 2766 1069 2766 1631 
L 2766 1759 
L 2194 1759 
z
M 3341 1997 
L 3341 0 
L 2766 0 
L 2766 531 
Q 2569 213 2275 61 
Q 1981 -91 1556 -91 
Q 1019 -91 701 211 
Q 384 513 384 1019 
Q 384 1609 779 1909 
Q 1175 2209 1959 2209 
L 2766 2209 
L 2766 2266 
Q 2766 2663 2505 2880 
Q 2244 3097 1772 3097 
Q 1472 3097 1187 3025 
Q 903 2953 641 2809 
L 641 3341 
Q 956 3463 1253 3523 
Q 1550 3584 1831 3584 
Q 2591 3584 2966 3190 
Q 3341 2797 3341 1997 
z
" transform="scale(0.015625)"/>
       <path id="DejaVuSans-63" d="M 3122 3366 
L 3122 2828 
Q 2878 2963 2633 3030 
Q 2388 3097 2138 3097 
Q 1578 3097 1268 2742 
Q 959 2388 959 1747 
Q 959 1106 1268 751 
Q 1578 397 2138 397 
Q 2388 397 2633 464 
Q 2878 531 3122 666 
L 3122 134 
Q 2881 22 2623 -34 
Q 2366 -91 2075 -91 
Q 1284 -91 818 406 
Q 353 903 353 1747 
Q 353 2603 823 3093 
Q 1294 3584 2113 3584 
Q 2378 3584 2631 3529 
Q 2884 3475 3122 3366 
z
" transform="scale(0.015625)"/>
       <path id="DejaVuSans-6e" d="M 3513 2113 
L 3513 0 
L 2938 0 
L 2938 2094 
Q 2938 2591 2744 2837 
Q 2550 3084 2163 3084 
Q 1697 3084 1428 2787 
Q 1159 2491 1159 1978 
L 1159 0 
L 581 0 
L 581 3500 
L 1159 3500 
L 1159 2956 
Q 1366 3272 1645 3428 
Q 1925 3584 2291 3584 
Q 2894 3584 3203 3211 
Q 3513 2838 3513 2113 
z
" transform="scale(0.015625)"/>
       <path id="DejaVuSans-78" d="M 3513 3500 
L 2247 1797 
L 3578 0 
L 2900 0 
L 1881 1375 
L 863 0 
L 184 0 
L 1544 1831 
L 300 3500 
L 978 3500 
L 1906 2253 
L 2834 3500 
L 3513 3500 
z
" transform="scale(0.015625)"/>
      </defs>
      <use xlink:href="#DejaVuSans-44"/>
      <use xlink:href="#DejaVuSans-69" x="77.001953"/>
      <use xlink:href="#DejaVuSans-73" x="104.785156"/>
      <use xlink:href="#DejaVuSans-70" x="156.884766"/>
      <use xlink:href="#DejaVuSans-6c" x="220.361328"/>
      <use xlink:href="#DejaVuSans-61" x="248.144531"/>
      <use xlink:href="#DejaVuSans-63" x="309.423828"/>
      <use xlink:href="#DejaVuSans-65" x="364.404297"/>
      <use xlink:href="#DejaVuSans-6d" x="425.927734"/>
      <use xlink:href="#DejaVuSans-65" x="523.339844"/>
      <use xlink:href="#DejaVuSans-6e" x="584.863281"/>
      <use xlink:href="#DejaVuSans-74" x="648.242188"/>
      <use xlink:href="#DejaVuSans-20" x="687.451172"/>
      <use xlink:href="#DejaVuSans-28" x="719.238281"/>
      <use xlink:href="#DejaVuSans-78" x="758.251953"/>
      <use xlink:href="#DejaVuSans-29" x="817.431641"/>
     </g>
    </g>
   </g>
   <g id="line2d_18">
    <path d="M 72.358148 19.554545 
L 72.635119 20.990348 
L 72.912091 25.235979 
L 73.466033 41.559821 
L 74.019975 66.77365 
L 75.12786 133.424655 
L 76.235745 201.114494 
L 77.066658 238.338965 
L 77.620601 252.711244 
L 77.897572 256.309163 
L 78.174543 257.418005 
L 78.451514 256.044737 
L 78.728486 252.261978 
L 79.282428 238.064202 
L 79.83637 216.350846 
L 80.944255 159.232511 
L 82.05214 101.581067 
L 82.883053 70.015775 
L 83.436996 57.964074 
L 83.713967 55.036655 
L 83.990938 54.228955 
L 84.267909 55.512978 
L 84.54488 58.827552 
L 85.098823 71.127262 
L 85.652765 89.866271 
L 86.76065 138.79085 
L 87.868535 187.916147 
L 88.699448 214.651787 
L 89.253391 224.7272 
L 89.530362 227.137112 
L 89.807333 227.750939 
L 90.084304 226.569912 
L 90.361275 223.637837 
L 90.915218 212.915444 
L 91.46916 196.785284 
L 92.577045 154.895651 
L 93.68493 113.019565 
L 94.515843 90.407141 
L 95.069786 81.941097 
L 95.346757 79.959129 
L 95.623728 79.530258 
L 95.900699 80.643843 
L 96.17767 83.248402 
L 96.731613 92.537485 
L 97.285555 106.412922 
L 98.39344 142.302342 
L 99.501324 177.959694 
L 100.055267 191.768706 
L 100.609209 201.304654 
L 100.88618 204.216386 
L 101.163152 205.817928 
L 101.440123 206.098184 
L 101.717094 205.079749 
L 101.994065 202.804159 
L 102.548008 194.762342 
L 103.10195 182.792866 
L 104.209835 152.060695 
L 105.317719 121.682753 
L 105.871662 109.96997 
L 106.425604 101.958403 
L 106.702575 99.537527 
L 106.979547 98.224674 
L 107.256518 98.032354 
L 107.533489 98.955627 
L 107.81046 100.96274 
L 108.364402 107.965139 
L 108.918345 118.262036 
L 110.02623 144.570338 
L 111.134114 170.459068 
L 111.688057 180.370628 
L 112.241999 187.119326 
L 112.51897 189.145487 
L 112.795941 190.217922 
L 113.072913 190.321853 
L 113.349884 189.467913 
L 113.626855 187.69215 
L 114.180797 181.632951 
L 114.73474 172.777751 
L 115.842624 150.243163 
L 116.950509 128.20433 
L 117.504452 119.799119 
L 118.058394 114.105779 
L 118.335365 112.427226 
L 118.612336 111.56831 
L 118.889308 111.532561 
L 119.166279 112.302748 
L 119.44325 113.850671 
L 119.997192 119.093252 
L 120.828106 131.209378 
L 123.043875 168.616329 
L 123.597818 174.627718 
L 124.15176 178.088875 
L 124.428731 178.788863 
L 124.705702 178.790248 
L 124.982674 178.098789 
L 125.259645 176.736997 
L 125.813587 172.17695 
L 126.644501 161.77086 
L 128.86027 129.868049 
L 129.414213 124.79537 
L 129.968155 121.893392 
L 130.245126 121.32666 
L 130.522097 121.363439 
L 130.799069 121.994671 
L 131.07604 123.195494 
L 131.629982 127.137396 
L 132.460896 136.078323 
L 134.676665 163.280746 
L 135.230607 167.573934 
L 135.78455 169.994475 
L 136.061521 170.442896 
L 136.338492 170.378678 
L 136.615463 169.81454 
L 136.892435 168.769679 
L 137.446377 165.361096 
L 138.277291 157.666974 
L 140.49306 134.47196 
L 141.047002 130.850063 
L 141.600945 128.835583 
L 141.877916 128.473256 
L 142.154887 128.546131 
L 142.431858 129.048928 
L 142.70883 129.965968 
L 143.262772 132.927843 
L 144.093685 139.533934 
L 146.309455 159.311612 
L 146.863397 162.366127 
L 147.41734 164.052744 
L 147.694311 164.342549 
L 147.971282 164.256569 
L 148.248253 163.801899 
L 148.802196 161.863868 
L 149.356138 158.750056 
L 150.187052 152.556945 
L 151.848879 139.576958 
L 152.402821 136.474439 
L 152.956763 134.460529 
L 153.233735 133.914971 
L 153.510706 133.689687 
L 153.787677 133.783564 
L 154.064648 134.187404 
L 154.618591 135.866848 
L 155.172533 138.553475 
L 156.003446 143.868349 
L 157.665274 154.93234 
L 158.219216 157.560476 
L 158.773158 159.247074 
L 159.050129 159.697117 
L 159.327101 159.876714 
L 159.604072 159.785431 
L 159.881043 159.427614 
L 160.434985 157.961867 
L 160.988928 155.642538 
L 161.819841 151.088948 
L 163.481668 141.654356 
L 164.035611 139.43338 
L 164.589553 138.016123 
L 164.866524 137.64202 
L 165.143496 137.500917 
L 165.420467 137.593623 
L 165.697438 137.914861 
L 166.25138 139.191433 
L 166.805323 141.186605 
L 167.913207 146.517007 
L 169.298063 153.131532 
L 169.852006 155.012684 
L 170.405948 156.205291 
L 170.682919 156.511997 
L 170.95989 156.61864 
L 171.236862 156.526619 
L 171.513833 156.242475 
L 172.067775 155.137225 
L 172.621718 153.416866 
L 173.729602 148.847762 
L 175.114458 143.215126 
L 175.668401 141.622005 
L 176.222343 140.62451 
L 176.499314 140.37277 
L 176.776285 140.289946 
L 177.053257 140.375441 
L 177.330228 140.62587 
L 177.88417 141.588635 
L 178.438113 143.073494 
L 179.545997 146.984962 
L 180.930853 151.784373 
L 181.484796 153.129931 
L 182.038738 153.966837 
L 182.315709 154.175463 
L 182.59268 154.238852 
L 182.869651 154.156957 
L 183.423594 153.57586 
L 183.977536 152.504901 
L 184.80845 150.226287 
L 186.747248 144.381698 
L 187.30119 143.242985 
L 187.855133 142.539103 
L 188.409075 142.323061 
L 188.686046 142.401283 
L 189.239989 142.908955 
L 189.793931 143.832866 
L 190.624845 145.791268 
L 192.563643 150.773709 
L 193.117585 151.738084 
L 193.671528 152.32617 
L 194.22547 152.498194 
L 194.779412 152.25389 
L 195.333355 151.623942 
L 196.164268 150.109918 
L 198.657009 144.809458 
L 199.210951 144.150381 
L 199.764894 143.832716 
L 200.318836 143.874415 
L 200.872779 144.264281 
L 201.426721 144.955527 
L 202.257635 146.397495 
L 204.196433 150.019823 
L 204.750375 150.707953 
L 205.304318 151.121542 
L 205.85826 151.230524 
L 206.412202 151.03315 
L 206.966145 150.558728 
L 207.797058 149.44026 
L 210.289799 145.588163 
L 210.843741 145.119289 
L 211.397684 144.902998 
L 211.951626 144.949582 
L 212.505568 145.246118 
L 213.336482 146.084921 
L 214.721338 148.033044 
L 215.829223 149.456307 
L 216.660136 150.119611 
L 217.214079 150.298237 
L 217.768021 150.253354 
L 218.321963 149.993492 
L 219.152877 149.270123 
L 220.814704 147.268441 
L 221.922589 146.165131 
L 222.753502 145.735899 
L 223.307445 145.683983 
L 223.861387 145.822446 
L 224.692301 146.341343 
L 225.800185 147.415887 
L 227.462012 149.035487 
L 228.292926 149.507829 
L 228.846868 149.629165 
L 229.400811 149.585878 
L 230.231724 149.237604 
L 231.339609 148.385292 
L 233.278407 146.756409 
L 234.109321 146.358206 
L 234.940234 146.261964 
L 235.771148 146.471434 
L 236.602062 146.934456 
L 239.648745 148.972599 
L 240.479658 149.139 
L 241.310572 149.039573 
L 242.141485 148.703975 
L 243.526341 147.842265 
L 244.911197 147.02687 
L 245.742111 146.744564 
L 246.573024 146.682307 
L 247.403938 146.844213 
L 248.511823 147.32954 
L 251.004563 148.586956 
L 251.835477 148.76493 
L 252.66639 148.748302 
L 253.774275 148.450969 
L 257.651872 146.996525 
L 258.759756 147.05511 
L 259.867641 147.367665 
L 262.914324 148.441627 
L 264.022209 148.513511 
L 265.130094 148.342732 
L 266.791921 147.805448 
L 268.453748 147.319057 
L 269.561633 147.20732 
L 270.669517 147.307614 
L 272.331345 147.738179 
L 274.270143 148.235332 
L 275.378028 148.328332 
L 276.762884 148.193221 
L 281.471394 147.376063 
L 282.85625 147.535496 
L 286.733846 148.185305 
L 288.118702 148.120586 
L 290.611443 147.696151 
L 292.27327 147.502152 
L 293.935097 147.549665 
L 299.474521 148.055608 
L 301.967261 147.758686 
L 304.183031 147.578298 
L 306.121829 147.671116 
L 310.276397 148.012155 
L 312.492167 147.879752 
L 315.815821 147.641074 
L 318.03159 147.732687 
L 321.909187 147.957905 
L 324.678899 147.818506 
L 327.725582 147.687107 
L 330.772265 147.824483 
L 333.818948 147.91566 
L 343.235968 147.856736 
L 346.559622 147.863329 
L 349.052363 147.772889 
L 349.052363 147.772889 
" clip-path="url(#pdaa8705eca)" style="fill: none; stroke: #000000; stroke-width: 1.5; stroke-linecap: square"/>
   </g>
   <g id="line2d_19">
    <path d="M 72.358148 147.811826 
L 73.466033 218.163698 
L 74.019975 243.967816 
L 74.573918 260.54912 
L 74.850889 264.944191 
L 75.12786 266.645455 
L 75.404831 265.669302 
L 75.681802 262.09431 
L 76.235745 247.636831 
L 76.789687 224.762058 
L 77.620601 179.823755 
L 79.282428 86.997467 
L 79.83637 65.146703 
L 80.390313 51.265692 
L 80.667284 47.639623 
L 80.944255 46.288525 
L 81.221226 47.217718 
L 81.498197 50.386896 
L 82.05214 63.009328 
L 82.606082 82.74168 
L 83.436996 121.235296 
L 85.098823 200.380979 
L 85.652765 218.844444 
L 86.206708 230.513875 
L 86.483679 233.522577 
L 86.76065 234.565611 
L 87.037621 233.642066 
L 87.314592 230.802669 
L 87.868535 219.831424 
L 88.422477 202.859923 
L 89.530362 157.841846 
L 90.915218 102.407782 
L 91.46916 86.765885 
L 92.023102 76.96134 
L 92.300074 74.503952 
L 92.577045 73.727731 
L 92.854016 74.615583 
L 93.130987 77.113169 
L 93.68493 86.611724 
L 94.238872 101.252965 
L 95.346757 139.832342 
L 96.454641 178.849371 
L 97.285555 200.273711 
L 97.839497 208.47151 
L 98.116469 210.491908 
L 98.39344 211.092587 
L 98.670411 210.274484 
L 98.947382 208.068354 
L 99.501324 199.785349 
L 100.055267 187.164276 
L 101.163152 154.140556 
L 102.271036 120.873525 
L 103.10195 102.747391 
L 103.655892 95.861441 
L 103.932863 94.191901 
L 104.209835 93.749469 
L 104.486806 94.529661 
L 104.763777 96.495873 
L 105.317719 103.684644 
L 105.871662 114.536837 
L 106.979547 142.833383 
L 108.087431 171.166778 
L 108.918345 186.528785 
L 109.472287 192.306024 
L 109.749258 193.661174 
L 110.02623 193.967926 
L 110.303201 193.241376 
L 110.580172 191.518325 
L 111.134114 185.298809 
L 111.688057 175.940162 
L 112.795941 151.697948 
L 113.903826 127.563211 
L 114.73474 114.55073 
L 115.288682 109.726901 
L 115.565653 108.61757 
L 115.842624 108.393757 
L 116.119596 109.051969 
L 116.396567 110.569582 
L 116.950509 115.987089 
L 117.504452 124.049108 
L 118.612336 144.796418 
L 119.720221 165.369863 
L 120.274163 173.306914 
L 120.828106 178.758259 
L 121.105077 180.421574 
L 121.382048 181.333553 
L 121.659019 181.48009 
L 121.935991 180.867041 
L 122.212962 179.520228 
L 122.766904 174.824236 
L 123.320846 167.894076 
L 124.428731 150.121126 
L 125.536616 132.603153 
L 126.090558 125.874767 
L 126.644501 121.27201 
L 126.921472 119.88936 
L 127.198443 119.154951 
L 127.475414 119.07396 
L 127.752385 119.634256 
L 128.029357 120.8111 
L 128.583299 124.871219 
L 129.137241 130.845229 
L 130.245126 146.06746 
L 131.353011 160.986164 
L 131.906953 166.693278 
L 132.460896 170.559929 
L 132.737867 171.70639 
L 133.014838 172.30399 
L 133.291809 172.349604 
L 133.56878 171.847389 
L 133.845752 170.813551 
L 134.399694 167.280865 
L 135.230607 159.116454 
L 137.446377 133.806233 
L 138.000319 129.72655 
L 138.554262 127.356992 
L 138.831233 126.868903 
L 139.108204 126.857877 
L 139.385175 127.318442 
L 139.662146 128.232734 
L 140.216089 131.291961 
L 141.047002 138.303912 
L 143.262772 159.88795 
L 143.816714 163.340522 
L 144.370657 165.322374 
L 144.647628 165.711331 
L 144.924599 165.69324 
L 145.20157 165.277306 
L 145.478541 164.480186 
L 146.032484 161.837036 
L 146.863397 155.801169 
L 149.079167 137.396053 
L 149.633109 134.479896 
L 150.187052 132.830746 
L 150.464023 132.516989 
L 150.740994 132.54707 
L 151.017965 132.917074 
L 151.294936 133.615625 
L 151.848879 135.912921 
L 152.679792 141.09878 
L 154.895562 156.794436 
L 155.449504 159.253002 
L 156.003446 160.633302 
L 156.280418 160.887385 
L 156.557389 160.844399 
L 156.83436 160.508825 
L 157.388302 159.016199 
L 157.942245 156.584966 
L 158.773158 151.713407 
L 160.434985 141.410162 
L 160.988928 138.923695 
L 161.54287 137.291275 
L 161.819841 136.838298 
L 162.096813 136.638763 
L 162.373784 136.692693 
L 162.650755 136.993361 
L 163.204697 138.28676 
L 163.75864 140.383183 
L 164.589553 144.565982 
L 166.25138 153.34863 
L 166.805323 155.45628 
L 167.359265 156.824742 
L 167.636236 157.198031 
L 167.913207 157.356845 
L 168.190179 157.301639 
L 168.46715 157.03573 
L 169.021092 155.908147 
L 169.575035 154.095548 
L 170.405948 150.511316 
L 172.067775 143.022035 
L 172.621718 141.240091 
L 173.17566 140.091269 
L 173.452631 139.78069 
L 173.729602 139.6536 
L 174.006574 139.711322 
L 174.283545 139.950441 
L 174.837487 140.935537 
L 175.391429 142.494628 
L 176.222343 145.568151 
L 177.88417 151.951604 
L 178.438113 153.460024 
L 178.992055 154.428005 
L 179.269026 154.684108 
L 179.545997 154.781862 
L 179.822968 154.721723 
L 180.09994 154.508366 
L 180.653882 153.65538 
L 181.207824 152.312015 
L 182.315709 148.710897 
L 183.700565 144.2339 
L 184.254507 142.955638 
L 184.80845 142.144811 
L 185.362392 141.859027 
L 185.639363 141.91634 
L 186.193306 142.416586 
L 186.747248 143.380613 
L 187.578162 145.467078 
L 189.51696 150.904836 
L 190.070902 151.985333 
L 190.624845 152.664798 
L 191.178787 152.898446 
L 191.732729 152.675972 
L 192.286672 152.02834 
L 192.840614 151.02969 
L 193.948499 148.388265 
L 195.333355 145.139823 
L 195.887297 144.226157 
L 196.44124 143.654293 
L 196.995182 143.46644 
L 197.549124 143.669442 
L 198.103067 144.230297 
L 198.93398 145.606679 
L 201.426721 150.539873 
L 201.980663 151.172885 
L 202.534606 151.489315 
L 203.088548 151.471841 
L 203.64249 151.133683 
L 204.196433 150.511584 
L 205.027346 149.189912 
L 206.966145 145.818398 
L 207.797058 144.929781 
L 208.351001 144.667466 
L 208.904943 144.688769 
L 209.458885 144.985967 
L 210.012828 145.524927 
L 210.843741 146.658241 
L 212.78254 149.533371 
L 213.613453 150.282998 
L 214.167396 150.501439 
L 214.721338 150.475494 
L 215.27528 150.214205 
L 216.106194 149.455432 
L 217.49105 147.657864 
L 218.598934 146.326091 
L 219.429848 145.692205 
L 219.98379 145.512115 
L 220.537733 145.54101 
L 221.091675 145.768328 
L 221.922589 146.422765 
L 223.307445 147.961395 
L 224.415329 149.094332 
L 225.246243 149.629177 
L 225.800185 149.777425 
L 226.354128 149.748739 
L 226.90807 149.550161 
L 227.738984 148.984718 
L 229.400811 147.402824 
L 230.508695 146.521805 
L 231.339609 146.173887 
L 231.893551 146.126522 
L 232.724465 146.334202 
L 233.555379 146.821111 
L 236.602062 149.049126 
L 237.432975 149.248939 
L 238.263889 149.158409 
L 239.094802 148.80978 
L 240.479658 147.883815 
L 241.864514 146.987916 
L 242.695428 146.666756 
L 243.526341 146.583888 
L 244.357255 146.743801 
L 245.46514 147.257852 
L 247.95788 148.633491 
L 248.788794 148.839072 
L 249.619707 148.835408 
L 250.450621 148.632098 
L 251.835477 147.993859 
L 253.497304 147.198613 
L 254.605189 146.932797 
L 255.436102 146.939076 
L 256.543987 147.206473 
L 258.482785 148.031595 
L 259.867641 148.484017 
L 260.975526 148.575746 
L 262.083411 148.401855 
L 263.745238 147.825644 
L 265.407065 147.289137 
L 266.51495 147.156493 
L 267.622834 147.254752 
L 269.00769 147.623864 
L 271.22346 148.261362 
L 272.331345 148.371662 
L 273.439229 148.285262 
L 275.101056 147.890643 
L 277.039855 147.425198 
L 278.424711 147.337357 
L 279.809567 147.501573 
L 283.687163 148.214929 
L 285.072019 148.153524 
L 287.287789 147.750141 
L 289.226587 147.47907 
L 290.611443 147.496213 
L 292.550241 147.771235 
L 295.042982 148.096854 
L 296.704809 148.058163 
L 302.244233 147.583529 
L 304.736973 147.856441 
L 306.952743 148.027593 
L 308.891541 147.9455 
L 313.32308 147.62895 
L 315.815821 147.796534 
L 318.862504 147.970437 
L 321.355245 147.845505 
L 324.678899 147.676412 
L 327.448611 147.803115 
L 330.772265 147.925107 
L 334.37289 147.758247 
L 337.419573 147.733897 
L 343.789911 147.85991 
L 349.052363 147.755849 
L 349.052363 147.755849 
" clip-path="url(#pdaa8705eca)" style="fill: none; stroke: #ff7f0e; stroke-width: 1.5; stroke-linecap: square"/>
   </g>
   <g id="patch_3">
    <path d="M 58.523438 279 
L 58.523438 7.2 
" style="fill: none; stroke: #000000; stroke-width: 0.8; stroke-linejoin: miter; stroke-linecap: square"/>
   </g>
   <g id="patch_4">
    <path d="M 362.887074 279 
L 362.887074 7.2 
" style="fill: none; stroke: #000000; stroke-width: 0.8; stroke-linejoin: miter; stroke-linecap: square"/>
   </g>
   <g id="patch_5">
    <path d="M 58.523438 279 
L 362.887074 279 
" style="fill: none; stroke: #000000; stroke-width: 0.8; stroke-linejoin: miter; stroke-linecap: square"/>
   </g>
   <g id="patch_6">
    <path d="M 58.523438 7.2 
L 362.887074 7.2 
" style="fill: none; stroke: #000000; stroke-width: 0.8; stroke-linejoin: miter; stroke-linecap: square"/>
   </g>
   <g id="legend_1">
    <g id="patch_7">
     <path d="M 306.244886 44.55625 
L 355.887074 44.55625 
Q 357.887074 44.55625 357.887074 42.55625 
L 357.887074 14.2 
Q 357.887074 12.2 355.887074 12.2 
L 306.244886 12.2 
Q 304.244886 12.2 304.244886 14.2 
L 304.244886 42.55625 
Q 304.244886 44.55625 306.244886 44.55625 
z
" style="fill: #ffffff; opacity: 0.8; stroke: #cccccc; stroke-linejoin: miter"/>
    </g>
    <g id="line2d_20">
     <path d="M 308.244886 20.298437 
L 318.244886 20.298437 
L 328.244886 20.298437 
" style="fill: none; stroke: #000000; stroke-width: 1.5; stroke-linecap: square"/>
    </g>
    <g id="text_20">
     <!-- x(t) -->
     <g transform="translate(336.244886 23.798437)scale(0.1 -0.1)">
      <use xlink:href="#DejaVuSans-78"/>
      <use xlink:href="#DejaVuSans-28" x="59.179688"/>
      <use xlink:href="#DejaVuSans-74" x="98.193359"/>
      <use xlink:href="#DejaVuSans-29" x="137.402344"/>
     </g>
    </g>
    <g id="line2d_21">
     <path d="M 308.244886 34.976562 
L 318.244886 34.976562 
L 328.244886 34.976562 
" style="fill: none; stroke: #ff7f0e; stroke-width: 1.5; stroke-linecap: square"/>
    </g>
    <g id="text_21">
     <!-- v(t) -->
     <g transform="translate(336.244886 38.476562)scale(0.1 -0.1)">
      <defs>
       <path id="DejaVuSans-76" d="M 191 3500 
L 800 3500 
L 1894 563 
L 2988 3500 
L 3597 3500 
L 2284 0 
L 1503 0 
L 191 3500 
z
" transform="scale(0.015625)"/>
      </defs>
      <use xlink:href="#DejaVuSans-76"/>
      <use xlink:href="#DejaVuSans-28" x="59.179688"/>
      <use xlink:href="#DejaVuSans-74" x="98.193359"/>
      <use xlink:href="#DejaVuSans-29" x="137.402344"/>
     </g>
    </g>
   </g>
  </g>
  <g id="axes_2">
   <g id="patch_8">
    <path d="M 423.759801 279 
L 728.123437 279 
L 728.123437 7.2 
L 423.759801 7.2 
z
" style="fill: #ffffff"/>
   </g>
   <g id="matplotlib.axis_3">
    <g id="xtick_9">
     <g id="line2d_22">
      <g>
       <use xlink:href="#m5f3685cf32" x="453.197412" y="279" style="stroke: #000000; stroke-width: 0.8"/>
      </g>
     </g>
     <g id="text_22">
      <!-- −0.75 -->
      <g transform="translate(437.874756 293.598437)scale(0.1 -0.1)">
       <use xlink:href="#DejaVuSans-2212"/>
       <use xlink:href="#DejaVuSans-30" x="83.789062"/>
       <use xlink:href="#DejaVuSans-2e" x="147.412109"/>
       <use xlink:href="#DejaVuSans-37" x="179.199219"/>
       <use xlink:href="#DejaVuSans-35" x="242.822266"/>
      </g>
     </g>
    </g>
    <g id="xtick_10">
     <g id="line2d_23">
      <g>
       <use xlink:href="#m5f3685cf32" x="490.496171" y="279" style="stroke: #000000; stroke-width: 0.8"/>
      </g>
     </g>
     <g id="text_23">
      <!-- −0.50 -->
      <g transform="translate(475.173515 293.598437)scale(0.1 -0.1)">
       <use xlink:href="#DejaVuSans-2212"/>
       <use xlink:href="#DejaVuSans-30" x="83.789062"/>
       <use xlink:href="#DejaVuSans-2e" x="147.412109"/>
       <use xlink:href="#DejaVuSans-35" x="179.199219"/>
       <use xlink:href="#DejaVuSans-30" x="242.822266"/>
      </g>
     </g>
    </g>
    <g id="xtick_11">
     <g id="line2d_24">
      <g>
       <use xlink:href="#m5f3685cf32" x="527.794931" y="279" style="stroke: #000000; stroke-width: 0.8"/>
      </g>
     </g>
     <g id="text_24">
      <!-- −0.25 -->
      <g transform="translate(512.472274 293.598437)scale(0.1 -0.1)">
       <use xlink:href="#DejaVuSans-2212"/>
       <use xlink:href="#DejaVuSans-30" x="83.789062"/>
       <use xlink:href="#DejaVuSans-2e" x="147.412109"/>
       <use xlink:href="#DejaVuSans-32" x="179.199219"/>
       <use xlink:href="#DejaVuSans-35" x="242.822266"/>
      </g>
     </g>
    </g>
    <g id="xtick_12">
     <g id="line2d_25">
      <g>
       <use xlink:href="#m5f3685cf32" x="565.09369" y="279" style="stroke: #000000; stroke-width: 0.8"/>
      </g>
     </g>
     <g id="text_25">
      <!-- 0.00 -->
      <g transform="translate(553.960877 293.598437)scale(0.1 -0.1)">
       <use xlink:href="#DejaVuSans-30"/>
       <use xlink:href="#DejaVuSans-2e" x="63.623047"/>
       <use xlink:href="#DejaVuSans-30" x="95.410156"/>
       <use xlink:href="#DejaVuSans-30" x="159.033203"/>
      </g>
     </g>
    </g>
    <g id="xtick_13">
     <g id="line2d_26">
      <g>
       <use xlink:href="#m5f3685cf32" x="602.392449" y="279" style="stroke: #000000; stroke-width: 0.8"/>
      </g>
     </g>
     <g id="text_26">
      <!-- 0.25 -->
      <g transform="translate(591.259637 293.598437)scale(0.1 -0.1)">
       <use xlink:href="#DejaVuSans-30"/>
       <use xlink:href="#DejaVuSans-2e" x="63.623047"/>
       <use xlink:href="#DejaVuSans-32" x="95.410156"/>
       <use xlink:href="#DejaVuSans-35" x="159.033203"/>
      </g>
     </g>
    </g>
    <g id="xtick_14">
     <g id="line2d_27">
      <g>
       <use xlink:href="#m5f3685cf32" x="639.691208" y="279" style="stroke: #000000; stroke-width: 0.8"/>
      </g>
     </g>
     <g id="text_27">
      <!-- 0.50 -->
      <g transform="translate(628.558396 293.598437)scale(0.1 -0.1)">
       <use xlink:href="#DejaVuSans-30"/>
       <use xlink:href="#DejaVuSans-2e" x="63.623047"/>
       <use xlink:href="#DejaVuSans-35" x="95.410156"/>
       <use xlink:href="#DejaVuSans-30" x="159.033203"/>
      </g>
     </g>
    </g>
    <g id="xtick_15">
     <g id="line2d_28">
      <g>
       <use xlink:href="#m5f3685cf32" x="676.989968" y="279" style="stroke: #000000; stroke-width: 0.8"/>
      </g>
     </g>
     <g id="text_28">
      <!-- 0.75 -->
      <g transform="translate(665.857155 293.598437)scale(0.1 -0.1)">
       <use xlink:href="#DejaVuSans-30"/>
       <use xlink:href="#DejaVuSans-2e" x="63.623047"/>
       <use xlink:href="#DejaVuSans-37" x="95.410156"/>
       <use xlink:href="#DejaVuSans-35" x="159.033203"/>
      </g>
     </g>
    </g>
    <g id="xtick_16">
     <g id="line2d_29">
      <g>
       <use xlink:href="#m5f3685cf32" x="714.288727" y="279" style="stroke: #000000; stroke-width: 0.8"/>
      </g>
     </g>
     <g id="text_29">
      <!-- 1.00 -->
      <g transform="translate(703.155914 293.598437)scale(0.1 -0.1)">
       <use xlink:href="#DejaVuSans-31"/>
       <use xlink:href="#DejaVuSans-2e" x="63.623047"/>
       <use xlink:href="#DejaVuSans-30" x="95.410156"/>
       <use xlink:href="#DejaVuSans-30" x="159.033203"/>
      </g>
     </g>
    </g>
    <g id="text_30">
     <!-- Displacement (x) -->
     <g transform="translate(533.118963 307.276562)scale(0.1 -0.1)">
      <use xlink:href="#DejaVuSans-44"/>
      <use xlink:href="#DejaVuSans-69" x="77.001953"/>
      <use xlink:href="#DejaVuSans-73" x="104.785156"/>
      <use xlink:href="#DejaVuSans-70" x="156.884766"/>
      <use xlink:href="#DejaVuSans-6c" x="220.361328"/>
      <use xlink:href="#DejaVuSans-61" x="248.144531"/>
      <use xlink:href="#DejaVuSans-63" x="309.423828"/>
      <use xlink:href="#DejaVuSans-65" x="364.404297"/>
      <use xlink:href="#DejaVuSans-6d" x="425.927734"/>
      <use xlink:href="#DejaVuSans-65" x="523.339844"/>
      <use xlink:href="#DejaVuSans-6e" x="584.863281"/>
      <use xlink:href="#DejaVuSans-74" x="648.242188"/>
      <use xlink:href="#DejaVuSans-20" x="687.451172"/>
      <use xlink:href="#DejaVuSans-28" x="719.238281"/>
      <use xlink:href="#DejaVuSans-78" x="758.251953"/>
      <use xlink:href="#DejaVuSans-29" x="817.431641"/>
     </g>
    </g>
   </g>
   <g id="matplotlib.axis_4">
    <g id="ytick_10">
     <g id="line2d_30">
      <g>
       <use xlink:href="#m954c3e1f44" x="423.759801" y="277.212397" style="stroke: #000000; stroke-width: 0.8"/>
      </g>
     </g>
     <g id="text_31">
      <!-- −1.00 -->
      <g transform="translate(386.114489 281.011615)scale(0.1 -0.1)">
       <use xlink:href="#DejaVuSans-2212"/>
       <use xlink:href="#DejaVuSans-31" x="83.789062"/>
       <use xlink:href="#DejaVuSans-2e" x="147.412109"/>
       <use xlink:href="#DejaVuSans-30" x="179.199219"/>
       <use xlink:href="#DejaVuSans-30" x="242.822266"/>
      </g>
     </g>
    </g>
    <g id="ytick_11">
     <g id="line2d_31">
      <g>
       <use xlink:href="#m954c3e1f44" x="423.759801" y="241.257993" style="stroke: #000000; stroke-width: 0.8"/>
      </g>
     </g>
     <g id="text_32">
      <!-- −0.75 -->
      <g transform="translate(386.114489 245.057211)scale(0.1 -0.1)">
       <use xlink:href="#DejaVuSans-2212"/>
       <use xlink:href="#DejaVuSans-30" x="83.789062"/>
       <use xlink:href="#DejaVuSans-2e" x="147.412109"/>
       <use xlink:href="#DejaVuSans-37" x="179.199219"/>
       <use xlink:href="#DejaVuSans-35" x="242.822266"/>
      </g>
     </g>
    </g>
    <g id="ytick_12">
     <g id="line2d_32">
      <g>
       <use xlink:href="#m954c3e1f44" x="423.759801" y="205.303589" style="stroke: #000000; stroke-width: 0.8"/>
      </g>
     </g>
     <g id="text_33">
      <!-- −0.50 -->
      <g transform="translate(386.114489 209.102808)scale(0.1 -0.1)">
       <use xlink:href="#DejaVuSans-2212"/>
       <use xlink:href="#DejaVuSans-30" x="83.789062"/>
       <use xlink:href="#DejaVuSans-2e" x="147.412109"/>
       <use xlink:href="#DejaVuSans-35" x="179.199219"/>
       <use xlink:href="#DejaVuSans-30" x="242.822266"/>
      </g>
     </g>
    </g>
    <g id="ytick_13">
     <g id="line2d_33">
      <g>
       <use xlink:href="#m954c3e1f44" x="423.759801" y="169.349185" style="stroke: #000000; stroke-width: 0.8"/>
      </g>
     </g>
     <g id="text_34">
      <!-- −0.25 -->
      <g transform="translate(386.114489 173.148404)scale(0.1 -0.1)">
       <use xlink:href="#DejaVuSans-2212"/>
       <use xlink:href="#DejaVuSans-30" x="83.789062"/>
       <use xlink:href="#DejaVuSans-2e" x="147.412109"/>
       <use xlink:href="#DejaVuSans-32" x="179.199219"/>
       <use xlink:href="#DejaVuSans-35" x="242.822266"/>
      </g>
     </g>
    </g>
    <g id="ytick_14">
     <g id="line2d_34">
      <g>
       <use xlink:href="#m954c3e1f44" x="423.759801" y="133.394781" style="stroke: #000000; stroke-width: 0.8"/>
      </g>
     </g>
     <g id="text_35">
      <!-- 0.00 -->
      <g transform="translate(394.494176 137.194)scale(0.1 -0.1)">
       <use xlink:href="#DejaVuSans-30"/>
       <use xlink:href="#DejaVuSans-2e" x="63.623047"/>
       <use xlink:href="#DejaVuSans-30" x="95.410156"/>
       <use xlink:href="#DejaVuSans-30" x="159.033203"/>
      </g>
     </g>
    </g>
    <g id="ytick_15">
     <g id="line2d_35">
      <g>
       <use xlink:href="#m954c3e1f44" x="423.759801" y="97.440377" style="stroke: #000000; stroke-width: 0.8"/>
      </g>
     </g>
     <g id="text_36">
      <!-- 0.25 -->
      <g transform="translate(394.494176 101.239596)scale(0.1 -0.1)">
       <use xlink:href="#DejaVuSans-30"/>
       <use xlink:href="#DejaVuSans-2e" x="63.623047"/>
       <use xlink:href="#DejaVuSans-32" x="95.410156"/>
       <use xlink:href="#DejaVuSans-35" x="159.033203"/>
      </g>
     </g>
    </g>
    <g id="ytick_16">
     <g id="line2d_36">
      <g>
       <use xlink:href="#m954c3e1f44" x="423.759801" y="61.485974" style="stroke: #000000; stroke-width: 0.8"/>
      </g>
     </g>
     <g id="text_37">
      <!-- 0.50 -->
      <g transform="translate(394.494176 65.285192)scale(0.1 -0.1)">
       <use xlink:href="#DejaVuSans-30"/>
       <use xlink:href="#DejaVuSans-2e" x="63.623047"/>
       <use xlink:href="#DejaVuSans-35" x="95.410156"/>
       <use xlink:href="#DejaVuSans-30" x="159.033203"/>
      </g>
     </g>
    </g>
    <g id="ytick_17">
     <g id="line2d_37">
      <g>
       <use xlink:href="#m954c3e1f44" x="423.759801" y="25.53157" style="stroke: #000000; stroke-width: 0.8"/>
      </g>
     </g>
     <g id="text_38">
      <!-- 0.75 -->
      <g transform="translate(394.494176 29.330789)scale(0.1 -0.1)">
       <use xlink:href="#DejaVuSans-30"/>
       <use xlink:href="#DejaVuSans-2e" x="63.623047"/>
       <use xlink:href="#DejaVuSans-37" x="95.410156"/>
       <use xlink:href="#DejaVuSans-35" x="159.033203"/>
      </g>
     </g>
    </g>
    <g id="text_39">
     <!-- Velocity (v) -->
     <g transform="translate(380.034801 171.165625)rotate(-90)scale(0.1 -0.1)">
      <defs>
       <path id="DejaVuSans-56" d="M 1831 0 
L 50 4666 
L 709 4666 
L 2188 738 
L 3669 4666 
L 4325 4666 
L 2547 0 
L 1831 0 
z
" transform="scale(0.015625)"/>
       <path id="DejaVuSans-6f" d="M 1959 3097 
Q 1497 3097 1228 2736 
Q 959 2375 959 1747 
Q 959 1119 1226 758 
Q 1494 397 1959 397 
Q 2419 397 2687 759 
Q 2956 1122 2956 1747 
Q 2956 2369 2687 2733 
Q 2419 3097 1959 3097 
z
M 1959 3584 
Q 2709 3584 3137 3096 
Q 3566 2609 3566 1747 
Q 3566 888 3137 398 
Q 2709 -91 1959 -91 
Q 1206 -91 779 398 
Q 353 888 353 1747 
Q 353 2609 779 3096 
Q 1206 3584 1959 3584 
z
" transform="scale(0.015625)"/>
       <path id="DejaVuSans-79" d="M 2059 -325 
Q 1816 -950 1584 -1140 
Q 1353 -1331 966 -1331 
L 506 -1331 
L 506 -850 
L 844 -850 
Q 1081 -850 1212 -737 
Q 1344 -625 1503 -206 
L 1606 56 
L 191 3500 
L 800 3500 
L 1894 763 
L 2988 3500 
L 3597 3500 
L 2059 -325 
z
" transform="scale(0.015625)"/>
      </defs>
      <use xlink:href="#DejaVuSans-56"/>
      <use xlink:href="#DejaVuSans-65" x="60.658203"/>
      <use xlink:href="#DejaVuSans-6c" x="122.181641"/>
      <use xlink:href="#DejaVuSans-6f" x="149.964844"/>
      <use xlink:href="#DejaVuSans-63" x="211.146484"/>
      <use xlink:href="#DejaVuSans-69" x="266.126953"/>
      <use xlink:href="#DejaVuSans-74" x="293.910156"/>
      <use xlink:href="#DejaVuSans-79" x="333.119141"/>
      <use xlink:href="#DejaVuSans-20" x="392.298828"/>
      <use xlink:href="#DejaVuSans-28" x="424.085938"/>
      <use xlink:href="#DejaVuSans-76" x="463.099609"/>
      <use xlink:href="#DejaVuSans-29" x="522.279297"/>
     </g>
    </g>
   </g>
   <g id="line2d_38">
    <path d="M 714.288727 133.394781 
L 712.618532 154.747717 
L 707.67981 175.309574 
L 699.629664 194.625377 
L 688.691132 212.28183 
L 675.15374 227.913965 
L 659.361194 241.216536 
L 641.70031 251.922015 
L 622.594274 259.809505 
L 602.484297 264.737791 
L 581.82954 266.645455 
L 561.107112 265.550874 
L 540.786171 261.542159 
L 521.298978 254.741874 
L 503.089464 245.330681 
L 486.550492 233.545839 
L 472.021434 219.680712 
L 459.788169 204.084765 
L 450.082061 187.160303 
L 443.069643 169.290438 
L 438.884371 150.887673 
L 437.594512 132.37441 
L 439.191963 114.160473 
L 443.59225 96.64311 
L 450.634527 80.206993 
L 460.107787 65.202347 
L 471.781499 51.938472 
L 485.365806 40.700621 
L 500.535188 31.712438 
L 516.928827 25.135548 
L 534.150658 21.06956 
L 551.8086 19.554545 
L 569.502872 20.59647 
L 586.826811 24.150136 
L 603.400654 30.108754 
L 618.871532 38.303937 
L 632.913475 48.505704 
L 645.232124 60.430244 
L 655.589798 73.802059 
L 663.768866 88.302575 
L 669.608916 103.593952 
L 673.014231 119.328233 
L 673.953786 135.147342 
L 672.460149 150.686667 
L 668.604477 165.617916 
L 662.496828 179.605378 
L 654.296863 192.34169 
L 644.212266 203.562239 
L 632.498747 213.045165 
L 619.460037 220.611362 
L 605.412995 226.130347 
L 590.67367 229.504068 
L 575.587323 230.673644 
L 560.492773 229.638054 
L 545.722264 226.454177 
L 531.601468 221.236796 
L 518.442416 214.151887 
L 506.512845 205.374336 
L 496.073734 195.121382 
L 487.342234 183.639162 
L 480.485766 171.198529 
L 475.622029 158.095058 
L 472.818703 144.641655 
L 472.10467 131.131023 
L 473.478497 117.875799 
L 476.889228 105.17174 
L 482.234797 93.291025 
L 489.362031 82.482262 
L 498.066648 72.970479 
L 508.125408 64.94267 
L 519.305358 58.558631 
L 531.339804 53.948625 
L 543.951658 51.193103 
L 556.853444 50.32271 
L 569.747298 51.318278 
L 582.344135 54.118874 
L 594.374691 58.642392 
L 605.565722 64.769805 
L 615.677098 72.347479 
L 624.502532 81.18734 
L 631.869581 91.066879 
L 637.640661 101.732684 
L 641.717689 112.946188 
L 644.02321 124.447216 
L 644.522093 135.973004 
L 643.226718 147.269225 
L 640.19697 158.089988 
L 635.540244 168.197839 
L 629.391462 177.379565 
L 621.899971 185.444822 
L 613.250886 192.221408 
L 603.650807 197.575916 
L 593.327784 201.413774 
L 582.530903 203.67929 
L 571.502586 204.352844 
L 560.494935 203.435487 
L 549.759357 200.961707 
L 539.530099 197.004184 
L 530.02424 191.673797 
L 521.441697 185.119619 
L 513.960934 177.521519 
L 507.726084 169.052975 
L 502.86826 159.916159 
L 499.481194 150.323003 
L 497.618203 140.491321 
L 497.292196 130.644804 
L 498.476889 121.009484 
L 501.123964 111.78797 
L 505.15939 103.188292 
L 510.478592 95.398203 
L 516.947402 88.57851 
L 524.402062 82.863072 
L 532.649248 78.358793 
L 541.492919 75.14171 
L 550.731989 73.269619 
L 560.151202 72.773511 
L 569.539815 73.648356 
L 578.6916 75.853112 
L 587.404841 79.310717 
L 595.488285 83.914034 
L 602.777505 89.551181 
L 609.113157 96.082828 
L 614.364664 103.352813 
L 618.432597 111.189932 
L 621.248677 119.407946 
L 622.77585 127.812347 
L 622.999566 136.220327 
L 621.92557 144.437147 
L 619.590799 152.280535 
L 616.063909 159.583185 
L 611.445273 166.192752 
L 605.866827 171.971942 
L 599.467427 176.80893 
L 592.396722 180.606087 
L 584.822388 183.287071 
L 576.918263 184.806629 
L 568.864345 185.150597 
L 560.846796 184.335901 
L 553.042977 182.403807 
L 545.621236 179.409065 
L 538.74933 175.429732 
L 532.573766 170.565101 
L 527.219725 164.935682 
L 522.791061 158.6832 
L 519.369316 151.966851 
L 517.012388 144.935269 
L 515.764879 137.752372 
L 515.643982 130.581419 
L 516.637327 123.58012 
L 518.702979 116.900642 
L 521.769465 110.689579 
L 525.751331 105.07614 
L 530.551508 100.177841 
L 536.052125 96.098407 
L 542.12223 92.917225 
L 548.617788 90.689345 
L 555.382337 89.445428 
L 562.265442 89.194462 
L 569.108957 89.93253 
L 575.75738 91.634261 
L 582.066236 94.250644 
L 587.902072 97.709027 
L 593.142464 101.913117 
L 597.679418 106.74914 
L 601.425533 112.107461 
L 604.302185 117.860141 
L 606.254758 123.874249 
L 607.253891 130.01354 
L 607.295476 136.138452 
L 606.399558 142.109005 
L 604.598939 147.800011 
L 601.943164 153.082981 
L 598.500517 157.843194 
L 594.357444 161.982965 
L 589.618555 165.421647 
L 584.406456 168.095674 
L 578.842979 169.960785 
L 573.055567 170.983406 
L 567.178433 171.147721 
L 561.342638 170.460296 
L 555.67609 168.950086 
L 550.303545 166.668428 
L 545.342162 163.684371 
L 540.892892 160.069663 
L 537.052731 155.913435 
L 533.900155 151.314707 
L 531.494101 146.381568 
L 529.873971 141.231177 
L 529.059711 135.984248 
L 529.0581 130.755182 
L 529.862438 125.664975 
L 531.44654 120.825971 
L 533.764562 116.340973 
L 536.751006 112.30324 
L 540.321082 108.79629 
L 544.387934 105.887184 
L 548.855871 103.635121 
L 553.61947 102.084727 
L 558.569723 101.261218 
L 563.594036 101.170401 
L 568.576229 101.798673 
L 573.407451 103.118292 
L 577.982607 105.092737 
L 582.198836 107.670991 
L 585.966755 110.789021 
L 589.210463 114.369776 
L 591.867539 118.323182 
L 593.889828 122.549453 
L 595.24326 126.955636 
L 595.902509 131.438786 
L 595.859726 135.89745 
L 595.125446 140.233866 
L 593.728592 144.353961 
L 591.716367 148.167446 
L 589.143181 151.595844 
L 586.071852 154.566955 
L 582.577377 157.018307 
L 578.742665 158.902712 
L 574.658542 160.188263 
L 570.423142 160.858365 
L 566.130065 160.909513 
L 561.878094 160.346368 
L 557.763507 159.187104 
L 553.875427 157.464477 
L 550.295821 155.225828 
L 547.099499 152.533084 
L 544.35177 149.458306 
L 542.105456 146.0709 
L 540.40753 142.451653 
L 539.289766 138.683944 
L 538.768142 134.852912 
L 538.842842 131.04546 
L 539.499075 127.348304 
L 540.714508 123.838758 
L 542.456148 120.595939 
L 544.679535 117.690012 
L 547.329138 115.180319 
L 550.338357 113.115377 
L 553.629708 111.532832 
L 557.126992 110.458341 
L 560.74987 109.911036 
L 564.41458 109.898673 
L 568.039617 110.415114 
L 571.545733 111.440329 
L 574.855942 112.940396 
L 577.898388 114.870705 
L 580.611263 117.185209 
L 582.935665 119.827009 
L 584.824429 122.733355 
L 586.242666 125.836106 
L 587.167768 129.061731 
L 587.589245 132.335305 
L 587.504473 135.585249 
L 586.919596 138.736498 
L 585.85285 141.71978 
L 584.334624 144.471949 
L 582.407455 146.935995 
L 580.125632 149.061246 
L 577.543821 150.807438 
L 574.722932 152.138946 
L 571.729262 153.029731 
L 568.631129 153.465877 
L 565.498866 153.44559 
L 562.404814 152.979194 
L 559.416039 152.085367 
L 556.597765 150.788397 
L 554.013098 149.121547 
L 551.716586 147.126017 
L 549.754219 144.850943 
L 548.163428 142.353401 
L 546.972551 139.695918 
L 546.201473 136.936757 
L 545.864358 134.140404 
L 545.964374 131.369935 
L 546.493268 128.685926 
L 547.431365 126.146455 
L 548.74768 123.807005 
L 550.407309 121.715353 
L 552.369815 119.915603 
L 554.587495 118.445405 
L 557.007922 117.332791 
L 559.57394 116.596178 
L 562.224055 116.244355 
L 564.899919 116.278085 
L 567.540079 116.692979 
L 570.084839 117.476279 
L 572.479206 118.606272 
L 574.672885 120.052286 
L 576.62028 121.77469 
L 578.281884 123.727672 
L 579.625971 125.8673 
L 580.624561 128.142645 
L 581.25918 130.501399 
L 581.521242 132.890416 
L 581.41204 135.255713 
L 580.942273 137.543513 
L 580.127193 139.706131 
L 578.988663 141.69501 
L 577.555561 143.467173 
L 575.863449 144.986558 
L 573.954571 146.224015 
L 571.877748 147.157335 
L 569.680932 147.771775 
L 567.414502 148.056683 
L 565.130802 148.008482 
L 562.880524 147.632195 
L 560.712708 146.941452 
L 558.674735 145.958482 
L 556.810766 144.712246 
L 555.158487 143.232289 
L 553.753592 141.554857 
L 552.62444 139.719701 
L 551.79166 137.769707 
L 551.268148 135.7509 
L 551.059232 133.709858 
L 551.165417 131.691266 
L 551.581647 129.741672 
L 552.295401 127.903813 
L 553.286674 126.216459 
L 554.527975 124.714407 
L 555.98463 123.428331 
L 557.622039 122.382387 
L 559.401594 121.597864 
L 561.281585 121.089931 
L 563.219225 120.866188 
L 565.170651 120.926661 
L 567.090925 121.263806 
L 568.938519 121.864983 
L 570.673252 122.714122 
L 572.256356 123.789573 
L 573.654522 125.064885 
L 574.839902 126.508813 
L 575.790108 128.08531 
L 576.488523 129.755147 
L 576.923697 131.48179 
L 577.087836 133.224914 
L 576.979995 134.945283 
L 576.606316 136.605377 
L 575.980019 138.169396 
L 575.121346 139.603317 
L 574.052865 140.878 
L 572.800466 141.966669 
L 571.394487 142.846606 
L 569.868038 143.501155 
L 568.257005 143.919732 
L 566.599886 144.097814 
L 564.933147 144.03591 
L 563.294825 143.73774 
L 561.722 143.212126 
L 560.248631 142.473357 
L 558.905552 141.541191 
L 557.720476 140.440852 
L 556.717306 139.201593 
L 555.914947 137.851219 
L 555.330008 136.421776 
L 554.973233 134.946099 
L 554.849181 133.45733 
L 554.956224 131.988917 
L 555.286753 130.574219 
L 555.830291 129.24266 
L 556.572433 128.023886 
L 557.494453 126.944272 
L 558.573638 126.025754 
L 559.783297 125.285831 
L 561.092775 124.737557 
L 562.471686 124.389297 
L 563.888639 124.246789 
L 565.310863 124.311513 
L 566.706816 124.579643 
L 568.046186 125.042039 
L 569.299892 125.684252 
L 570.440793 126.487405 
L 571.446041 127.432493 
L 572.293988 128.496502 
L 572.967491 129.654274 
L 573.454321 130.878901 
L 573.747158 132.141716 
L 573.843502 133.413345 
L 573.744051 134.666339 
L 573.45274 135.87182 
L 572.978002 137.003258 
L 572.332805 138.036802 
L 571.534651 138.951283 
L 570.605546 139.728226 
L 569.568063 140.353128 
L 568.446241 140.813643 
L 567.266465 141.100817 
L 566.055538 141.210431 
L 564.840684 141.142995 
L 563.649549 140.903754 
L 562.508495 140.501665 
L 561.441532 139.947282 
L 560.472633 139.254727 
L 559.622285 138.440939 
L 558.907414 137.525635 
L 558.341379 136.531314 
L 557.933886 135.482741 
L 557.691202 134.402928 
L 557.617464 133.316929 
L 557.712728 132.249291 
L 557.97269 131.22328 
L 558.388688 130.260876 
L 558.947702 129.382777 
L 559.634479 128.607038 
L 560.432805 127.949435 
L 561.323297 127.423832 
L 562.285073 127.040237 
L 563.295746 126.804793 
L 564.331431 126.719781 
L 565.368714 126.784047 
L 566.384785 126.99446 
L 567.356363 127.344984 
L 568.262337 127.826332 
L 569.08378 128.425967 
L 569.803947 129.128105 
L 570.408386 129.913957 
L 570.886012 130.765566 
L 571.227175 131.663038 
L 571.425501 132.585633 
L 571.478486 133.512684 
L 571.387494 134.423598 
L 571.15776 135.297854 
L 570.796946 136.116823 
L 570.314362 136.863039 
L 569.722208 137.520127 
L 569.034937 138.074623 
L 568.26925 138.515971 
L 567.444101 138.836521 
L 566.579273 139.031602 
L 565.693908 139.098516 
L 564.808659 139.036759 
L 563.94325 138.849051 
L 563.11641 138.541348 
L 562.345871 138.122848 
L 561.648285 137.605872 
L 561.037529 137.00304 
L 560.526478 136.328732 
L 560.125645 135.598938 
L 559.842388 134.830509 
L 559.680913 134.041155 
L 559.642281 133.249369 
L 559.725151 132.472243 
L 559.926468 131.727272 
L 560.2406 131.031132 
L 560.659254 130.398608 
L 561.171475 129.842594 
L 561.763651 129.374094 
L 562.420439 129.001943 
L 563.127164 128.732851 
L 563.867086 128.572125 
L 565.379004 128.582594 
L 566.821464 129.017647 
L 568.069516 129.824027 
L 569.016642 130.922103 
L 569.589193 132.206706 
L 569.750528 133.557708 
L 569.495312 134.853612 
L 568.857206 135.982407 
L 567.90791 136.850321 
L 566.738908 137.387529 
L 565.458581 137.555117 
L 564.183837 137.352292 
L 563.027203 136.806948 
L 562.088243 135.974774 
L 561.44155 134.940058 
L 561.134966 133.800371 
L 561.18852 132.65889 
L 561.585191 131.615809 
L 562.278163 130.760022 
L 563.199417 130.163082 
L 564.260902 129.868944 
L 565.364465 129.892831 
L 566.41076 130.226085 
L 567.309981 130.830433 
L 567.98779 131.641528 
L 568.389806 132.583042 
L 568.488026 133.56883 
L 568.285327 134.51026 
L 567.80728 135.325185 
L 567.102509 135.944829 
L 566.242003 136.321989 
L 565.306104 136.430452 
L 564.379236 136.266339 
L 563.542598 135.853943 
L 562.867179 135.237791 
L 562.409164 134.476946 
L 562.201377 133.642933 
L 562.253587 132.811583 
L 562.555871 132.056956 
L 563.073986 131.442684 
L 563.753713 131.018005 
L 564.531391 130.816066 
L 565.336125 130.848467 
L 566.095793 131.103363 
L 566.744317 131.552755 
L 567.22731 132.15243 
L 567.508509 132.843505 
L 567.5689 133.562496 
L 567.407833 134.245209 
L 567.047553 134.832883 
L 566.526361 135.27666 
L 565.893956 135.540509 
L 565.209496 135.607385 
L 564.534905 135.47808 
L 563.930165 135.168023 
L 563.445995 134.709969 
L 563.120818 134.150353 
L 562.979674 133.540813 
L 563.030028 132.936158 
L 563.26004 132.389719 
L 563.644845 131.948253 
L 564.146794 131.648064 
L 564.717151 131.510211 
L 565.303686 131.542287 
L 565.854156 131.73789 
L 566.321403 132.073758 
L 566.666859 132.515621 
L 566.862633 133.022069 
L 566.896564 133.546571 
L 566.771274 134.042367 
L 566.501176 134.465856 
L 566.114289 134.782191 
L 565.649479 134.967432 
L 564.900435 134.973906 
L 564.221748 134.671728 
L 563.743424 134.134161 
L 563.549857 133.475504 
L 563.665516 132.830425 
L 564.0559 132.324119 
L 564.630716 132.048575 
L 565.270847 132.048806 
L 565.848395 132.310736 
L 566.252463 132.773599 
L 566.413384 133.336905 
L 566.308847 133.886458 
L 565.972068 134.316131 
L 565.478844 134.546653 
L 564.93192 134.542545 
L 564.440986 134.31457 
L 564.099032 133.916646 
L 563.96604 133.434967 
L 564.059623 132.96651 
L 564.350209 132.602169 
L 564.773617 132.409107 
L 565.240625 132.416148 
L 565.658191 132.614808 
L 565.947504 132.956398 
L 566.056902 133.368533 
L 565.973939 133.767825 
L 565.722613 134.076365 
L 565.359462 134.238463 
L 564.960775 134.228815 
L 564.508885 133.969321 
L 564.282516 133.529943 
L 564.344485 133.070162 
L 564.658193 132.747777 
L 565.101109 132.66391 
L 565.515967 132.833483 
L 565.762639 133.184015 
L 565.768089 133.585637 
L 565.543361 133.898856 
L 565.17936 134.022537 
L 564.80719 133.925654 
L 564.554504 133.65375 
L 564.499389 133.309883 
L 564.650033 133.014959 
L 564.94229 132.866334 
L 565.269204 132.905912 
L 565.556282 133.177699 
L 565.582952 133.54206 
L 565.354136 133.803842 
L 565.006735 133.834624 
L 564.7298 133.63503 
L 564.661414 133.325613 
L 564.821994 133.074286 
L 565.111953 133.007379 
L 565.371221 133.14622 
L 565.467981 133.40363 
L 565.363724 133.638005 
L 565.126905 133.729161 
L 564.854643 133.604846 
L 564.779334 133.33893 
L 564.938547 133.136455 
L 565.196673 133.138787 
L 565.357869 133.326786 
L 565.31339 133.547904 
L 565.1133 133.638727 
L 564.895218 133.515388 
L 564.88876 133.289057 
L 565.078947 133.186469 
L 565.264201 133.293391 
L 565.251779 133.509157 
L 565.050243 133.562723 
L 564.923857 133.407842 
L 565.016429 133.254806 
L 565.20693 133.304622 
L 565.207311 133.480167 
L 565.041159 133.508369 
L 564.978597 133.34999 
L 565.123927 133.291265 
L 565.191561 133.433991 
L 565.053636 133.476796 
L 565.016711 133.349473 
L 565.024532 133.339599 
L 565.138983 133.332013 
L 565.138983 133.332013 
" clip-path="url(#p1fcbd56175)" style="fill: none; stroke: #000000; stroke-width: 1.5; stroke-linecap: square"/>
   </g>
   <g id="patch_9">
    <path d="M 423.759801 279 
L 423.759801 7.2 
" style="fill: none; stroke: #000000; stroke-width: 0.8; stroke-linejoin: miter; stroke-linecap: square"/>
   </g>
   <g id="patch_10">
    <path d="M 728.123437 279 
L 728.123437 7.2 
" style="fill: none; stroke: #000000; stroke-width: 0.8; stroke-linejoin: miter; stroke-linecap: square"/>
   </g>
   <g id="patch_11">
    <path d="M 423.759801 279 
L 728.123437 279 
" style="fill: none; stroke: #000000; stroke-width: 0.8; stroke-linejoin: miter; stroke-linecap: square"/>
   </g>
   <g id="patch_12">
    <path d="M 423.759801 7.2 
L 728.123437 7.2 
" style="fill: none; stroke: #000000; stroke-width: 0.8; stroke-linejoin: miter; stroke-linecap: square"/>
   </g>
   <g id="legend_2">
    <g id="patch_13">
     <path d="M 652.135937 29.878125 
L 721.123437 29.878125 
Q 723.123437 29.878125 723.123437 27.878125 
L 723.123437 14.2 
Q 723.123437 12.2 721.123437 12.2 
L 652.135937 12.2 
Q 650.135937 12.2 650.135937 14.2 
L 650.135937 27.878125 
Q 650.135937 29.878125 652.135937 29.878125 
z
" style="fill: #ffffff; opacity: 0.8; stroke: #cccccc; stroke-linejoin: miter"/>
    </g>
    <g id="line2d_39">
     <path d="M 654.135937 20.298438 
L 664.135937 20.298438 
L 674.135937 20.298438 
" style="fill: none; stroke: #000000; stroke-width: 1.5; stroke-linecap: square"/>
    </g>
    <g id="text_40">
     <!-- b = 0.1 -->
     <g transform="translate(682.135937 23.798438)scale(0.1 -0.1)">
      <defs>
       <path id="DejaVuSans-62" d="M 3116 1747 
Q 3116 2381 2855 2742 
Q 2594 3103 2138 3103 
Q 1681 3103 1420 2742 
Q 1159 2381 1159 1747 
Q 1159 1113 1420 752 
Q 1681 391 2138 391 
Q 2594 391 2855 752 
Q 3116 1113 3116 1747 
z
M 1159 2969 
Q 1341 3281 1617 3432 
Q 1894 3584 2278 3584 
Q 2916 3584 3314 3078 
Q 3713 2572 3713 1747 
Q 3713 922 3314 415 
Q 2916 -91 2278 -91 
Q 1894 -91 1617 61 
Q 1341 213 1159 525 
L 1159 0 
L 581 0 
L 581 4863 
L 1159 4863 
L 1159 2969 
z
" transform="scale(0.015625)"/>
       <path id="DejaVuSans-3d" d="M 678 2906 
L 4684 2906 
L 4684 2381 
L 678 2381 
L 678 2906 
z
M 678 1631 
L 4684 1631 
L 4684 1100 
L 678 1100 
L 678 1631 
z
" transform="scale(0.015625)"/>
      </defs>
      <use xlink:href="#DejaVuSans-62"/>
      <use xlink:href="#DejaVuSans-20" x="63.476562"/>
      <use xlink:href="#DejaVuSans-3d" x="95.263672"/>
      <use xlink:href="#DejaVuSans-20" x="179.052734"/>
      <use xlink:href="#DejaVuSans-30" x="210.839844"/>
      <use xlink:href="#DejaVuSans-2e" x="274.462891"/>
      <use xlink:href="#DejaVuSans-31" x="306.25"/>
     </g>
    </g>
   </g>
  </g>
 </g>
 <defs>
  <clipPath id="pdaa8705eca">
   <rect x="58.523438" y="7.2" width="304.363636" height="271.8"/>
  </clipPath>
  <clipPath id="p1fcbd56175">
   <rect x="423.759801" y="7.2" width="304.363636" height="271.8"/>
  </clipPath>
 </defs>
</svg>
