<?xml version="1.0" encoding="utf-8" standalone="no"?>
<!DOCTYPE svg PUBLIC "-//W3C//DTD SVG 1.1//EN"
  "http://www.w3.org/Graphics/SVG/1.1/DTD/svg11.dtd">
<svg xmlns:xlink="http://www.w3.org/1999/xlink" width="719.420312pt" height="316.55625pt" viewBox="0 0 719.420312 316.55625" xmlns="http://www.w3.org/2000/svg" version="1.1">
 <metadata>
  <rdf:RDF xmlns:dc="http://purl.org/dc/elements/1.1/" xmlns:cc="http://creativecommons.org/ns#" xmlns:rdf="http://www.w3.org/1999/02/22-rdf-syntax-ns#">
   <cc:Work>
    <dc:type rdf:resource="http://purl.org/dc/dcmitype/StillImage"/>
    <dc:date>2024-09-27T18:24:32.741460</dc:date>
    <dc:format>image/svg+xml</dc:format>
    <dc:creator>
     <cc:Agent>
      <dc:title>Matplotlib v3.5.2, https://matplotlib.org/</dc:title>
     </cc:Agent>
    </dc:creator>
   </cc:Work>
  </rdf:RDF>
 </metadata>
 <defs>
  <style type="text/css">*{stroke-linejoin: round; stroke-linecap: butt}</style>
 </defs>
 <g id="figure_1">
  <g id="patch_1">
   <path d="M 0 316.55625 
L 719.420312 316.55625 
L 719.420312 0 
L 0 0 
z
" style="fill: #ffffff"/>
  </g>
  <g id="axes_1">
   <g id="patch_2">
    <path d="M 42.620313 279 
L 346.983949 279 
L 346.983949 7.2 
L 42.620313 7.2 
z
" style="fill: #ffffff"/>
   </g>
   <g id="matplotlib.axis_1">
    <g id="xtick_1">
     <g id="line2d_1">
      <defs>
       <path id="m97c2fcfe4a" d="M 0 0 
L 0 3.5 
" style="stroke: #000000; stroke-width: 0.8"/>
      </defs>
      <g>
       <use xlink:href="#m97c2fcfe4a" x="56.455023" y="279" style="stroke: #000000; stroke-width: 0.8"/>
      </g>
     </g>
     <g id="text_1">
      <!-- 0 -->
      <g transform="translate(53.273773 293.598437)scale(0.1 -0.1)">
       <defs>
        <path id="DejaVuSans-30" d="M 2034 4250 
Q 1547 4250 1301 3770 
Q 1056 3291 1056 2328 
Q 1056 1369 1301 889 
Q 1547 409 2034 409 
Q 2525 409 2770 889 
Q 3016 1369 3016 2328 
Q 3016 3291 2770 3770 
Q 2525 4250 2034 4250 
z
M 2034 4750 
Q 2819 4750 3233 4129 
Q 3647 3509 3647 2328 
Q 3647 1150 3233 529 
Q 2819 -91 2034 -91 
Q 1250 -91 836 529 
Q 422 1150 422 2328 
Q 422 3509 836 4129 
Q 1250 4750 2034 4750 
z
" transform="scale(0.015625)"/>
       </defs>
       <use xlink:href="#DejaVuSans-30"/>
      </g>
     </g>
    </g>
    <g id="xtick_2">
     <g id="line2d_2">
      <g>
       <use xlink:href="#m97c2fcfe4a" x="111.793866" y="279" style="stroke: #000000; stroke-width: 0.8"/>
      </g>
     </g>
     <g id="text_2">
      <!-- 10 -->
      <g transform="translate(105.431366 293.598437)scale(0.1 -0.1)">
       <defs>
        <path id="DejaVuSans-31" d="M 794 531 
L 1825 531 
L 1825 4091 
L 703 3866 
L 703 4441 
L 1819 4666 
L 2450 4666 
L 2450 531 
L 3481 531 
L 3481 0 
L 794 0 
L 794 531 
z
" transform="scale(0.015625)"/>
       </defs>
       <use xlink:href="#DejaVuSans-31"/>
       <use xlink:href="#DejaVuSans-30" x="63.623047"/>
      </g>
     </g>
    </g>
    <g id="xtick_3">
     <g id="line2d_3">
      <g>
       <use xlink:href="#m97c2fcfe4a" x="167.132709" y="279" style="stroke: #000000; stroke-width: 0.8"/>
      </g>
     </g>
     <g id="text_3">
      <!-- 20 -->
      <g transform="translate(160.770209 293.598437)scale(0.1 -0.1)">
       <defs>
        <path id="DejaVuSans-32" d="M 1228 531 
L 3431 531 
L 3431 0 
L 469 0 
L 469 531 
Q 828 903 1448 1529 
Q 2069 2156 2228 2338 
Q 2531 2678 2651 2914 
Q 2772 3150 2772 3378 
Q 2772 3750 2511 3984 
Q 2250 4219 1831 4219 
Q 1534 4219 1204 4116 
Q 875 4013 500 3803 
L 500 4441 
Q 881 4594 1212 4672 
Q 1544 4750 1819 4750 
Q 2544 4750 2975 4387 
Q 3406 4025 3406 3419 
Q 3406 3131 3298 2873 
Q 3191 2616 2906 2266 
Q 2828 2175 2409 1742 
Q 1991 1309 1228 531 
z
" transform="scale(0.015625)"/>
       </defs>
       <use xlink:href="#DejaVuSans-32"/>
       <use xlink:href="#DejaVuSans-30" x="63.623047"/>
      </g>
     </g>
    </g>
    <g id="xtick_4">
     <g id="line2d_4">
      <g>
       <use xlink:href="#m97c2fcfe4a" x="222.471552" y="279" style="stroke: #000000; stroke-width: 0.8"/>
      </g>
     </g>
     <g id="text_4">
      <!-- 30 -->
      <g transform="translate(216.109052 293.598437)scale(0.1 -0.1)">
       <defs>
        <path id="DejaVuSans-33" d="M 2597 2516 
Q 3050 2419 3304 2112 
Q 3559 1806 3559 1356 
Q 3559 666 3084 287 
Q 2609 -91 1734 -91 
Q 1441 -91 1130 -33 
Q 819 25 488 141 
L 488 750 
Q 750 597 1062 519 
Q 1375 441 1716 441 
Q 2309 441 2620 675 
Q 2931 909 2931 1356 
Q 2931 1769 2642 2001 
Q 2353 2234 1838 2234 
L 1294 2234 
L 1294 2753 
L 1863 2753 
Q 2328 2753 2575 2939 
Q 2822 3125 2822 3475 
Q 2822 3834 2567 4026 
Q 2313 4219 1838 4219 
Q 1578 4219 1281 4162 
Q 984 4106 628 3988 
L 628 4550 
Q 988 4650 1302 4700 
Q 1616 4750 1894 4750 
Q 2613 4750 3031 4423 
Q 3450 4097 3450 3541 
Q 3450 3153 3228 2886 
Q 3006 2619 2597 2516 
z
" transform="scale(0.015625)"/>
       </defs>
       <use xlink:href="#DejaVuSans-33"/>
       <use xlink:href="#DejaVuSans-30" x="63.623047"/>
      </g>
     </g>
    </g>
    <g id="xtick_5">
     <g id="line2d_5">
      <g>
       <use xlink:href="#m97c2fcfe4a" x="277.810395" y="279" style="stroke: #000000; stroke-width: 0.8"/>
      </g>
     </g>
     <g id="text_5">
      <!-- 40 -->
      <g transform="translate(271.447895 293.598437)scale(0.1 -0.1)">
       <defs>
        <path id="DejaVuSans-34" d="M 2419 4116 
L 825 1625 
L 2419 1625 
L 2419 4116 
z
M 2253 4666 
L 3047 4666 
L 3047 1625 
L 3713 1625 
L 3713 1100 
L 3047 1100 
L 3047 0 
L 2419 0 
L 2419 1100 
L 313 1100 
L 313 1709 
L 2253 4666 
z
" transform="scale(0.015625)"/>
       </defs>
       <use xlink:href="#DejaVuSans-34"/>
       <use xlink:href="#DejaVuSans-30" x="63.623047"/>
      </g>
     </g>
    </g>
    <g id="xtick_6">
     <g id="line2d_6">
      <g>
       <use xlink:href="#m97c2fcfe4a" x="333.149238" y="279" style="stroke: #000000; stroke-width: 0.8"/>
      </g>
     </g>
     <g id="text_6">
      <!-- 50 -->
      <g transform="translate(326.786738 293.598437)scale(0.1 -0.1)">
       <defs>
        <path id="DejaVuSans-35" d="M 691 4666 
L 3169 4666 
L 3169 4134 
L 1269 4134 
L 1269 2991 
Q 1406 3038 1543 3061 
Q 1681 3084 1819 3084 
Q 2600 3084 3056 2656 
Q 3513 2228 3513 1497 
Q 3513 744 3044 326 
Q 2575 -91 1722 -91 
Q 1428 -91 1123 -41 
Q 819 9 494 109 
L 494 744 
Q 775 591 1075 516 
Q 1375 441 1709 441 
Q 2250 441 2565 725 
Q 2881 1009 2881 1497 
Q 2881 1984 2565 2268 
Q 2250 2553 1709 2553 
Q 1456 2553 1204 2497 
Q 953 2441 691 2322 
L 691 4666 
z
" transform="scale(0.015625)"/>
       </defs>
       <use xlink:href="#DejaVuSans-35"/>
       <use xlink:href="#DejaVuSans-30" x="63.623047"/>
      </g>
     </g>
    </g>
    <g id="text_7">
     <!-- Time (t) -->
     <g transform="translate(175.117756 307.276562)scale(0.1 -0.1)">
      <defs>
       <path id="DejaVuSans-54" d="M -19 4666 
L 3928 4666 
L 3928 4134 
L 2272 4134 
L 2272 0 
L 1638 0 
L 1638 4134 
L -19 4134 
L -19 4666 
z
" transform="scale(0.015625)"/>
       <path id="DejaVuSans-69" d="M 603 3500 
L 1178 3500 
L 1178 0 
L 603 0 
L 603 3500 
z
M 603 4863 
L 1178 4863 
L 1178 4134 
L 603 4134 
L 603 4863 
z
" transform="scale(0.015625)"/>
       <path id="DejaVuSans-6d" d="M 3328 2828 
Q 3544 3216 3844 3400 
Q 4144 3584 4550 3584 
Q 5097 3584 5394 3201 
Q 5691 2819 5691 2113 
L 5691 0 
L 5113 0 
L 5113 2094 
Q 5113 2597 4934 2840 
Q 4756 3084 4391 3084 
Q 3944 3084 3684 2787 
Q 3425 2491 3425 1978 
L 3425 0 
L 2847 0 
L 2847 2094 
Q 2847 2600 2669 2842 
Q 2491 3084 2119 3084 
Q 1678 3084 1418 2786 
Q 1159 2488 1159 1978 
L 1159 0 
L 581 0 
L 581 3500 
L 1159 3500 
L 1159 2956 
Q 1356 3278 1631 3431 
Q 1906 3584 2284 3584 
Q 2666 3584 2933 3390 
Q 3200 3197 3328 2828 
z
" transform="scale(0.015625)"/>
       <path id="DejaVuSans-65" d="M 3597 1894 
L 3597 1613 
L 953 1613 
Q 991 1019 1311 708 
Q 1631 397 2203 397 
Q 2534 397 2845 478 
Q 3156 559 3463 722 
L 3463 178 
Q 3153 47 2828 -22 
Q 2503 -91 2169 -91 
Q 1331 -91 842 396 
Q 353 884 353 1716 
Q 353 2575 817 3079 
Q 1281 3584 2069 3584 
Q 2775 3584 3186 3129 
Q 3597 2675 3597 1894 
z
M 3022 2063 
Q 3016 2534 2758 2815 
Q 2500 3097 2075 3097 
Q 1594 3097 1305 2825 
Q 1016 2553 972 2059 
L 3022 2063 
z
" transform="scale(0.015625)"/>
       <path id="DejaVuSans-20" transform="scale(0.015625)"/>
       <path id="DejaVuSans-28" d="M 1984 4856 
Q 1566 4138 1362 3434 
Q 1159 2731 1159 2009 
Q 1159 1288 1364 580 
Q 1569 -128 1984 -844 
L 1484 -844 
Q 1016 -109 783 600 
Q 550 1309 550 2009 
Q 550 2706 781 3412 
Q 1013 4119 1484 4856 
L 1984 4856 
z
" transform="scale(0.015625)"/>
       <path id="DejaVuSans-74" d="M 1172 4494 
L 1172 3500 
L 2356 3500 
L 2356 3053 
L 1172 3053 
L 1172 1153 
Q 1172 725 1289 603 
Q 1406 481 1766 481 
L 2356 481 
L 2356 0 
L 1766 0 
Q 1100 0 847 248 
Q 594 497 594 1153 
L 594 3053 
L 172 3053 
L 172 3500 
L 594 3500 
L 594 4494 
L 1172 4494 
z
" transform="scale(0.015625)"/>
       <path id="DejaVuSans-29" d="M 513 4856 
L 1013 4856 
Q 1481 4119 1714 3412 
Q 1947 2706 1947 2009 
Q 1947 1309 1714 600 
Q 1481 -109 1013 -844 
L 513 -844 
Q 928 -128 1133 580 
Q 1338 1288 1338 2009 
Q 1338 2731 1133 3434 
Q 928 4138 513 4856 
z
" transform="scale(0.015625)"/>
      </defs>
      <use xlink:href="#DejaVuSans-54"/>
      <use xlink:href="#DejaVuSans-69" x="57.958984"/>
      <use xlink:href="#DejaVuSans-6d" x="85.742188"/>
      <use xlink:href="#DejaVuSans-65" x="183.154297"/>
      <use xlink:href="#DejaVuSans-20" x="244.677734"/>
      <use xlink:href="#DejaVuSans-28" x="276.464844"/>
      <use xlink:href="#DejaVuSans-74" x="315.478516"/>
      <use xlink:href="#DejaVuSans-29" x="354.6875"/>
     </g>
    </g>
   </g>
   <g id="matplotlib.axis_2">
    <g id="ytick_1">
     <g id="line2d_7">
      <defs>
       <path id="m15507e1aa0" d="M 0 0 
L -3.5 0 
" style="stroke: #000000; stroke-width: 0.8"/>
      </defs>
      <g>
       <use xlink:href="#m15507e1aa0" x="42.620313" y="247.008346" style="stroke: #000000; stroke-width: 0.8"/>
      </g>
     </g>
     <g id="text_8">
      <!-- −4 -->
      <g transform="translate(20.878125 250.807565)scale(0.1 -0.1)">
       <defs>
        <path id="DejaVuSans-2212" d="M 678 2272 
L 4684 2272 
L 4684 1741 
L 678 1741 
L 678 2272 
z
" transform="scale(0.015625)"/>
       </defs>
       <use xlink:href="#DejaVuSans-2212"/>
       <use xlink:href="#DejaVuSans-34" x="83.789062"/>
      </g>
     </g>
    </g>
    <g id="ytick_2">
     <g id="line2d_8">
      <g>
       <use xlink:href="#m15507e1aa0" x="42.620313" y="191.071503" style="stroke: #000000; stroke-width: 0.8"/>
      </g>
     </g>
     <g id="text_9">
      <!-- −2 -->
      <g transform="translate(20.878125 194.870722)scale(0.1 -0.1)">
       <use xlink:href="#DejaVuSans-2212"/>
       <use xlink:href="#DejaVuSans-32" x="83.789062"/>
      </g>
     </g>
    </g>
    <g id="ytick_3">
     <g id="line2d_9">
      <g>
       <use xlink:href="#m15507e1aa0" x="42.620313" y="135.13466" style="stroke: #000000; stroke-width: 0.8"/>
      </g>
     </g>
     <g id="text_10">
      <!-- 0 -->
      <g transform="translate(29.257813 138.933879)scale(0.1 -0.1)">
       <use xlink:href="#DejaVuSans-30"/>
      </g>
     </g>
    </g>
    <g id="ytick_4">
     <g id="line2d_10">
      <g>
       <use xlink:href="#m15507e1aa0" x="42.620313" y="79.197818" style="stroke: #000000; stroke-width: 0.8"/>
      </g>
     </g>
     <g id="text_11">
      <!-- 2 -->
      <g transform="translate(29.257813 82.997036)scale(0.1 -0.1)">
       <use xlink:href="#DejaVuSans-32"/>
      </g>
     </g>
    </g>
    <g id="ytick_5">
     <g id="line2d_11">
      <g>
       <use xlink:href="#m15507e1aa0" x="42.620313" y="23.260975" style="stroke: #000000; stroke-width: 0.8"/>
      </g>
     </g>
     <g id="text_12">
      <!-- 4 -->
      <g transform="translate(29.257813 27.060194)scale(0.1 -0.1)">
       <use xlink:href="#DejaVuSans-34"/>
      </g>
     </g>
    </g>
    <g id="text_13">
     <!-- Displacement (x) -->
     <g transform="translate(14.798438 185.922656)rotate(-90)scale(0.1 -0.1)">
      <defs>
       <path id="DejaVuSans-44" d="M 1259 4147 
L 1259 519 
L 2022 519 
Q 2988 519 3436 956 
Q 3884 1394 3884 2338 
Q 3884 3275 3436 3711 
Q 2988 4147 2022 4147 
L 1259 4147 
z
M 628 4666 
L 1925 4666 
Q 3281 4666 3915 4102 
Q 4550 3538 4550 2338 
Q 4550 1131 3912 565 
Q 3275 0 1925 0 
L 628 0 
L 628 4666 
z
" transform="scale(0.015625)"/>
       <path id="DejaVuSans-73" d="M 2834 3397 
L 2834 2853 
Q 2591 2978 2328 3040 
Q 2066 3103 1784 3103 
Q 1356 3103 1142 2972 
Q 928 2841 928 2578 
Q 928 2378 1081 2264 
Q 1234 2150 1697 2047 
L 1894 2003 
Q 2506 1872 2764 1633 
Q 3022 1394 3022 966 
Q 3022 478 2636 193 
Q 2250 -91 1575 -91 
Q 1294 -91 989 -36 
Q 684 19 347 128 
L 347 722 
Q 666 556 975 473 
Q 1284 391 1588 391 
Q 1994 391 2212 530 
Q 2431 669 2431 922 
Q 2431 1156 2273 1281 
Q 2116 1406 1581 1522 
L 1381 1569 
Q 847 1681 609 1914 
Q 372 2147 372 2553 
Q 372 3047 722 3315 
Q 1072 3584 1716 3584 
Q 2034 3584 2315 3537 
Q 2597 3491 2834 3397 
z
" transform="scale(0.015625)"/>
       <path id="DejaVuSans-70" d="M 1159 525 
L 1159 -1331 
L 581 -1331 
L 581 3500 
L 1159 3500 
L 1159 2969 
Q 1341 3281 1617 3432 
Q 1894 3584 2278 3584 
Q 2916 3584 3314 3078 
Q 3713 2572 3713 1747 
Q 3713 922 3314 415 
Q 2916 -91 2278 -91 
Q 1894 -91 1617 61 
Q 1341 213 1159 525 
z
M 3116 1747 
Q 3116 2381 2855 2742 
Q 2594 3103 2138 3103 
Q 1681 3103 1420 2742 
Q 1159 2381 1159 1747 
Q 1159 1113 1420 752 
Q 1681 391 2138 391 
Q 2594 391 2855 752 
Q 3116 1113 3116 1747 
z
" transform="scale(0.015625)"/>
       <path id="DejaVuSans-6c" d="M 603 4863 
L 1178 4863 
L 1178 0 
L 603 0 
L 603 4863 
z
" transform="scale(0.015625)"/>
       <path id="DejaVuSans-61" d="M 2194 1759 
Q 1497 1759 1228 1600 
Q 959 1441 959 1056 
Q 959 750 1161 570 
Q 1363 391 1709 391 
Q 2188 391 2477 730 
Q 2766 1069 2766 1631 
L 2766 1759 
L 2194 1759 
z
M 3341 1997 
L 3341 0 
L 2766 0 
L 2766 531 
Q 2569 213 2275 61 
Q 1981 -91 1556 -91 
Q 1019 -91 701 211 
Q 384 513 384 1019 
Q 384 1609 779 1909 
Q 1175 2209 1959 2209 
L 2766 2209 
L 2766 2266 
Q 2766 2663 2505 2880 
Q 2244 3097 1772 3097 
Q 1472 3097 1187 3025 
Q 903 2953 641 2809 
L 641 3341 
Q 956 3463 1253 3523 
Q 1550 3584 1831 3584 
Q 2591 3584 2966 3190 
Q 3341 2797 3341 1997 
z
" transform="scale(0.015625)"/>
       <path id="DejaVuSans-63" d="M 3122 3366 
L 3122 2828 
Q 2878 2963 2633 3030 
Q 2388 3097 2138 3097 
Q 1578 3097 1268 2742 
Q 959 2388 959 1747 
Q 959 1106 1268 751 
Q 1578 397 2138 397 
Q 2388 397 2633 464 
Q 2878 531 3122 666 
L 3122 134 
Q 2881 22 2623 -34 
Q 2366 -91 2075 -91 
Q 1284 -91 818 406 
Q 353 903 353 1747 
Q 353 2603 823 3093 
Q 1294 3584 2113 3584 
Q 2378 3584 2631 3529 
Q 2884 3475 3122 3366 
z
" transform="scale(0.015625)"/>
       <path id="DejaVuSans-6e" d="M 3513 2113 
L 3513 0 
L 2938 0 
L 2938 2094 
Q 2938 2591 2744 2837 
Q 2550 3084 2163 3084 
Q 1697 3084 1428 2787 
Q 1159 2491 1159 1978 
L 1159 0 
L 581 0 
L 581 3500 
L 1159 3500 
L 1159 2956 
Q 1366 3272 1645 3428 
Q 1925 3584 2291 3584 
Q 2894 3584 3203 3211 
Q 3513 2838 3513 2113 
z
" transform="scale(0.015625)"/>
       <path id="DejaVuSans-78" d="M 3513 3500 
L 2247 1797 
L 3578 0 
L 2900 0 
L 1881 1375 
L 863 0 
L 184 0 
L 1544 1831 
L 300 3500 
L 978 3500 
L 1906 2253 
L 2834 3500 
L 3513 3500 
z
" transform="scale(0.015625)"/>
      </defs>
      <use xlink:href="#DejaVuSans-44"/>
      <use xlink:href="#DejaVuSans-69" x="77.001953"/>
      <use xlink:href="#DejaVuSans-73" x="104.785156"/>
      <use xlink:href="#DejaVuSans-70" x="156.884766"/>
      <use xlink:href="#DejaVuSans-6c" x="220.361328"/>
      <use xlink:href="#DejaVuSans-61" x="248.144531"/>
      <use xlink:href="#DejaVuSans-63" x="309.423828"/>
      <use xlink:href="#DejaVuSans-65" x="364.404297"/>
      <use xlink:href="#DejaVuSans-6d" x="425.927734"/>
      <use xlink:href="#DejaVuSans-65" x="523.339844"/>
      <use xlink:href="#DejaVuSans-6e" x="584.863281"/>
      <use xlink:href="#DejaVuSans-74" x="648.242188"/>
      <use xlink:href="#DejaVuSans-20" x="687.451172"/>
      <use xlink:href="#DejaVuSans-28" x="719.238281"/>
      <use xlink:href="#DejaVuSans-78" x="758.251953"/>
      <use xlink:href="#DejaVuSans-29" x="817.431641"/>
     </g>
    </g>
   </g>
   <g id="line2d_12">
    <path d="M 56.455023 107.166239 
L 56.731994 108.031651 
L 57.008966 110.550733 
L 57.562908 119.717248 
L 59.224735 154.818078 
L 59.501706 157.915465 
L 59.778677 159.551696 
L 60.055649 159.654514 
L 60.33262 158.234449 
L 60.609591 155.409798 
L 61.163533 146.465401 
L 62.548389 119.831034 
L 63.102332 114.247388 
L 63.379303 113.397422 
L 63.656274 113.913472 
L 63.933245 115.726741 
L 64.487188 122.621365 
L 66.149015 150.068841 
L 66.425986 152.613392 
L 66.702957 154.023352 
L 66.979928 154.238945 
L 67.2569 153.278366 
L 67.533871 151.217096 
L 68.087813 144.432038 
L 69.472669 123.614777 
L 70.026611 119.055256 
L 70.303583 118.267784 
L 70.580554 118.533359 
L 70.857525 119.823684 
L 71.411467 125.010535 
L 73.350266 148.521804 
L 73.627237 149.733205 
L 73.904208 150.017995 
L 74.181179 149.373181 
L 74.45815 147.864094 
L 75.012093 142.740699 
L 76.67392 124.266775 
L 76.950891 122.762075 
L 77.227862 122.054736 
L 77.504833 122.168681 
L 77.781805 123.075819 
L 78.335747 126.958375 
L 80.274545 145.380986 
L 80.551516 146.402228 
L 80.828488 146.71163 
L 81.105459 146.301868 
L 81.38243 145.206919 
L 81.936372 141.333695 
L 83.598199 126.868876 
L 83.875171 125.630546 
L 84.152142 124.999837 
L 84.429113 125.008959 
L 84.706084 125.646445 
L 85.260027 128.548136 
L 86.09094 135.317102 
L 86.921854 141.59405 
L 87.475796 143.828273 
L 87.752767 144.133684 
L 88.029738 143.877917 
L 88.30671 143.09072 
L 88.860652 140.174178 
L 90.522479 128.855298 
L 90.79945 127.838546 
L 91.076422 127.292858 
L 91.353393 127.239148 
L 91.630364 127.673228 
L 91.907335 128.562095 
L 92.461277 131.416652 
L 93.846133 140.003597 
L 94.400076 141.831117 
L 94.677047 142.124702 
L 94.954018 141.979487 
L 95.230989 141.412294 
L 95.784932 139.219664 
L 97.446759 130.373824 
L 97.72373 129.540288 
L 98.000701 129.068578 
L 98.277672 128.982646 
L 98.554644 129.277905 
L 98.831615 129.926725 
L 99.385557 132.08671 
L 100.770413 138.795552 
L 101.324355 140.289892 
L 101.601327 140.556346 
L 101.878298 140.484851 
L 102.155269 140.085009 
L 102.709211 138.437159 
L 104.64801 130.850973 
L 104.924981 130.449998 
L 105.201952 130.344509 
L 105.478923 130.537851 
L 105.755894 131.012758 
L 106.309837 132.645 
L 107.971664 138.604094 
L 108.248635 139.098778 
L 108.525606 139.339125 
L 108.802577 139.313735 
L 109.079549 139.030834 
L 109.633491 137.799851 
L 111.572289 131.857086 
L 111.84926 131.518504 
L 112.126232 131.410303 
L 112.403203 131.532807 
L 112.680174 131.874765 
L 113.234116 133.107731 
L 114.895944 137.773026 
L 115.449886 138.389735 
L 115.726857 138.396407 
L 116.003828 138.200883 
L 116.557771 137.279502 
L 117.665655 134.355393 
L 118.219598 133.078662 
L 118.77354 132.346606 
L 119.050511 132.239404 
L 119.327482 132.31407 
L 119.604454 132.561526 
L 120.158396 133.488326 
L 121.820223 137.13716 
L 122.374166 137.65372 
L 122.651137 137.676782 
L 122.928108 137.543393 
L 123.48205 136.858515 
L 124.312964 135.187244 
L 125.143877 133.586289 
L 125.69782 132.987546 
L 125.974791 132.887667 
L 126.251762 132.927794 
L 126.805705 133.402633 
L 127.636618 134.791539 
L 128.467532 136.279166 
L 129.021474 136.924809 
L 129.575416 137.115667 
L 130.129359 136.820893 
L 130.683301 136.133218 
L 132.345128 133.679033 
L 132.899071 133.391449 
L 133.453013 133.535051 
L 134.006955 134.057345 
L 135.945754 136.505398 
L 136.499696 136.675793 
L 137.053638 136.469475 
L 137.607581 135.949146 
L 139.269408 134.026913 
L 139.82335 133.783852 
L 140.377293 133.875361 
L 140.931235 134.266472 
L 142.870033 136.182562 
L 143.423976 136.333233 
L 143.977918 136.189077 
L 144.53186 135.797406 
L 146.193688 134.292838 
L 146.74763 134.088994 
L 147.301572 134.144389 
L 147.855515 134.436215 
L 150.071284 136.028647 
L 150.625227 136.044459 
L 151.179169 135.839994 
L 152.287054 135.041304 
L 153.117967 134.496044 
L 153.67191 134.325658 
L 154.225852 134.356961 
L 155.056765 134.734816 
L 156.718593 135.745083 
L 157.272535 135.857146 
L 157.826477 135.791077 
L 158.657391 135.418083 
L 160.042247 134.65078 
L 160.87316 134.497164 
L 161.704074 134.685369 
L 164.196815 135.694965 
L 165.027728 135.581712 
L 166.135613 135.109755 
L 167.243498 134.69619 
L 168.074411 134.656247 
L 168.905325 134.868253 
L 170.844123 135.541599 
L 171.675037 135.541535 
L 172.782921 135.230258 
L 174.167777 134.799534 
L 174.998691 134.759766 
L 176.106576 135.000823 
L 177.768403 135.446932 
L 178.599316 135.454376 
L 179.707201 135.218448 
L 181.369028 134.847848 
L 182.476913 134.90565 
L 185.523596 135.3858 
L 186.908452 135.145348 
L 188.293308 134.913982 
L 189.401193 134.95241 
L 192.447876 135.331604 
L 194.109703 135.100941 
L 195.494559 134.9546 
L 196.879415 135.057387 
L 199.095184 135.294207 
L 200.48004 135.187154 
L 202.695809 134.994904 
L 204.357637 135.13561 
L 206.296435 135.255536 
L 208.512204 135.068933 
L 210.174032 135.043413 
L 214.051628 135.191817 
L 217.098311 135.062364 
L 221.252879 135.165285 
L 224.299562 135.087291 
L 228.177159 135.159983 
L 231.500813 135.106295 
L 235.101438 135.155488 
L 238.702064 135.120171 
L 242.302689 135.143896 
L 246.180286 135.136987 
L 250.057882 135.1239 
L 254.21245 135.153504 
L 269.168894 135.146147 
L 288.002935 135.13568 
L 307.94486 135.132738 
L 333.149238 135.134488 
L 333.149238 135.134488 
" clip-path="url(#p8d85b3ce8e)" style="fill: none; stroke: #000000; stroke-width: 1.5; stroke-linecap: square"/>
   </g>
   <g id="line2d_13">
    <path d="M 56.455023 135.13466 
L 57.285937 227.732121 
L 57.839879 261.510176 
L 58.11685 266.645455 
L 58.393822 263.517623 
L 58.670793 252.548886 
L 59.224735 210.834555 
L 60.886562 44.774535 
L 61.163533 29.382886 
L 61.440505 20.855287 
L 61.717476 19.554545 
L 61.994447 25.368516 
L 62.271418 37.840186 
L 62.825361 78.89963 
L 64.210216 204.839046 
L 64.764159 232.419533 
L 65.04113 237.180226 
L 65.318101 235.571133 
L 65.595072 227.762477 
L 66.149015 196.374984 
L 68.087813 54.137375 
L 68.364784 46.810572 
L 68.641755 45.091181 
L 68.918727 48.995195 
L 69.195698 58.125955 
L 69.74964 89.124206 
L 71.411467 200.889709 
L 71.688438 209.992129 
L 71.96541 214.270565 
L 72.242381 213.57702 
L 72.519352 208.085981 
L 73.073294 184.596276 
L 75.012093 73.139838 
L 75.289064 66.963329 
L 75.566035 65.094807 
L 75.843006 67.574913 
L 76.119977 74.199882 
L 76.67392 97.639073 
L 78.335747 185.14764 
L 78.612718 192.637359 
L 78.889689 196.451101 
L 79.166661 196.394455 
L 79.443632 192.53613 
L 79.997574 174.97766 
L 80.828488 134.023862 
L 81.659401 96.05078 
L 82.213344 82.536868 
L 82.490315 80.690385 
L 82.767286 82.239259 
L 83.044257 87.002489 
L 83.598199 104.649579 
L 85.260027 173.128557 
L 85.536998 179.279163 
L 85.813969 182.578747 
L 86.09094 182.901444 
L 86.367911 180.274772 
L 86.644883 174.896822 
L 87.198825 157.622363 
L 88.583681 105.673403 
L 89.137623 94.61968 
L 89.414594 92.844859 
L 89.691566 93.7242 
L 89.968537 97.156756 
L 90.522479 110.42483 
L 92.184306 163.940283 
L 92.461277 168.982611 
L 92.738249 171.834862 
L 93.01522 172.353505 
L 93.292191 170.56729 
L 93.569162 166.642106 
L 94.123105 153.571699 
L 95.50796 112.983332 
L 96.061903 103.944301 
L 96.338874 102.333085 
L 96.615845 102.766292 
L 96.892816 105.185845 
L 97.446759 115.157842 
L 99.385557 161.052558 
L 99.662528 163.477808 
L 99.939499 164.115209 
L 100.216471 162.944514 
L 100.493442 160.070475 
L 101.047384 150.19433 
L 102.709211 114.143087 
L 102.986183 111.150313 
L 103.263154 109.69758 
L 103.540125 109.852327 
L 103.817096 111.56337 
L 104.371038 119.010932 
L 106.309837 154.965114 
L 106.586808 157.012907 
L 106.863779 157.667043 
L 107.14075 156.925599 
L 107.417721 154.856484 
L 107.971664 147.395235 
L 109.633491 119.171175 
L 109.910462 116.715077 
L 110.187433 115.440996 
L 110.464405 115.40113 
L 110.741376 116.584674 
L 111.018347 118.896815 
L 111.572289 126.155931 
L 112.957145 147.574637 
L 113.511088 152.003209 
L 113.788059 152.650941 
L 114.06503 152.198447 
L 114.342001 150.701528 
L 114.895944 145.094227 
L 116.557771 123.018532 
L 116.834742 120.99798 
L 117.111713 119.893979 
L 117.388684 119.754911 
L 117.665655 120.562423 
L 117.942627 122.251282 
L 118.496569 127.758939 
L 119.881425 144.503372 
L 120.435367 148.125256 
L 120.712338 148.729052 
L 120.98931 148.485967 
L 121.266281 147.420222 
L 121.820223 143.197888 
L 123.759021 124.303635 
L 124.035993 123.353715 
L 124.312964 123.149689 
L 124.589935 123.693885 
L 124.866906 124.933558 
L 125.420849 129.094367 
L 127.082676 143.941861 
L 127.359647 145.133291 
L 127.636618 145.681003 
L 127.913589 145.565398 
L 128.19056 144.812155 
L 128.744503 141.65185 
L 130.683301 126.841259 
L 130.960272 126.038335 
L 131.237243 125.810756 
L 131.514215 126.160435 
L 131.791186 127.059395 
L 132.345128 130.207954 
L 134.006955 141.837027 
L 134.283927 142.817443 
L 134.560898 143.307243 
L 134.837869 143.282904 
L 135.11484 142.752983 
L 135.668782 140.386643 
L 136.776667 133.0406 
L 137.33061 129.885748 
L 137.884552 128.114552 
L 138.161523 127.883594 
L 138.438494 128.106071 
L 138.715466 128.755362 
L 139.269408 131.125354 
L 140.931235 140.228085 
L 141.208206 141.035348 
L 141.485177 141.460917 
L 141.762149 141.488736 
L 142.03912 141.12588 
L 142.316091 140.399222 
L 142.870033 138.081528 
L 144.254889 131.175609 
L 144.808832 129.725877 
L 145.085803 129.502241 
L 145.362774 129.630464 
L 145.639745 130.09805 
L 146.193688 131.883443 
L 147.855515 138.99847 
L 148.132486 139.659378 
L 148.409457 140.029287 
L 148.686428 140.088508 
L 148.963399 139.839412 
L 149.240371 139.306358 
L 149.794313 137.553591 
L 151.179169 132.156338 
L 151.733111 130.968659 
L 152.010082 130.763689 
L 152.287054 130.832205 
L 152.564025 131.163336 
L 153.117967 132.503547 
L 155.056765 138.601471 
L 155.333737 138.915637 
L 155.610708 138.991595 
L 155.887679 138.82834 
L 156.16465 138.438895 
L 156.718593 137.11163 
L 158.38042 132.32201 
L 158.657391 131.931224 
L 158.934362 131.744737 
L 159.211333 131.771841 
L 159.488304 132.007149 
L 160.042247 133.010817 
L 161.981045 137.787588 
L 162.258016 138.054656 
L 162.534988 138.135248 
L 162.811959 138.029062 
L 163.365901 137.310118 
L 164.196815 135.396276 
L 165.027728 133.458786 
L 165.581671 132.672751 
L 165.858642 132.509375 
L 166.135613 132.510458 
L 166.412584 132.672957 
L 166.966526 133.424259 
L 168.905325 137.162156 
L 169.459267 137.467189 
L 169.736238 137.402693 
L 170.290181 136.871277 
L 171.121094 135.404332 
L 171.952008 133.881774 
L 172.50595 133.245263 
L 172.782921 133.102065 
L 173.059893 133.087776 
L 173.613835 133.429757 
L 174.167777 134.167695 
L 175.552633 136.39393 
L 176.106576 136.869803 
L 176.660518 136.908574 
L 177.21446 136.520221 
L 178.045374 135.395277 
L 178.876287 134.200687 
L 179.43023 133.685947 
L 179.984172 133.54003 
L 180.538115 133.783272 
L 181.092057 134.342693 
L 182.753884 136.314567 
L 183.307826 136.540071 
L 183.861769 136.418151 
L 184.415711 135.992406 
L 186.35451 134.025238 
L 186.908452 133.893226 
L 187.462394 134.06543 
L 188.016337 134.487733 
L 189.678164 136.033123 
L 190.232106 136.223869 
L 190.786048 136.145348 
L 191.339991 135.826487 
L 193.278789 134.285909 
L 193.832732 134.169289 
L 194.386674 134.289188 
L 195.217587 134.816928 
L 196.602443 135.817734 
L 197.156386 135.978286 
L 197.710328 135.929543 
L 198.541242 135.520324 
L 200.203069 134.486302 
L 200.757011 134.384348 
L 201.310954 134.467383 
L 202.141867 134.867474 
L 203.526723 135.653244 
L 204.080665 135.787441 
L 204.634608 135.759109 
L 205.465521 135.451191 
L 207.127348 134.639723 
L 207.958262 134.562712 
L 208.789176 134.788886 
L 210.727974 135.598527 
L 211.558887 135.624991 
L 212.389801 135.393637 
L 214.328599 134.706559 
L 215.159513 134.72002 
L 216.267398 135.052635 
L 217.652254 135.489806 
L 218.483167 135.51899 
L 219.591052 135.258662 
L 221.252879 134.805432 
L 222.083793 134.808385 
L 223.191677 135.061208 
L 224.576533 135.406381 
L 225.407447 135.43573 
L 226.515331 135.239332 
L 228.177159 134.881874 
L 229.285043 134.909238 
L 232.608698 135.350354 
L 234.547496 135.008184 
L 235.655381 134.922452 
L 237.040237 135.078566 
L 238.979035 135.32196 
L 240.363891 135.207849 
L 242.57966 134.969404 
L 243.964516 135.086635 
L 245.903315 135.279924 
L 247.565142 135.162044 
L 249.50394 135.006083 
L 251.165767 135.123897 
L 253.104565 135.247073 
L 255.320335 135.082665 
L 256.982162 135.046451 
L 261.13673 135.175596 
L 263.906442 135.06509 
L 268.614952 135.136904 
L 271.107692 135.087684 
L 275.26226 135.150257 
L 278.308943 135.105352 
L 282.18654 135.147854 
L 285.787165 135.126757 
L 289.387791 135.138278 
L 293.265387 135.141001 
L 297.142984 135.121619 
L 304.898177 135.117805 
L 333.149238 135.12847 
L 333.149238 135.12847 
" clip-path="url(#p8d85b3ce8e)" style="fill: none; stroke: #ff7f0e; stroke-width: 1.5; stroke-linecap: square"/>
   </g>
   <g id="patch_3">
    <path d="M 42.620313 279 
L 42.620313 7.2 
" style="fill: none; stroke: #000000; stroke-width: 0.8; stroke-linejoin: miter; stroke-linecap: square"/>
   </g>
   <g id="patch_4">
    <path d="M 346.983949 279 
L 346.983949 7.2 
" style="fill: none; stroke: #000000; stroke-width: 0.8; stroke-linejoin: miter; stroke-linecap: square"/>
   </g>
   <g id="patch_5">
    <path d="M 42.620313 279 
L 346.983949 279 
" style="fill: none; stroke: #000000; stroke-width: 0.8; stroke-linejoin: miter; stroke-linecap: square"/>
   </g>
   <g id="patch_6">
    <path d="M 42.620313 7.2 
L 346.983949 7.2 
" style="fill: none; stroke: #000000; stroke-width: 0.8; stroke-linejoin: miter; stroke-linecap: square"/>
   </g>
   <g id="legend_1">
    <g id="patch_7">
     <path d="M 290.341761 44.55625 
L 339.983949 44.55625 
Q 341.983949 44.55625 341.983949 42.55625 
L 341.983949 14.2 
Q 341.983949 12.2 339.983949 12.2 
L 290.341761 12.2 
Q 288.341761 12.2 288.341761 14.2 
L 288.341761 42.55625 
Q 288.341761 44.55625 290.341761 44.55625 
z
" style="fill: #ffffff; opacity: 0.8; stroke: #cccccc; stroke-linejoin: miter"/>
    </g>
    <g id="line2d_14">
     <path d="M 292.341761 20.298437 
L 302.341761 20.298437 
L 312.341761 20.298437 
" style="fill: none; stroke: #000000; stroke-width: 1.5; stroke-linecap: square"/>
    </g>
    <g id="text_14">
     <!-- x(t) -->
     <g transform="translate(320.341761 23.798437)scale(0.1 -0.1)">
      <use xlink:href="#DejaVuSans-78"/>
      <use xlink:href="#DejaVuSans-28" x="59.179688"/>
      <use xlink:href="#DejaVuSans-74" x="98.193359"/>
      <use xlink:href="#DejaVuSans-29" x="137.402344"/>
     </g>
    </g>
    <g id="line2d_15">
     <path d="M 292.341761 34.976562 
L 302.341761 34.976562 
L 312.341761 34.976562 
" style="fill: none; stroke: #ff7f0e; stroke-width: 1.5; stroke-linecap: square"/>
    </g>
    <g id="text_15">
     <!-- v(t) -->
     <g transform="translate(320.341761 38.476562)scale(0.1 -0.1)">
      <defs>
       <path id="DejaVuSans-76" d="M 191 3500 
L 800 3500 
L 1894 563 
L 2988 3500 
L 3597 3500 
L 2284 0 
L 1503 0 
L 191 3500 
z
" transform="scale(0.015625)"/>
      </defs>
      <use xlink:href="#DejaVuSans-76"/>
      <use xlink:href="#DejaVuSans-28" x="59.179688"/>
      <use xlink:href="#DejaVuSans-74" x="98.193359"/>
      <use xlink:href="#DejaVuSans-29" x="137.402344"/>
     </g>
    </g>
   </g>
  </g>
  <g id="axes_2">
   <g id="patch_8">
    <path d="M 407.856676 279 
L 712.220312 279 
L 712.220312 7.2 
L 407.856676 7.2 
z
" style="fill: #ffffff"/>
   </g>
   <g id="matplotlib.axis_3">
    <g id="xtick_7">
     <g id="line2d_16">
      <g>
       <use xlink:href="#m97c2fcfe4a" x="440.3713" y="279" style="stroke: #000000; stroke-width: 0.8"/>
      </g>
     </g>
     <g id="text_16">
      <!-- −0.75 -->
      <g transform="translate(425.048644 293.598437)scale(0.1 -0.1)">
       <defs>
        <path id="DejaVuSans-2e" d="M 684 794 
L 1344 794 
L 1344 0 
L 684 0 
L 684 794 
z
" transform="scale(0.015625)"/>
        <path id="DejaVuSans-37" d="M 525 4666 
L 3525 4666 
L 3525 4397 
L 1831 0 
L 1172 0 
L 2766 4134 
L 525 4134 
L 525 4666 
z
" transform="scale(0.015625)"/>
       </defs>
       <use xlink:href="#DejaVuSans-2212"/>
       <use xlink:href="#DejaVuSans-30" x="83.789062"/>
       <use xlink:href="#DejaVuSans-2e" x="147.412109"/>
       <use xlink:href="#DejaVuSans-37" x="179.199219"/>
       <use xlink:href="#DejaVuSans-35" x="242.822266"/>
      </g>
     </g>
    </g>
    <g id="xtick_8">
     <g id="line2d_17">
      <g>
       <use xlink:href="#m97c2fcfe4a" x="477.230486" y="279" style="stroke: #000000; stroke-width: 0.8"/>
      </g>
     </g>
     <g id="text_17">
      <!-- −0.50 -->
      <g transform="translate(461.90783 293.598437)scale(0.1 -0.1)">
       <use xlink:href="#DejaVuSans-2212"/>
       <use xlink:href="#DejaVuSans-30" x="83.789062"/>
       <use xlink:href="#DejaVuSans-2e" x="147.412109"/>
       <use xlink:href="#DejaVuSans-35" x="179.199219"/>
       <use xlink:href="#DejaVuSans-30" x="242.822266"/>
      </g>
     </g>
    </g>
    <g id="xtick_9">
     <g id="line2d_18">
      <g>
       <use xlink:href="#m97c2fcfe4a" x="514.089672" y="279" style="stroke: #000000; stroke-width: 0.8"/>
      </g>
     </g>
     <g id="text_18">
      <!-- −0.25 -->
      <g transform="translate(498.767016 293.598437)scale(0.1 -0.1)">
       <use xlink:href="#DejaVuSans-2212"/>
       <use xlink:href="#DejaVuSans-30" x="83.789062"/>
       <use xlink:href="#DejaVuSans-2e" x="147.412109"/>
       <use xlink:href="#DejaVuSans-32" x="179.199219"/>
       <use xlink:href="#DejaVuSans-35" x="242.822266"/>
      </g>
     </g>
    </g>
    <g id="xtick_10">
     <g id="line2d_19">
      <g>
       <use xlink:href="#m97c2fcfe4a" x="550.948858" y="279" style="stroke: #000000; stroke-width: 0.8"/>
      </g>
     </g>
     <g id="text_19">
      <!-- 0.00 -->
      <g transform="translate(539.816046 293.598437)scale(0.1 -0.1)">
       <use xlink:href="#DejaVuSans-30"/>
       <use xlink:href="#DejaVuSans-2e" x="63.623047"/>
       <use xlink:href="#DejaVuSans-30" x="95.410156"/>
       <use xlink:href="#DejaVuSans-30" x="159.033203"/>
      </g>
     </g>
    </g>
    <g id="xtick_11">
     <g id="line2d_20">
      <g>
       <use xlink:href="#m97c2fcfe4a" x="587.808044" y="279" style="stroke: #000000; stroke-width: 0.8"/>
      </g>
     </g>
     <g id="text_20">
      <!-- 0.25 -->
      <g transform="translate(576.675232 293.598437)scale(0.1 -0.1)">
       <use xlink:href="#DejaVuSans-30"/>
       <use xlink:href="#DejaVuSans-2e" x="63.623047"/>
       <use xlink:href="#DejaVuSans-32" x="95.410156"/>
       <use xlink:href="#DejaVuSans-35" x="159.033203"/>
      </g>
     </g>
    </g>
    <g id="xtick_12">
     <g id="line2d_21">
      <g>
       <use xlink:href="#m97c2fcfe4a" x="624.66723" y="279" style="stroke: #000000; stroke-width: 0.8"/>
      </g>
     </g>
     <g id="text_21">
      <!-- 0.50 -->
      <g transform="translate(613.534417 293.598437)scale(0.1 -0.1)">
       <use xlink:href="#DejaVuSans-30"/>
       <use xlink:href="#DejaVuSans-2e" x="63.623047"/>
       <use xlink:href="#DejaVuSans-35" x="95.410156"/>
       <use xlink:href="#DejaVuSans-30" x="159.033203"/>
      </g>
     </g>
    </g>
    <g id="xtick_13">
     <g id="line2d_22">
      <g>
       <use xlink:href="#m97c2fcfe4a" x="661.526416" y="279" style="stroke: #000000; stroke-width: 0.8"/>
      </g>
     </g>
     <g id="text_22">
      <!-- 0.75 -->
      <g transform="translate(650.393603 293.598437)scale(0.1 -0.1)">
       <use xlink:href="#DejaVuSans-30"/>
       <use xlink:href="#DejaVuSans-2e" x="63.623047"/>
       <use xlink:href="#DejaVuSans-37" x="95.410156"/>
       <use xlink:href="#DejaVuSans-35" x="159.033203"/>
      </g>
     </g>
    </g>
    <g id="xtick_14">
     <g id="line2d_23">
      <g>
       <use xlink:href="#m97c2fcfe4a" x="698.385602" y="279" style="stroke: #000000; stroke-width: 0.8"/>
      </g>
     </g>
     <g id="text_23">
      <!-- 1.00 -->
      <g transform="translate(687.252789 293.598437)scale(0.1 -0.1)">
       <use xlink:href="#DejaVuSans-31"/>
       <use xlink:href="#DejaVuSans-2e" x="63.623047"/>
       <use xlink:href="#DejaVuSans-30" x="95.410156"/>
       <use xlink:href="#DejaVuSans-30" x="159.033203"/>
      </g>
     </g>
    </g>
    <g id="text_24">
     <!-- Displacement (x) -->
     <g transform="translate(517.215838 307.276562)scale(0.1 -0.1)">
      <use xlink:href="#DejaVuSans-44"/>
      <use xlink:href="#DejaVuSans-69" x="77.001953"/>
      <use xlink:href="#DejaVuSans-73" x="104.785156"/>
      <use xlink:href="#DejaVuSans-70" x="156.884766"/>
      <use xlink:href="#DejaVuSans-6c" x="220.361328"/>
      <use xlink:href="#DejaVuSans-61" x="248.144531"/>
      <use xlink:href="#DejaVuSans-63" x="309.423828"/>
      <use xlink:href="#DejaVuSans-65" x="364.404297"/>
      <use xlink:href="#DejaVuSans-6d" x="425.927734"/>
      <use xlink:href="#DejaVuSans-65" x="523.339844"/>
      <use xlink:href="#DejaVuSans-6e" x="584.863281"/>
      <use xlink:href="#DejaVuSans-74" x="648.242188"/>
      <use xlink:href="#DejaVuSans-20" x="687.451172"/>
      <use xlink:href="#DejaVuSans-28" x="719.238281"/>
      <use xlink:href="#DejaVuSans-78" x="758.251953"/>
      <use xlink:href="#DejaVuSans-29" x="817.431641"/>
     </g>
    </g>
   </g>
   <g id="matplotlib.axis_4">
    <g id="ytick_6">
     <g id="line2d_24">
      <g>
       <use xlink:href="#m15507e1aa0" x="407.856676" y="247.008346" style="stroke: #000000; stroke-width: 0.8"/>
      </g>
     </g>
     <g id="text_25">
      <!-- −4 -->
      <g transform="translate(386.114489 250.807565)scale(0.1 -0.1)">
       <use xlink:href="#DejaVuSans-2212"/>
       <use xlink:href="#DejaVuSans-34" x="83.789062"/>
      </g>
     </g>
    </g>
    <g id="ytick_7">
     <g id="line2d_25">
      <g>
       <use xlink:href="#m15507e1aa0" x="407.856676" y="191.071503" style="stroke: #000000; stroke-width: 0.8"/>
      </g>
     </g>
     <g id="text_26">
      <!-- −2 -->
      <g transform="translate(386.114489 194.870722)scale(0.1 -0.1)">
       <use xlink:href="#DejaVuSans-2212"/>
       <use xlink:href="#DejaVuSans-32" x="83.789062"/>
      </g>
     </g>
    </g>
    <g id="ytick_8">
     <g id="line2d_26">
      <g>
       <use xlink:href="#m15507e1aa0" x="407.856676" y="135.13466" style="stroke: #000000; stroke-width: 0.8"/>
      </g>
     </g>
     <g id="text_27">
      <!-- 0 -->
      <g transform="translate(394.494176 138.933879)scale(0.1 -0.1)">
       <use xlink:href="#DejaVuSans-30"/>
      </g>
     </g>
    </g>
    <g id="ytick_9">
     <g id="line2d_27">
      <g>
       <use xlink:href="#m15507e1aa0" x="407.856676" y="79.197818" style="stroke: #000000; stroke-width: 0.8"/>
      </g>
     </g>
     <g id="text_28">
      <!-- 2 -->
      <g transform="translate(394.494176 82.997036)scale(0.1 -0.1)">
       <use xlink:href="#DejaVuSans-32"/>
      </g>
     </g>
    </g>
    <g id="ytick_10">
     <g id="line2d_28">
      <g>
       <use xlink:href="#m15507e1aa0" x="407.856676" y="23.260975" style="stroke: #000000; stroke-width: 0.8"/>
      </g>
     </g>
     <g id="text_29">
      <!-- 4 -->
      <g transform="translate(394.494176 27.060194)scale(0.1 -0.1)">
       <use xlink:href="#DejaVuSans-34"/>
      </g>
     </g>
    </g>
    <g id="text_30">
     <!-- Velocity (v) -->
     <g transform="translate(380.034801 171.165625)rotate(-90)scale(0.1 -0.1)">
      <defs>
       <path id="DejaVuSans-56" d="M 1831 0 
L 50 4666 
L 709 4666 
L 2188 738 
L 3669 4666 
L 4325 4666 
L 2547 0 
L 1831 0 
z
" transform="scale(0.015625)"/>
       <path id="DejaVuSans-6f" d="M 1959 3097 
Q 1497 3097 1228 2736 
Q 959 2375 959 1747 
Q 959 1119 1226 758 
Q 1494 397 1959 397 
Q 2419 397 2687 759 
Q 2956 1122 2956 1747 
Q 2956 2369 2687 2733 
Q 2419 3097 1959 3097 
z
M 1959 3584 
Q 2709 3584 3137 3096 
Q 3566 2609 3566 1747 
Q 3566 888 3137 398 
Q 2709 -91 1959 -91 
Q 1206 -91 779 398 
Q 353 888 353 1747 
Q 353 2609 779 3096 
Q 1206 3584 1959 3584 
z
" transform="scale(0.015625)"/>
       <path id="DejaVuSans-79" d="M 2059 -325 
Q 1816 -950 1584 -1140 
Q 1353 -1331 966 -1331 
L 506 -1331 
L 506 -850 
L 844 -850 
Q 1081 -850 1212 -737 
Q 1344 -625 1503 -206 
L 1606 56 
L 191 3500 
L 800 3500 
L 1894 763 
L 2988 3500 
L 3597 3500 
L 2059 -325 
z
" transform="scale(0.015625)"/>
      </defs>
      <use xlink:href="#DejaVuSans-56"/>
      <use xlink:href="#DejaVuSans-65" x="60.658203"/>
      <use xlink:href="#DejaVuSans-6c" x="122.181641"/>
      <use xlink:href="#DejaVuSans-6f" x="149.964844"/>
      <use xlink:href="#DejaVuSans-63" x="211.146484"/>
      <use xlink:href="#DejaVuSans-69" x="266.126953"/>
      <use xlink:href="#DejaVuSans-74" x="293.910156"/>
      <use xlink:href="#DejaVuSans-79" x="333.119141"/>
      <use xlink:href="#DejaVuSans-20" x="392.298828"/>
      <use xlink:href="#DejaVuSans-28" x="424.085938"/>
      <use xlink:href="#DejaVuSans-76" x="463.099609"/>
      <use xlink:href="#DejaVuSans-29" x="522.279297"/>
     </g>
    </g>
   </g>
   <g id="line2d_29">
    <path d="M 698.385602 135.13466 
L 693.823546 169.422062 
L 680.544094 200.92572 
L 659.52719 227.732121 
L 632.222413 248.295044 
L 600.447323 261.510176 
L 566.257504 266.645455 
L 531.78639 263.517623 
L 499.179585 252.548886 
L 470.398169 234.587 
L 447.186868 210.834555 
L 430.858862 182.851356 
L 422.233397 152.494553 
L 421.691387 121.669648 
L 429.177323 92.303163 
L 444.067595 66.156621 
L 465.214742 44.774535 
L 491.218368 29.382886 
L 520.402236 20.855287 
L 550.903706 19.554545 
L 580.808013 25.368516 
L 608.266571 37.840186 
L 631.622589 56.11006 
L 649.542147 78.89963 
L 661.057021 104.68057 
L 665.537652 131.820869 
L 662.817269 158.633457 
L 653.258545 183.467802 
L 637.607014 204.839046 
L 616.913237 221.465541 
L 592.537526 232.419533 
L 566.088895 237.180226 
L 539.230829 235.571133 
L 513.641811 227.762477 
L 490.8566 214.362726 
L 472.222681 196.374984 
L 458.808967 174.97539 
L 451.376302 151.535243 
L 450.239794 127.539652 
L 455.30353 104.482877 
L 466.169603 83.783583 
L 482.08631 66.681344 
L 501.937331 54.137375 
L 524.399645 46.810572 
L 548.047089 45.091181 
L 571.411677 48.995195 
L 593.052459 58.125955 
L 611.676422 71.804771 
L 626.16526 89.124206 
L 635.712136 108.956167 
L 639.863329 130.003042 
L 638.463337 150.949805 
L 631.661335 170.492902 
L 619.988981 187.469377 
L 604.318623 200.889709 
L 585.674181 209.992129 
L 565.250164 214.270565 
L 544.341397 213.57702 
L 524.250297 208.085981 
L 506.212729 198.202319 
L 491.309394 184.596276 
L 480.377951 168.206021 
L 473.992001 150.114429 
L 472.490715 131.463986 
L 475.889882 113.407062 
L 483.845098 97.046482 
L 495.76345 83.353192 
L 510.853298 73.139838 
L 528.129685 66.963329 
L 546.467876 65.094807 
L 564.718412 67.574913 
L 581.747873 74.199882 
L 596.542694 84.470812 
L 608.239388 97.639073 
L 616.171476 112.854563 
L 619.900244 129.148025 
L 619.29958 145.49204 
L 614.517564 160.878598 
L 605.90548 174.363292 
L 594.050501 185.14764 
L 579.77424 192.637359 
L 564.011646 196.451101 
L 547.761516 196.394455 
L 532.025665 192.53613 
L 517.768321 185.223031 
L 505.834723 174.97766 
L 496.934909 162.474013 
L 491.55139 148.522266 
L 489.920359 134.023862 
L 492.080439 119.882247 
L 497.852511 106.970605 
L 506.798808 96.05078 
L 518.270379 87.749786 
L 531.526967 82.536868 
L 545.72459 80.690385 
L 559.965975 82.239259 
L 573.374088 87.002489 
L 585.124311 94.643668 
L 594.5223 104.649579 
L 601.050207 116.335051 
L 604.37502 128.942715 
L 604.326933 141.677062 
L 600.966395 153.757562 
L 594.596009 164.450878 
L 585.670007 173.128557 
L 574.775825 179.279163 
L 562.620184 182.578747 
L 549.987107 182.901444 
L 537.665092 180.274772 
L 526.414022 174.896822 
L 516.897905 167.162605 
L 509.663493 157.622363 
L 505.120102 146.886686 
L 503.510113 135.635333 
L 504.858403 124.573942 
L 509.008145 114.37887 
L 515.66582 105.673403 
L 524.382822 98.966828 
L 534.562289 94.61968 
L 545.547098 92.844859 
L 556.642867 93.7242 
L 567.170217 97.156756 
L 576.488792 102.855353 
L 584.050787 110.42483 
L 589.410642 119.37097 
L 592.287259 129.117483 
L 592.570395 139.04167 
L 590.282122 148.526526 
L 585.59642 156.990966 
L 578.859913 163.940283 
L 570.548498 168.982611 
L 561.194834 171.834862 
L 551.390551 172.353505 
L 541.752046 170.56729 
L 532.867764 166.642106 
L 525.282049 160.848377 
L 519.437493 153.571699 
L 515.648195 145.305215 
L 514.100551 136.577417 
L 514.86606 127.937781 
L 517.856039 119.912011 
L 522.820003 112.983332 
L 529.414582 107.555065 
L 537.209287 103.944301 
L 545.70191 102.333085 
L 554.349269 102.766292 
L 562.614248 105.185845 
L 569.990085 109.41759 
L 576.045816 115.157842 
L 580.439833 122.006083 
L 582.926475 129.526649 
L 583.379469 137.246044 
L 581.823 144.683582 
L 578.402718 151.387675 
L 573.354987 156.951265 
L 567.016261 161.052558 
L 559.814603 163.477808 
L 552.210014 164.115209 
L 544.681922 162.944514 
L 537.688174 160.070475 
L 531.65031 155.721983 
L 526.919718 150.19433 
L 523.772832 143.845781 
L 522.36821 137.082056 
L 522.745098 130.332329 
L 524.852882 124.013531 
L 528.539352 118.511176 
L 533.539596 114.143087 
L 539.506126 111.150313 
L 546.058716 109.69758 
L 552.785083 109.852327 
L 559.265974 111.56337 
L 565.108027 114.686877 
L 569.956334 119.010932 
L 573.530501 124.250675 
L 575.644259 130.056166 
L 576.200349 136.059359 
L 575.181139 141.883204 
L 572.677644 147.175657 
L 568.889153 151.621538 
L 564.073213 154.965114 
L 558.541874 157.012907 
L 552.648267 157.667043 
L 546.767026 156.925599 
L 541.260623 154.856484 
L 536.465837 151.603905 
L 532.659588 147.395235 
L 530.05184 142.520397 
L 528.784841 137.287851 
L 528.918684 132.025699 
L 530.410012 127.058387 
L 533.131859 122.686114 
L 536.89919 119.171175 
L 541.463434 116.715077 
L 546.521223 115.440996 
L 551.751941 115.40113 
L 556.826563 116.584674 
L 561.438478 118.896815 
L 565.312787 122.160091 
L 568.226735 126.155931 
L 570.011583 130.627046 
L 570.581968 135.290226 
L 569.936185 139.851288 
L 568.133537 144.030864 
L 565.300036 147.574637 
L 561.633902 150.280517 
L 557.38664 152.003209 
L 552.827544 152.650941 
L 548.242286 152.198447 
L 543.913846 150.701528 
L 540.103699 148.279378 
L 537.040601 145.094227 
L 534.900123 141.354138 
L 533.789594 137.305253 
L 533.754419 133.202369 
L 534.785132 129.302609 
L 536.799225 125.840106 
L 539.642231 123.018532 
L 543.123634 120.99798 
L 547.019277 119.893979 
L 551.082544 119.754911 
L 555.056799 120.562423 
L 558.699004 122.251282 
L 561.787143 124.706164 
L 564.145047 127.758939 
L 565.646205 131.202114 
L 566.211325 134.818792 
L 565.817722 138.383078 
L 564.51325 141.677265 
L 562.402748 144.503372 
L 559.627581 146.694004 
L 556.369464 148.125256 
L 552.841954 148.729052 
L 549.267074 148.485967 
L 545.869028 147.420222 
L 542.851614 145.612536 
L 540.392595 143.197888 
L 538.631678 140.33557 
L 537.669525 137.208873 
L 537.547954 134.014472 
L 538.25112 130.952483 
L 539.722591 128.209243 
L 541.861486 125.950662 
L 544.520623 124.303635 
L 547.520533 123.353715 
L 550.67166 123.149689 
L 553.777601 123.693885 
L 556.648129 124.933558 
L 559.111166 126.774344 
L 561.020136 129.094367 
L 562.267462 131.743089 
L 562.79398 134.548158 
L 562.582452 137.334311 
L 561.654041 139.927571 
L 560.079318 142.173563 
L 557.975797 143.941861 
L 555.482002 145.133291 
L 552.757636 145.681003 
L 549.974167 145.565398 
L 547.306006 144.812155 
L 544.915545 143.477658 
L 542.94736 141.65185 
L 541.512013 139.458522 
L 540.684046 137.044226 
L 540.505895 134.560624 
L 540.979752 132.161882 
L 542.059808 129.993565 
L 543.663575 128.184486 
L 545.684919 126.841259 
L 547.992635 126.038335 
L 550.43672 125.810756 
L 552.864451 126.160435 
L 555.124154 127.059395 
L 557.081317 128.442191 
L 558.622259 130.207954 
L 559.660716 132.241485 
L 560.138271 134.413202 
L 560.03763 136.587518 
L 559.381268 138.629123 
L 558.218524 140.414738 
L 556.627974 141.837027 
L 554.717383 142.817443 
L 552.613797 143.307243 
L 550.4498 143.282904 
L 548.359587 142.752983 
L 546.470109 141.763214 
L 544.89356 140.386643 
L 543.722956 138.713477 
L 543.023165 136.851436 
L 542.824708 134.920533 
L 543.129246 133.0406 
L 543.912325 131.328627 
L 545.116911 129.885748 
L 546.655261 128.794367 
L 548.427026 128.114552 
L 550.319286 127.883594 
L 552.213898 128.106071 
L 553.992907 128.755362 
L 555.548946 129.78466 
L 556.788397 131.125354 
L 557.642791 132.687872 
L 558.069703 134.369171 
L 558.048788 136.063921 
L 557.587307 137.667384 
L 556.72489 139.083156 
L 555.525552 140.228085 
L 554.067802 141.035348 
L 552.445429 141.460917 
L 550.762962 141.488736 
L 549.124774 141.12588 
L 547.632909 140.399222 
L 546.375678 139.359729 
L 545.424799 138.081528 
L 544.83218 136.647681 
L 544.63053 135.149184 
L 544.82441 133.678775 
L 545.390454 132.327348 
L 546.287349 131.175609 
L 547.455168 130.292465 
L 548.816277 129.725877 
L 550.281218 129.502241 
L 551.757946 129.630464 
L 553.155134 130.09805 
L 554.388839 130.867694 
L 555.386562 131.883443 
L 556.090201 133.07943 
L 556.461132 134.379257 
L 556.485282 135.699953 
L 556.169117 136.960119 
L 555.536197 138.081631 
L 554.630741 138.99847 
L 553.517056 139.659378 
L 552.267718 140.029287 
L 550.962058 140.088508 
L 549.680845 139.839412 
L 548.503272 139.306358 
L 547.499563 138.527256 
L 546.72989 137.553591 
L 546.23617 136.449173 
L 546.041325 135.286078 
L 546.152816 134.136888 
L 546.559972 133.072562 
L 547.23066 132.156338 
L 548.115693 131.441393 
L 549.157731 130.968659 
L 550.290201 130.763689 
L 551.440989 130.832205 
L 552.539069 131.163336 
L 553.516465 131.733362 
L 554.315353 132.503547 
L 554.891107 133.420381 
L 555.21355 134.424229 
L 555.265507 135.451625 
L 555.048533 136.439398 
L 554.583782 137.327138 
L 553.90484 138.062354 
L 553.056655 138.601471 
L 552.094644 138.915637 
L 551.081217 138.991595 
L 550.079869 138.82834 
L 549.152444 138.438895 
L 548.354042 137.85261 
L 547.730991 137.11163 
L 547.318929 136.263583 
L 547.140246 135.362328 
L 547.19998 134.46474 
L 547.488528 133.625915 
L 547.985127 132.897389 
L 548.656029 132.32201 
L 549.454785 131.931224 
L 550.329444 131.744737 
L 551.224646 131.771841 
L 552.085351 132.007149 
L 552.858922 132.430078 
L 553.499655 133.010817 
L 553.9695 133.711281 
L 554.243269 134.486183 
L 554.309447 135.285591 
L 554.167319 136.059791 
L 553.828147 136.761061 
L 553.317316 137.348168 
L 552.671688 137.787588 
L 551.93278 138.054656 
L 551.147542 138.135248 
L 550.365421 138.029062 
L 549.634514 137.747443 
L 548.99961 137.310118 
L 548.498216 136.746276 
L 548.157747 136.094256 
L 547.995186 135.396276 
L 548.018596 134.696307 
L 548.223546 134.037202 
L 548.592205 133.458786 
L 549.098227 132.994877 
L 549.708471 132.672751 
L 550.38362 132.509375 
L 551.080147 132.510458 
L 551.754837 132.672957 
L 552.365912 132.98499 
L 552.877444 133.424259 
L 553.260273 133.959476 
L 553.493174 134.556374 
L 553.563553 135.177165 
L 553.470835 135.783303 
L 553.225293 136.337461 
L 552.844285 136.806329 
L 552.353237 137.162156 
L 551.785167 137.385904 
L 551.176993 137.467189 
L 550.567057 137.402693 
L 549.992784 137.198569 
L 549.488786 136.871277 
L 549.084487 136.443958 
L 548.803665 135.944359 
L 548.661323 135.404332 
L 548.662439 134.858431 
L 548.804002 134.340219 
L 549.075672 133.881774 
L 549.458339 133.509878 
L 549.924776 133.245263 
L 550.44491 133.102065 
L 550.985769 133.087776 
L 551.513897 133.20056 
L 551.996708 133.429757 
L 552.405369 133.759376 
L 552.715491 134.167695 
L 552.91038 134.62785 
L 552.981141 135.10994 
L 552.925128 135.583875 
L 552.747426 136.020511 
L 552.462034 136.39393 
L 552.089667 136.682543 
L 551.654385 136.869803 
L 551.183943 136.945732 
L 550.256701 136.763307 
L 549.533126 136.195794 
L 549.177845 135.395277 
L 549.263463 134.563901 
L 549.750727 133.902153 
L 550.507168 133.563577 
L 551.340211 133.615207 
L 552.046033 134.031709 
L 552.4608 134.696276 
L 552.494491 135.440469 
L 552.156096 136.082022 
L 551.539593 136.469796 
L 550.805764 136.522014 
L 550.135152 136.23733 
L 549.686483 135.699385 
L 549.559529 135.046279 
L 549.771228 134.440278 
L 550.258804 134.025238 
L 550.892517 133.893226 
L 551.515261 134.06543 
L 551.977002 134.487733 
L 552.173344 135.049518 
L 552.067384 135.609304 
L 551.696132 136.033123 
L 551.160106 136.223869 
L 550.593986 136.145348 
L 550.135895 135.826487 
L 549.890968 135.353678 
L 549.910664 134.847004 
L 550.179136 134.429208 
L 550.622276 134.19797 
L 551.126611 134.200561 
L 551.568151 134.428518 
L 551.84375 134.816928 
L 551.892573 135.266659 
L 551.713106 135.667079 
L 551.356208 135.923239 
L 550.915686 135.980192 
L 550.50046 135.83079 
L 550.20923 135.520324 
L 550.107803 135.129012 
L 550.212107 134.754441 
L 550.490305 134.486302 
L 550.867384 134.384348 
L 551.249401 134.467383 
L 551.544143 134.707248 
L 551.683834 135.040899 
L 551.641615 135.38379 
L 551.433778 135.653244 
L 551.117916 135.787441 
L 550.773567 135.759109 
L 550.485022 135.581914 
L 550.319455 135.303719 
L 550.311659 134.996067 
L 550.457854 134.733745 
L 550.716098 134.578267 
L 551.166051 134.608131 
L 551.476282 134.911483 
L 551.492853 135.313391 
L 551.224672 135.598527 
L 550.827995 135.624991 
L 550.517557 135.393637 
L 550.45064 135.040753 
L 550.647556 134.75752 
L 550.990384 134.687607 
L 551.291568 134.855383 
L 551.396053 135.159083 
L 551.261074 135.432249 
L 550.970935 135.534196 
L 550.686106 135.421472 
L 550.555286 135.165569 
L 550.637492 134.908561 
L 550.877489 134.784526 
L 551.140837 134.85061 
L 551.288398 135.061208 
L 551.250161 135.297755 
L 551.056803 135.435408 
L 550.75171 135.363803 
L 550.644779 135.094738 
L 550.815368 134.881874 
L 551.090992 134.909238 
L 551.219535 135.134169 
L 551.09839 135.342203 
L 550.854152 135.350354 
L 550.712613 135.166835 
L 550.791248 134.968935 
L 551.003445 134.933117 
L 551.150925 135.078566 
L 551.108058 135.262529 
L 550.880459 135.304644 
L 550.764043 135.120734 
L 550.900174 134.972586 
L 551.086978 135.050261 
L 551.07561 135.230828 
L 550.899755 135.268498 
L 550.811143 135.094599 
L 550.974333 135.010718 
L 551.074263 135.153911 
L 550.942702 135.247073 
L 550.836847 135.132336 
L 550.939644 135.034719 
L 551.046771 135.147014 
L 550.924082 135.2174 
L 550.87209 135.096209 
L 550.884393 135.080266 
L 551.009883 135.089651 
L 551.019641 135.10613 
L 550.967239 135.202095 
L 550.931537 135.199607 
L 550.888305 135.106348 
L 550.924027 135.077257 
L 551.007654 135.124773 
L 550.989673 135.174986 
L 550.904522 135.16196 
L 550.990508 135.115042 
L 550.949767 135.12847 
" clip-path="url(#p3c9ef28943)" style="fill: none; stroke: #000000; stroke-width: 1.5; stroke-linecap: square"/>
   </g>
   <g id="patch_9">
    <path d="M 407.856676 279 
L 407.856676 7.2 
" style="fill: none; stroke: #000000; stroke-width: 0.8; stroke-linejoin: miter; stroke-linecap: square"/>
   </g>
   <g id="patch_10">
    <path d="M 712.220312 279 
L 712.220312 7.2 
" style="fill: none; stroke: #000000; stroke-width: 0.8; stroke-linejoin: miter; stroke-linecap: square"/>
   </g>
   <g id="patch_11">
    <path d="M 407.856676 279 
L 712.220312 279 
" style="fill: none; stroke: #000000; stroke-width: 0.8; stroke-linejoin: miter; stroke-linecap: square"/>
   </g>
   <g id="patch_12">
    <path d="M 407.856676 7.2 
L 712.220312 7.2 
" style="fill: none; stroke: #000000; stroke-width: 0.8; stroke-linejoin: miter; stroke-linecap: square"/>
   </g>
   <g id="legend_2">
    <g id="patch_13">
     <path d="M 574.289062 29.878125 
L 705.220312 29.878125 
Q 707.220312 29.878125 707.220312 27.878125 
L 707.220312 14.2 
Q 707.220312 12.2 705.220312 12.2 
L 574.289062 12.2 
Q 572.289062 12.2 572.289062 14.2 
L 572.289062 27.878125 
Q 572.289062 29.878125 574.289062 29.878125 
z
" style="fill: #ffffff; opacity: 0.8; stroke: #cccccc; stroke-linejoin: miter"/>
    </g>
    <g id="line2d_30">
     <path d="M 576.289062 20.298438 
L 586.289062 20.298438 
L 596.289062 20.298438 
" style="fill: none; stroke: #000000; stroke-width: 1.5; stroke-linecap: square"/>
    </g>
    <g id="text_31">
     <!-- b = 0.4, omega = 5 -->
     <g transform="translate(604.289062 23.798438)scale(0.1 -0.1)">
      <defs>
       <path id="DejaVuSans-62" d="M 3116 1747 
Q 3116 2381 2855 2742 
Q 2594 3103 2138 3103 
Q 1681 3103 1420 2742 
Q 1159 2381 1159 1747 
Q 1159 1113 1420 752 
Q 1681 391 2138 391 
Q 2594 391 2855 752 
Q 3116 1113 3116 1747 
z
M 1159 2969 
Q 1341 3281 1617 3432 
Q 1894 3584 2278 3584 
Q 2916 3584 3314 3078 
Q 3713 2572 3713 1747 
Q 3713 922 3314 415 
Q 2916 -91 2278 -91 
Q 1894 -91 1617 61 
Q 1341 213 1159 525 
L 1159 0 
L 581 0 
L 581 4863 
L 1159 4863 
L 1159 2969 
z
" transform="scale(0.015625)"/>
       <path id="DejaVuSans-3d" d="M 678 2906 
L 4684 2906 
L 4684 2381 
L 678 2381 
L 678 2906 
z
M 678 1631 
L 4684 1631 
L 4684 1100 
L 678 1100 
L 678 1631 
z
" transform="scale(0.015625)"/>
       <path id="DejaVuSans-2c" d="M 750 794 
L 1409 794 
L 1409 256 
L 897 -744 
L 494 -744 
L 750 256 
L 750 794 
z
" transform="scale(0.015625)"/>
       <path id="DejaVuSans-67" d="M 2906 1791 
Q 2906 2416 2648 2759 
Q 2391 3103 1925 3103 
Q 1463 3103 1205 2759 
Q 947 2416 947 1791 
Q 947 1169 1205 825 
Q 1463 481 1925 481 
Q 2391 481 2648 825 
Q 2906 1169 2906 1791 
z
M 3481 434 
Q 3481 -459 3084 -895 
Q 2688 -1331 1869 -1331 
Q 1566 -1331 1297 -1286 
Q 1028 -1241 775 -1147 
L 775 -588 
Q 1028 -725 1275 -790 
Q 1522 -856 1778 -856 
Q 2344 -856 2625 -561 
Q 2906 -266 2906 331 
L 2906 616 
Q 2728 306 2450 153 
Q 2172 0 1784 0 
Q 1141 0 747 490 
Q 353 981 353 1791 
Q 353 2603 747 3093 
Q 1141 3584 1784 3584 
Q 2172 3584 2450 3431 
Q 2728 3278 2906 2969 
L 2906 3500 
L 3481 3500 
L 3481 434 
z
" transform="scale(0.015625)"/>
      </defs>
      <use xlink:href="#DejaVuSans-62"/>
      <use xlink:href="#DejaVuSans-20" x="63.476562"/>
      <use xlink:href="#DejaVuSans-3d" x="95.263672"/>
      <use xlink:href="#DejaVuSans-20" x="179.052734"/>
      <use xlink:href="#DejaVuSans-30" x="210.839844"/>
      <use xlink:href="#DejaVuSans-2e" x="274.462891"/>
      <use xlink:href="#DejaVuSans-34" x="306.25"/>
      <use xlink:href="#DejaVuSans-2c" x="369.873047"/>
      <use xlink:href="#DejaVuSans-20" x="401.660156"/>
      <use xlink:href="#DejaVuSans-6f" x="433.447266"/>
      <use xlink:href="#DejaVuSans-6d" x="494.628906"/>
      <use xlink:href="#DejaVuSans-65" x="592.041016"/>
      <use xlink:href="#DejaVuSans-67" x="653.564453"/>
      <use xlink:href="#DejaVuSans-61" x="717.041016"/>
      <use xlink:href="#DejaVuSans-20" x="778.320312"/>
      <use xlink:href="#DejaVuSans-3d" x="810.107422"/>
      <use xlink:href="#DejaVuSans-20" x="893.896484"/>
      <use xlink:href="#DejaVuSans-35" x="925.683594"/>
     </g>
    </g>
   </g>
  </g>
 </g>
 <defs>
  <clipPath id="p8d85b3ce8e">
   <rect x="42.620313" y="7.2" width="304.363636" height="271.8"/>
  </clipPath>
  <clipPath id="p3c9ef28943">
   <rect x="407.856676" y="7.2" width="304.363636" height="271.8"/>
  </clipPath>
 </defs>
</svg>
