<?xml version="1.0" encoding="utf-8" standalone="no"?>
<!DOCTYPE svg PUBLIC "-//W3C//DTD SVG 1.1//EN"
  "http://www.w3.org/Graphics/SVG/1.1/DTD/svg11.dtd">
<svg xmlns:xlink="http://www.w3.org/1999/xlink" width="400.523437pt" height="262.19625pt" viewBox="0 0 400.523437 262.19625" xmlns="http://www.w3.org/2000/svg" version="1.1">
 <metadata>
  <rdf:RDF xmlns:dc="http://purl.org/dc/elements/1.1/" xmlns:cc="http://creativecommons.org/ns#" xmlns:rdf="http://www.w3.org/1999/02/22-rdf-syntax-ns#">
   <cc:Work>
    <dc:type rdf:resource="http://purl.org/dc/dcmitype/StillImage"/>
    <dc:date>2024-09-29T15:41:20.191676</dc:date>
    <dc:format>image/svg+xml</dc:format>
    <dc:creator>
     <cc:Agent>
      <dc:title>Matplotlib v3.5.2, https://matplotlib.org/</dc:title>
     </cc:Agent>
    </dc:creator>
   </cc:Work>
  </rdf:RDF>
 </metadata>
 <defs>
  <style type="text/css">*{stroke-linejoin: round; stroke-linecap: butt}</style>
 </defs>
 <g id="figure_1">
  <g id="patch_1">
   <path d="M 0 262.19625 
L 400.523437 262.19625 
L 400.523437 0 
L 0 0 
z
" style="fill: #ffffff"/>
  </g>
  <g id="axes_1">
   <g id="patch_2">
    <path d="M 58.523438 224.64 
L 393.323438 224.64 
L 393.323438 7.2 
L 58.523438 7.2 
z
" style="fill: #ffffff"/>
   </g>
   <g id="matplotlib.axis_1">
    <g id="xtick_1">
     <g id="line2d_1">
      <defs>
       <path id="m170bf27237" d="M 0 0 
L 0 3.5 
" style="stroke: #000000; stroke-width: 0.8"/>
      </defs>
      <g>
       <use xlink:href="#m170bf27237" x="73.741619" y="224.64" style="stroke: #000000; stroke-width: 0.8"/>
      </g>
     </g>
     <g id="text_1">
      <!-- 0 -->
      <g transform="translate(70.560369 239.238437)scale(0.1 -0.1)">
       <defs>
        <path id="DejaVuSans-30" d="M 2034 4250 
Q 1547 4250 1301 3770 
Q 1056 3291 1056 2328 
Q 1056 1369 1301 889 
Q 1547 409 2034 409 
Q 2525 409 2770 889 
Q 3016 1369 3016 2328 
Q 3016 3291 2770 3770 
Q 2525 4250 2034 4250 
z
M 2034 4750 
Q 2819 4750 3233 4129 
Q 3647 3509 3647 2328 
Q 3647 1150 3233 529 
Q 2819 -91 2034 -91 
Q 1250 -91 836 529 
Q 422 1150 422 2328 
Q 422 3509 836 4129 
Q 1250 4750 2034 4750 
z
" transform="scale(0.015625)"/>
       </defs>
       <use xlink:href="#DejaVuSans-30"/>
      </g>
     </g>
    </g>
    <g id="xtick_2">
     <g id="line2d_2">
      <g>
       <use xlink:href="#m170bf27237" x="134.614347" y="224.64" style="stroke: #000000; stroke-width: 0.8"/>
      </g>
     </g>
     <g id="text_2">
      <!-- 20 -->
      <g transform="translate(128.251847 239.238437)scale(0.1 -0.1)">
       <defs>
        <path id="DejaVuSans-32" d="M 1228 531 
L 3431 531 
L 3431 0 
L 469 0 
L 469 531 
Q 828 903 1448 1529 
Q 2069 2156 2228 2338 
Q 2531 2678 2651 2914 
Q 2772 3150 2772 3378 
Q 2772 3750 2511 3984 
Q 2250 4219 1831 4219 
Q 1534 4219 1204 4116 
Q 875 4013 500 3803 
L 500 4441 
Q 881 4594 1212 4672 
Q 1544 4750 1819 4750 
Q 2544 4750 2975 4387 
Q 3406 4025 3406 3419 
Q 3406 3131 3298 2873 
Q 3191 2616 2906 2266 
Q 2828 2175 2409 1742 
Q 1991 1309 1228 531 
z
" transform="scale(0.015625)"/>
       </defs>
       <use xlink:href="#DejaVuSans-32"/>
       <use xlink:href="#DejaVuSans-30" x="63.623047"/>
      </g>
     </g>
    </g>
    <g id="xtick_3">
     <g id="line2d_3">
      <g>
       <use xlink:href="#m170bf27237" x="195.487074" y="224.64" style="stroke: #000000; stroke-width: 0.8"/>
      </g>
     </g>
     <g id="text_3">
      <!-- 40 -->
      <g transform="translate(189.124574 239.238437)scale(0.1 -0.1)">
       <defs>
        <path id="DejaVuSans-34" d="M 2419 4116 
L 825 1625 
L 2419 1625 
L 2419 4116 
z
M 2253 4666 
L 3047 4666 
L 3047 1625 
L 3713 1625 
L 3713 1100 
L 3047 1100 
L 3047 0 
L 2419 0 
L 2419 1100 
L 313 1100 
L 313 1709 
L 2253 4666 
z
" transform="scale(0.015625)"/>
       </defs>
       <use xlink:href="#DejaVuSans-34"/>
       <use xlink:href="#DejaVuSans-30" x="63.623047"/>
      </g>
     </g>
    </g>
    <g id="xtick_4">
     <g id="line2d_4">
      <g>
       <use xlink:href="#m170bf27237" x="256.359801" y="224.64" style="stroke: #000000; stroke-width: 0.8"/>
      </g>
     </g>
     <g id="text_4">
      <!-- 60 -->
      <g transform="translate(249.997301 239.238437)scale(0.1 -0.1)">
       <defs>
        <path id="DejaVuSans-36" d="M 2113 2584 
Q 1688 2584 1439 2293 
Q 1191 2003 1191 1497 
Q 1191 994 1439 701 
Q 1688 409 2113 409 
Q 2538 409 2786 701 
Q 3034 994 3034 1497 
Q 3034 2003 2786 2293 
Q 2538 2584 2113 2584 
z
M 3366 4563 
L 3366 3988 
Q 3128 4100 2886 4159 
Q 2644 4219 2406 4219 
Q 1781 4219 1451 3797 
Q 1122 3375 1075 2522 
Q 1259 2794 1537 2939 
Q 1816 3084 2150 3084 
Q 2853 3084 3261 2657 
Q 3669 2231 3669 1497 
Q 3669 778 3244 343 
Q 2819 -91 2113 -91 
Q 1303 -91 875 529 
Q 447 1150 447 2328 
Q 447 3434 972 4092 
Q 1497 4750 2381 4750 
Q 2619 4750 2861 4703 
Q 3103 4656 3366 4563 
z
" transform="scale(0.015625)"/>
       </defs>
       <use xlink:href="#DejaVuSans-36"/>
       <use xlink:href="#DejaVuSans-30" x="63.623047"/>
      </g>
     </g>
    </g>
    <g id="xtick_5">
     <g id="line2d_5">
      <g>
       <use xlink:href="#m170bf27237" x="317.232528" y="224.64" style="stroke: #000000; stroke-width: 0.8"/>
      </g>
     </g>
     <g id="text_5">
      <!-- 80 -->
      <g transform="translate(310.870028 239.238437)scale(0.1 -0.1)">
       <defs>
        <path id="DejaVuSans-38" d="M 2034 2216 
Q 1584 2216 1326 1975 
Q 1069 1734 1069 1313 
Q 1069 891 1326 650 
Q 1584 409 2034 409 
Q 2484 409 2743 651 
Q 3003 894 3003 1313 
Q 3003 1734 2745 1975 
Q 2488 2216 2034 2216 
z
M 1403 2484 
Q 997 2584 770 2862 
Q 544 3141 544 3541 
Q 544 4100 942 4425 
Q 1341 4750 2034 4750 
Q 2731 4750 3128 4425 
Q 3525 4100 3525 3541 
Q 3525 3141 3298 2862 
Q 3072 2584 2669 2484 
Q 3125 2378 3379 2068 
Q 3634 1759 3634 1313 
Q 3634 634 3220 271 
Q 2806 -91 2034 -91 
Q 1263 -91 848 271 
Q 434 634 434 1313 
Q 434 1759 690 2068 
Q 947 2378 1403 2484 
z
M 1172 3481 
Q 1172 3119 1398 2916 
Q 1625 2713 2034 2713 
Q 2441 2713 2670 2916 
Q 2900 3119 2900 3481 
Q 2900 3844 2670 4047 
Q 2441 4250 2034 4250 
Q 1625 4250 1398 4047 
Q 1172 3844 1172 3481 
z
" transform="scale(0.015625)"/>
       </defs>
       <use xlink:href="#DejaVuSans-38"/>
       <use xlink:href="#DejaVuSans-30" x="63.623047"/>
      </g>
     </g>
    </g>
    <g id="xtick_6">
     <g id="line2d_6">
      <g>
       <use xlink:href="#m170bf27237" x="378.105256" y="224.64" style="stroke: #000000; stroke-width: 0.8"/>
      </g>
     </g>
     <g id="text_6">
      <!-- 100 -->
      <g transform="translate(368.561506 239.238437)scale(0.1 -0.1)">
       <defs>
        <path id="DejaVuSans-31" d="M 794 531 
L 1825 531 
L 1825 4091 
L 703 3866 
L 703 4441 
L 1819 4666 
L 2450 4666 
L 2450 531 
L 3481 531 
L 3481 0 
L 794 0 
L 794 531 
z
" transform="scale(0.015625)"/>
       </defs>
       <use xlink:href="#DejaVuSans-31"/>
       <use xlink:href="#DejaVuSans-30" x="63.623047"/>
       <use xlink:href="#DejaVuSans-30" x="127.246094"/>
      </g>
     </g>
    </g>
    <g id="text_7">
     <!-- Time (t) -->
     <g transform="translate(206.239062 252.916562)scale(0.1 -0.1)">
      <defs>
       <path id="DejaVuSans-54" d="M -19 4666 
L 3928 4666 
L 3928 4134 
L 2272 4134 
L 2272 0 
L 1638 0 
L 1638 4134 
L -19 4134 
L -19 4666 
z
" transform="scale(0.015625)"/>
       <path id="DejaVuSans-69" d="M 603 3500 
L 1178 3500 
L 1178 0 
L 603 0 
L 603 3500 
z
M 603 4863 
L 1178 4863 
L 1178 4134 
L 603 4134 
L 603 4863 
z
" transform="scale(0.015625)"/>
       <path id="DejaVuSans-6d" d="M 3328 2828 
Q 3544 3216 3844 3400 
Q 4144 3584 4550 3584 
Q 5097 3584 5394 3201 
Q 5691 2819 5691 2113 
L 5691 0 
L 5113 0 
L 5113 2094 
Q 5113 2597 4934 2840 
Q 4756 3084 4391 3084 
Q 3944 3084 3684 2787 
Q 3425 2491 3425 1978 
L 3425 0 
L 2847 0 
L 2847 2094 
Q 2847 2600 2669 2842 
Q 2491 3084 2119 3084 
Q 1678 3084 1418 2786 
Q 1159 2488 1159 1978 
L 1159 0 
L 581 0 
L 581 3500 
L 1159 3500 
L 1159 2956 
Q 1356 3278 1631 3431 
Q 1906 3584 2284 3584 
Q 2666 3584 2933 3390 
Q 3200 3197 3328 2828 
z
" transform="scale(0.015625)"/>
       <path id="DejaVuSans-65" d="M 3597 1894 
L 3597 1613 
L 953 1613 
Q 991 1019 1311 708 
Q 1631 397 2203 397 
Q 2534 397 2845 478 
Q 3156 559 3463 722 
L 3463 178 
Q 3153 47 2828 -22 
Q 2503 -91 2169 -91 
Q 1331 -91 842 396 
Q 353 884 353 1716 
Q 353 2575 817 3079 
Q 1281 3584 2069 3584 
Q 2775 3584 3186 3129 
Q 3597 2675 3597 1894 
z
M 3022 2063 
Q 3016 2534 2758 2815 
Q 2500 3097 2075 3097 
Q 1594 3097 1305 2825 
Q 1016 2553 972 2059 
L 3022 2063 
z
" transform="scale(0.015625)"/>
       <path id="DejaVuSans-20" transform="scale(0.015625)"/>
       <path id="DejaVuSans-28" d="M 1984 4856 
Q 1566 4138 1362 3434 
Q 1159 2731 1159 2009 
Q 1159 1288 1364 580 
Q 1569 -128 1984 -844 
L 1484 -844 
Q 1016 -109 783 600 
Q 550 1309 550 2009 
Q 550 2706 781 3412 
Q 1013 4119 1484 4856 
L 1984 4856 
z
" transform="scale(0.015625)"/>
       <path id="DejaVuSans-74" d="M 1172 4494 
L 1172 3500 
L 2356 3500 
L 2356 3053 
L 1172 3053 
L 1172 1153 
Q 1172 725 1289 603 
Q 1406 481 1766 481 
L 2356 481 
L 2356 0 
L 1766 0 
Q 1100 0 847 248 
Q 594 497 594 1153 
L 594 3053 
L 172 3053 
L 172 3500 
L 594 3500 
L 594 4494 
L 1172 4494 
z
" transform="scale(0.015625)"/>
       <path id="DejaVuSans-29" d="M 513 4856 
L 1013 4856 
Q 1481 4119 1714 3412 
Q 1947 2706 1947 2009 
Q 1947 1309 1714 600 
Q 1481 -109 1013 -844 
L 513 -844 
Q 928 -128 1133 580 
Q 1338 1288 1338 2009 
Q 1338 2731 1133 3434 
Q 928 4138 513 4856 
z
" transform="scale(0.015625)"/>
      </defs>
      <use xlink:href="#DejaVuSans-54"/>
      <use xlink:href="#DejaVuSans-69" x="57.958984"/>
      <use xlink:href="#DejaVuSans-6d" x="85.742188"/>
      <use xlink:href="#DejaVuSans-65" x="183.154297"/>
      <use xlink:href="#DejaVuSans-20" x="244.677734"/>
      <use xlink:href="#DejaVuSans-28" x="276.464844"/>
      <use xlink:href="#DejaVuSans-74" x="315.478516"/>
      <use xlink:href="#DejaVuSans-29" x="354.6875"/>
     </g>
    </g>
   </g>
   <g id="matplotlib.axis_2">
    <g id="ytick_1">
     <g id="line2d_7">
      <defs>
       <path id="m8164c17f8c" d="M 0 0 
L -3.5 0 
" style="stroke: #000000; stroke-width: 0.8"/>
      </defs>
      <g>
       <use xlink:href="#m8164c17f8c" x="58.523438" y="215.793697" style="stroke: #000000; stroke-width: 0.8"/>
      </g>
     </g>
     <g id="text_8">
      <!-- −10.0 -->
      <g transform="translate(20.878125 219.592915)scale(0.1 -0.1)">
       <defs>
        <path id="DejaVuSans-2212" d="M 678 2272 
L 4684 2272 
L 4684 1741 
L 678 1741 
L 678 2272 
z
" transform="scale(0.015625)"/>
        <path id="DejaVuSans-2e" d="M 684 794 
L 1344 794 
L 1344 0 
L 684 0 
L 684 794 
z
" transform="scale(0.015625)"/>
       </defs>
       <use xlink:href="#DejaVuSans-2212"/>
       <use xlink:href="#DejaVuSans-31" x="83.789062"/>
       <use xlink:href="#DejaVuSans-30" x="147.412109"/>
       <use xlink:href="#DejaVuSans-2e" x="211.035156"/>
       <use xlink:href="#DejaVuSans-30" x="242.822266"/>
      </g>
     </g>
    </g>
    <g id="ytick_2">
     <g id="line2d_8">
      <g>
       <use xlink:href="#m8164c17f8c" x="58.523438" y="190.84773" style="stroke: #000000; stroke-width: 0.8"/>
      </g>
     </g>
     <g id="text_9">
      <!-- −7.5 -->
      <g transform="translate(27.240625 194.646949)scale(0.1 -0.1)">
       <defs>
        <path id="DejaVuSans-37" d="M 525 4666 
L 3525 4666 
L 3525 4397 
L 1831 0 
L 1172 0 
L 2766 4134 
L 525 4134 
L 525 4666 
z
" transform="scale(0.015625)"/>
        <path id="DejaVuSans-35" d="M 691 4666 
L 3169 4666 
L 3169 4134 
L 1269 4134 
L 1269 2991 
Q 1406 3038 1543 3061 
Q 1681 3084 1819 3084 
Q 2600 3084 3056 2656 
Q 3513 2228 3513 1497 
Q 3513 744 3044 326 
Q 2575 -91 1722 -91 
Q 1428 -91 1123 -41 
Q 819 9 494 109 
L 494 744 
Q 775 591 1075 516 
Q 1375 441 1709 441 
Q 2250 441 2565 725 
Q 2881 1009 2881 1497 
Q 2881 1984 2565 2268 
Q 2250 2553 1709 2553 
Q 1456 2553 1204 2497 
Q 953 2441 691 2322 
L 691 4666 
z
" transform="scale(0.015625)"/>
       </defs>
       <use xlink:href="#DejaVuSans-2212"/>
       <use xlink:href="#DejaVuSans-37" x="83.789062"/>
       <use xlink:href="#DejaVuSans-2e" x="147.412109"/>
       <use xlink:href="#DejaVuSans-35" x="179.199219"/>
      </g>
     </g>
    </g>
    <g id="ytick_3">
     <g id="line2d_9">
      <g>
       <use xlink:href="#m8164c17f8c" x="58.523438" y="165.901764" style="stroke: #000000; stroke-width: 0.8"/>
      </g>
     </g>
     <g id="text_10">
      <!-- −5.0 -->
      <g transform="translate(27.240625 169.700983)scale(0.1 -0.1)">
       <use xlink:href="#DejaVuSans-2212"/>
       <use xlink:href="#DejaVuSans-35" x="83.789062"/>
       <use xlink:href="#DejaVuSans-2e" x="147.412109"/>
       <use xlink:href="#DejaVuSans-30" x="179.199219"/>
      </g>
     </g>
    </g>
    <g id="ytick_4">
     <g id="line2d_10">
      <g>
       <use xlink:href="#m8164c17f8c" x="58.523438" y="140.955798" style="stroke: #000000; stroke-width: 0.8"/>
      </g>
     </g>
     <g id="text_11">
      <!-- −2.5 -->
      <g transform="translate(27.240625 144.755016)scale(0.1 -0.1)">
       <use xlink:href="#DejaVuSans-2212"/>
       <use xlink:href="#DejaVuSans-32" x="83.789062"/>
       <use xlink:href="#DejaVuSans-2e" x="147.412109"/>
       <use xlink:href="#DejaVuSans-35" x="179.199219"/>
      </g>
     </g>
    </g>
    <g id="ytick_5">
     <g id="line2d_11">
      <g>
       <use xlink:href="#m8164c17f8c" x="58.523438" y="116.009831" style="stroke: #000000; stroke-width: 0.8"/>
      </g>
     </g>
     <g id="text_12">
      <!-- 0.0 -->
      <g transform="translate(35.620313 119.80905)scale(0.1 -0.1)">
       <use xlink:href="#DejaVuSans-30"/>
       <use xlink:href="#DejaVuSans-2e" x="63.623047"/>
       <use xlink:href="#DejaVuSans-30" x="95.410156"/>
      </g>
     </g>
    </g>
    <g id="ytick_6">
     <g id="line2d_12">
      <g>
       <use xlink:href="#m8164c17f8c" x="58.523438" y="91.063865" style="stroke: #000000; stroke-width: 0.8"/>
      </g>
     </g>
     <g id="text_13">
      <!-- 2.5 -->
      <g transform="translate(35.620313 94.863084)scale(0.1 -0.1)">
       <use xlink:href="#DejaVuSans-32"/>
       <use xlink:href="#DejaVuSans-2e" x="63.623047"/>
       <use xlink:href="#DejaVuSans-35" x="95.410156"/>
      </g>
     </g>
    </g>
    <g id="ytick_7">
     <g id="line2d_13">
      <g>
       <use xlink:href="#m8164c17f8c" x="58.523438" y="66.117898" style="stroke: #000000; stroke-width: 0.8"/>
      </g>
     </g>
     <g id="text_14">
      <!-- 5.0 -->
      <g transform="translate(35.620313 69.917117)scale(0.1 -0.1)">
       <use xlink:href="#DejaVuSans-35"/>
       <use xlink:href="#DejaVuSans-2e" x="63.623047"/>
       <use xlink:href="#DejaVuSans-30" x="95.410156"/>
      </g>
     </g>
    </g>
    <g id="ytick_8">
     <g id="line2d_14">
      <g>
       <use xlink:href="#m8164c17f8c" x="58.523438" y="41.171932" style="stroke: #000000; stroke-width: 0.8"/>
      </g>
     </g>
     <g id="text_15">
      <!-- 7.5 -->
      <g transform="translate(35.620313 44.971151)scale(0.1 -0.1)">
       <use xlink:href="#DejaVuSans-37"/>
       <use xlink:href="#DejaVuSans-2e" x="63.623047"/>
       <use xlink:href="#DejaVuSans-35" x="95.410156"/>
      </g>
     </g>
    </g>
    <g id="ytick_9">
     <g id="line2d_15">
      <g>
       <use xlink:href="#m8164c17f8c" x="58.523438" y="16.225966" style="stroke: #000000; stroke-width: 0.8"/>
      </g>
     </g>
     <g id="text_16">
      <!-- 10.0 -->
      <g transform="translate(29.257813 20.025185)scale(0.1 -0.1)">
       <use xlink:href="#DejaVuSans-31"/>
       <use xlink:href="#DejaVuSans-30" x="63.623047"/>
       <use xlink:href="#DejaVuSans-2e" x="127.246094"/>
       <use xlink:href="#DejaVuSans-30" x="159.033203"/>
      </g>
     </g>
    </g>
    <g id="text_17">
     <!-- Position (x) -->
     <g transform="translate(14.798438 143.834062)rotate(-90)scale(0.1 -0.1)">
      <defs>
       <path id="DejaVuSans-50" d="M 1259 4147 
L 1259 2394 
L 2053 2394 
Q 2494 2394 2734 2622 
Q 2975 2850 2975 3272 
Q 2975 3691 2734 3919 
Q 2494 4147 2053 4147 
L 1259 4147 
z
M 628 4666 
L 2053 4666 
Q 2838 4666 3239 4311 
Q 3641 3956 3641 3272 
Q 3641 2581 3239 2228 
Q 2838 1875 2053 1875 
L 1259 1875 
L 1259 0 
L 628 0 
L 628 4666 
z
" transform="scale(0.015625)"/>
       <path id="DejaVuSans-6f" d="M 1959 3097 
Q 1497 3097 1228 2736 
Q 959 2375 959 1747 
Q 959 1119 1226 758 
Q 1494 397 1959 397 
Q 2419 397 2687 759 
Q 2956 1122 2956 1747 
Q 2956 2369 2687 2733 
Q 2419 3097 1959 3097 
z
M 1959 3584 
Q 2709 3584 3137 3096 
Q 3566 2609 3566 1747 
Q 3566 888 3137 398 
Q 2709 -91 1959 -91 
Q 1206 -91 779 398 
Q 353 888 353 1747 
Q 353 2609 779 3096 
Q 1206 3584 1959 3584 
z
" transform="scale(0.015625)"/>
       <path id="DejaVuSans-73" d="M 2834 3397 
L 2834 2853 
Q 2591 2978 2328 3040 
Q 2066 3103 1784 3103 
Q 1356 3103 1142 2972 
Q 928 2841 928 2578 
Q 928 2378 1081 2264 
Q 1234 2150 1697 2047 
L 1894 2003 
Q 2506 1872 2764 1633 
Q 3022 1394 3022 966 
Q 3022 478 2636 193 
Q 2250 -91 1575 -91 
Q 1294 -91 989 -36 
Q 684 19 347 128 
L 347 722 
Q 666 556 975 473 
Q 1284 391 1588 391 
Q 1994 391 2212 530 
Q 2431 669 2431 922 
Q 2431 1156 2273 1281 
Q 2116 1406 1581 1522 
L 1381 1569 
Q 847 1681 609 1914 
Q 372 2147 372 2553 
Q 372 3047 722 3315 
Q 1072 3584 1716 3584 
Q 2034 3584 2315 3537 
Q 2597 3491 2834 3397 
z
" transform="scale(0.015625)"/>
       <path id="DejaVuSans-6e" d="M 3513 2113 
L 3513 0 
L 2938 0 
L 2938 2094 
Q 2938 2591 2744 2837 
Q 2550 3084 2163 3084 
Q 1697 3084 1428 2787 
Q 1159 2491 1159 1978 
L 1159 0 
L 581 0 
L 581 3500 
L 1159 3500 
L 1159 2956 
Q 1366 3272 1645 3428 
Q 1925 3584 2291 3584 
Q 2894 3584 3203 3211 
Q 3513 2838 3513 2113 
z
" transform="scale(0.015625)"/>
       <path id="DejaVuSans-78" d="M 3513 3500 
L 2247 1797 
L 3578 0 
L 2900 0 
L 1881 1375 
L 863 0 
L 184 0 
L 1544 1831 
L 300 3500 
L 978 3500 
L 1906 2253 
L 2834 3500 
L 3513 3500 
z
" transform="scale(0.015625)"/>
      </defs>
      <use xlink:href="#DejaVuSans-50"/>
      <use xlink:href="#DejaVuSans-6f" x="56.677734"/>
      <use xlink:href="#DejaVuSans-73" x="117.859375"/>
      <use xlink:href="#DejaVuSans-69" x="169.958984"/>
      <use xlink:href="#DejaVuSans-74" x="197.742188"/>
      <use xlink:href="#DejaVuSans-69" x="236.951172"/>
      <use xlink:href="#DejaVuSans-6f" x="264.734375"/>
      <use xlink:href="#DejaVuSans-6e" x="325.916016"/>
      <use xlink:href="#DejaVuSans-20" x="389.294922"/>
      <use xlink:href="#DejaVuSans-28" x="421.082031"/>
      <use xlink:href="#DejaVuSans-78" x="460.095703"/>
      <use xlink:href="#DejaVuSans-29" x="519.275391"/>
     </g>
    </g>
   </g>
   <g id="line2d_16">
    <path d="M 73.741619 116.009831 
L 75.567801 110.367904 
L 76.785256 107.256567 
L 77.698347 105.398254 
L 78.611437 104.001733 
L 79.524528 103.077302 
L 80.133256 102.712182 
L 80.741983 102.53731 
L 81.35071 102.538873 
L 82.263801 102.832525 
L 83.176892 103.41242 
L 84.394347 104.508377 
L 86.220528 106.528436 
L 92.612165 114.15229 
L 94.438347 116.807585 
L 96.264528 119.901492 
L 100.829983 127.957095 
L 101.743074 129.121867 
L 102.656165 129.96858 
L 103.569256 130.439339 
L 104.177983 130.521238 
L 104.78671 130.404583 
L 105.395437 130.084663 
L 106.004165 129.562794 
L 106.917256 128.416096 
L 107.830347 126.860048 
L 109.047801 124.24062 
L 110.569619 120.350469 
L 114.526347 109.872708 
L 115.743801 107.318477 
L 116.961256 105.314795 
L 117.874347 104.210913 
L 118.787438 103.461574 
L 119.700528 103.053236 
L 120.613619 102.956252 
L 121.52671 103.144816 
L 122.439801 103.584594 
L 123.657256 104.495382 
L 124.87471 105.705286 
L 126.396528 107.538126 
L 128.22271 110.099939 
L 130.353256 113.49347 
L 132.788165 117.81369 
L 137.049256 125.472947 
L 138.571074 127.650807 
L 139.484165 128.656411 
L 140.397256 129.375456 
L 141.310347 129.771997 
L 141.919074 129.844694 
L 142.527801 129.755841 
L 143.136528 129.500483 
L 144.049619 128.805006 
L 144.96271 127.750114 
L 145.875801 126.362784 
L 147.093256 124.06051 
L 148.615074 120.64294 
L 153.484892 109.125388 
L 154.702347 106.886302 
L 155.919801 105.112343 
L 156.832892 104.121504 
L 157.745983 103.434661 
L 158.659074 103.046341 
L 159.572165 102.947398 
L 160.485256 103.126182 
L 161.398347 103.562715 
L 162.311438 104.234488 
L 163.528892 105.459578 
L 164.746347 107.01013 
L 166.268165 109.329655 
L 168.094347 112.541707 
L 171.137983 118.464113 
L 173.877256 123.64748 
L 175.399074 126.092886 
L 176.616528 127.671363 
L 177.529619 128.57117 
L 178.44271 129.189456 
L 179.355801 129.504319 
L 180.268892 129.499406 
L 181.181983 129.160791 
L 182.095074 128.489747 
L 183.008165 127.50239 
L 183.921256 126.219119 
L 185.13871 124.10268 
L 186.660528 120.958051 
L 190.008528 113.242001 
L 191.83471 109.353521 
L 193.356528 106.651235 
L 194.573983 104.959509 
L 195.487074 104.009197 
L 196.400165 103.344668 
L 197.313256 102.965663 
L 198.226347 102.875618 
L 199.139437 103.069355 
L 200.052528 103.532881 
L 200.965619 104.251291 
L 202.183074 105.573694 
L 203.400528 107.261455 
L 204.922347 109.79823 
L 207.052892 113.903897 
L 211.92271 123.606369 
L 213.444528 126.051281 
L 214.661983 127.603797 
L 215.575074 128.477476 
L 216.488165 129.072046 
L 217.401256 129.372426 
L 218.314347 129.365652 
L 219.227438 129.042719 
L 220.140528 128.408387 
L 221.053619 127.477797 
L 221.96671 126.268651 
L 223.184165 124.273521 
L 224.705983 121.295381 
L 227.140892 115.905257 
L 229.880165 109.977732 
L 231.401983 107.196628 
L 232.619438 105.392806 
L 233.836892 104.040946 
L 234.749983 103.344728 
L 235.663074 102.933754 
L 236.576165 102.815406 
L 237.489256 102.986149 
L 238.402347 103.436999 
L 239.315438 104.157786 
L 240.228528 105.130339 
L 241.445983 106.777309 
L 242.967801 109.315488 
L 244.793983 112.866191 
L 250.272528 123.950943 
L 251.794347 126.331175 
L 253.011801 127.799257 
L 253.924892 128.596738 
L 254.837983 129.112825 
L 255.751074 129.336273 
L 256.664165 129.254665 
L 257.577256 128.866275 
L 258.490347 128.181171 
L 259.403437 127.21255 
L 260.620892 125.516113 
L 261.838347 123.426108 
L 263.664528 119.743722 
L 268.83871 108.736204 
L 270.360528 106.201638 
L 271.577983 104.626989 
L 272.491074 103.74464 
L 273.404165 103.139962 
L 274.317256 102.826691 
L 275.230347 102.806824 
L 276.143438 103.076366 
L 277.056528 103.631318 
L 277.969619 104.458215 
L 279.187074 105.944864 
L 280.404528 107.820324 
L 281.926347 110.600252 
L 284.056892 115.00396 
L 287.404892 121.993211 
L 288.92671 124.723478 
L 290.144165 126.540935 
L 291.361619 127.94385 
L 292.27471 128.685998 
L 293.187801 129.146582 
L 294.100892 129.312781 
L 295.013983 129.175835 
L 295.927074 128.739023 
L 296.840165 128.012935 
L 297.753256 127.010875 
L 298.97071 125.286493 
L 300.188165 123.184976 
L 302.014347 119.512068 
L 307.188528 108.613111 
L 308.710347 106.111373 
L 309.927801 104.554554 
L 310.840892 103.685076 
L 311.753983 103.096281 
L 312.667074 102.798926 
L 313.580165 102.793596 
L 314.493256 103.082303 
L 315.406347 103.66066 
L 316.319437 104.512291 
L 317.536892 106.035343 
L 318.754347 107.950948 
L 320.276165 110.778309 
L 322.711074 115.894425 
L 325.75471 122.235895 
L 327.276528 124.935599 
L 328.493983 126.714259 
L 329.711437 128.063091 
L 330.624528 128.75956 
L 331.537619 129.173876 
L 332.45071 129.293509 
L 333.363801 129.111769 
L 334.276892 128.634045 
L 335.189983 127.87192 
L 336.103074 126.839755 
L 337.320528 125.085869 
L 338.842347 122.38934 
L 340.668528 118.638557 
L 345.233983 109.021604 
L 346.755801 106.442405 
L 347.973256 104.80684 
L 348.886347 103.869196 
L 349.799437 103.206727 
L 350.712528 102.834421 
L 351.625619 102.755566 
L 352.53871 102.97128 
L 353.451801 103.480599 
L 354.364892 104.270813 
L 355.277983 105.319711 
L 356.495437 107.083821 
L 358.017256 109.77669 
L 359.843437 113.49787 
L 364.408892 123.028164 
L 365.93071 125.596014 
L 367.148165 127.233439 
L 368.061256 128.166301 
L 368.974347 128.823976 
L 369.887438 129.198086 
L 370.800528 129.277386 
L 371.713619 129.056479 
L 372.62671 128.54198 
L 373.539801 127.746621 
L 374.452892 126.685555 
L 375.670347 124.900687 
L 377.192165 122.178818 
L 378.105256 120.347917 
L 378.105256 120.347917 
" clip-path="url(#pd27d956b9a)" style="fill: none; stroke: #1f77b4; stroke-width: 1.5; stroke-linecap: square"/>
   </g>
   <g id="line2d_17">
    <path d="M 73.741619 116.009831 
L 75.872165 109.396067 
L 77.393983 105.37667 
L 78.611437 102.781269 
L 79.524528 101.305093 
L 80.437619 100.305221 
L 81.046347 99.932394 
L 81.655074 99.815202 
L 82.263801 99.975096 
L 82.872528 100.428097 
L 83.481256 101.183264 
L 84.089983 102.242692 
L 85.003074 104.393109 
L 85.916165 107.190677 
L 87.133619 111.794708 
L 88.959801 119.910154 
L 91.090347 129.398917 
L 92.307801 133.790263 
L 93.220892 136.178666 
L 93.829619 137.237697 
L 94.438347 137.822378 
L 94.74271 137.927222 
L 95.047074 137.901987 
L 95.351438 137.743957 
L 95.960165 137.024478 
L 96.568892 135.770328 
L 97.177619 134.001649 
L 98.09071 130.461435 
L 99.003801 125.996594 
L 100.525619 117.137376 
L 103.264892 100.765569 
L 104.177983 96.404686 
L 105.091074 93.076217 
L 105.699801 91.547053 
L 106.308528 90.62385 
L 106.612892 90.397955 
L 106.917256 90.331286 
L 107.221619 90.424294 
L 107.525983 90.678128 
L 108.13471 91.667442 
L 108.743437 93.2837 
L 109.352165 95.489194 
L 110.265256 99.765628 
L 111.48271 106.873556 
L 115.743801 133.788386 
L 116.656892 137.746278 
L 117.265619 139.717719 
L 117.874347 141.091915 
L 118.483074 141.832986 
L 118.787438 141.961021 
L 119.091801 141.927483 
L 119.396165 141.734199 
L 120.004892 140.881948 
L 120.613619 139.430771 
L 121.222347 137.417034 
L 122.135437 133.462423 
L 123.352892 126.844867 
L 127.918347 100.010906 
L 128.831437 96.402016 
L 129.440165 94.592881 
L 130.048892 93.301832 
L 130.657619 92.554715 
L 130.961983 92.388749 
L 131.266347 92.360963 
L 131.57071 92.469854 
L 132.179438 93.086401 
L 132.788165 94.212689 
L 133.396892 95.817367 
L 134.309983 99.023769 
L 135.527437 104.479318 
L 137.353619 114.093706 
L 139.484165 125.167958 
L 140.701619 130.379109 
L 141.61471 133.42799 
L 142.527801 135.606155 
L 143.136528 136.524529 
L 143.745256 136.996619 
L 144.353983 137.020768 
L 144.96271 136.60842 
L 145.571438 135.774629 
L 146.180165 134.535616 
L 147.093256 131.977812 
L 148.006347 128.699925 
L 149.223801 123.488728 
L 153.789256 102.591384 
L 154.702347 99.553182 
L 155.615437 97.264966 
L 156.224165 96.219187 
L 156.832892 95.58909 
L 157.441619 95.388655 
L 158.050347 95.619969 
L 158.659074 96.277078 
L 159.267801 97.354981 
L 159.876528 98.838839 
L 160.789619 101.764457 
L 162.007074 106.74825 
L 163.528892 114.149604 
L 166.268165 127.782456 
L 167.485619 132.663185 
L 168.39871 135.431127 
L 169.007437 136.763793 
L 169.616165 137.639552 
L 170.224892 138.033022 
L 170.529256 138.044838 
L 170.833619 137.932978 
L 171.442347 137.341237 
L 172.051074 136.263784 
L 172.659801 134.715714 
L 173.572892 131.579527 
L 174.485983 127.612085 
L 176.007801 119.696067 
L 179.051438 103.116877 
L 180.268892 97.931523 
L 181.181983 95.082061 
L 181.79071 93.769786 
L 182.399438 92.972854 
L 182.703801 92.774887 
L 183.008165 92.712381 
L 183.312528 92.785388 
L 183.921256 93.333331 
L 184.529983 94.407476 
L 185.13871 95.989098 
L 186.051801 99.235521 
L 186.964892 103.368798 
L 188.48671 111.619263 
L 191.530347 128.787723 
L 192.747801 134.110844 
L 193.660892 137.025129 
L 194.269619 138.366927 
L 194.878347 139.185611 
L 195.18271 139.392385 
L 195.487074 139.462801 
L 195.791438 139.397191 
L 196.400165 138.864201 
L 197.008892 137.808296 
L 197.617619 136.251102 
L 198.53071 133.057093 
L 199.443801 128.997356 
L 200.965619 120.913028 
L 204.009256 104.099624 
L 205.22671 98.839248 
L 206.139801 95.912548 
L 206.748528 94.528484 
L 207.357256 93.638278 
L 207.965983 93.259989 
L 208.270347 93.264209 
L 208.57471 93.396142 
L 209.183437 94.035806 
L 209.792165 95.164796 
L 210.400892 96.758968 
L 211.313983 99.937578 
L 212.531438 105.359591 
L 214.357619 115.006725 
L 216.488165 126.245663 
L 217.705619 131.55444 
L 218.61871 134.64241 
L 219.227438 136.193834 
L 219.836165 137.293377 
L 220.444892 137.915494 
L 220.749256 138.043596 
L 221.053619 138.049492 
L 221.357983 137.934167 
L 221.96671 137.347598 
L 222.575438 136.296679 
L 223.184165 134.800329 
L 224.097256 131.792671 
L 225.31471 126.61458 
L 226.836528 118.919743 
L 229.575801 104.828584 
L 230.793256 99.803209 
L 231.706347 96.941186 
L 232.315074 95.545032 
L 232.923801 94.600785 
L 233.532528 94.131147 
L 233.836892 94.077601 
L 234.141256 94.144926 
L 234.749983 94.637654 
L 235.35871 95.600214 
L 235.967438 97.016838 
L 236.880528 99.927369 
L 237.793619 103.643555 
L 239.011074 109.53153 
L 242.967801 129.837976 
L 243.880892 133.374099 
L 244.793983 136.057917 
L 245.40271 137.300012 
L 246.011437 138.062733 
L 246.620165 138.327499 
L 246.924528 138.271545 
L 247.533256 137.788144 
L 248.141983 136.820358 
L 248.75071 135.382794 
L 249.663801 132.409766 
L 250.576892 128.594354 
L 251.794347 122.543464 
L 255.751074 101.746225 
L 256.664165 98.16806 
L 257.577256 95.486265 
L 258.185983 94.266492 
L 258.79471 93.540825 
L 259.099074 93.369451 
L 259.403437 93.327087 
L 259.707801 93.413558 
L 260.316528 93.967704 
L 260.925256 95.018923 
L 261.533983 96.548221 
L 262.447074 99.664493 
L 263.360165 103.616346 
L 264.881983 111.493726 
L 267.925619 127.982456 
L 269.143074 133.184171 
L 270.056165 136.091056 
L 270.664892 137.470462 
L 271.273619 138.360152 
L 271.882347 138.739422 
L 272.18671 138.735405 
L 272.491074 138.603022 
L 273.099801 137.959544 
L 273.708528 136.821481 
L 274.317256 135.211043 
L 275.230347 131.991719 
L 276.447801 126.483549 
L 278.273983 116.655641 
L 280.404528 105.202142 
L 281.621983 99.818763 
L 282.535074 96.717293 
L 283.143801 95.18271 
L 283.752528 94.120592 
L 284.361256 93.5557 
L 284.665619 93.463331 
L 284.969983 93.497724 
L 285.57871 93.941836 
L 286.187437 94.877713 
L 286.796165 96.288317 
L 287.709256 99.224318 
L 288.622347 102.999023 
L 289.839801 108.997079 
L 293.796528 129.677761 
L 294.709619 133.273892 
L 295.62271 136.007122 
L 296.231438 137.278068 
L 296.840165 138.067883 
L 297.448892 138.359323 
L 297.753256 138.316978 
L 298.361983 137.862213 
L 298.97071 136.925711 
L 299.579437 135.522988 
L 300.492528 132.610142 
L 301.405619 128.864441 
L 302.623074 122.916687 
L 306.579801 102.372455 
L 307.492892 98.789533 
L 308.405983 96.065731 
L 309.01471 94.795773 
L 309.623438 94.002022 
L 310.232165 93.702965 
L 310.536528 93.740723 
L 311.145256 94.186491 
L 311.753983 95.116215 
L 312.36271 96.513894 
L 313.275801 99.42181 
L 314.188892 103.164594 
L 315.406347 109.119978 
L 319.363074 129.737371 
L 320.276165 133.335705 
L 321.189256 136.070271 
L 321.797983 137.341279 
L 322.40671 138.131053 
L 323.015438 138.421976 
L 323.319801 138.378906 
L 323.928528 137.920249 
L 324.537256 136.972554 
L 325.145983 135.551934 
L 326.059074 132.602636 
L 326.972165 128.814908 
L 328.189619 122.797106 
L 332.146347 102.057962 
L 333.059437 98.465669 
L 333.972528 95.7498 
L 334.581256 94.499456 
L 335.189983 93.738126 
L 335.79871 93.483191 
L 336.103074 93.546738 
L 336.711801 94.049497 
L 337.320528 95.041036 
L 337.929256 96.504902 
L 338.842347 99.517886 
L 339.755437 103.368476 
L 340.972892 109.452053 
L 344.929619 130.208922 
L 345.84271 133.758753 
L 346.755801 136.414939 
L 347.364528 137.621304 
L 347.973256 138.338226 
L 348.277619 138.507417 
L 348.581983 138.549257 
L 348.886347 138.464047 
L 349.495074 137.918116 
L 350.103801 136.88262 
L 350.712528 135.376655 
L 351.625619 132.309134 
L 352.53871 128.420315 
L 354.060528 120.666314 
L 357.104165 104.388727 
L 358.321619 99.216109 
L 359.23471 96.300335 
L 359.843437 94.899535 
L 360.452165 93.976194 
L 361.060892 93.551621 
L 361.365256 93.528945 
L 361.669619 93.632179 
L 362.278347 94.210717 
L 362.887074 95.276415 
L 363.495801 96.809369 
L 364.408892 99.908404 
L 365.321983 103.814223 
L 366.843801 111.569909 
L 369.887438 127.761643 
L 371.104892 132.880022 
L 372.017983 135.755577 
L 372.62671 137.130322 
L 373.235437 138.026886 
L 373.844165 138.42399 
L 374.148528 138.432864 
L 374.452892 138.315968 
L 375.061619 137.712387 
L 375.670347 136.627157 
L 376.279074 135.079188 
L 377.192165 131.963511 
L 378.105256 128.044884 
L 378.105256 128.044884 
" clip-path="url(#pd27d956b9a)" style="fill: none; stroke: #ff7f0e; stroke-width: 1.5; stroke-linecap: square"/>
   </g>
   <g id="line2d_18">
    <path d="M 73.741619 116.009831 
L 76.480892 107.442482 
L 78.00271 103.225519 
L 79.220165 100.508694 
L 80.133256 99.118514 
L 80.741983 98.608496 
L 81.35071 98.500821 
L 81.655074 98.614734 
L 82.263801 99.212415 
L 82.872528 100.334269 
L 83.481256 101.999236 
L 84.089983 104.205343 
L 85.003074 108.476057 
L 86.220528 115.682904 
L 89.568528 137.415632 
L 90.481619 141.479181 
L 91.090347 143.246251 
L 91.39471 143.800679 
L 91.699074 144.117904 
L 92.003438 144.18792 
L 92.307801 144.003387 
L 92.612165 143.559637 
L 93.220892 141.889168 
L 93.829619 139.189966 
L 94.438347 135.507844 
L 95.351438 128.347603 
L 96.568892 116.55866 
L 99.003801 91.765526 
L 99.916892 84.562408 
L 100.525619 81.02202 
L 101.134347 78.712472 
L 101.43871 78.062046 
L 101.743074 77.7639 
L 102.047438 77.82584 
L 102.351801 78.252168 
L 102.656165 79.044063 
L 103.264892 81.721694 
L 103.873619 85.812997 
L 104.78671 94.335243 
L 106.004165 109.069029 
L 109.047801 148.668088 
L 109.960892 156.941584 
L 110.569619 160.652525 
L 111.178347 162.706851 
L 111.48271 163.076261 
L 111.787074 162.993224 
L 112.091438 162.450318 
L 112.395801 161.445592 
L 113.004528 158.070196 
L 113.613256 152.960737 
L 114.526347 142.457367 
L 115.743801 124.508376 
L 118.483074 81.314609 
L 119.396165 70.674876 
L 120.004892 65.605957 
L 120.613619 62.425032 
L 120.917983 61.596367 
L 121.222347 61.29839 
L 121.52671 61.540289 
L 121.831074 62.324838 
L 122.135437 63.648401 
L 122.744165 67.865974 
L 123.352892 74.0391 
L 124.265983 86.488492 
L 125.483438 107.407759 
L 127.918347 151.600875 
L 128.831437 164.435104 
L 129.440165 170.811226 
L 130.048892 175.110066 
L 130.353256 176.407587 
L 130.657619 177.11178 
L 130.961983 177.212262 
L 131.266347 176.70558 
L 131.57071 175.595209 
L 132.179438 171.60998 
L 132.788165 165.384334 
L 133.701256 152.321993 
L 134.91871 129.732195 
L 137.657983 75.121462 
L 138.571074 61.544053 
L 139.179801 55.008963 
L 139.788528 50.841104 
L 140.092892 49.705833 
L 140.397256 49.221795 
L 140.701619 49.394518 
L 141.005983 50.22338 
L 141.310347 51.705315 
L 141.919074 56.587351 
L 142.527801 63.888097 
L 143.440892 78.763397 
L 144.658347 103.785855 
L 147.093256 156.684026 
L 148.006347 172.072684 
L 148.615074 179.719087 
L 149.223801 184.896624 
L 149.528165 186.489103 
L 149.832528 187.394403 
L 150.136892 187.597131 
L 150.441256 187.088451 
L 150.745619 185.867844 
L 151.354347 181.330341 
L 151.963074 174.146765 
L 152.876165 159.070678 
L 154.093619 133.028993 
L 156.832892 70.127363 
L 157.745983 54.560136 
L 158.35471 47.066341 
L 158.963437 42.245206 
L 159.267801 40.912493 
L 159.572165 40.326349 
L 159.876528 40.496609 
L 160.180892 41.424171 
L 160.485256 43.101002 
L 161.093983 48.625665 
L 161.70271 56.843638 
L 162.615801 73.545043 
L 163.833256 101.660923 
L 166.268165 160.840615 
L 167.181256 177.970038 
L 167.789983 186.489396 
L 168.39871 192.245942 
L 168.703074 194.001887 
L 169.007437 194.981402 
L 169.311801 195.174451 
L 169.616165 194.579903 
L 169.920528 193.205522 
L 170.529256 188.176272 
L 171.137983 180.254965 
L 172.051074 163.605292 
L 173.268528 134.903466 
L 176.007801 66.079006 
L 176.920892 49.122132 
L 177.529619 41.010108 
L 178.138347 35.858393 
L 178.44271 34.460587 
L 178.747074 33.867969 
L 179.051438 34.085381 
L 179.355801 35.115509 
L 179.660165 36.95383 
L 180.268892 42.991993 
L 180.877619 51.983785 
L 181.79071 70.184131 
L 183.008165 100.617618 
L 185.443074 164.321673 
L 186.356165 182.622101 
L 186.964892 191.646253 
L 187.573619 197.699563 
L 187.877983 199.535589 
L 188.182347 200.546387 
L 188.48671 200.715479 
L 188.791074 200.036335 
L 189.095438 198.512371 
L 189.704165 192.993389 
L 190.312892 184.384815 
L 191.225983 166.484797 
L 192.443437 135.801666 
L 195.18271 62.704066 
L 196.095801 44.892949 
L 196.704528 36.410313 
L 197.313256 31.056627 
L 197.617619 29.638479 
L 197.921983 29.085454 
L 198.226347 29.404272 
L 198.53071 30.591434 
L 198.835074 32.633219 
L 199.443801 39.176923 
L 200.052528 48.783435 
L 200.965619 68.121743 
L 202.183074 100.353002 
L 204.617983 167.243676 
L 205.531074 186.306322 
L 206.139801 195.663729 
L 206.748528 201.855285 
L 207.052892 203.678834 
L 207.357256 204.628279 
L 207.661619 204.696286 
L 207.965983 203.8852 
L 208.270347 202.203619 
L 208.879074 196.287241 
L 209.487801 187.150699 
L 210.400892 168.199206 
L 211.618347 135.951321 
L 214.357619 59.864057 
L 215.27071 41.498149 
L 215.879437 32.854996 
L 216.488165 27.504547 
L 216.792528 26.131261 
L 217.096892 25.645753 
L 217.401256 26.059046 
L 217.705619 27.372245 
L 218.009983 29.576151 
L 218.61871 36.567779 
L 219.227438 46.754294 
L 220.140528 67.054132 
L 221.357983 100.626623 
L 223.792892 169.798975 
L 224.705983 189.284114 
L 225.31471 198.756061 
L 225.923438 204.968192 
L 226.227801 206.766463 
L 226.532165 207.658172 
L 226.836528 207.630667 
L 227.140892 206.682159 
L 227.445256 204.821725 
L 228.053983 198.455712 
L 228.66271 188.815267 
L 229.575801 169.055029 
L 230.793256 135.608835 
L 233.228165 64.887483 
L 234.141256 44.312389 
L 234.749983 34.018949 
L 235.35871 26.971356 
L 235.663074 24.76877 
L 235.967438 23.481142 
L 236.271801 23.12073 
L 236.576165 23.689107 
L 236.880528 25.17716 
L 237.489256 30.83236 
L 238.097983 39.877902 
L 239.011074 59.031082 
L 240.228528 92.207293 
L 242.967801 172.010283 
L 243.880892 191.751489 
L 244.489619 201.25193 
L 245.098347 207.352064 
L 245.40271 209.049125 
L 245.707074 209.822058 
L 246.011437 209.666331 
L 246.315801 208.582119 
L 246.620165 206.575145 
L 247.228892 199.865558 
L 247.837619 189.783041 
L 248.75071 169.266441 
L 249.968165 134.882669 
L 252.403074 62.814548 
L 253.316165 42.062681 
L 253.924892 31.80129 
L 254.533619 24.87908 
L 254.837983 22.755404 
L 255.142347 21.554918 
L 255.44671 21.295985 
L 255.751074 21.985914 
L 256.055438 23.620954 
L 256.664165 29.656088 
L 257.272892 39.15026 
L 258.185983 58.959586 
L 259.403437 92.961409 
L 262.14271 174.018025 
L 263.055801 193.785146 
L 263.664528 203.216954 
L 264.273256 209.202757 
L 264.577619 210.810878 
L 264.881983 211.467036 
L 265.186347 211.163756 
L 265.49071 209.904846 
L 265.795074 207.705402 
L 266.403801 200.601134 
L 267.012528 190.140088 
L 267.925619 169.054149 
L 269.143074 133.892529 
L 271.577983 60.947074 
L 272.491074 40.166204 
L 273.099801 29.956337 
L 273.708528 23.185031 
L 274.012892 21.180918 
L 274.317256 20.125642 
L 274.621619 20.026748 
L 274.925983 20.881133 
L 275.230347 22.677736 
L 275.839074 29.031296 
L 276.447801 38.862189 
L 277.360892 59.268991 
L 278.578347 93.995848 
L 281.317619 175.827072 
L 282.23071 195.558404 
L 282.839438 204.842644 
L 283.448165 210.592137 
L 283.752528 212.070507 
L 284.056892 212.598628 
L 284.361256 212.16586 
L 284.665619 210.771473 
L 284.969983 208.425659 
L 285.57871 200.975141 
L 286.187437 190.114322 
L 287.100528 168.474597 
L 288.317983 132.720867 
L 290.752892 59.182382 
L 291.665983 38.505402 
L 292.27471 28.465917 
L 292.883438 21.889964 
L 293.187801 19.988413 
L 293.492165 19.047139 
L 293.796528 19.079212 
L 294.100892 20.086213 
L 294.405256 22.058231 
L 295.013983 28.800207 
L 295.62271 39.001326 
L 296.535801 59.884581 
L 297.753256 95.18219 
L 300.188165 169.657258 
L 301.101256 191.269261 
L 301.709983 202.062997 
L 302.31871 209.440906 
L 302.623074 211.740376 
L 302.927437 213.078005 
L 303.231801 213.441262 
L 303.536165 212.828901 
L 303.840528 211.25096 
L 304.449256 205.286795 
L 305.057983 195.775415 
L 305.971074 175.676891 
L 307.188528 140.923774 
L 309.927801 57.568131 
L 310.840892 37.017904 
L 311.449619 27.149368 
L 312.058347 20.836023 
L 312.36271 19.09258 
L 312.667074 18.313487 
L 312.971437 18.502688 
L 313.275801 19.658577 
L 313.580165 21.774316 
L 314.188892 28.807209 
L 314.797619 39.341955 
L 315.71071 60.73643 
L 316.928165 96.514499 
L 319.363074 171.272315 
L 320.276165 192.726404 
L 320.884892 203.306844 
L 321.493619 210.416035 
L 321.797983 212.581972 
L 322.102347 213.791153 
L 322.40671 214.025224 
L 322.711074 213.277203 
L 323.015438 211.551517 
L 323.624165 205.241904 
L 324.232892 195.359998 
L 325.145983 174.800864 
L 326.363437 139.604913 
L 329.10271 56.0073 
L 330.015801 35.710456 
L 330.624528 26.059583 
L 331.233256 19.969037 
L 331.537619 18.352401 
L 331.841983 17.71715 
L 332.146347 18.070455 
L 332.45071 19.407848 
L 332.755074 21.713223 
L 333.363801 29.105617 
L 333.972528 39.942147 
L 334.885619 61.718862 
L 336.103074 97.93458 
L 338.537983 172.795684 
L 339.451074 194.031411 
L 340.059801 204.429485 
L 340.668528 211.288597 
L 340.972892 213.297992 
L 341.277256 214.332937 
L 341.581619 214.386395 
L 341.885983 213.462306 
L 342.190347 211.572949 
L 342.799074 204.969404 
L 343.407801 194.812564 
L 344.320892 173.805946 
L 345.538347 138.165342 
L 347.973256 62.548492 
L 348.886347 40.427169 
L 349.495074 29.342895 
L 350.103801 21.720882 
L 350.408165 19.303126 
L 350.712528 17.84531 
L 351.016892 17.359139 
L 351.321256 17.854548 
L 351.625619 19.331537 
L 351.929983 21.778997 
L 352.53871 29.485316 
L 353.147438 40.662361 
L 354.060528 62.857068 
L 355.277983 99.415038 
L 357.712892 174.300484 
L 358.625983 195.253634 
L 359.23471 205.384458 
L 359.843437 211.974864 
L 360.147801 213.855098 
L 360.452165 214.756364 
L 360.756528 214.666052 
L 361.060892 213.583249 
L 361.365256 211.518736 
L 361.973983 204.546188 
L 362.58271 194.063509 
L 363.495801 172.690962 
L 364.713256 136.689249 
L 367.148165 61.052656 
L 368.061256 39.211526 
L 368.669983 28.346619 
L 369.27871 20.96472 
L 369.583074 18.688582 
L 369.887438 17.390871 
L 370.191801 17.083636 
L 370.496165 17.767431 
L 370.800528 19.431314 
L 371.409256 25.605959 
L 372.017983 35.37087 
L 372.931074 55.905674 
L 374.148528 91.280486 
L 376.887801 175.716599 
L 377.800892 196.388216 
L 378.105256 201.759151 
L 378.105256 201.759151 
" clip-path="url(#pd27d956b9a)" style="fill: none; stroke: #2ca02c; stroke-width: 1.5; stroke-linecap: square"/>
   </g>
   <g id="line2d_19">
    <path d="M 73.741619 116.009831 
L 75.263437 111.292515 
L 76.480892 108.250363 
L 77.393983 106.596015 
L 78.00271 105.836458 
L 78.611437 105.360303 
L 79.220165 105.160168 
L 79.828892 105.219162 
L 80.437619 105.513954 
L 81.35071 106.325335 
L 82.568165 107.869315 
L 84.69871 110.759949 
L 85.611801 111.673569 
L 86.524892 112.213544 
L 87.133619 112.328371 
L 87.742347 112.235656 
L 88.351074 111.935686 
L 88.959801 111.435544 
L 89.872892 110.347113 
L 91.090347 108.416205 
L 94.438347 102.698169 
L 95.351438 101.671826 
L 95.960165 101.225638 
L 96.568892 100.991097 
L 97.177619 100.976979 
L 97.786347 101.18602 
L 98.395074 101.614763 
L 99.308165 102.640833 
L 100.221256 104.054807 
L 101.43871 106.36612 
L 104.78671 113.019415 
L 106.004165 114.772263 
L 106.917256 115.693482 
L 107.830347 116.259806 
L 108.743437 116.492705 
L 109.656528 116.445969 
L 110.873983 116.081945 
L 113.308892 115.178795 
L 114.221983 115.072174 
L 115.135074 115.212039 
L 116.048165 115.642098 
L 116.961256 116.379245 
L 117.874347 117.411189 
L 119.091801 119.171521 
L 121.222347 122.834735 
L 123.048528 125.829534 
L 124.265983 127.391375 
L 125.179074 128.230007 
L 126.092165 128.741649 
L 127.005256 128.919926 
L 127.918347 128.78733 
L 128.831437 128.38204 
L 130.048892 127.518517 
L 134.614347 123.803833 
L 135.831801 123.319503 
L 137.049256 123.150401 
L 138.26671 123.245828 
L 142.527801 123.919913 
L 143.440892 123.74788 
L 144.353983 123.365786 
L 145.267074 122.755889 
L 146.180165 121.916325 
L 147.397619 120.478512 
L 148.919438 118.3051 
L 152.571801 112.844716 
L 153.789256 111.400776 
L 155.00671 110.280388 
L 156.224165 109.502338 
L 157.441619 109.035659 
L 158.659074 108.802977 
L 161.093983 108.652524 
L 162.920165 108.429404 
L 164.441983 107.993121 
L 165.963801 107.301397 
L 171.137983 104.615871 
L 172.355437 104.409343 
L 173.268528 104.454295 
L 174.181619 104.68077 
L 175.399074 105.263316 
L 176.616528 106.130037 
L 178.138347 107.509556 
L 183.616892 112.813214 
L 185.443074 114.084596 
L 187.573619 115.256098 
L 190.921619 117.074659 
L 192.747801 118.370056 
L 194.573983 119.950058 
L 200.356892 125.289052 
L 201.87871 126.2122 
L 203.096165 126.6917 
L 204.313619 126.936124 
L 205.531074 126.968449 
L 207.052892 126.765484 
L 209.183437 126.199036 
L 218.314347 123.262841 
L 219.836165 122.46839 
L 221.357983 121.444105 
L 223.184165 119.913293 
L 225.31471 117.794864 
L 230.184528 112.797038 
L 232.01071 111.263126 
L 233.836892 110.007678 
L 235.967438 108.847955 
L 238.70671 107.661071 
L 242.663437 106.204457 
L 245.098347 105.517085 
L 246.924528 105.240455 
L 248.446347 105.241351 
L 249.968165 105.486317 
L 251.489983 105.989162 
L 253.011801 106.730963 
L 254.837983 107.881052 
L 257.577256 109.934987 
L 275.53471 124.027895 
L 277.360892 125.118382 
L 279.187074 125.928085 
L 280.708892 126.371914 
L 282.23071 126.606392 
L 284.056892 126.640103 
L 285.883074 126.444178 
L 288.013619 125.982859 
L 290.144165 125.310562 
L 292.27471 124.432655 
L 294.405256 123.324055 
L 296.535801 121.962769 
L 298.666347 120.343643 
L 301.405619 117.967329 
L 308.101619 111.971124 
L 310.536528 110.136824 
L 312.971437 108.591609 
L 315.406347 107.319709 
L 317.536892 106.439846 
L 319.667438 105.789251 
L 321.493619 105.450318 
L 323.319801 105.341338 
L 325.145983 105.490709 
L 326.667801 105.821226 
L 328.493983 106.462427 
L 330.320165 107.348788 
L 332.45071 108.642392 
L 335.189983 110.605574 
L 338.842347 113.522647 
L 350.103801 122.696888 
L 352.53871 124.264999 
L 354.364892 125.206957 
L 356.191074 125.922635 
L 358.017256 126.393806 
L 359.843437 126.618916 
L 361.669619 126.604205 
L 363.495801 126.362013 
L 365.321983 125.904885 
L 367.148165 125.243826 
L 369.27871 124.228779 
L 371.409256 122.963926 
L 373.844165 121.24658 
L 376.583437 119.03365 
L 378.105256 117.719025 
L 378.105256 117.719025 
" clip-path="url(#pd27d956b9a)" style="fill: none; stroke: #d62728; stroke-width: 1.5; stroke-linecap: square"/>
   </g>
   <g id="patch_3">
    <path d="M 58.523438 224.64 
L 58.523438 7.2 
" style="fill: none; stroke: #000000; stroke-width: 0.8; stroke-linejoin: miter; stroke-linecap: square"/>
   </g>
   <g id="patch_4">
    <path d="M 393.323438 224.64 
L 393.323438 7.2 
" style="fill: none; stroke: #000000; stroke-width: 0.8; stroke-linejoin: miter; stroke-linecap: square"/>
   </g>
   <g id="patch_5">
    <path d="M 58.523438 224.64 
L 393.323437 224.64 
" style="fill: none; stroke: #000000; stroke-width: 0.8; stroke-linejoin: miter; stroke-linecap: square"/>
   </g>
   <g id="patch_6">
    <path d="M 58.523438 7.2 
L 393.323437 7.2 
" style="fill: none; stroke: #000000; stroke-width: 0.8; stroke-linejoin: miter; stroke-linecap: square"/>
   </g>
   <g id="legend_1">
    <g id="patch_7">
     <path d="M 65.523438 73.9125 
L 173.323438 73.9125 
Q 175.323438 73.9125 175.323438 71.9125 
L 175.323438 14.2 
Q 175.323438 12.2 173.323438 12.2 
L 65.523438 12.2 
Q 63.523438 12.2 63.523438 14.2 
L 63.523438 71.9125 
Q 63.523438 73.9125 65.523438 73.9125 
z
" style="fill: #ffffff; opacity: 0.8; stroke: #cccccc; stroke-linejoin: miter"/>
    </g>
    <g id="line2d_20">
     <path d="M 67.523438 20.298437 
L 77.523438 20.298437 
L 87.523438 20.298437 
" style="fill: none; stroke: #1f77b4; stroke-width: 1.5; stroke-linecap: square"/>
    </g>
    <g id="text_18">
     <!-- $x(t): \omega_d = 0.50$  -->
     <g transform="translate(95.523438 23.798437)scale(0.1 -0.1)">
      <defs>
       <path id="DejaVuSans-Oblique-78" d="M 3841 3500 
L 2234 1784 
L 3219 0 
L 2559 0 
L 1819 1388 
L 531 0 
L -166 0 
L 1556 1844 
L 641 3500 
L 1300 3500 
L 1972 2234 
L 3144 3500 
L 3841 3500 
z
" transform="scale(0.015625)"/>
       <path id="DejaVuSans-Oblique-74" d="M 2706 3500 
L 2619 3053 
L 1472 3053 
L 1100 1153 
Q 1081 1047 1072 975 
Q 1063 903 1063 863 
Q 1063 663 1183 572 
Q 1303 481 1569 481 
L 2150 481 
L 2053 0 
L 1503 0 
Q 991 0 739 200 
Q 488 400 488 806 
Q 488 878 497 964 
Q 506 1050 525 1153 
L 897 3053 
L 409 3053 
L 500 3500 
L 978 3500 
L 1172 4494 
L 1747 4494 
L 1556 3500 
L 2706 3500 
z
" transform="scale(0.015625)"/>
       <path id="DejaVuSans-3a" d="M 750 794 
L 1409 794 
L 1409 0 
L 750 0 
L 750 794 
z
M 750 3309 
L 1409 3309 
L 1409 2516 
L 750 2516 
L 750 3309 
z
" transform="scale(0.015625)"/>
       <path id="DejaVuSans-Oblique-3c9" d="M 1369 -91 
Q 72 -91 434 1766 
Q 575 2500 1256 3500 
L 1875 3500 
Q 1231 2500 1088 1750 
Q 819 397 1519 397 
Q 2166 397 2478 2078 
L 3009 2078 
Q 2669 388 3316 397 
Q 4013 403 4275 1750 
Q 4419 2500 4169 3500 
L 4788 3500 
Q 5075 2500 4934 1766 
Q 4578 -94 3278 -91 
Q 2428 -88 2503 844 
Q 2194 -91 1369 -91 
z
" transform="scale(0.015625)"/>
       <path id="DejaVuSans-Oblique-64" d="M 2675 525 
Q 2444 222 2128 65 
Q 1813 -91 1428 -91 
Q 903 -91 598 267 
Q 294 625 294 1247 
Q 294 1766 478 2236 
Q 663 2706 1013 3078 
Q 1244 3325 1534 3454 
Q 1825 3584 2144 3584 
Q 2481 3584 2739 3421 
Q 2997 3259 3138 2956 
L 3513 4863 
L 4091 4863 
L 3144 0 
L 2566 0 
L 2675 525 
z
M 891 1350 
Q 891 897 1095 644 
Q 1300 391 1663 391 
Q 1931 391 2161 520 
Q 2391 650 2566 903 
Q 2750 1166 2856 1509 
Q 2963 1853 2963 2188 
Q 2963 2622 2758 2865 
Q 2553 3109 2194 3109 
Q 1922 3109 1687 2981 
Q 1453 2853 1288 2613 
Q 1106 2353 998 2009 
Q 891 1666 891 1350 
z
" transform="scale(0.015625)"/>
       <path id="DejaVuSans-3d" d="M 678 2906 
L 4684 2906 
L 4684 2381 
L 678 2381 
L 678 2906 
z
M 678 1631 
L 4684 1631 
L 4684 1100 
L 678 1100 
L 678 1631 
z
" transform="scale(0.015625)"/>
      </defs>
      <use xlink:href="#DejaVuSans-Oblique-78" transform="translate(0 0.125)"/>
      <use xlink:href="#DejaVuSans-28" transform="translate(59.179688 0.125)"/>
      <use xlink:href="#DejaVuSans-Oblique-74" transform="translate(98.193359 0.125)"/>
      <use xlink:href="#DejaVuSans-29" transform="translate(137.402344 0.125)"/>
      <use xlink:href="#DejaVuSans-3a" transform="translate(195.898438 0.125)"/>
      <use xlink:href="#DejaVuSans-Oblique-3c9" transform="translate(249.072266 0.125)"/>
      <use xlink:href="#DejaVuSans-Oblique-64" transform="translate(332.8125 -16.28125)scale(0.7)"/>
      <use xlink:href="#DejaVuSans-3d" transform="translate(399.462891 0.125)"/>
      <use xlink:href="#DejaVuSans-30" transform="translate(502.734375 0.125)"/>
      <use xlink:href="#DejaVuSans-2e" transform="translate(566.357422 0.125)"/>
      <use xlink:href="#DejaVuSans-35" transform="translate(598.144531 0.125)"/>
      <use xlink:href="#DejaVuSans-30" transform="translate(661.767578 0.125)"/>
      <use xlink:href="#DejaVuSans-20" transform="translate(725.390625 0.125)"/>
     </g>
    </g>
    <g id="line2d_21">
     <path d="M 67.523438 34.976562 
L 77.523438 34.976562 
L 87.523438 34.976562 
" style="fill: none; stroke: #ff7f0e; stroke-width: 1.5; stroke-linecap: square"/>
    </g>
    <g id="text_19">
     <!-- $x(t): \omega_d = 0.75$  -->
     <g transform="translate(95.523438 38.476562)scale(0.1 -0.1)">
      <use xlink:href="#DejaVuSans-Oblique-78" transform="translate(0 0.125)"/>
      <use xlink:href="#DejaVuSans-28" transform="translate(59.179688 0.125)"/>
      <use xlink:href="#DejaVuSans-Oblique-74" transform="translate(98.193359 0.125)"/>
      <use xlink:href="#DejaVuSans-29" transform="translate(137.402344 0.125)"/>
      <use xlink:href="#DejaVuSans-3a" transform="translate(195.898438 0.125)"/>
      <use xlink:href="#DejaVuSans-Oblique-3c9" transform="translate(249.072266 0.125)"/>
      <use xlink:href="#DejaVuSans-Oblique-64" transform="translate(332.8125 -16.28125)scale(0.7)"/>
      <use xlink:href="#DejaVuSans-3d" transform="translate(399.462891 0.125)"/>
      <use xlink:href="#DejaVuSans-30" transform="translate(502.734375 0.125)"/>
      <use xlink:href="#DejaVuSans-2e" transform="translate(566.357422 0.125)"/>
      <use xlink:href="#DejaVuSans-37" transform="translate(590.394531 0.125)"/>
      <use xlink:href="#DejaVuSans-35" transform="translate(654.017578 0.125)"/>
      <use xlink:href="#DejaVuSans-20" transform="translate(717.640625 0.125)"/>
     </g>
    </g>
    <g id="line2d_22">
     <path d="M 67.523438 49.654687 
L 77.523438 49.654687 
L 87.523438 49.654687 
" style="fill: none; stroke: #2ca02c; stroke-width: 1.5; stroke-linecap: square"/>
    </g>
    <g id="text_20">
     <!-- $x(t): \omega_d = 1.00$  -->
     <g transform="translate(95.523438 53.154687)scale(0.1 -0.1)">
      <use xlink:href="#DejaVuSans-Oblique-78" transform="translate(0 0.125)"/>
      <use xlink:href="#DejaVuSans-28" transform="translate(59.179688 0.125)"/>
      <use xlink:href="#DejaVuSans-Oblique-74" transform="translate(98.193359 0.125)"/>
      <use xlink:href="#DejaVuSans-29" transform="translate(137.402344 0.125)"/>
      <use xlink:href="#DejaVuSans-3a" transform="translate(195.898438 0.125)"/>
      <use xlink:href="#DejaVuSans-Oblique-3c9" transform="translate(249.072266 0.125)"/>
      <use xlink:href="#DejaVuSans-Oblique-64" transform="translate(332.8125 -16.28125)scale(0.7)"/>
      <use xlink:href="#DejaVuSans-3d" transform="translate(399.462891 0.125)"/>
      <use xlink:href="#DejaVuSans-31" transform="translate(502.734375 0.125)"/>
      <use xlink:href="#DejaVuSans-2e" transform="translate(566.357422 0.125)"/>
      <use xlink:href="#DejaVuSans-30" transform="translate(598.144531 0.125)"/>
      <use xlink:href="#DejaVuSans-30" transform="translate(661.767578 0.125)"/>
      <use xlink:href="#DejaVuSans-20" transform="translate(725.390625 0.125)"/>
     </g>
    </g>
    <g id="line2d_23">
     <path d="M 67.523438 64.332812 
L 77.523438 64.332812 
L 87.523438 64.332812 
" style="fill: none; stroke: #d62728; stroke-width: 1.5; stroke-linecap: square"/>
    </g>
    <g id="text_21">
     <!-- $x(t): \omega_d = 0.25$  -->
     <g transform="translate(95.523438 67.832812)scale(0.1 -0.1)">
      <use xlink:href="#DejaVuSans-Oblique-78" transform="translate(0 0.125)"/>
      <use xlink:href="#DejaVuSans-28" transform="translate(59.179688 0.125)"/>
      <use xlink:href="#DejaVuSans-Oblique-74" transform="translate(98.193359 0.125)"/>
      <use xlink:href="#DejaVuSans-29" transform="translate(137.402344 0.125)"/>
      <use xlink:href="#DejaVuSans-3a" transform="translate(195.898438 0.125)"/>
      <use xlink:href="#DejaVuSans-Oblique-3c9" transform="translate(249.072266 0.125)"/>
      <use xlink:href="#DejaVuSans-Oblique-64" transform="translate(332.8125 -16.28125)scale(0.7)"/>
      <use xlink:href="#DejaVuSans-3d" transform="translate(399.462891 0.125)"/>
      <use xlink:href="#DejaVuSans-30" transform="translate(502.734375 0.125)"/>
      <use xlink:href="#DejaVuSans-2e" transform="translate(566.357422 0.125)"/>
      <use xlink:href="#DejaVuSans-32" transform="translate(592.644531 0.125)"/>
      <use xlink:href="#DejaVuSans-35" transform="translate(656.267578 0.125)"/>
      <use xlink:href="#DejaVuSans-20" transform="translate(719.890625 0.125)"/>
     </g>
    </g>
   </g>
  </g>
 </g>
 <defs>
  <clipPath id="pd27d956b9a">
   <rect x="58.523438" y="7.2" width="334.8" height="217.44"/>
  </clipPath>
 </defs>
</svg>
