<?xml version="1.0" encoding="utf-8" standalone="no"?>
<!DOCTYPE svg PUBLIC "-//W3C//DTD SVG 1.1//EN"
  "http://www.w3.org/Graphics/SVG/1.1/DTD/svg11.dtd">
<svg xmlns:xlink="http://www.w3.org/1999/xlink" width="735.323437pt" height="370.91625pt" viewBox="0 0 735.323437 370.91625" xmlns="http://www.w3.org/2000/svg" version="1.1">
 <metadata>
  <rdf:RDF xmlns:dc="http://purl.org/dc/elements/1.1/" xmlns:cc="http://creativecommons.org/ns#" xmlns:rdf="http://www.w3.org/1999/02/22-rdf-syntax-ns#">
   <cc:Work>
    <dc:type rdf:resource="http://purl.org/dc/dcmitype/StillImage"/>
    <dc:date>2024-09-29T15:08:27.744483</dc:date>
    <dc:format>image/svg+xml</dc:format>
    <dc:creator>
     <cc:Agent>
      <dc:title>Matplotlib v3.5.2, https://matplotlib.org/</dc:title>
     </cc:Agent>
    </dc:creator>
   </cc:Work>
  </rdf:RDF>
 </metadata>
 <defs>
  <style type="text/css">*{stroke-linejoin: round; stroke-linecap: butt}</style>
 </defs>
 <g id="figure_1">
  <g id="patch_1">
   <path d="M 0 370.91625 
L 735.323437 370.91625 
L 735.323437 0 
L 0 0 
z
" style="fill: #ffffff"/>
  </g>
  <g id="axes_1">
   <g id="patch_2">
    <path d="M 58.523438 333.36 
L 362.887074 333.36 
L 362.887074 7.2 
L 58.523438 7.2 
z
" style="fill: #ffffff"/>
   </g>
   <g id="matplotlib.axis_1">
    <g id="xtick_1">
     <g id="line2d_1">
      <defs>
       <path id="m3cf40d89d7" d="M 0 0 
L 0 3.5 
" style="stroke: #000000; stroke-width: 0.8"/>
      </defs>
      <g>
       <use xlink:href="#m3cf40d89d7" x="72.358148" y="333.36" style="stroke: #000000; stroke-width: 0.8"/>
      </g>
     </g>
     <g id="text_1">
      <!-- 0 -->
      <g transform="translate(69.176898 347.958438)scale(0.1 -0.1)">
       <defs>
        <path id="DejaVuSans-30" d="M 2034 4250 
Q 1547 4250 1301 3770 
Q 1056 3291 1056 2328 
Q 1056 1369 1301 889 
Q 1547 409 2034 409 
Q 2525 409 2770 889 
Q 3016 1369 3016 2328 
Q 3016 3291 2770 3770 
Q 2525 4250 2034 4250 
z
M 2034 4750 
Q 2819 4750 3233 4129 
Q 3647 3509 3647 2328 
Q 3647 1150 3233 529 
Q 2819 -91 2034 -91 
Q 1250 -91 836 529 
Q 422 1150 422 2328 
Q 422 3509 836 4129 
Q 1250 4750 2034 4750 
z
" transform="scale(0.015625)"/>
       </defs>
       <use xlink:href="#DejaVuSans-30"/>
      </g>
     </g>
    </g>
    <g id="xtick_2">
     <g id="line2d_2">
      <g>
       <use xlink:href="#m3cf40d89d7" x="111.885893" y="333.36" style="stroke: #000000; stroke-width: 0.8"/>
      </g>
     </g>
     <g id="text_2">
      <!-- 20 -->
      <g transform="translate(105.523393 347.958438)scale(0.1 -0.1)">
       <defs>
        <path id="DejaVuSans-32" d="M 1228 531 
L 3431 531 
L 3431 0 
L 469 0 
L 469 531 
Q 828 903 1448 1529 
Q 2069 2156 2228 2338 
Q 2531 2678 2651 2914 
Q 2772 3150 2772 3378 
Q 2772 3750 2511 3984 
Q 2250 4219 1831 4219 
Q 1534 4219 1204 4116 
Q 875 4013 500 3803 
L 500 4441 
Q 881 4594 1212 4672 
Q 1544 4750 1819 4750 
Q 2544 4750 2975 4387 
Q 3406 4025 3406 3419 
Q 3406 3131 3298 2873 
Q 3191 2616 2906 2266 
Q 2828 2175 2409 1742 
Q 1991 1309 1228 531 
z
" transform="scale(0.015625)"/>
       </defs>
       <use xlink:href="#DejaVuSans-32"/>
       <use xlink:href="#DejaVuSans-30" x="63.623047"/>
      </g>
     </g>
    </g>
    <g id="xtick_3">
     <g id="line2d_3">
      <g>
       <use xlink:href="#m3cf40d89d7" x="151.413638" y="333.36" style="stroke: #000000; stroke-width: 0.8"/>
      </g>
     </g>
     <g id="text_3">
      <!-- 40 -->
      <g transform="translate(145.051138 347.958438)scale(0.1 -0.1)">
       <defs>
        <path id="DejaVuSans-34" d="M 2419 4116 
L 825 1625 
L 2419 1625 
L 2419 4116 
z
M 2253 4666 
L 3047 4666 
L 3047 1625 
L 3713 1625 
L 3713 1100 
L 3047 1100 
L 3047 0 
L 2419 0 
L 2419 1100 
L 313 1100 
L 313 1709 
L 2253 4666 
z
" transform="scale(0.015625)"/>
       </defs>
       <use xlink:href="#DejaVuSans-34"/>
       <use xlink:href="#DejaVuSans-30" x="63.623047"/>
      </g>
     </g>
    </g>
    <g id="xtick_4">
     <g id="line2d_4">
      <g>
       <use xlink:href="#m3cf40d89d7" x="190.941383" y="333.36" style="stroke: #000000; stroke-width: 0.8"/>
      </g>
     </g>
     <g id="text_4">
      <!-- 60 -->
      <g transform="translate(184.578883 347.958438)scale(0.1 -0.1)">
       <defs>
        <path id="DejaVuSans-36" d="M 2113 2584 
Q 1688 2584 1439 2293 
Q 1191 2003 1191 1497 
Q 1191 994 1439 701 
Q 1688 409 2113 409 
Q 2538 409 2786 701 
Q 3034 994 3034 1497 
Q 3034 2003 2786 2293 
Q 2538 2584 2113 2584 
z
M 3366 4563 
L 3366 3988 
Q 3128 4100 2886 4159 
Q 2644 4219 2406 4219 
Q 1781 4219 1451 3797 
Q 1122 3375 1075 2522 
Q 1259 2794 1537 2939 
Q 1816 3084 2150 3084 
Q 2853 3084 3261 2657 
Q 3669 2231 3669 1497 
Q 3669 778 3244 343 
Q 2819 -91 2113 -91 
Q 1303 -91 875 529 
Q 447 1150 447 2328 
Q 447 3434 972 4092 
Q 1497 4750 2381 4750 
Q 2619 4750 2861 4703 
Q 3103 4656 3366 4563 
z
" transform="scale(0.015625)"/>
       </defs>
       <use xlink:href="#DejaVuSans-36"/>
       <use xlink:href="#DejaVuSans-30" x="63.623047"/>
      </g>
     </g>
    </g>
    <g id="xtick_5">
     <g id="line2d_5">
      <g>
       <use xlink:href="#m3cf40d89d7" x="230.469128" y="333.36" style="stroke: #000000; stroke-width: 0.8"/>
      </g>
     </g>
     <g id="text_5">
      <!-- 80 -->
      <g transform="translate(224.106628 347.958438)scale(0.1 -0.1)">
       <defs>
        <path id="DejaVuSans-38" d="M 2034 2216 
Q 1584 2216 1326 1975 
Q 1069 1734 1069 1313 
Q 1069 891 1326 650 
Q 1584 409 2034 409 
Q 2484 409 2743 651 
Q 3003 894 3003 1313 
Q 3003 1734 2745 1975 
Q 2488 2216 2034 2216 
z
M 1403 2484 
Q 997 2584 770 2862 
Q 544 3141 544 3541 
Q 544 4100 942 4425 
Q 1341 4750 2034 4750 
Q 2731 4750 3128 4425 
Q 3525 4100 3525 3541 
Q 3525 3141 3298 2862 
Q 3072 2584 2669 2484 
Q 3125 2378 3379 2068 
Q 3634 1759 3634 1313 
Q 3634 634 3220 271 
Q 2806 -91 2034 -91 
Q 1263 -91 848 271 
Q 434 634 434 1313 
Q 434 1759 690 2068 
Q 947 2378 1403 2484 
z
M 1172 3481 
Q 1172 3119 1398 2916 
Q 1625 2713 2034 2713 
Q 2441 2713 2670 2916 
Q 2900 3119 2900 3481 
Q 2900 3844 2670 4047 
Q 2441 4250 2034 4250 
Q 1625 4250 1398 4047 
Q 1172 3844 1172 3481 
z
" transform="scale(0.015625)"/>
       </defs>
       <use xlink:href="#DejaVuSans-38"/>
       <use xlink:href="#DejaVuSans-30" x="63.623047"/>
      </g>
     </g>
    </g>
    <g id="xtick_6">
     <g id="line2d_6">
      <g>
       <use xlink:href="#m3cf40d89d7" x="269.996873" y="333.36" style="stroke: #000000; stroke-width: 0.8"/>
      </g>
     </g>
     <g id="text_6">
      <!-- 100 -->
      <g transform="translate(260.453123 347.958438)scale(0.1 -0.1)">
       <defs>
        <path id="DejaVuSans-31" d="M 794 531 
L 1825 531 
L 1825 4091 
L 703 3866 
L 703 4441 
L 1819 4666 
L 2450 4666 
L 2450 531 
L 3481 531 
L 3481 0 
L 794 0 
L 794 531 
z
" transform="scale(0.015625)"/>
       </defs>
       <use xlink:href="#DejaVuSans-31"/>
       <use xlink:href="#DejaVuSans-30" x="63.623047"/>
       <use xlink:href="#DejaVuSans-30" x="127.246094"/>
      </g>
     </g>
    </g>
    <g id="xtick_7">
     <g id="line2d_7">
      <g>
       <use xlink:href="#m3cf40d89d7" x="309.524618" y="333.36" style="stroke: #000000; stroke-width: 0.8"/>
      </g>
     </g>
     <g id="text_7">
      <!-- 120 -->
      <g transform="translate(299.980868 347.958438)scale(0.1 -0.1)">
       <use xlink:href="#DejaVuSans-31"/>
       <use xlink:href="#DejaVuSans-32" x="63.623047"/>
       <use xlink:href="#DejaVuSans-30" x="127.246094"/>
      </g>
     </g>
    </g>
    <g id="xtick_8">
     <g id="line2d_8">
      <g>
       <use xlink:href="#m3cf40d89d7" x="349.052363" y="333.36" style="stroke: #000000; stroke-width: 0.8"/>
      </g>
     </g>
     <g id="text_8">
      <!-- 140 -->
      <g transform="translate(339.508613 347.958438)scale(0.1 -0.1)">
       <use xlink:href="#DejaVuSans-31"/>
       <use xlink:href="#DejaVuSans-34" x="63.623047"/>
       <use xlink:href="#DejaVuSans-30" x="127.246094"/>
      </g>
     </g>
    </g>
    <g id="text_9">
     <!-- Time (t) -->
     <g transform="translate(191.020881 361.636562)scale(0.1 -0.1)">
      <defs>
       <path id="DejaVuSans-54" d="M -19 4666 
L 3928 4666 
L 3928 4134 
L 2272 4134 
L 2272 0 
L 1638 0 
L 1638 4134 
L -19 4134 
L -19 4666 
z
" transform="scale(0.015625)"/>
       <path id="DejaVuSans-69" d="M 603 3500 
L 1178 3500 
L 1178 0 
L 603 0 
L 603 3500 
z
M 603 4863 
L 1178 4863 
L 1178 4134 
L 603 4134 
L 603 4863 
z
" transform="scale(0.015625)"/>
       <path id="DejaVuSans-6d" d="M 3328 2828 
Q 3544 3216 3844 3400 
Q 4144 3584 4550 3584 
Q 5097 3584 5394 3201 
Q 5691 2819 5691 2113 
L 5691 0 
L 5113 0 
L 5113 2094 
Q 5113 2597 4934 2840 
Q 4756 3084 4391 3084 
Q 3944 3084 3684 2787 
Q 3425 2491 3425 1978 
L 3425 0 
L 2847 0 
L 2847 2094 
Q 2847 2600 2669 2842 
Q 2491 3084 2119 3084 
Q 1678 3084 1418 2786 
Q 1159 2488 1159 1978 
L 1159 0 
L 581 0 
L 581 3500 
L 1159 3500 
L 1159 2956 
Q 1356 3278 1631 3431 
Q 1906 3584 2284 3584 
Q 2666 3584 2933 3390 
Q 3200 3197 3328 2828 
z
" transform="scale(0.015625)"/>
       <path id="DejaVuSans-65" d="M 3597 1894 
L 3597 1613 
L 953 1613 
Q 991 1019 1311 708 
Q 1631 397 2203 397 
Q 2534 397 2845 478 
Q 3156 559 3463 722 
L 3463 178 
Q 3153 47 2828 -22 
Q 2503 -91 2169 -91 
Q 1331 -91 842 396 
Q 353 884 353 1716 
Q 353 2575 817 3079 
Q 1281 3584 2069 3584 
Q 2775 3584 3186 3129 
Q 3597 2675 3597 1894 
z
M 3022 2063 
Q 3016 2534 2758 2815 
Q 2500 3097 2075 3097 
Q 1594 3097 1305 2825 
Q 1016 2553 972 2059 
L 3022 2063 
z
" transform="scale(0.015625)"/>
       <path id="DejaVuSans-20" transform="scale(0.015625)"/>
       <path id="DejaVuSans-28" d="M 1984 4856 
Q 1566 4138 1362 3434 
Q 1159 2731 1159 2009 
Q 1159 1288 1364 580 
Q 1569 -128 1984 -844 
L 1484 -844 
Q 1016 -109 783 600 
Q 550 1309 550 2009 
Q 550 2706 781 3412 
Q 1013 4119 1484 4856 
L 1984 4856 
z
" transform="scale(0.015625)"/>
       <path id="DejaVuSans-74" d="M 1172 4494 
L 1172 3500 
L 2356 3500 
L 2356 3053 
L 1172 3053 
L 1172 1153 
Q 1172 725 1289 603 
Q 1406 481 1766 481 
L 2356 481 
L 2356 0 
L 1766 0 
Q 1100 0 847 248 
Q 594 497 594 1153 
L 594 3053 
L 172 3053 
L 172 3500 
L 594 3500 
L 594 4494 
L 1172 4494 
z
" transform="scale(0.015625)"/>
       <path id="DejaVuSans-29" d="M 513 4856 
L 1013 4856 
Q 1481 4119 1714 3412 
Q 1947 2706 1947 2009 
Q 1947 1309 1714 600 
Q 1481 -109 1013 -844 
L 513 -844 
Q 928 -128 1133 580 
Q 1338 1288 1338 2009 
Q 1338 2731 1133 3434 
Q 928 4138 513 4856 
z
" transform="scale(0.015625)"/>
      </defs>
      <use xlink:href="#DejaVuSans-54"/>
      <use xlink:href="#DejaVuSans-69" x="57.958984"/>
      <use xlink:href="#DejaVuSans-6d" x="85.742188"/>
      <use xlink:href="#DejaVuSans-65" x="183.154297"/>
      <use xlink:href="#DejaVuSans-20" x="244.677734"/>
      <use xlink:href="#DejaVuSans-28" x="276.464844"/>
      <use xlink:href="#DejaVuSans-74" x="315.478516"/>
      <use xlink:href="#DejaVuSans-29" x="354.6875"/>
     </g>
    </g>
   </g>
   <g id="matplotlib.axis_2">
    <g id="ytick_1">
     <g id="line2d_9">
      <defs>
       <path id="md98718f4a4" d="M 0 0 
L -3.5 0 
" style="stroke: #000000; stroke-width: 0.8"/>
      </defs>
      <g>
       <use xlink:href="#md98718f4a4" x="58.523438" y="301.241759" style="stroke: #000000; stroke-width: 0.8"/>
      </g>
     </g>
     <g id="text_10">
      <!-- −0.75 -->
      <g transform="translate(20.878125 305.040978)scale(0.1 -0.1)">
       <defs>
        <path id="DejaVuSans-2212" d="M 678 2272 
L 4684 2272 
L 4684 1741 
L 678 1741 
L 678 2272 
z
" transform="scale(0.015625)"/>
        <path id="DejaVuSans-2e" d="M 684 794 
L 1344 794 
L 1344 0 
L 684 0 
L 684 794 
z
" transform="scale(0.015625)"/>
        <path id="DejaVuSans-37" d="M 525 4666 
L 3525 4666 
L 3525 4397 
L 1831 0 
L 1172 0 
L 2766 4134 
L 525 4134 
L 525 4666 
z
" transform="scale(0.015625)"/>
        <path id="DejaVuSans-35" d="M 691 4666 
L 3169 4666 
L 3169 4134 
L 1269 4134 
L 1269 2991 
Q 1406 3038 1543 3061 
Q 1681 3084 1819 3084 
Q 2600 3084 3056 2656 
Q 3513 2228 3513 1497 
Q 3513 744 3044 326 
Q 2575 -91 1722 -91 
Q 1428 -91 1123 -41 
Q 819 9 494 109 
L 494 744 
Q 775 591 1075 516 
Q 1375 441 1709 441 
Q 2250 441 2565 725 
Q 2881 1009 2881 1497 
Q 2881 1984 2565 2268 
Q 2250 2553 1709 2553 
Q 1456 2553 1204 2497 
Q 953 2441 691 2322 
L 691 4666 
z
" transform="scale(0.015625)"/>
       </defs>
       <use xlink:href="#DejaVuSans-2212"/>
       <use xlink:href="#DejaVuSans-30" x="83.789062"/>
       <use xlink:href="#DejaVuSans-2e" x="147.412109"/>
       <use xlink:href="#DejaVuSans-37" x="179.199219"/>
       <use xlink:href="#DejaVuSans-35" x="242.822266"/>
      </g>
     </g>
    </g>
    <g id="ytick_2">
     <g id="line2d_10">
      <g>
       <use xlink:href="#md98718f4a4" x="58.523438" y="261.353716" style="stroke: #000000; stroke-width: 0.8"/>
      </g>
     </g>
     <g id="text_11">
      <!-- −0.50 -->
      <g transform="translate(20.878125 265.152935)scale(0.1 -0.1)">
       <use xlink:href="#DejaVuSans-2212"/>
       <use xlink:href="#DejaVuSans-30" x="83.789062"/>
       <use xlink:href="#DejaVuSans-2e" x="147.412109"/>
       <use xlink:href="#DejaVuSans-35" x="179.199219"/>
       <use xlink:href="#DejaVuSans-30" x="242.822266"/>
      </g>
     </g>
    </g>
    <g id="ytick_3">
     <g id="line2d_11">
      <g>
       <use xlink:href="#md98718f4a4" x="58.523438" y="221.465672" style="stroke: #000000; stroke-width: 0.8"/>
      </g>
     </g>
     <g id="text_12">
      <!-- −0.25 -->
      <g transform="translate(20.878125 225.264891)scale(0.1 -0.1)">
       <use xlink:href="#DejaVuSans-2212"/>
       <use xlink:href="#DejaVuSans-30" x="83.789062"/>
       <use xlink:href="#DejaVuSans-2e" x="147.412109"/>
       <use xlink:href="#DejaVuSans-32" x="179.199219"/>
       <use xlink:href="#DejaVuSans-35" x="242.822266"/>
      </g>
     </g>
    </g>
    <g id="ytick_4">
     <g id="line2d_12">
      <g>
       <use xlink:href="#md98718f4a4" x="58.523438" y="181.577629" style="stroke: #000000; stroke-width: 0.8"/>
      </g>
     </g>
     <g id="text_13">
      <!-- 0.00 -->
      <g transform="translate(29.257812 185.376847)scale(0.1 -0.1)">
       <use xlink:href="#DejaVuSans-30"/>
       <use xlink:href="#DejaVuSans-2e" x="63.623047"/>
       <use xlink:href="#DejaVuSans-30" x="95.410156"/>
       <use xlink:href="#DejaVuSans-30" x="159.033203"/>
      </g>
     </g>
    </g>
    <g id="ytick_5">
     <g id="line2d_13">
      <g>
       <use xlink:href="#md98718f4a4" x="58.523438" y="141.689585" style="stroke: #000000; stroke-width: 0.8"/>
      </g>
     </g>
     <g id="text_14">
      <!-- 0.25 -->
      <g transform="translate(29.257812 145.488804)scale(0.1 -0.1)">
       <use xlink:href="#DejaVuSans-30"/>
       <use xlink:href="#DejaVuSans-2e" x="63.623047"/>
       <use xlink:href="#DejaVuSans-32" x="95.410156"/>
       <use xlink:href="#DejaVuSans-35" x="159.033203"/>
      </g>
     </g>
    </g>
    <g id="ytick_6">
     <g id="line2d_14">
      <g>
       <use xlink:href="#md98718f4a4" x="58.523438" y="101.801542" style="stroke: #000000; stroke-width: 0.8"/>
      </g>
     </g>
     <g id="text_15">
      <!-- 0.50 -->
      <g transform="translate(29.257812 105.60076)scale(0.1 -0.1)">
       <use xlink:href="#DejaVuSans-30"/>
       <use xlink:href="#DejaVuSans-2e" x="63.623047"/>
       <use xlink:href="#DejaVuSans-35" x="95.410156"/>
       <use xlink:href="#DejaVuSans-30" x="159.033203"/>
      </g>
     </g>
    </g>
    <g id="ytick_7">
     <g id="line2d_15">
      <g>
       <use xlink:href="#md98718f4a4" x="58.523438" y="61.913498" style="stroke: #000000; stroke-width: 0.8"/>
      </g>
     </g>
     <g id="text_16">
      <!-- 0.75 -->
      <g transform="translate(29.257812 65.712717)scale(0.1 -0.1)">
       <use xlink:href="#DejaVuSans-30"/>
       <use xlink:href="#DejaVuSans-2e" x="63.623047"/>
       <use xlink:href="#DejaVuSans-37" x="95.410156"/>
       <use xlink:href="#DejaVuSans-35" x="159.033203"/>
      </g>
     </g>
    </g>
    <g id="ytick_8">
     <g id="line2d_16">
      <g>
       <use xlink:href="#md98718f4a4" x="58.523438" y="22.025455" style="stroke: #000000; stroke-width: 0.8"/>
      </g>
     </g>
     <g id="text_17">
      <!-- 1.00 -->
      <g transform="translate(29.257812 25.824673)scale(0.1 -0.1)">
       <use xlink:href="#DejaVuSans-31"/>
       <use xlink:href="#DejaVuSans-2e" x="63.623047"/>
       <use xlink:href="#DejaVuSans-30" x="95.410156"/>
       <use xlink:href="#DejaVuSans-30" x="159.033203"/>
      </g>
     </g>
    </g>
    <g id="text_18">
     <!-- Displacement(x) -->
     <g transform="translate(14.798437 211.513594)rotate(-90)scale(0.1 -0.1)">
      <defs>
       <path id="DejaVuSans-44" d="M 1259 4147 
L 1259 519 
L 2022 519 
Q 2988 519 3436 956 
Q 3884 1394 3884 2338 
Q 3884 3275 3436 3711 
Q 2988 4147 2022 4147 
L 1259 4147 
z
M 628 4666 
L 1925 4666 
Q 3281 4666 3915 4102 
Q 4550 3538 4550 2338 
Q 4550 1131 3912 565 
Q 3275 0 1925 0 
L 628 0 
L 628 4666 
z
" transform="scale(0.015625)"/>
       <path id="DejaVuSans-73" d="M 2834 3397 
L 2834 2853 
Q 2591 2978 2328 3040 
Q 2066 3103 1784 3103 
Q 1356 3103 1142 2972 
Q 928 2841 928 2578 
Q 928 2378 1081 2264 
Q 1234 2150 1697 2047 
L 1894 2003 
Q 2506 1872 2764 1633 
Q 3022 1394 3022 966 
Q 3022 478 2636 193 
Q 2250 -91 1575 -91 
Q 1294 -91 989 -36 
Q 684 19 347 128 
L 347 722 
Q 666 556 975 473 
Q 1284 391 1588 391 
Q 1994 391 2212 530 
Q 2431 669 2431 922 
Q 2431 1156 2273 1281 
Q 2116 1406 1581 1522 
L 1381 1569 
Q 847 1681 609 1914 
Q 372 2147 372 2553 
Q 372 3047 722 3315 
Q 1072 3584 1716 3584 
Q 2034 3584 2315 3537 
Q 2597 3491 2834 3397 
z
" transform="scale(0.015625)"/>
       <path id="DejaVuSans-70" d="M 1159 525 
L 1159 -1331 
L 581 -1331 
L 581 3500 
L 1159 3500 
L 1159 2969 
Q 1341 3281 1617 3432 
Q 1894 3584 2278 3584 
Q 2916 3584 3314 3078 
Q 3713 2572 3713 1747 
Q 3713 922 3314 415 
Q 2916 -91 2278 -91 
Q 1894 -91 1617 61 
Q 1341 213 1159 525 
z
M 3116 1747 
Q 3116 2381 2855 2742 
Q 2594 3103 2138 3103 
Q 1681 3103 1420 2742 
Q 1159 2381 1159 1747 
Q 1159 1113 1420 752 
Q 1681 391 2138 391 
Q 2594 391 2855 752 
Q 3116 1113 3116 1747 
z
" transform="scale(0.015625)"/>
       <path id="DejaVuSans-6c" d="M 603 4863 
L 1178 4863 
L 1178 0 
L 603 0 
L 603 4863 
z
" transform="scale(0.015625)"/>
       <path id="DejaVuSans-61" d="M 2194 1759 
Q 1497 1759 1228 1600 
Q 959 1441 959 1056 
Q 959 750 1161 570 
Q 1363 391 1709 391 
Q 2188 391 2477 730 
Q 2766 1069 2766 1631 
L 2766 1759 
L 2194 1759 
z
M 3341 1997 
L 3341 0 
L 2766 0 
L 2766 531 
Q 2569 213 2275 61 
Q 1981 -91 1556 -91 
Q 1019 -91 701 211 
Q 384 513 384 1019 
Q 384 1609 779 1909 
Q 1175 2209 1959 2209 
L 2766 2209 
L 2766 2266 
Q 2766 2663 2505 2880 
Q 2244 3097 1772 3097 
Q 1472 3097 1187 3025 
Q 903 2953 641 2809 
L 641 3341 
Q 956 3463 1253 3523 
Q 1550 3584 1831 3584 
Q 2591 3584 2966 3190 
Q 3341 2797 3341 1997 
z
" transform="scale(0.015625)"/>
       <path id="DejaVuSans-63" d="M 3122 3366 
L 3122 2828 
Q 2878 2963 2633 3030 
Q 2388 3097 2138 3097 
Q 1578 3097 1268 2742 
Q 959 2388 959 1747 
Q 959 1106 1268 751 
Q 1578 397 2138 397 
Q 2388 397 2633 464 
Q 2878 531 3122 666 
L 3122 134 
Q 2881 22 2623 -34 
Q 2366 -91 2075 -91 
Q 1284 -91 818 406 
Q 353 903 353 1747 
Q 353 2603 823 3093 
Q 1294 3584 2113 3584 
Q 2378 3584 2631 3529 
Q 2884 3475 3122 3366 
z
" transform="scale(0.015625)"/>
       <path id="DejaVuSans-6e" d="M 3513 2113 
L 3513 0 
L 2938 0 
L 2938 2094 
Q 2938 2591 2744 2837 
Q 2550 3084 2163 3084 
Q 1697 3084 1428 2787 
Q 1159 2491 1159 1978 
L 1159 0 
L 581 0 
L 581 3500 
L 1159 3500 
L 1159 2956 
Q 1366 3272 1645 3428 
Q 1925 3584 2291 3584 
Q 2894 3584 3203 3211 
Q 3513 2838 3513 2113 
z
" transform="scale(0.015625)"/>
       <path id="DejaVuSans-78" d="M 3513 3500 
L 2247 1797 
L 3578 0 
L 2900 0 
L 1881 1375 
L 863 0 
L 184 0 
L 1544 1831 
L 300 3500 
L 978 3500 
L 1906 2253 
L 2834 3500 
L 3513 3500 
z
" transform="scale(0.015625)"/>
      </defs>
      <use xlink:href="#DejaVuSans-44"/>
      <use xlink:href="#DejaVuSans-69" x="77.001953"/>
      <use xlink:href="#DejaVuSans-73" x="104.785156"/>
      <use xlink:href="#DejaVuSans-70" x="156.884766"/>
      <use xlink:href="#DejaVuSans-6c" x="220.361328"/>
      <use xlink:href="#DejaVuSans-61" x="248.144531"/>
      <use xlink:href="#DejaVuSans-63" x="309.423828"/>
      <use xlink:href="#DejaVuSans-65" x="364.404297"/>
      <use xlink:href="#DejaVuSans-6d" x="425.927734"/>
      <use xlink:href="#DejaVuSans-65" x="523.339844"/>
      <use xlink:href="#DejaVuSans-6e" x="584.863281"/>
      <use xlink:href="#DejaVuSans-74" x="648.242188"/>
      <use xlink:href="#DejaVuSans-28" x="687.451172"/>
      <use xlink:href="#DejaVuSans-78" x="726.464844"/>
      <use xlink:href="#DejaVuSans-29" x="785.644531"/>
     </g>
    </g>
   </g>
   <g id="line2d_17">
    <path d="M 72.358148 181.577629 
L 73.464925 99.150898 
L 74.295008 55.326204 
L 74.848396 38.794727 
L 75.12509 34.811625 
L 75.401785 33.745291 
L 75.678479 35.558364 
L 75.955173 40.16349 
L 76.508561 57.234238 
L 77.06195 83.428713 
L 77.892033 134.679716 
L 79.828892 259.951727 
L 80.38228 284.857158 
L 80.935669 301.102247 
L 81.212363 305.648155 
L 81.489057 307.736848 
L 81.765752 307.356297 
L 82.042446 304.53306 
L 82.31914 299.345271 
L 82.872528 282.446786 
L 83.702611 244.116777 
L 86.469553 97.669694 
L 87.022942 81.982914 
L 87.299636 77.113782 
L 87.57633 74.339681 
L 87.853024 73.697509 
L 88.129718 75.175677 
L 88.406413 78.714112 
L 88.959801 91.49371 
L 89.51319 110.810112 
L 90.343272 148.380762 
L 92.280132 239.548834 
L 92.83352 257.500008 
L 93.386909 269.132989 
L 93.663603 272.315672 
L 93.940297 273.68191 
L 94.216991 273.238481 
L 94.493685 271.031668 
L 94.77038 267.125694 
L 95.323768 254.616813 
L 96.153851 226.390015 
L 98.644099 127.444312 
L 99.197487 113.482762 
L 99.750876 105.156723 
L 100.02757 103.262746 
L 100.304264 102.906402 
L 100.580958 104.082214 
L 100.857652 106.754052 
L 101.411041 116.281021 
L 101.964429 130.561346 
L 102.794512 158.107245 
L 104.454677 216.522286 
L 105.28476 237.383856 
L 105.838148 245.670646 
L 106.114842 247.90825 
L 106.391537 248.822782 
L 106.668231 248.409509 
L 106.944925 246.693869 
L 107.498314 239.608094 
L 108.051702 228.284414 
L 108.881785 205.524091 
L 110.818644 147.99651 
L 111.372033 136.129447 
L 111.925421 128.069006 
L 112.202115 125.651897 
L 112.478809 124.361893 
L 112.755504 124.20517 
L 113.032198 125.161822 
L 113.308892 127.193767 
L 113.86228 134.265393 
L 114.415669 144.792777 
L 115.522446 172.383494 
L 116.905917 207.527388 
L 117.735999 222.601452 
L 118.289388 228.500533 
L 118.566082 230.049208 
L 118.842776 230.641257 
L 119.119471 230.275385 
L 119.396165 228.966339 
L 119.949553 223.677121 
L 120.502942 215.289197 
L 121.333024 198.585869 
L 123.269884 156.691172 
L 123.823272 148.135715 
L 124.376661 142.383472 
L 124.653355 140.675427 
L 124.930049 139.78546 
L 125.206743 139.723974 
L 125.483437 140.482605 
L 125.760132 142.034222 
L 126.31352 147.316693 
L 126.866909 155.073957 
L 127.973685 175.277327 
L 129.357157 200.848412 
L 130.187239 211.719922 
L 130.740628 215.937511 
L 131.017322 217.014549 
L 131.294016 217.384449 
L 131.57071 217.053096 
L 131.847404 216.041639 
L 132.400793 212.099935 
L 132.954181 205.915838 
L 133.784264 193.645201 
L 135.721123 163.154312 
L 136.274512 156.972532 
L 136.8279 152.860892 
L 137.104595 151.667026 
L 137.381289 151.067971 
L 137.657983 151.066221 
L 137.934677 151.656998 
L 138.211371 152.8236 
L 138.76476 156.755979 
L 139.318148 162.485919 
L 140.424925 177.279666 
L 141.808396 195.887159 
L 142.638479 203.721878 
L 143.191867 206.720446 
L 143.468561 207.473407 
L 143.745256 207.711398 
L 144.02195 207.43492 
L 144.298644 206.656137 
L 144.852033 203.698604 
L 145.405421 199.132796 
L 146.235504 190.136841 
L 148.172363 167.939531 
L 148.725752 163.484424 
L 149.27914 160.537003 
L 149.555834 159.696286 
L 149.832528 159.295188 
L 150.109223 159.334211 
L 150.385917 159.803677 
L 150.662611 160.686643 
L 151.215999 163.601586 
L 151.769388 167.822716 
L 152.876165 178.665117 
L 154.259636 192.19041 
L 155.089718 197.848267 
L 155.643107 199.977993 
L 155.919801 200.494331 
L 156.196495 200.638481 
L 156.47319 200.411829 
L 156.749884 199.821782 
L 157.303272 197.618802 
L 157.856661 194.239507 
L 158.686743 187.640211 
L 160.623603 171.480947 
L 161.176991 168.271259 
L 161.73038 166.172064 
L 162.007074 165.580643 
L 162.283768 165.307879 
L 162.560462 165.356477 
L 162.837157 165.721923 
L 163.390545 167.349242 
L 163.943933 170.018993 
L 164.774016 175.459843 
L 166.710876 189.449739 
L 167.540958 193.526093 
L 168.094347 195.046466 
L 168.371041 195.403106 
L 168.647735 195.484486 
L 168.924429 195.293883 
L 169.201123 194.840859 
L 169.754512 193.201058 
L 170.3079 190.712244 
L 171.137983 185.86707 
L 173.074842 174.110569 
L 173.628231 171.792578 
L 174.181619 170.293882 
L 174.458314 169.88309 
L 174.735008 169.704491 
L 175.011702 169.757432 
L 175.288396 170.038684 
L 175.841785 171.251878 
L 176.395173 173.230174 
L 177.225256 177.227042 
L 179.162115 187.415668 
L 179.715504 189.536711 
L 180.268892 190.985927 
L 180.82228 191.676051 
L 181.098975 191.723263 
L 181.375669 191.571606 
L 181.652363 191.226354 
L 182.205752 189.998322 
L 182.75914 188.161214 
L 183.865917 183.310043 
L 185.249388 177.078586 
L 186.079471 174.386454 
L 186.632859 173.31418 
L 186.909553 173.025459 
L 187.186247 172.908065 
L 187.462942 172.961824 
L 187.739636 173.182593 
L 188.293024 174.091804 
L 188.846413 175.54992 
L 189.676495 178.485217 
L 191.613355 185.9028 
L 192.443437 188.02176 
L 192.996826 188.785874 
L 193.27352 188.952712 
L 193.550214 188.974477 
L 193.826909 188.853208 
L 194.380297 188.198974 
L 194.933685 187.051255 
L 195.763768 184.639694 
L 197.977322 177.492936 
L 198.53071 176.290942 
L 199.084099 175.529396 
L 199.637487 175.251045 
L 199.914181 175.297701 
L 200.46757 175.752511 
L 201.020958 176.644444 
L 201.851041 178.610681 
L 204.341289 185.376021 
L 204.894677 186.30706 
L 205.448066 186.851022 
L 206.001454 186.973865 
L 206.554842 186.676401 
L 207.108231 185.996987 
L 207.938314 184.403368 
L 210.705256 178.089016 
L 211.258644 177.37728 
L 211.812033 177.009525 
L 212.365421 177.003488 
L 212.918809 177.347159 
L 213.472198 178.00675 
L 214.30228 179.455032 
L 216.792528 184.38038 
L 217.345917 185.049922 
L 217.899305 185.433475 
L 218.452694 185.511766 
L 219.006082 185.285669 
L 219.559471 184.778955 
L 220.389553 183.604201 
L 223.156495 179.007597 
L 223.709884 178.498734 
L 224.263272 178.239109 
L 224.816661 178.243583 
L 225.370049 178.5057 
L 225.923437 178.995763 
L 226.75352 180.059166 
L 229.243768 183.644418 
L 230.073851 184.289926 
L 230.627239 184.45056 
L 231.180628 184.385188 
L 231.734016 184.107053 
L 232.564099 183.352054 
L 233.94757 181.581332 
L 235.054347 180.210177 
L 235.884429 179.480281 
L 236.437818 179.205324 
L 236.991206 179.120338 
L 237.544595 179.225448 
L 238.097983 179.5088 
L 238.928066 180.207144 
L 241.971702 183.293035 
L 242.801785 183.639654 
L 243.355173 183.668911 
L 243.908561 183.53604 
L 244.738644 183.068138 
L 245.845421 182.102557 
L 247.78228 180.360151 
L 248.612363 179.922745 
L 249.442446 179.784257 
L 250.272528 179.958315 
L 251.102611 180.399959 
L 252.486082 181.486153 
L 253.869553 182.540131 
L 254.699636 182.9499 
L 255.529718 183.108699 
L 256.359801 183.000081 
L 257.189884 182.654279 
L 258.573355 181.747325 
L 260.23352 180.67864 
L 261.063603 180.364349 
L 261.893685 180.270085 
L 262.723768 180.401531 
L 263.830545 180.87087 
L 266.874181 182.505081 
L 267.704264 182.679808 
L 268.534347 182.660407 
L 269.641123 182.35431 
L 271.301289 181.545527 
L 272.68476 180.913731 
L 273.791537 180.648287 
L 274.621619 180.639387 
L 275.728396 180.872452 
L 277.388561 181.548293 
L 279.048727 182.188346 
L 280.155504 182.383666 
L 281.26228 182.328094 
L 282.369057 182.053062 
L 285.966082 180.925869 
L 287.072859 180.894858 
L 288.179636 181.06795 
L 290.116495 181.652814 
L 291.776661 182.078886 
L 292.883438 182.172683 
L 294.266909 182.037625 
L 296.203768 181.548326 
L 298.140628 181.129601 
L 299.524099 181.080443 
L 300.90757 181.260683 
L 305.057983 182.007971 
L 306.441454 181.945196 
L 308.378314 181.607761 
L 310.591867 181.248732 
L 312.252033 181.230438 
L 314.188892 181.482048 
L 316.955834 181.86899 
L 318.615999 181.864975 
L 320.829553 181.596137 
L 323.319801 181.321321 
L 325.256661 181.361833 
L 331.067239 181.786138 
L 334.110876 181.502055 
L 336.601123 181.381278 
L 339.091371 181.531219 
L 342.411702 181.745557 
L 344.90195 181.647994 
L 349.052363 181.43458 
L 349.052363 181.43458 
" clip-path="url(#p333ad898d3)" style="fill: none; stroke: #1f77b4; stroke-width: 1.5; stroke-linecap: square"/>
   </g>
   <g id="line2d_18">
    <path d="M 72.358148 22.025455 
L 72.634842 25.790162 
L 72.911537 32.528783 
L 73.464925 54.191232 
L 74.295008 103.120044 
L 76.785256 275.426048 
L 77.338644 299.806283 
L 77.892033 314.464193 
L 78.168727 317.851756 
L 78.445421 318.534545 
L 78.722115 316.527918 
L 78.998809 311.908363 
L 79.552198 295.440482 
L 80.105586 270.724819 
L 80.935669 222.857321 
L 82.595834 121.157521 
L 83.425917 84.697119 
L 83.979305 70.139793 
L 84.255999 66.210408 
L 84.532694 64.590421 
L 84.809388 65.270693 
L 85.086082 68.189573 
L 85.639471 80.356126 
L 86.192859 99.977497 
L 87.022942 139.549684 
L 88.959801 239.718843 
L 89.51319 260.462284 
L 90.066578 274.545569 
L 90.343272 278.788928 
L 90.619966 281.090483 
L 90.896661 281.440773 
L 91.173355 279.851144 
L 91.450049 276.368362 
L 92.003437 264.109195 
L 92.556826 245.832289 
L 93.663603 197.917548 
L 95.047074 136.668504 
L 95.877157 110.369477 
L 96.430545 100.011056 
L 96.707239 97.254513 
L 96.983933 96.176553 
L 97.260628 96.782732 
L 97.537322 99.040596 
L 98.09071 108.191504 
L 98.644099 122.694591 
L 99.474181 151.707321 
L 101.411041 224.653323 
L 101.964429 239.608356 
L 102.517818 249.711234 
L 102.794512 252.711215 
L 103.071206 254.278284 
L 103.3479 254.405004 
L 103.624595 253.117154 
L 103.901289 250.467627 
L 104.454677 241.366908 
L 105.008066 227.906051 
L 106.114842 192.772762 
L 107.498314 148.237347 
L 108.328396 129.238292 
L 108.881785 121.86334 
L 109.158479 119.960259 
L 109.435173 119.27339 
L 109.711867 119.799855 
L 109.988561 121.519897 
L 110.54195 128.339387 
L 111.095338 139.083084 
L 111.925421 160.377824 
L 113.86228 213.492606 
L 114.415669 224.27568 
L 114.969057 231.479991 
L 115.245752 233.595551 
L 115.522446 234.673225 
L 115.79914 234.700134 
L 116.075834 233.687026 
L 116.352528 231.668269 
L 116.905917 224.868457 
L 117.459305 214.94751 
L 118.566082 189.228649 
L 119.949553 156.825463 
L 120.779636 143.127685 
L 121.333024 137.856604 
L 121.609718 136.532958 
L 121.886413 136.107979 
L 122.163107 136.573819 
L 122.439801 137.902457 
L 122.99319 142.986126 
L 123.546578 150.900471 
L 124.376661 166.542466 
L 126.31352 205.197777 
L 126.866909 212.988023 
L 127.420297 218.138933 
L 127.696991 219.61619 
L 127.973685 220.336454 
L 128.25038 220.299113 
L 128.527074 219.511762 
L 128.803768 217.995945 
L 129.357157 212.94114 
L 129.910545 205.61107 
L 131.017322 186.779029 
L 132.400793 163.203768 
L 133.230876 153.331382 
L 133.784264 149.588383 
L 134.060958 148.665297 
L 134.337652 148.395374 
L 134.614347 148.777823 
L 134.891041 149.797183 
L 135.444429 153.611441 
L 135.997818 159.455983 
L 136.8279 170.91968 
L 138.76476 199.059267 
L 139.318148 204.671446 
L 139.871537 208.361993 
L 140.148231 209.402205 
L 140.424925 209.883737 
L 140.701619 209.806276 
L 140.978314 209.182439 
L 141.255008 208.034995 
L 141.808396 204.28764 
L 142.361785 198.892172 
L 143.468561 185.089733 
L 144.852033 167.95403 
L 145.405421 162.817337 
L 145.958809 159.268348 
L 146.235504 158.16732 
L 146.512198 157.536213 
L 146.788892 157.378066 
L 147.065586 157.689694 
L 147.34228 158.461267 
L 147.895669 161.29836 
L 148.449057 165.623954 
L 149.27914 174.034614 
L 151.215999 194.51688 
L 151.769388 198.560404 
L 152.322776 201.187051 
L 152.599471 201.917365 
L 152.876165 202.243288 
L 153.152859 202.161612 
L 153.429553 201.678219 
L 153.982942 199.575273 
L 154.53633 196.154187 
L 155.366413 189.216779 
L 157.303272 171.475059 
L 157.856661 167.771042 
L 158.410049 165.225093 
L 158.686743 164.443655 
L 158.963437 164.008169 
L 159.240132 163.922246 
L 159.516826 164.181417 
L 159.79352 164.773224 
L 160.346909 166.885074 
L 160.900297 170.068989 
L 161.73038 176.24355 
L 163.390545 189.356207 
L 164.220628 194.064213 
L 164.774016 195.939587 
L 165.05071 196.446347 
L 165.327404 196.657887 
L 165.604099 196.57561 
L 165.880793 196.204112 
L 166.434181 194.637693 
L 166.98757 192.103887 
L 167.817652 187.007122 
L 169.754512 174.087559 
L 170.3079 171.413409 
L 170.861289 169.596493 
L 171.137983 169.046359 
L 171.414677 168.745613 
L 171.691371 168.698345 
L 171.968066 168.903291 
L 172.24476 169.353586 
L 172.798148 170.934782 
L 173.351537 173.285041 
L 174.458314 179.461763 
L 175.841785 187.359305 
L 176.671867 190.753053 
L 177.225256 192.094264 
L 177.50195 192.449986 
L 177.778644 192.588058 
L 178.055338 192.508979 
L 178.332033 192.218287 
L 178.885421 191.044956 
L 179.438809 189.177957 
L 180.268892 185.435359 
L 182.205752 176.02985 
L 182.75914 174.098565 
L 183.312528 172.795802 
L 183.865917 172.20676 
L 184.142611 172.188433 
L 184.419305 172.35149 
L 184.972694 173.198969 
L 185.526082 174.670486 
L 186.356165 177.747207 
L 188.569718 186.808871 
L 189.123107 188.322269 
L 189.676495 189.274348 
L 189.95319 189.521607 
L 190.229884 189.612018 
L 190.506578 189.544931 
L 190.783272 189.323065 
L 191.336661 188.442927 
L 191.890049 187.060574 
L 192.720132 184.316711 
L 194.656991 177.467292 
L 195.21038 176.076128 
L 195.763768 175.144455 
L 196.317157 174.731691 
L 196.593851 174.728543 
L 196.870545 174.859382 
L 197.423933 175.499911 
L 197.977322 176.587388 
L 198.807404 178.845745 
L 201.020958 185.442392 
L 201.574347 186.533516 
L 202.127735 187.213362 
L 202.681123 187.439338 
L 203.234512 187.21019 
L 203.7879 186.555989 
L 204.341289 185.535321 
L 205.171371 183.51928 
L 207.108231 178.534516 
L 207.938314 177.151662 
L 208.491702 176.674122 
L 209.04509 176.584457 
L 209.598479 176.880981 
L 210.151867 177.532742 
L 210.98195 179.03332 
L 213.748892 184.860795 
L 214.30228 185.499514 
L 214.855669 185.82102 
L 215.409057 185.806767 
L 215.962446 185.466084 
L 216.515834 184.837381 
L 217.345917 183.480239 
L 219.836165 178.935004 
L 220.389553 178.329586 
L 220.942942 177.990591 
L 221.49633 177.938037 
L 222.049718 178.165795 
L 222.603107 178.648442 
L 223.43319 179.75334 
L 226.200132 183.995416 
L 226.75352 184.453421 
L 227.306909 184.677089 
L 227.860297 184.65762 
L 228.413685 184.402322 
L 229.243768 183.635611 
L 230.350545 182.152661 
L 232.01071 179.910303 
L 232.840793 179.194751 
L 233.394181 178.955635 
L 233.94757 178.923688 
L 234.500958 179.097625 
L 235.331041 179.697647 
L 236.437818 180.928033 
L 238.097983 182.879648 
L 238.928066 183.541491 
L 239.481454 183.786379 
L 240.034842 183.854275 
L 240.588231 183.744457 
L 241.418314 183.282153 
L 242.52509 182.265998 
L 244.46195 180.344623 
L 245.292033 179.828975 
L 246.122115 179.633187 
L 246.952198 179.776116 
L 247.78228 180.219762 
L 248.889057 181.123274 
L 250.549223 182.542749 
L 251.379305 183.020197 
L 252.209388 183.231637 
L 253.039471 183.153855 
L 253.869553 182.809541 
L 254.97633 182.063638 
L 256.91319 180.665279 
L 257.743272 180.295283 
L 258.573355 180.15812 
L 259.403437 180.268807 
L 260.23352 180.598131 
L 261.616991 181.443672 
L 263.277157 182.426559 
L 264.107239 182.709707 
L 264.937322 182.788573 
L 265.767404 182.657271 
L 266.874181 182.215229 
L 269.917818 180.708022 
L 270.7479 180.553152 
L 271.577983 180.579619 
L 272.68476 180.870566 
L 274.344925 181.62442 
L 275.728396 182.204231 
L 276.835173 182.442219 
L 277.94195 182.410415 
L 279.048727 182.132411 
L 282.922446 180.851157 
L 284.029223 180.851304 
L 285.135999 181.068035 
L 289.286413 182.209923 
L 290.39319 182.182883 
L 291.776661 181.90514 
L 295.096991 181.071784 
L 296.480462 181.049502 
L 297.863933 181.268975 
L 301.460958 182.022916 
L 302.844429 182.017171 
L 304.504595 181.755617 
L 307.548231 181.206592 
L 308.931702 181.193765 
L 310.591867 181.403069 
L 313.912198 181.90391 
L 315.572363 181.876403 
L 317.785917 181.571556 
L 319.999471 181.305516 
L 321.659636 181.313812 
L 324.149884 181.603262 
L 326.640132 181.825031 
L 328.576991 181.752 
L 333.557487 181.36716 
L 336.047735 181.543418 
L 339.091371 181.758506 
L 341.304925 181.684072 
L 346.008727 181.424364 
L 349.052363 181.594824 
L 349.052363 181.594824 
" clip-path="url(#p333ad898d3)" style="fill: none; stroke: #ff7f0e; stroke-width: 1.5; stroke-linecap: square"/>
   </g>
   <g id="patch_3">
    <path d="M 58.523438 333.36 
L 58.523438 7.2 
" style="fill: none; stroke: #000000; stroke-width: 0.8; stroke-linejoin: miter; stroke-linecap: square"/>
   </g>
   <g id="patch_4">
    <path d="M 362.887074 333.36 
L 362.887074 7.2 
" style="fill: none; stroke: #000000; stroke-width: 0.8; stroke-linejoin: miter; stroke-linecap: square"/>
   </g>
   <g id="patch_5">
    <path d="M 58.523438 333.36 
L 362.887074 333.36 
" style="fill: none; stroke: #000000; stroke-width: 0.8; stroke-linejoin: miter; stroke-linecap: square"/>
   </g>
   <g id="patch_6">
    <path d="M 58.523438 7.2 
L 362.887074 7.2 
" style="fill: none; stroke: #000000; stroke-width: 0.8; stroke-linejoin: miter; stroke-linecap: square"/>
   </g>
   <g id="legend_1">
    <g id="patch_7">
     <path d="M 306.244886 44.55625 
L 355.887074 44.55625 
Q 357.887074 44.55625 357.887074 42.55625 
L 357.887074 14.2 
Q 357.887074 12.2 355.887074 12.2 
L 306.244886 12.2 
Q 304.244886 12.2 304.244886 14.2 
L 304.244886 42.55625 
Q 304.244886 44.55625 306.244886 44.55625 
z
" style="fill: #ffffff; opacity: 0.8; stroke: #cccccc; stroke-linejoin: miter"/>
    </g>
    <g id="line2d_19">
     <path d="M 308.244886 20.298437 
L 318.244886 20.298437 
L 328.244886 20.298437 
" style="fill: none; stroke: #1f77b4; stroke-width: 1.5; stroke-linecap: square"/>
    </g>
    <g id="text_19">
     <!-- x(t) -->
     <g transform="translate(336.244886 23.798437)scale(0.1 -0.1)">
      <use xlink:href="#DejaVuSans-78"/>
      <use xlink:href="#DejaVuSans-28" x="59.179688"/>
      <use xlink:href="#DejaVuSans-74" x="98.193359"/>
      <use xlink:href="#DejaVuSans-29" x="137.402344"/>
     </g>
    </g>
    <g id="line2d_20">
     <path d="M 308.244886 34.976562 
L 318.244886 34.976562 
L 328.244886 34.976562 
" style="fill: none; stroke: #ff7f0e; stroke-width: 1.5; stroke-linecap: square"/>
    </g>
    <g id="text_20">
     <!-- v(t) -->
     <g transform="translate(336.244886 38.476562)scale(0.1 -0.1)">
      <defs>
       <path id="DejaVuSans-76" d="M 191 3500 
L 800 3500 
L 1894 563 
L 2988 3500 
L 3597 3500 
L 2284 0 
L 1503 0 
L 191 3500 
z
" transform="scale(0.015625)"/>
      </defs>
      <use xlink:href="#DejaVuSans-76"/>
      <use xlink:href="#DejaVuSans-28" x="59.179688"/>
      <use xlink:href="#DejaVuSans-74" x="98.193359"/>
      <use xlink:href="#DejaVuSans-29" x="137.402344"/>
     </g>
    </g>
   </g>
  </g>
  <g id="axes_2">
   <g id="patch_8">
    <path d="M 423.759801 333.36 
L 728.123437 333.36 
L 728.123437 7.2 
L 423.759801 7.2 
z
" style="fill: #ffffff"/>
   </g>
   <g id="matplotlib.axis_3">
    <g id="xtick_9">
     <g id="line2d_21">
      <g>
       <use xlink:href="#m3cf40d89d7" x="453.731669" y="333.36" style="stroke: #000000; stroke-width: 0.8"/>
      </g>
     </g>
     <g id="text_21">
      <!-- −0.75 -->
      <g transform="translate(438.409013 347.958438)scale(0.1 -0.1)">
       <use xlink:href="#DejaVuSans-2212"/>
       <use xlink:href="#DejaVuSans-30" x="83.789062"/>
       <use xlink:href="#DejaVuSans-2e" x="147.412109"/>
       <use xlink:href="#DejaVuSans-37" x="179.199219"/>
       <use xlink:href="#DejaVuSans-35" x="242.822266"/>
      </g>
     </g>
    </g>
    <g id="xtick_10">
     <g id="line2d_22">
      <g>
       <use xlink:href="#m3cf40d89d7" x="490.954106" y="333.36" style="stroke: #000000; stroke-width: 0.8"/>
      </g>
     </g>
     <g id="text_22">
      <!-- −0.50 -->
      <g transform="translate(475.63145 347.958438)scale(0.1 -0.1)">
       <use xlink:href="#DejaVuSans-2212"/>
       <use xlink:href="#DejaVuSans-30" x="83.789062"/>
       <use xlink:href="#DejaVuSans-2e" x="147.412109"/>
       <use xlink:href="#DejaVuSans-35" x="179.199219"/>
       <use xlink:href="#DejaVuSans-30" x="242.822266"/>
      </g>
     </g>
    </g>
    <g id="xtick_11">
     <g id="line2d_23">
      <g>
       <use xlink:href="#m3cf40d89d7" x="528.176543" y="333.36" style="stroke: #000000; stroke-width: 0.8"/>
      </g>
     </g>
     <g id="text_23">
      <!-- −0.25 -->
      <g transform="translate(512.853887 347.958438)scale(0.1 -0.1)">
       <use xlink:href="#DejaVuSans-2212"/>
       <use xlink:href="#DejaVuSans-30" x="83.789062"/>
       <use xlink:href="#DejaVuSans-2e" x="147.412109"/>
       <use xlink:href="#DejaVuSans-32" x="179.199219"/>
       <use xlink:href="#DejaVuSans-35" x="242.822266"/>
      </g>
     </g>
    </g>
    <g id="xtick_12">
     <g id="line2d_24">
      <g>
       <use xlink:href="#m3cf40d89d7" x="565.39898" y="333.36" style="stroke: #000000; stroke-width: 0.8"/>
      </g>
     </g>
     <g id="text_24">
      <!-- 0.00 -->
      <g transform="translate(554.266167 347.958438)scale(0.1 -0.1)">
       <use xlink:href="#DejaVuSans-30"/>
       <use xlink:href="#DejaVuSans-2e" x="63.623047"/>
       <use xlink:href="#DejaVuSans-30" x="95.410156"/>
       <use xlink:href="#DejaVuSans-30" x="159.033203"/>
      </g>
     </g>
    </g>
    <g id="xtick_13">
     <g id="line2d_25">
      <g>
       <use xlink:href="#m3cf40d89d7" x="602.621416" y="333.36" style="stroke: #000000; stroke-width: 0.8"/>
      </g>
     </g>
     <g id="text_25">
      <!-- 0.25 -->
      <g transform="translate(591.488604 347.958438)scale(0.1 -0.1)">
       <use xlink:href="#DejaVuSans-30"/>
       <use xlink:href="#DejaVuSans-2e" x="63.623047"/>
       <use xlink:href="#DejaVuSans-32" x="95.410156"/>
       <use xlink:href="#DejaVuSans-35" x="159.033203"/>
      </g>
     </g>
    </g>
    <g id="xtick_14">
     <g id="line2d_26">
      <g>
       <use xlink:href="#m3cf40d89d7" x="639.843853" y="333.36" style="stroke: #000000; stroke-width: 0.8"/>
      </g>
     </g>
     <g id="text_26">
      <!-- 0.50 -->
      <g transform="translate(628.711041 347.958438)scale(0.1 -0.1)">
       <use xlink:href="#DejaVuSans-30"/>
       <use xlink:href="#DejaVuSans-2e" x="63.623047"/>
       <use xlink:href="#DejaVuSans-35" x="95.410156"/>
       <use xlink:href="#DejaVuSans-30" x="159.033203"/>
      </g>
     </g>
    </g>
    <g id="xtick_15">
     <g id="line2d_27">
      <g>
       <use xlink:href="#m3cf40d89d7" x="677.06629" y="333.36" style="stroke: #000000; stroke-width: 0.8"/>
      </g>
     </g>
     <g id="text_27">
      <!-- 0.75 -->
      <g transform="translate(665.933477 347.958438)scale(0.1 -0.1)">
       <use xlink:href="#DejaVuSans-30"/>
       <use xlink:href="#DejaVuSans-2e" x="63.623047"/>
       <use xlink:href="#DejaVuSans-37" x="95.410156"/>
       <use xlink:href="#DejaVuSans-35" x="159.033203"/>
      </g>
     </g>
    </g>
    <g id="xtick_16">
     <g id="line2d_28">
      <g>
       <use xlink:href="#m3cf40d89d7" x="714.288727" y="333.36" style="stroke: #000000; stroke-width: 0.8"/>
      </g>
     </g>
     <g id="text_28">
      <!-- 1.00 -->
      <g transform="translate(703.155914 347.958438)scale(0.1 -0.1)">
       <use xlink:href="#DejaVuSans-31"/>
       <use xlink:href="#DejaVuSans-2e" x="63.623047"/>
       <use xlink:href="#DejaVuSans-30" x="95.410156"/>
       <use xlink:href="#DejaVuSans-30" x="159.033203"/>
      </g>
     </g>
    </g>
    <g id="text_29">
     <!-- Displacement (x) -->
     <g transform="translate(533.118963 361.636562)scale(0.1 -0.1)">
      <use xlink:href="#DejaVuSans-44"/>
      <use xlink:href="#DejaVuSans-69" x="77.001953"/>
      <use xlink:href="#DejaVuSans-73" x="104.785156"/>
      <use xlink:href="#DejaVuSans-70" x="156.884766"/>
      <use xlink:href="#DejaVuSans-6c" x="220.361328"/>
      <use xlink:href="#DejaVuSans-61" x="248.144531"/>
      <use xlink:href="#DejaVuSans-63" x="309.423828"/>
      <use xlink:href="#DejaVuSans-65" x="364.404297"/>
      <use xlink:href="#DejaVuSans-6d" x="425.927734"/>
      <use xlink:href="#DejaVuSans-65" x="523.339844"/>
      <use xlink:href="#DejaVuSans-6e" x="584.863281"/>
      <use xlink:href="#DejaVuSans-74" x="648.242188"/>
      <use xlink:href="#DejaVuSans-20" x="687.451172"/>
      <use xlink:href="#DejaVuSans-28" x="719.238281"/>
      <use xlink:href="#DejaVuSans-78" x="758.251953"/>
      <use xlink:href="#DejaVuSans-29" x="817.431641"/>
     </g>
    </g>
   </g>
   <g id="matplotlib.axis_4">
    <g id="ytick_9">
     <g id="line2d_29">
      <g>
       <use xlink:href="#md98718f4a4" x="423.759801" y="329.282129" style="stroke: #000000; stroke-width: 0.8"/>
      </g>
     </g>
     <g id="text_30">
      <!-- −1.00 -->
      <g transform="translate(386.114489 333.081348)scale(0.1 -0.1)">
       <use xlink:href="#DejaVuSans-2212"/>
       <use xlink:href="#DejaVuSans-31" x="83.789062"/>
       <use xlink:href="#DejaVuSans-2e" x="147.412109"/>
       <use xlink:href="#DejaVuSans-30" x="179.199219"/>
       <use xlink:href="#DejaVuSans-30" x="242.822266"/>
      </g>
     </g>
    </g>
    <g id="ytick_10">
     <g id="line2d_30">
      <g>
       <use xlink:href="#md98718f4a4" x="423.759801" y="292.059693" style="stroke: #000000; stroke-width: 0.8"/>
      </g>
     </g>
     <g id="text_31">
      <!-- −0.75 -->
      <g transform="translate(386.114489 295.858911)scale(0.1 -0.1)">
       <use xlink:href="#DejaVuSans-2212"/>
       <use xlink:href="#DejaVuSans-30" x="83.789062"/>
       <use xlink:href="#DejaVuSans-2e" x="147.412109"/>
       <use xlink:href="#DejaVuSans-37" x="179.199219"/>
       <use xlink:href="#DejaVuSans-35" x="242.822266"/>
      </g>
     </g>
    </g>
    <g id="ytick_11">
     <g id="line2d_31">
      <g>
       <use xlink:href="#md98718f4a4" x="423.759801" y="254.837256" style="stroke: #000000; stroke-width: 0.8"/>
      </g>
     </g>
     <g id="text_32">
      <!-- −0.50 -->
      <g transform="translate(386.114489 258.636475)scale(0.1 -0.1)">
       <use xlink:href="#DejaVuSans-2212"/>
       <use xlink:href="#DejaVuSans-30" x="83.789062"/>
       <use xlink:href="#DejaVuSans-2e" x="147.412109"/>
       <use xlink:href="#DejaVuSans-35" x="179.199219"/>
       <use xlink:href="#DejaVuSans-30" x="242.822266"/>
      </g>
     </g>
    </g>
    <g id="ytick_12">
     <g id="line2d_32">
      <g>
       <use xlink:href="#md98718f4a4" x="423.759801" y="217.614819" style="stroke: #000000; stroke-width: 0.8"/>
      </g>
     </g>
     <g id="text_33">
      <!-- −0.25 -->
      <g transform="translate(386.114489 221.414038)scale(0.1 -0.1)">
       <use xlink:href="#DejaVuSans-2212"/>
       <use xlink:href="#DejaVuSans-30" x="83.789062"/>
       <use xlink:href="#DejaVuSans-2e" x="147.412109"/>
       <use xlink:href="#DejaVuSans-32" x="179.199219"/>
       <use xlink:href="#DejaVuSans-35" x="242.822266"/>
      </g>
     </g>
    </g>
    <g id="ytick_13">
     <g id="line2d_33">
      <g>
       <use xlink:href="#md98718f4a4" x="423.759801" y="180.392382" style="stroke: #000000; stroke-width: 0.8"/>
      </g>
     </g>
     <g id="text_34">
      <!-- 0.00 -->
      <g transform="translate(394.494176 184.191601)scale(0.1 -0.1)">
       <use xlink:href="#DejaVuSans-30"/>
       <use xlink:href="#DejaVuSans-2e" x="63.623047"/>
       <use xlink:href="#DejaVuSans-30" x="95.410156"/>
       <use xlink:href="#DejaVuSans-30" x="159.033203"/>
      </g>
     </g>
    </g>
    <g id="ytick_14">
     <g id="line2d_34">
      <g>
       <use xlink:href="#md98718f4a4" x="423.759801" y="143.169945" style="stroke: #000000; stroke-width: 0.8"/>
      </g>
     </g>
     <g id="text_35">
      <!-- 0.25 -->
      <g transform="translate(394.494176 146.969164)scale(0.1 -0.1)">
       <use xlink:href="#DejaVuSans-30"/>
       <use xlink:href="#DejaVuSans-2e" x="63.623047"/>
       <use xlink:href="#DejaVuSans-32" x="95.410156"/>
       <use xlink:href="#DejaVuSans-35" x="159.033203"/>
      </g>
     </g>
    </g>
    <g id="ytick_15">
     <g id="line2d_35">
      <g>
       <use xlink:href="#md98718f4a4" x="423.759801" y="105.947509" style="stroke: #000000; stroke-width: 0.8"/>
      </g>
     </g>
     <g id="text_36">
      <!-- 0.50 -->
      <g transform="translate(394.494176 109.746727)scale(0.1 -0.1)">
       <use xlink:href="#DejaVuSans-30"/>
       <use xlink:href="#DejaVuSans-2e" x="63.623047"/>
       <use xlink:href="#DejaVuSans-35" x="95.410156"/>
       <use xlink:href="#DejaVuSans-30" x="159.033203"/>
      </g>
     </g>
    </g>
    <g id="ytick_16">
     <g id="line2d_36">
      <g>
       <use xlink:href="#md98718f4a4" x="423.759801" y="68.725072" style="stroke: #000000; stroke-width: 0.8"/>
      </g>
     </g>
     <g id="text_37">
      <!-- 0.75 -->
      <g transform="translate(394.494176 72.524291)scale(0.1 -0.1)">
       <use xlink:href="#DejaVuSans-30"/>
       <use xlink:href="#DejaVuSans-2e" x="63.623047"/>
       <use xlink:href="#DejaVuSans-37" x="95.410156"/>
       <use xlink:href="#DejaVuSans-35" x="159.033203"/>
      </g>
     </g>
    </g>
    <g id="ytick_17">
     <g id="line2d_37">
      <g>
       <use xlink:href="#md98718f4a4" x="423.759801" y="31.502635" style="stroke: #000000; stroke-width: 0.8"/>
      </g>
     </g>
     <g id="text_38">
      <!-- 1.00 -->
      <g transform="translate(394.494176 35.301854)scale(0.1 -0.1)">
       <use xlink:href="#DejaVuSans-31"/>
       <use xlink:href="#DejaVuSans-2e" x="63.623047"/>
       <use xlink:href="#DejaVuSans-30" x="95.410156"/>
       <use xlink:href="#DejaVuSans-30" x="159.033203"/>
      </g>
     </g>
    </g>
    <g id="text_39">
     <!-- Velocity (v) -->
     <g transform="translate(380.034801 198.345625)rotate(-90)scale(0.1 -0.1)">
      <defs>
       <path id="DejaVuSans-56" d="M 1831 0 
L 50 4666 
L 709 4666 
L 2188 738 
L 3669 4666 
L 4325 4666 
L 2547 0 
L 1831 0 
z
" transform="scale(0.015625)"/>
       <path id="DejaVuSans-6f" d="M 1959 3097 
Q 1497 3097 1228 2736 
Q 959 2375 959 1747 
Q 959 1119 1226 758 
Q 1494 397 1959 397 
Q 2419 397 2687 759 
Q 2956 1122 2956 1747 
Q 2956 2369 2687 2733 
Q 2419 3097 1959 3097 
z
M 1959 3584 
Q 2709 3584 3137 3096 
Q 3566 2609 3566 1747 
Q 3566 888 3137 398 
Q 2709 -91 1959 -91 
Q 1206 -91 779 398 
Q 353 888 353 1747 
Q 353 2609 779 3096 
Q 1206 3584 1959 3584 
z
" transform="scale(0.015625)"/>
       <path id="DejaVuSans-79" d="M 2059 -325 
Q 1816 -950 1584 -1140 
Q 1353 -1331 966 -1331 
L 506 -1331 
L 506 -850 
L 844 -850 
Q 1081 -850 1212 -737 
Q 1344 -625 1503 -206 
L 1606 56 
L 191 3500 
L 800 3500 
L 1894 763 
L 2988 3500 
L 3597 3500 
L 2059 -325 
z
" transform="scale(0.015625)"/>
      </defs>
      <use xlink:href="#DejaVuSans-56"/>
      <use xlink:href="#DejaVuSans-65" x="60.658203"/>
      <use xlink:href="#DejaVuSans-6c" x="122.181641"/>
      <use xlink:href="#DejaVuSans-6f" x="149.964844"/>
      <use xlink:href="#DejaVuSans-63" x="211.146484"/>
      <use xlink:href="#DejaVuSans-69" x="266.126953"/>
      <use xlink:href="#DejaVuSans-74" x="293.910156"/>
      <use xlink:href="#DejaVuSans-79" x="333.119141"/>
      <use xlink:href="#DejaVuSans-20" x="392.298828"/>
      <use xlink:href="#DejaVuSans-28" x="424.085938"/>
      <use xlink:href="#DejaVuSans-76" x="463.099609"/>
      <use xlink:href="#DejaVuSans-29" x="522.279297"/>
     </g>
    </g>
   </g>
   <g id="line2d_38">
    <path d="M 714.288727 180.392382 
L 710.775604 159.760333 
L 704.487307 139.811996 
L 695.584037 120.931989 
L 684.272498 103.474 
L 670.805763 87.753901 
L 655.479224 74.045403 
L 638.613463 62.577989 
L 620.563205 53.562474 
L 601.69325 47.151264 
L 582.375703 43.434342 
L 562.989979 42.439267 
L 543.922802 44.131178 
L 525.535204 48.428557 
L 508.169776 55.22333 
L 492.166758 64.358514 
L 477.822189 75.633181 
L 465.387841 88.802485 
L 455.071217 103.577654 
L 447.035344 119.626768 
L 441.392854 136.628526 
L 438.231672 154.244131 
L 437.594512 172.117335 
L 439.467042 189.900572 
L 443.777885 207.254954 
L 450.398622 223.850278 
L 459.145263 239.366467 
L 469.824135 253.528958 
L 482.209247 266.074072 
L 496.039385 276.770028 
L 511.030936 285.433478 
L 526.877894 291.929503 
L 543.251853 296.171621 
L 559.826602 298.120733 
L 576.285946 297.765612 
L 592.298609 295.131044 
L 607.557744 290.289941 
L 621.78138 283.363406 
L 634.71242 274.520735 
L 646.118644 263.979412 
L 655.805235 251.977576 
L 663.609024 238.752214 
L 669.389735 224.579341 
L 673.056531 209.743709 
L 674.568258 194.53841 
L 673.933447 179.264878 
L 671.209628 164.231046 
L 666.480201 149.711865 
L 659.856131 135.989379 
L 651.484677 123.329329 
L 641.546002 111.963914 
L 630.253174 102.091781 
L 617.85217 93.878031 
L 604.618314 87.453304 
L 590.806269 82.909563 
L 576.694126 80.320848 
L 562.56355 79.72159 
L 548.6864 81.100976 
L 535.324728 84.402948 
L 522.730778 89.5262 
L 511.14318 96.328521 
L 500.763426 104.664284 
L 491.785966 114.354061 
L 484.372081 125.194089 
L 478.643827 136.96143 
L 474.68404 149.41397 
L 472.536292 162.29109 
L 472.209411 175.34509 
L 473.692809 188.317003 
L 476.942847 200.94864 
L 481.878781 212.999778 
L 488.382768 224.248169 
L 496.29986 234.489533 
L 505.438279 243.537721 
L 515.605887 251.241081 
L 526.598676 257.464262 
L 538.190491 262.096662 
L 550.151012 265.066655 
L 562.245747 266.341591 
L 574.236041 265.927795 
L 585.88424 263.868457 
L 596.980465 260.223508 
L 607.306953 255.079302 
L 616.667824 248.550561 
L 624.895055 240.779055 
L 631.848489 231.933606 
L 637.415826 222.210082 
L 641.514685 211.819595 
L 644.087017 200.960561 
L 645.09294 189.855711 
L 644.52727 178.724242 
L 642.420292 167.779564 
L 638.837765 157.229302 
L 633.880914 147.275292 
L 627.674995 138.103914 
L 620.347029 129.876644 
L 612.0541 122.749253 
L 602.967751 116.848106 
L 593.273138 112.269262 
L 583.169031 109.078473 
L 572.864216 107.311064 
L 562.552103 106.978534 
L 552.43997 108.07577 
L 542.725531 110.569056 
L 533.590764 114.394767 
L 525.201914 119.459365 
L 517.709492 125.639397 
L 511.246284 132.785376 
L 505.917274 140.75456 
L 501.818553 149.381502 
L 499.019052 158.490458 
L 497.556706 167.90075 
L 497.438454 177.426758 
L 498.640241 186.877923 
L 501.112708 196.070542 
L 504.795663 204.836348 
L 509.605251 213.001786 
L 515.437103 220.413644 
L 522.166557 226.939802 
L 529.648658 232.469235 
L 537.71816 236.912008 
L 546.206682 240.202242 
L 554.951986 242.290313 
L 563.775894 243.143729 
L 572.506324 242.758074 
L 580.97755 241.157085 
L 589.030192 238.392656 
L 596.511223 234.544834 
L 603.285864 229.706269 
L 609.232468 223.977884 
L 614.240624 217.482297 
L 618.224478 210.353842 
L 621.122729 202.738569 
L 622.898632 194.794241 
L 623.5396 186.682902 
L 623.048317 178.557894 
L 621.443221 170.583856 
L 618.765537 162.915308 
L 615.079458 155.695296 
L 610.472147 149.055396 
L 605.053733 143.115713 
L 598.950285 137.981375 
L 592.28022 133.736857 
L 585.18206 130.459591 
L 577.798631 128.204011 
L 570.27505 127.000215 
L 562.758731 126.853965 
L 555.399378 127.746687 
L 548.334975 129.642843 
L 541.697646 132.496298 
L 535.616791 136.241891 
L 530.204254 140.797844 
L 525.55432 146.065759 
L 521.743717 151.930625 
L 518.831453 158.261477 
L 516.85727 164.933419 
L 515.851614 171.812666 
L 515.826503 178.760733 
L 516.771908 185.643012 
L 518.655757 192.328772 
L 521.423932 198.691155 
L 525.001157 204.607991 
L 529.309913 209.97525 
L 534.259115 214.692954 
L 539.744881 218.674698 
L 545.655099 221.853051 
L 551.869419 224.179559 
L 558.259255 225.624741 
L 564.699538 226.177225 
L 571.065905 225.835803 
L 577.230922 224.614237 
L 583.077127 222.544841 
L 588.497027 219.678483 
L 593.393106 216.084579 
L 597.677819 211.8511 
L 601.27942 207.070819 
L 604.13646 201.838913 
L 606.19825 196.26401 
L 607.433441 190.457629 
L 607.830019 184.534178 
L 607.39531 178.610954 
L 606.155461 172.806896 
L 604.145361 167.227263 
L 601.41152 161.980992 
L 598.014179 157.169018 
L 594.026069 152.878995 
L 589.532406 149.185299 
L 584.630894 146.149026 
L 579.429384 143.817461 
L 574.026823 142.223561 
L 568.53261 141.393068 
L 563.055809 141.33569 
L 557.701351 142.043624 
L 552.570034 143.491551 
L 547.758525 145.636638 
L 543.3573 148.421009 
L 539.44254 151.786204 
L 536.087655 155.659877 
L 533.352355 159.961038 
L 531.280965 164.601573 
L 529.90243 169.486243 
L 529.230298 174.513112 
L 529.265145 179.586291 
L 529.999878 184.604942 
L 531.414398 189.469554 
L 533.474405 194.087963 
L 536.131404 198.375353 
L 539.322704 202.254258 
L 542.971626 205.654681 
L 547.002609 208.52035 
L 551.334583 210.800853 
L 555.878766 212.456089 
L 560.545174 213.461151 
L 565.242616 213.806333 
L 569.878698 213.497123 
L 574.361897 212.553259 
L 578.611716 211.000458 
L 582.544966 208.874968 
L 586.087336 206.223799 
L 589.175598 203.104137 
L 591.757608 199.583343 
L 593.792306 195.738951 
L 595.250473 191.653513 
L 596.111872 187.405019 
L 596.363757 183.080513 
L 596.006866 178.765077 
L 595.055627 174.541175 
L 593.538157 170.488655 
L 591.496265 166.684744 
L 588.98061 163.200244 
L 586.042297 160.09637 
L 582.744069 157.431576 
L 579.153896 155.252705 
L 575.344687 153.594705 
L 571.394294 152.480621 
L 567.383714 151.9216 
L 563.388021 151.919967 
L 559.487628 152.471264 
L 555.758453 153.559905 
L 552.270047 155.158828 
L 549.085591 157.229494 
L 546.261898 159.72189 
L 543.848458 162.576518 
L 541.884222 165.736958 
L 540.40454 169.137551 
L 539.433842 172.709315 
L 538.98449 176.38164 
L 539.056775 180.082294 
L 539.638922 183.737418 
L 540.709686 187.276453 
L 542.243789 190.634625 
L 544.206615 193.745647 
L 546.555843 196.551418 
L 549.241519 199.002235 
L 552.206056 201.056793 
L 555.384233 202.682181 
L 558.710711 203.854975 
L 562.121579 204.557618 
L 565.547557 204.779704 
L 568.922071 204.521703 
L 572.181286 203.794964 
L 575.264099 202.621718 
L 578.112151 201.035075 
L 580.674662 199.072354 
L 582.905573 196.774387 
L 584.76367 194.190095 
L 586.217394 191.372676 
L 587.244843 188.379607 
L 587.833774 185.272641 
L 587.981353 182.115008 
L 587.69055 178.966066 
L 586.970539 175.889512 
L 585.839173 172.944877 
L 584.323041 170.18693 
L 582.457468 167.665681 
L 580.286514 165.426376 
L 577.860403 163.508296 
L 575.226021 161.942657 
L 572.437915 160.757842 
L 569.552076 159.973308 
L 566.625035 159.599015 
L 563.713866 159.63543 
L 560.87619 160.073523 
L 558.165502 160.897483 
L 555.63179 162.087844 
L 553.324422 163.617628 
L 551.285756 165.453681 
L 549.551116 167.556672 
L 548.148793 169.881099 
L 547.1 172.375499 
L 546.418492 174.990726 
L 546.114349 177.674505 
L 546.190567 180.372853 
L 546.641656 183.0336 
L 547.453642 185.60639 
L 548.604068 188.042679 
L 550.062227 190.295941 
L 551.796532 192.326672 
L 553.770685 194.097386 
L 555.943358 195.575699 
L 558.270332 196.736731 
L 560.704501 197.563102 
L 563.19587 198.044934 
L 565.695379 198.179451 
L 568.155438 197.967945 
L 570.526732 197.41733 
L 572.764069 196.541546 
L 574.826423 195.361568 
L 576.676934 193.905407 
L 578.28291 192.208102 
L 579.617574 190.30725 
L 580.658721 188.240183 
L 581.387938 186.049819 
L 581.794321 183.779901 
L 581.874503 181.474955 
L 581.632651 179.180288 
L 581.080393 176.941824 
L 580.232983 174.80038 
L 579.109672 172.797029 
L 577.735115 170.970433 
L 576.138529 169.353871 
L 574.353691 167.97524 
L 572.418936 166.857054 
L 570.376596 166.016329 
L 568.26568 165.464431 
L 566.128627 165.209895 
L 564.007926 165.255244 
L 561.944158 165.596269 
L 559.976 166.222026 
L 558.140222 167.114839 
L 556.471228 168.250875 
L 554.997642 169.606178 
L 553.746839 171.151945 
L 552.741147 172.855931 
L 551.996791 174.683431 
L 551.523897 176.597282 
L 551.326493 178.55786 
L 551.403272 180.527079 
L 551.749943 182.466927 
L 552.357512 184.33863 
L 553.211683 186.106597 
L 554.292864 187.738422 
L 555.576162 189.204886 
L 557.031386 190.479955 
L 558.627124 191.542364 
L 560.332324 192.374338 
L 562.111842 192.961135 
L 563.930429 193.293942 
L 565.752747 193.369883 
L 567.54337 193.192018 
L 569.266932 192.769268 
L 570.892297 192.113289 
L 572.388509 191.23905 
L 573.727057 190.165832 
L 574.883953 188.916557 
L 575.839732 187.517784 
L 576.579449 185.999714 
L 577.09282 184.395172 
L 577.373467 182.734694 
L 577.417576 181.052134 
L 577.226327 179.380744 
L 576.806124 177.752434 
L 576.168595 176.197775 
L 575.330594 174.745997 
L 574.313317 173.424326 
L 573.137397 172.255443 
L 571.827687 171.261239 
L 570.411161 170.459363 
L 568.916371 169.862697 
L 567.373448 169.479357 
L 565.814052 169.312693 
L 564.267699 169.362097 
L 562.764538 169.624553 
L 561.334244 170.093134 
L 560.003677 170.756672 
L 558.796884 171.599763 
L 557.735101 172.602765 
L 556.836723 173.741853 
L 556.115964 174.993498 
L 555.585142 176.332533 
L 555.253191 177.731548 
L 555.124346 179.162908 
L 555.198141 180.598742 
L 555.469407 182.010953 
L 555.928497 183.371582 
L 556.564328 184.656319 
L 557.36275 185.840281 
L 558.30656 186.901017 
L 559.375942 187.819582 
L 560.548456 188.580536 
L 561.79905 189.17195 
L 563.101111 189.58553 
L 564.430192 189.815955 
L 565.759306 189.860012 
L 567.062398 189.71849 
L 568.314815 189.39631 
L 569.493305 188.902531 
L 570.576015 188.250344 
L 571.543131 187.456145 
L 572.378239 186.536005 
L 573.065811 185.509451 
L 573.593941 184.397601 
L 573.954596 183.22288 
L 574.143619 182.009024 
L 574.160722 180.781034 
L 574.008561 179.56212 
L 573.691692 178.376045 
L 573.217717 177.246257 
L 572.597373 176.193998 
L 571.844537 175.238308 
L 570.976224 174.396025 
L 570.012573 173.681774 
L 568.973425 173.10692 
L 567.879275 172.681157 
L 566.75244 172.41173 
L 565.615036 172.302181 
L 564.488975 172.352348 
L 563.395969 172.558363 
L 562.357382 172.912757 
L 561.391721 173.406815 
L 560.517326 174.029559 
L 559.750616 174.767489 
L 559.105065 175.605052 
L 558.591201 176.524649 
L 558.216611 177.506627 
L 557.985875 178.530399 
L 557.901506 179.576511 
L 557.96411 180.623635 
L 558.171149 181.651304 
L 558.516904 182.640093 
L 558.99247 183.571613 
L 559.585762 184.428515 
L 560.282444 185.195099 
L 561.068721 185.858339 
L 561.928053 186.40587 
L 562.842942 186.82821 
L 563.795127 187.118921 
L 564.765579 187.274609 
L 565.734548 187.29492 
L 566.683945 187.181754 
L 567.595345 186.938564 
L 568.450882 186.571242 
L 569.234634 186.08817 
L 569.932626 185.500221 
L 570.53283 184.820753 
L 571.025188 184.065544 
L 571.402242 183.249818 
L 571.657671 182.389981 
L 571.787422 181.503501 
L 571.79036 180.607752 
L 571.668265 179.720012 
L 571.425833 178.857466 
L 571.070541 178.037019 
L 570.610503 177.273215 
L 570.055736 176.580658 
L 569.418055 175.972352 
L 568.710692 175.45899 
L 567.948299 175.048958 
L 567.146947 174.748336 
L 566.323264 174.560852 
L 565.492704 174.488587 
L 564.672106 174.532125 
L 563.87742 174.689576 
L 563.123538 174.956541 
L 562.4243 175.326111 
L 561.792488 175.788869 
L 561.239398 176.333624 
L 560.77428 176.94956 
L 560.405698 177.623707 
L 559.980536 179.0911 
L 559.984061 180.618571 
L 560.401224 182.086967 
L 561.191339 183.383635 
L 562.285254 184.413646 
L 563.587083 185.107299 
L 564.991574 185.420621 
L 566.388254 185.336756 
L 567.670696 184.87479 
L 568.743763 184.082979 
L 569.529171 183.029286 
L 569.974799 181.801218 
L 570.058472 180.499007 
L 569.781763 179.22498 
L 569.173557 178.076278 
L 568.292725 177.136903 
L 567.214995 176.472731 
L 566.027465 176.129552 
L 564.823974 176.123919 
L 563.697467 176.444623 
L 562.733567 177.060136 
L 562.001976 177.916356 
L 561.550583 178.938312 
L 561.406519 180.043355 
L 561.575008 181.144513 
L 562.033039 182.157749 
L 562.735616 183.007833 
L 563.623516 183.632632 
L 564.624015 183.990553 
L 565.656325 184.063612 
L 566.640067 183.852625 
L 567.500721 183.379772 
L 568.176445 182.690841 
L 568.620959 181.845214 
L 568.804438 180.911294 
L 568.720581 179.962851 
L 568.385275 179.073351 
L 567.82968 178.310246 
L 567.101356 177.729013 
L 566.262836 177.3678 
L 565.381381 177.248097 
L 564.525992 177.374644 
L 563.761102 177.730166 
L 563.142766 178.279187 
L 562.715369 178.975394 
L 562.506647 179.761805 
L 562.524815 180.57491 
L 562.763053 181.351412 
L 563.198664 182.032239 
L 563.791305 182.568436 
L 564.490337 182.923424 
L 565.239717 183.073323 
L 565.980989 183.01232 
L 566.657212 182.752772 
L 567.217921 182.319172 
L 567.622616 181.748642 
L 567.845753 181.089858 
L 567.875565 180.395838 
L 567.713252 179.721052 
L 567.376867 179.116314 
L 566.898846 178.626044 
L 566.318904 178.285278 
L 565.683899 178.116513 
L 565.044517 178.126574 
L 564.449972 178.310005 
L 563.945373 178.649338 
L 563.566356 179.113483 
L 563.337834 179.662431 
L 563.274476 180.252137 
L 563.376955 180.836609 
L 563.631228 181.370873 
L 564.013993 181.815253 
L 564.493129 182.137341 
L 565.028692 182.316609 
L 565.577868 182.34391 
L 566.097757 182.219918 
L 566.549587 181.958101 
L 567.030776 181.364315 
L 567.21348 180.629421 
L 567.080102 179.884034 
L 566.666104 179.256266 
L 566.052514 178.848089 
L 565.353549 178.718857 
L 564.691124 178.881283 
L 564.176227 179.293413 
L 563.891407 179.875994 
L 563.874281 180.522683 
L 564.117899 181.120202 
L 564.570149 181.569301 
L 565.144229 181.799762 
L 565.738297 181.780232 
L 566.25036 181.526084 
L 566.59563 181.088571 
L 566.723626 180.550738 
L 566.620336 180.008339 
L 566.31302 179.55347 
L 565.86326 179.260183 
L 565.352649 179.172218 
L 564.870856 179.29488 
L 564.499332 179.600375 
L 564.29575 180.027687 
L 564.288911 180.499404 
L 564.471408 180.93372 
L 564.803988 181.257856 
L 565.224632 181.420906 
L 565.657508 181.402801 
L 566.028275 181.212447 
L 566.276967 180.890758 
L 566.365509 180.497481 
L 566.224902 179.982057 
L 565.846164 179.617204 
L 565.355316 179.502091 
L 564.904357 179.658646 
L 564.624795 180.024158 
L 564.590856 180.479532 
L 564.798762 180.883963 
L 565.174076 181.120379 
L 565.595466 181.127177 
L 565.935707 180.915491 
L 566.097423 180.559625 
L 566.043297 180.173543 
L 565.799921 179.873652 
L 565.451102 179.744187 
L 565.105553 179.814623 
L 564.866342 180.052913 
L 564.798205 180.379196 
L 564.965771 180.755918 
L 565.318531 180.941973 
L 565.684219 180.865789 
L 565.895269 180.579241 
L 565.866518 180.227461 
L 565.627315 179.974295 
L 565.300334 179.928422 
L 565.040561 180.096617 
L 564.961042 180.387658 
L 565.086193 180.66134 
L 565.344975 180.793966 
L 565.653235 180.702579 
L 565.77444 180.420501 
L 565.646112 180.143103 
L 565.370302 180.047359 
L 565.135259 180.179645 
L 565.087509 180.436923 
L 565.242353 180.645093 
L 565.522011 180.660526 
L 565.671606 180.447974 
L 565.576935 180.208346 
L 565.340762 180.146592 
L 565.175921 180.298277 
L 565.21494 180.515192 
L 565.435493 180.605055 
L 565.593631 180.458078 
L 565.526967 180.256487 
L 565.330579 180.221497 
L 565.229451 180.396725 
L 565.361653 180.545457 
L 565.526837 180.476638 
L 565.490902 180.292078 
L 565.382933 180.258893 
L 565.382933 180.258893 
" clip-path="url(#paaa13ddbaa)" style="fill: none; stroke: #000000; stroke-width: 1.5; stroke-linecap: square"/>
   </g>
   <g id="patch_9">
    <path d="M 423.759801 333.36 
L 423.759801 7.2 
" style="fill: none; stroke: #000000; stroke-width: 0.8; stroke-linejoin: miter; stroke-linecap: square"/>
   </g>
   <g id="patch_10">
    <path d="M 728.123437 333.36 
L 728.123437 7.2 
" style="fill: none; stroke: #000000; stroke-width: 0.8; stroke-linejoin: miter; stroke-linecap: square"/>
   </g>
   <g id="patch_11">
    <path d="M 423.759801 333.36 
L 728.123437 333.36 
" style="fill: none; stroke: #000000; stroke-width: 0.8; stroke-linejoin: miter; stroke-linecap: square"/>
   </g>
   <g id="patch_12">
    <path d="M 423.759801 7.2 
L 728.123437 7.2 
" style="fill: none; stroke: #000000; stroke-width: 0.8; stroke-linejoin: miter; stroke-linecap: square"/>
   </g>
  </g>
 </g>
 <defs>
  <clipPath id="p333ad898d3">
   <rect x="58.523438" y="7.2" width="304.363636" height="326.16"/>
  </clipPath>
  <clipPath id="paaa13ddbaa">
   <rect x="423.759801" y="7.2" width="304.363636" height="326.16"/>
  </clipPath>
 </defs>
</svg>
