<?xml version="1.0" encoding="utf-8" standalone="no"?>
<!DOCTYPE svg PUBLIC "-//W3C//DTD SVG 1.1//EN"
  "http://www.w3.org/Graphics/SVG/1.1/DTD/svg11.dtd">
<svg xmlns:xlink="http://www.w3.org/1999/xlink" width="394.160938pt" height="262.19625pt" viewBox="0 0 394.160938 262.19625" xmlns="http://www.w3.org/2000/svg" version="1.1">
 <metadata>
  <rdf:RDF xmlns:dc="http://purl.org/dc/elements/1.1/" xmlns:cc="http://creativecommons.org/ns#" xmlns:rdf="http://www.w3.org/1999/02/22-rdf-syntax-ns#">
   <cc:Work>
    <dc:type rdf:resource="http://purl.org/dc/dcmitype/StillImage"/>
    <dc:date>2024-09-24T14:40:32.423409</dc:date>
    <dc:format>image/svg+xml</dc:format>
    <dc:creator>
     <cc:Agent>
      <dc:title>Matplotlib v3.5.2, https://matplotlib.org/</dc:title>
     </cc:Agent>
    </dc:creator>
   </cc:Work>
  </rdf:RDF>
 </metadata>
 <defs>
  <style type="text/css">*{stroke-linejoin: round; stroke-linecap: butt}</style>
 </defs>
 <g id="figure_1">
  <g id="patch_1">
   <path d="M 0 262.19625 
L 394.160938 262.19625 
L 394.160938 0 
L 0 0 
z
" style="fill: #ffffff"/>
  </g>
  <g id="axes_1">
   <g id="patch_2">
    <path d="M 52.160938 224.64 
L 386.960938 224.64 
L 386.960938 7.2 
L 52.160938 7.2 
z
" style="fill: #ffffff"/>
   </g>
   <g id="matplotlib.axis_1">
    <g id="xtick_1">
     <g id="line2d_1">
      <defs>
       <path id="mb8a0621b13" d="M 0 0 
L 0 3.5 
" style="stroke: #000000; stroke-width: 0.8"/>
      </defs>
      <g>
       <use xlink:href="#mb8a0621b13" x="67.379119" y="224.64" style="stroke: #000000; stroke-width: 0.8"/>
      </g>
     </g>
     <g id="text_1">
      <!-- 0.0 -->
      <g transform="translate(59.427557 239.238437)scale(0.1 -0.1)">
       <defs>
        <path id="DejaVuSans-30" d="M 2034 4250 
Q 1547 4250 1301 3770 
Q 1056 3291 1056 2328 
Q 1056 1369 1301 889 
Q 1547 409 2034 409 
Q 2525 409 2770 889 
Q 3016 1369 3016 2328 
Q 3016 3291 2770 3770 
Q 2525 4250 2034 4250 
z
M 2034 4750 
Q 2819 4750 3233 4129 
Q 3647 3509 3647 2328 
Q 3647 1150 3233 529 
Q 2819 -91 2034 -91 
Q 1250 -91 836 529 
Q 422 1150 422 2328 
Q 422 3509 836 4129 
Q 1250 4750 2034 4750 
z
" transform="scale(0.015625)"/>
        <path id="DejaVuSans-2e" d="M 684 794 
L 1344 794 
L 1344 0 
L 684 0 
L 684 794 
z
" transform="scale(0.015625)"/>
       </defs>
       <use xlink:href="#DejaVuSans-30"/>
       <use xlink:href="#DejaVuSans-2e" x="63.623047"/>
       <use xlink:href="#DejaVuSans-30" x="95.410156"/>
      </g>
     </g>
    </g>
    <g id="xtick_2">
     <g id="line2d_2">
      <g>
       <use xlink:href="#mb8a0621b13" x="105.424574" y="224.64" style="stroke: #000000; stroke-width: 0.8"/>
      </g>
     </g>
     <g id="text_2">
      <!-- 2.5 -->
      <g transform="translate(97.473011 239.238437)scale(0.1 -0.1)">
       <defs>
        <path id="DejaVuSans-32" d="M 1228 531 
L 3431 531 
L 3431 0 
L 469 0 
L 469 531 
Q 828 903 1448 1529 
Q 2069 2156 2228 2338 
Q 2531 2678 2651 2914 
Q 2772 3150 2772 3378 
Q 2772 3750 2511 3984 
Q 2250 4219 1831 4219 
Q 1534 4219 1204 4116 
Q 875 4013 500 3803 
L 500 4441 
Q 881 4594 1212 4672 
Q 1544 4750 1819 4750 
Q 2544 4750 2975 4387 
Q 3406 4025 3406 3419 
Q 3406 3131 3298 2873 
Q 3191 2616 2906 2266 
Q 2828 2175 2409 1742 
Q 1991 1309 1228 531 
z
" transform="scale(0.015625)"/>
        <path id="DejaVuSans-35" d="M 691 4666 
L 3169 4666 
L 3169 4134 
L 1269 4134 
L 1269 2991 
Q 1406 3038 1543 3061 
Q 1681 3084 1819 3084 
Q 2600 3084 3056 2656 
Q 3513 2228 3513 1497 
Q 3513 744 3044 326 
Q 2575 -91 1722 -91 
Q 1428 -91 1123 -41 
Q 819 9 494 109 
L 494 744 
Q 775 591 1075 516 
Q 1375 441 1709 441 
Q 2250 441 2565 725 
Q 2881 1009 2881 1497 
Q 2881 1984 2565 2268 
Q 2250 2553 1709 2553 
Q 1456 2553 1204 2497 
Q 953 2441 691 2322 
L 691 4666 
z
" transform="scale(0.015625)"/>
       </defs>
       <use xlink:href="#DejaVuSans-32"/>
       <use xlink:href="#DejaVuSans-2e" x="63.623047"/>
       <use xlink:href="#DejaVuSans-35" x="95.410156"/>
      </g>
     </g>
    </g>
    <g id="xtick_3">
     <g id="line2d_3">
      <g>
       <use xlink:href="#mb8a0621b13" x="143.470028" y="224.64" style="stroke: #000000; stroke-width: 0.8"/>
      </g>
     </g>
     <g id="text_3">
      <!-- 5.0 -->
      <g transform="translate(135.518466 239.238437)scale(0.1 -0.1)">
       <use xlink:href="#DejaVuSans-35"/>
       <use xlink:href="#DejaVuSans-2e" x="63.623047"/>
       <use xlink:href="#DejaVuSans-30" x="95.410156"/>
      </g>
     </g>
    </g>
    <g id="xtick_4">
     <g id="line2d_4">
      <g>
       <use xlink:href="#mb8a0621b13" x="181.515483" y="224.64" style="stroke: #000000; stroke-width: 0.8"/>
      </g>
     </g>
     <g id="text_4">
      <!-- 7.5 -->
      <g transform="translate(173.56392 239.238437)scale(0.1 -0.1)">
       <defs>
        <path id="DejaVuSans-37" d="M 525 4666 
L 3525 4666 
L 3525 4397 
L 1831 0 
L 1172 0 
L 2766 4134 
L 525 4134 
L 525 4666 
z
" transform="scale(0.015625)"/>
       </defs>
       <use xlink:href="#DejaVuSans-37"/>
       <use xlink:href="#DejaVuSans-2e" x="63.623047"/>
       <use xlink:href="#DejaVuSans-35" x="95.410156"/>
      </g>
     </g>
    </g>
    <g id="xtick_5">
     <g id="line2d_5">
      <g>
       <use xlink:href="#mb8a0621b13" x="219.560938" y="224.64" style="stroke: #000000; stroke-width: 0.8"/>
      </g>
     </g>
     <g id="text_5">
      <!-- 10.0 -->
      <g transform="translate(208.428125 239.238437)scale(0.1 -0.1)">
       <defs>
        <path id="DejaVuSans-31" d="M 794 531 
L 1825 531 
L 1825 4091 
L 703 3866 
L 703 4441 
L 1819 4666 
L 2450 4666 
L 2450 531 
L 3481 531 
L 3481 0 
L 794 0 
L 794 531 
z
" transform="scale(0.015625)"/>
       </defs>
       <use xlink:href="#DejaVuSans-31"/>
       <use xlink:href="#DejaVuSans-30" x="63.623047"/>
       <use xlink:href="#DejaVuSans-2e" x="127.246094"/>
       <use xlink:href="#DejaVuSans-30" x="159.033203"/>
      </g>
     </g>
    </g>
    <g id="xtick_6">
     <g id="line2d_6">
      <g>
       <use xlink:href="#mb8a0621b13" x="257.606392" y="224.64" style="stroke: #000000; stroke-width: 0.8"/>
      </g>
     </g>
     <g id="text_6">
      <!-- 12.5 -->
      <g transform="translate(246.47358 239.238437)scale(0.1 -0.1)">
       <use xlink:href="#DejaVuSans-31"/>
       <use xlink:href="#DejaVuSans-32" x="63.623047"/>
       <use xlink:href="#DejaVuSans-2e" x="127.246094"/>
       <use xlink:href="#DejaVuSans-35" x="159.033203"/>
      </g>
     </g>
    </g>
    <g id="xtick_7">
     <g id="line2d_7">
      <g>
       <use xlink:href="#mb8a0621b13" x="295.651847" y="224.64" style="stroke: #000000; stroke-width: 0.8"/>
      </g>
     </g>
     <g id="text_7">
      <!-- 15.0 -->
      <g transform="translate(284.519034 239.238437)scale(0.1 -0.1)">
       <use xlink:href="#DejaVuSans-31"/>
       <use xlink:href="#DejaVuSans-35" x="63.623047"/>
       <use xlink:href="#DejaVuSans-2e" x="127.246094"/>
       <use xlink:href="#DejaVuSans-30" x="159.033203"/>
      </g>
     </g>
    </g>
    <g id="xtick_8">
     <g id="line2d_8">
      <g>
       <use xlink:href="#mb8a0621b13" x="333.697301" y="224.64" style="stroke: #000000; stroke-width: 0.8"/>
      </g>
     </g>
     <g id="text_8">
      <!-- 17.5 -->
      <g transform="translate(322.564489 239.238437)scale(0.1 -0.1)">
       <use xlink:href="#DejaVuSans-31"/>
       <use xlink:href="#DejaVuSans-37" x="63.623047"/>
       <use xlink:href="#DejaVuSans-2e" x="127.246094"/>
       <use xlink:href="#DejaVuSans-35" x="159.033203"/>
      </g>
     </g>
    </g>
    <g id="xtick_9">
     <g id="line2d_9">
      <g>
       <use xlink:href="#mb8a0621b13" x="371.742756" y="224.64" style="stroke: #000000; stroke-width: 0.8"/>
      </g>
     </g>
     <g id="text_9">
      <!-- 20.0 -->
      <g transform="translate(360.609943 239.238437)scale(0.1 -0.1)">
       <use xlink:href="#DejaVuSans-32"/>
       <use xlink:href="#DejaVuSans-30" x="63.623047"/>
       <use xlink:href="#DejaVuSans-2e" x="127.246094"/>
       <use xlink:href="#DejaVuSans-30" x="159.033203"/>
      </g>
     </g>
    </g>
    <g id="text_10">
     <!-- T -->
     <g transform="translate(216.507031 252.916562)scale(0.1 -0.1)">
      <defs>
       <path id="DejaVuSans-54" d="M -19 4666 
L 3928 4666 
L 3928 4134 
L 2272 4134 
L 2272 0 
L 1638 0 
L 1638 4134 
L -19 4134 
L -19 4666 
z
" transform="scale(0.015625)"/>
      </defs>
      <use xlink:href="#DejaVuSans-54"/>
     </g>
    </g>
   </g>
   <g id="matplotlib.axis_2">
    <g id="ytick_1">
     <g id="line2d_10">
      <defs>
       <path id="m51d200140a" d="M 0 0 
L -3.5 0 
" style="stroke: #000000; stroke-width: 0.8"/>
      </defs>
      <g>
       <use xlink:href="#m51d200140a" x="52.160938" y="207.686902" style="stroke: #000000; stroke-width: 0.8"/>
      </g>
     </g>
     <g id="text_11">
      <!-- −1.0 -->
      <g transform="translate(20.878125 211.486121)scale(0.1 -0.1)">
       <defs>
        <path id="DejaVuSans-2212" d="M 678 2272 
L 4684 2272 
L 4684 1741 
L 678 1741 
L 678 2272 
z
" transform="scale(0.015625)"/>
       </defs>
       <use xlink:href="#DejaVuSans-2212"/>
       <use xlink:href="#DejaVuSans-31" x="83.789062"/>
       <use xlink:href="#DejaVuSans-2e" x="147.412109"/>
       <use xlink:href="#DejaVuSans-30" x="179.199219"/>
      </g>
     </g>
    </g>
    <g id="ytick_2">
     <g id="line2d_11">
      <g>
       <use xlink:href="#m51d200140a" x="52.160938" y="161.821516" style="stroke: #000000; stroke-width: 0.8"/>
      </g>
     </g>
     <g id="text_12">
      <!-- −0.5 -->
      <g transform="translate(20.878125 165.620735)scale(0.1 -0.1)">
       <use xlink:href="#DejaVuSans-2212"/>
       <use xlink:href="#DejaVuSans-30" x="83.789062"/>
       <use xlink:href="#DejaVuSans-2e" x="147.412109"/>
       <use xlink:href="#DejaVuSans-35" x="179.199219"/>
      </g>
     </g>
    </g>
    <g id="ytick_3">
     <g id="line2d_12">
      <g>
       <use xlink:href="#m51d200140a" x="52.160938" y="115.95613" style="stroke: #000000; stroke-width: 0.8"/>
      </g>
     </g>
     <g id="text_13">
      <!-- 0.0 -->
      <g transform="translate(29.257812 119.755348)scale(0.1 -0.1)">
       <use xlink:href="#DejaVuSans-30"/>
       <use xlink:href="#DejaVuSans-2e" x="63.623047"/>
       <use xlink:href="#DejaVuSans-30" x="95.410156"/>
      </g>
     </g>
    </g>
    <g id="ytick_4">
     <g id="line2d_13">
      <g>
       <use xlink:href="#m51d200140a" x="52.160938" y="70.090743" style="stroke: #000000; stroke-width: 0.8"/>
      </g>
     </g>
     <g id="text_14">
      <!-- 0.5 -->
      <g transform="translate(29.257812 73.889962)scale(0.1 -0.1)">
       <use xlink:href="#DejaVuSans-30"/>
       <use xlink:href="#DejaVuSans-2e" x="63.623047"/>
       <use xlink:href="#DejaVuSans-35" x="95.410156"/>
      </g>
     </g>
    </g>
    <g id="ytick_5">
     <g id="line2d_14">
      <g>
       <use xlink:href="#m51d200140a" x="52.160938" y="24.225357" style="stroke: #000000; stroke-width: 0.8"/>
      </g>
     </g>
     <g id="text_15">
      <!-- 1.0 -->
      <g transform="translate(29.257812 28.024576)scale(0.1 -0.1)">
       <use xlink:href="#DejaVuSans-31"/>
       <use xlink:href="#DejaVuSans-2e" x="63.623047"/>
       <use xlink:href="#DejaVuSans-30" x="95.410156"/>
      </g>
     </g>
    </g>
    <g id="text_16">
     <!-- Y -->
     <g transform="translate(14.798438 118.973906)rotate(-90)scale(0.1 -0.1)">
      <defs>
       <path id="DejaVuSans-59" d="M -13 4666 
L 666 4666 
L 1959 2747 
L 3244 4666 
L 3922 4666 
L 2272 2222 
L 2272 0 
L 1638 0 
L 1638 2222 
L -13 4666 
z
" transform="scale(0.015625)"/>
      </defs>
      <use xlink:href="#DejaVuSans-59"/>
     </g>
    </g>
   </g>
   <g id="line2d_15">
    <defs>
     <path id="m5341440c7f" d="M 0 1.5 
C 0.397805 1.5 0.77937 1.341951 1.06066 1.06066 
C 1.341951 0.77937 1.5 0.397805 1.5 0 
C 1.5 -0.397805 1.341951 -0.77937 1.06066 -1.06066 
C 0.77937 -1.341951 0.397805 -1.5 0 -1.5 
C -0.397805 -1.5 -0.77937 -1.341951 -1.06066 -1.06066 
C -1.341951 -0.77937 -1.5 -0.397805 -1.5 0 
C -1.5 0.397805 -1.341951 0.77937 -1.06066 1.06066 
C -0.77937 1.341951 -0.397805 1.5 0 1.5 
z
" style="stroke: #000000"/>
    </defs>
    <g clip-path="url(#p8c46582607)">
     <use xlink:href="#m5341440c7f" x="67.379119" y="115.95613" style="stroke: #000000"/>
     <use xlink:href="#m5341440c7f" x="70.422756" y="59.397108" style="stroke: #000000"/>
     <use xlink:href="#m5341440c7f" x="73.466392" y="44.218392" style="stroke: #000000"/>
     <use xlink:href="#m5341440c7f" x="76.510028" y="34.451645" style="stroke: #000000"/>
     <use xlink:href="#m5341440c7f" x="79.553665" y="27.660884" style="stroke: #000000"/>
     <use xlink:href="#m5341440c7f" x="82.597301" y="22.746082" style="stroke: #000000"/>
     <use xlink:href="#m5341440c7f" x="85.640938" y="19.543522" style="stroke: #000000"/>
     <use xlink:href="#m5341440c7f" x="88.684574" y="17.615471" style="stroke: #000000"/>
     <use xlink:href="#m5341440c7f" x="91.72821" y="17.083636" style="stroke: #000000"/>
     <use xlink:href="#m5341440c7f" x="94.771847" y="17.952116" style="stroke: #000000"/>
     <use xlink:href="#m5341440c7f" x="97.815483" y="20.179363" style="stroke: #000000"/>
     <use xlink:href="#m5341440c7f" x="100.859119" y="23.900201" style="stroke: #000000"/>
     <use xlink:href="#m5341440c7f" x="103.902756" y="29.137723" style="stroke: #000000"/>
     <use xlink:href="#m5341440c7f" x="106.946392" y="36.575717" style="stroke: #000000"/>
     <use xlink:href="#m5341440c7f" x="109.990028" y="46.908772" style="stroke: #000000"/>
     <use xlink:href="#m5341440c7f" x="113.033665" y="63.123206" style="stroke: #000000"/>
     <use xlink:href="#m5341440c7f" x="116.077301" y="107.64763" style="stroke: #000000"/>
     <use xlink:href="#m5341440c7f" x="119.120938" y="177.922199" style="stroke: #000000"/>
     <use xlink:href="#m5341440c7f" x="122.164574" y="190.906702" style="stroke: #000000"/>
     <use xlink:href="#m5341440c7f" x="125.20821" y="199.600696" style="stroke: #000000"/>
     <use xlink:href="#m5341440c7f" x="128.251847" y="205.854008" style="stroke: #000000"/>
     <use xlink:href="#m5341440c7f" x="131.295483" y="210.232594" style="stroke: #000000"/>
     <use xlink:href="#m5341440c7f" x="134.339119" y="213.085342" style="stroke: #000000"/>
     <use xlink:href="#m5341440c7f" x="137.382756" y="214.566198" style="stroke: #000000"/>
     <use xlink:href="#m5341440c7f" x="140.426392" y="214.652523" style="stroke: #000000"/>
     <use xlink:href="#m5341440c7f" x="143.470028" y="213.335137" style="stroke: #000000"/>
     <use xlink:href="#m5341440c7f" x="146.513665" y="210.720427" style="stroke: #000000"/>
     <use xlink:href="#m5341440c7f" x="149.557301" y="206.693801" style="stroke: #000000"/>
     <use xlink:href="#m5341440c7f" x="152.600938" y="200.907893" style="stroke: #000000"/>
     <use xlink:href="#m5341440c7f" x="155.644574" y="192.69773" style="stroke: #000000"/>
     <use xlink:href="#m5341440c7f" x="158.68821" y="181.133095" style="stroke: #000000"/>
     <use xlink:href="#m5341440c7f" x="161.731847" y="161.598823" style="stroke: #000000"/>
     <use xlink:href="#m5341440c7f" x="164.775483" y="81.697176" style="stroke: #000000"/>
     <use xlink:href="#m5341440c7f" x="167.819119" y="49.556199" style="stroke: #000000"/>
     <use xlink:href="#m5341440c7f" x="170.862756" y="38.101677" style="stroke: #000000"/>
     <use xlink:href="#m5341440c7f" x="173.906392" y="30.23934" style="stroke: #000000"/>
     <use xlink:href="#m5341440c7f" x="176.950028" y="24.590631" style="stroke: #000000"/>
     <use xlink:href="#m5341440c7f" x="179.993665" y="20.755625" style="stroke: #000000"/>
     <use xlink:href="#m5341440c7f" x="183.037301" y="18.236812" style="stroke: #000000"/>
     <use xlink:href="#m5341440c7f" x="186.080938" y="17.249948" style="stroke: #000000"/>
     <use xlink:href="#m5341440c7f" x="189.124574" y="17.501781" style="stroke: #000000"/>
     <use xlink:href="#m5341440c7f" x="192.16821" y="19.091967" style="stroke: #000000"/>
     <use xlink:href="#m5341440c7f" x="195.211847" y="22.196279" style="stroke: #000000"/>
     <use xlink:href="#m5341440c7f" x="198.255483" y="26.701964" style="stroke: #000000"/>
     <use xlink:href="#m5341440c7f" x="201.299119" y="33.086653" style="stroke: #000000"/>
     <use xlink:href="#m5341440c7f" x="204.342756" y="42.059957" style="stroke: #000000"/>
     <use xlink:href="#m5341440c7f" x="207.386392" y="55.250793" style="stroke: #000000"/>
     <use xlink:href="#m5341440c7f" x="210.430028" y="80.227383" style="stroke: #000000"/>
     <use xlink:href="#m5341440c7f" x="213.473665" y="169.556081" style="stroke: #000000"/>
     <use xlink:href="#m5341440c7f" x="216.517301" y="186.251816" style="stroke: #000000"/>
     <use xlink:href="#m5341440c7f" x="219.560938" y="196.454806" style="stroke: #000000"/>
     <use xlink:href="#m5341440c7f" x="222.604574" y="203.524587" style="stroke: #000000"/>
     <use xlink:href="#m5341440c7f" x="225.64821" y="208.597434" style="stroke: #000000"/>
     <use xlink:href="#m5341440c7f" x="228.691847" y="212.175231" style="stroke: #000000"/>
     <use xlink:href="#m5341440c7f" x="231.735483" y="214.071849" style="stroke: #000000"/>
     <use xlink:href="#m5341440c7f" x="234.779119" y="214.756364" style="stroke: #000000"/>
     <use xlink:href="#m5341440c7f" x="237.822756" y="214.114859" style="stroke: #000000"/>
     <use xlink:href="#m5341440c7f" x="240.866392" y="212.036513" style="stroke: #000000"/>
     <use xlink:href="#m5341440c7f" x="243.910028" y="208.638011" style="stroke: #000000"/>
     <use xlink:href="#m5341440c7f" x="246.953665" y="203.567849" style="stroke: #000000"/>
     <use xlink:href="#m5341440c7f" x="249.997301" y="196.446181" style="stroke: #000000"/>
     <use xlink:href="#m5341440c7f" x="253.040938" y="186.492652" style="stroke: #000000"/>
     <use xlink:href="#m5341440c7f" x="256.084574" y="171.390327" style="stroke: #000000"/>
     <use xlink:href="#m5341440c7f" x="259.12821" y="135.58211" style="stroke: #000000"/>
     <use xlink:href="#m5341440c7f" x="262.171847" y="56.148013" style="stroke: #000000"/>
     <use xlink:href="#m5341440c7f" x="265.215483" y="42.271677" style="stroke: #000000"/>
     <use xlink:href="#m5341440c7f" x="268.259119" y="33.162444" style="stroke: #000000"/>
     <use xlink:href="#m5341440c7f" x="271.302756" y="26.713679" style="stroke: #000000"/>
     <use xlink:href="#m5341440c7f" x="274.346392" y="22.117881" style="stroke: #000000"/>
     <use xlink:href="#m5341440c7f" x="277.390028" y="19.019089" style="stroke: #000000"/>
     <use xlink:href="#m5341440c7f" x="280.433665" y="17.446667" style="stroke: #000000"/>
     <use xlink:href="#m5341440c7f" x="283.477301" y="17.215542" style="stroke: #000000"/>
     <use xlink:href="#m5341440c7f" x="286.520938" y="18.287992" style="stroke: #000000"/>
     <use xlink:href="#m5341440c7f" x="289.564574" y="20.731702" style="stroke: #000000"/>
     <use xlink:href="#m5341440c7f" x="292.60821" y="24.664684" style="stroke: #000000"/>
     <use xlink:href="#m5341440c7f" x="295.651847" y="30.211263" style="stroke: #000000"/>
     <use xlink:href="#m5341440c7f" x="298.695483" y="37.971057" style="stroke: #000000"/>
     <use xlink:href="#m5341440c7f" x="301.739119" y="49.085975" style="stroke: #000000"/>
     <use xlink:href="#m5341440c7f" x="304.782756" y="67.025519" style="stroke: #000000"/>
     <use xlink:href="#m5341440c7f" x="307.826392" y="130.675241" style="stroke: #000000"/>
     <use xlink:href="#m5341440c7f" x="310.870028" y="180.578788" style="stroke: #000000"/>
     <use xlink:href="#m5341440c7f" x="313.913665" y="192.591273" style="stroke: #000000"/>
     <use xlink:href="#m5341440c7f" x="316.957301" y="200.84649" style="stroke: #000000"/>
     <use xlink:href="#m5341440c7f" x="320.000938" y="206.687166" style="stroke: #000000"/>
     <use xlink:href="#m5341440c7f" x="323.044574" y="210.839542" style="stroke: #000000"/>
     <use xlink:href="#m5341440c7f" x="326.08821" y="213.486228" style="stroke: #000000"/>
     <use xlink:href="#m5341440c7f" x="329.131847" y="214.550915" style="stroke: #000000"/>
     <use xlink:href="#m5341440c7f" x="332.175483" y="214.497504" style="stroke: #000000"/>
     <use xlink:href="#m5341440c7f" x="335.219119" y="213.133713" style="stroke: #000000"/>
     <use xlink:href="#m5341440c7f" x="338.262756" y="210.268787" style="stroke: #000000"/>
     <use xlink:href="#m5341440c7f" x="341.306392" y="205.817807" style="stroke: #000000"/>
     <use xlink:href="#m5341440c7f" x="344.350028" y="199.707388" style="stroke: #000000"/>
     <use xlink:href="#m5341440c7f" x="347.393665" y="191.164391" style="stroke: #000000"/>
     <use xlink:href="#m5341440c7f" x="350.437301" y="178.638605" style="stroke: #000000"/>
     <use xlink:href="#m5341440c7f" x="353.480938" y="156.346262" style="stroke: #000000"/>
     <use xlink:href="#m5341440c7f" x="356.524574" y="66.77011" style="stroke: #000000"/>
     <use xlink:href="#m5341440c7f" x="359.56821" y="47.278542" style="stroke: #000000"/>
     <use xlink:href="#m5341440c7f" x="362.611847" y="36.620752" style="stroke: #000000"/>
     <use xlink:href="#m5341440c7f" x="365.655483" y="29.213801" style="stroke: #000000"/>
     <use xlink:href="#m5341440c7f" x="368.699119" y="23.831527" style="stroke: #000000"/>
     <use xlink:href="#m5341440c7f" x="371.742756" y="20.156809" style="stroke: #000000"/>
    </g>
   </g>
   <g id="patch_3">
    <path d="M 52.160938 224.64 
L 52.160938 7.2 
" style="fill: none; stroke: #000000; stroke-width: 0.8; stroke-linejoin: miter; stroke-linecap: square"/>
   </g>
   <g id="patch_4">
    <path d="M 386.960938 224.64 
L 386.960938 7.2 
" style="fill: none; stroke: #000000; stroke-width: 0.8; stroke-linejoin: miter; stroke-linecap: square"/>
   </g>
   <g id="patch_5">
    <path d="M 52.160938 224.64 
L 386.960938 224.64 
" style="fill: none; stroke: #000000; stroke-width: 0.8; stroke-linejoin: miter; stroke-linecap: square"/>
   </g>
   <g id="patch_6">
    <path d="M 52.160938 7.2 
L 386.960938 7.2 
" style="fill: none; stroke: #000000; stroke-width: 0.8; stroke-linejoin: miter; stroke-linecap: square"/>
   </g>
   <g id="legend_1">
    <g id="patch_7">
     <path d="M 267.84375 29.878125 
L 379.960938 29.878125 
Q 381.960938 29.878125 381.960938 27.878125 
L 381.960938 14.2 
Q 381.960938 12.2 379.960938 12.2 
L 267.84375 12.2 
Q 265.84375 12.2 265.84375 14.2 
L 265.84375 27.878125 
Q 265.84375 29.878125 267.84375 29.878125 
z
" style="fill: #ffffff; opacity: 0.8; stroke: #cccccc; stroke-linejoin: miter"/>
    </g>
    <g id="line2d_16">
     <g>
      <use xlink:href="#m5341440c7f" x="279.84375" y="20.298437" style="stroke: #000000"/>
     </g>
    </g>
    <g id="text_17">
     <!-- a = 80, b = 100 -->
     <g transform="translate(297.84375 23.798437)scale(0.1 -0.1)">
      <defs>
       <path id="DejaVuSans-61" d="M 2194 1759 
Q 1497 1759 1228 1600 
Q 959 1441 959 1056 
Q 959 750 1161 570 
Q 1363 391 1709 391 
Q 2188 391 2477 730 
Q 2766 1069 2766 1631 
L 2766 1759 
L 2194 1759 
z
M 3341 1997 
L 3341 0 
L 2766 0 
L 2766 531 
Q 2569 213 2275 61 
Q 1981 -91 1556 -91 
Q 1019 -91 701 211 
Q 384 513 384 1019 
Q 384 1609 779 1909 
Q 1175 2209 1959 2209 
L 2766 2209 
L 2766 2266 
Q 2766 2663 2505 2880 
Q 2244 3097 1772 3097 
Q 1472 3097 1187 3025 
Q 903 2953 641 2809 
L 641 3341 
Q 956 3463 1253 3523 
Q 1550 3584 1831 3584 
Q 2591 3584 2966 3190 
Q 3341 2797 3341 1997 
z
" transform="scale(0.015625)"/>
       <path id="DejaVuSans-20" transform="scale(0.015625)"/>
       <path id="DejaVuSans-3d" d="M 678 2906 
L 4684 2906 
L 4684 2381 
L 678 2381 
L 678 2906 
z
M 678 1631 
L 4684 1631 
L 4684 1100 
L 678 1100 
L 678 1631 
z
" transform="scale(0.015625)"/>
       <path id="DejaVuSans-38" d="M 2034 2216 
Q 1584 2216 1326 1975 
Q 1069 1734 1069 1313 
Q 1069 891 1326 650 
Q 1584 409 2034 409 
Q 2484 409 2743 651 
Q 3003 894 3003 1313 
Q 3003 1734 2745 1975 
Q 2488 2216 2034 2216 
z
M 1403 2484 
Q 997 2584 770 2862 
Q 544 3141 544 3541 
Q 544 4100 942 4425 
Q 1341 4750 2034 4750 
Q 2731 4750 3128 4425 
Q 3525 4100 3525 3541 
Q 3525 3141 3298 2862 
Q 3072 2584 2669 2484 
Q 3125 2378 3379 2068 
Q 3634 1759 3634 1313 
Q 3634 634 3220 271 
Q 2806 -91 2034 -91 
Q 1263 -91 848 271 
Q 434 634 434 1313 
Q 434 1759 690 2068 
Q 947 2378 1403 2484 
z
M 1172 3481 
Q 1172 3119 1398 2916 
Q 1625 2713 2034 2713 
Q 2441 2713 2670 2916 
Q 2900 3119 2900 3481 
Q 2900 3844 2670 4047 
Q 2441 4250 2034 4250 
Q 1625 4250 1398 4047 
Q 1172 3844 1172 3481 
z
" transform="scale(0.015625)"/>
       <path id="DejaVuSans-2c" d="M 750 794 
L 1409 794 
L 1409 256 
L 897 -744 
L 494 -744 
L 750 256 
L 750 794 
z
" transform="scale(0.015625)"/>
       <path id="DejaVuSans-62" d="M 3116 1747 
Q 3116 2381 2855 2742 
Q 2594 3103 2138 3103 
Q 1681 3103 1420 2742 
Q 1159 2381 1159 1747 
Q 1159 1113 1420 752 
Q 1681 391 2138 391 
Q 2594 391 2855 752 
Q 3116 1113 3116 1747 
z
M 1159 2969 
Q 1341 3281 1617 3432 
Q 1894 3584 2278 3584 
Q 2916 3584 3314 3078 
Q 3713 2572 3713 1747 
Q 3713 922 3314 415 
Q 2916 -91 2278 -91 
Q 1894 -91 1617 61 
Q 1341 213 1159 525 
L 1159 0 
L 581 0 
L 581 4863 
L 1159 4863 
L 1159 2969 
z
" transform="scale(0.015625)"/>
      </defs>
      <use xlink:href="#DejaVuSans-61"/>
      <use xlink:href="#DejaVuSans-20" x="61.279297"/>
      <use xlink:href="#DejaVuSans-3d" x="93.066406"/>
      <use xlink:href="#DejaVuSans-20" x="176.855469"/>
      <use xlink:href="#DejaVuSans-38" x="208.642578"/>
      <use xlink:href="#DejaVuSans-30" x="272.265625"/>
      <use xlink:href="#DejaVuSans-2c" x="335.888672"/>
      <use xlink:href="#DejaVuSans-20" x="367.675781"/>
      <use xlink:href="#DejaVuSans-62" x="399.462891"/>
      <use xlink:href="#DejaVuSans-20" x="462.939453"/>
      <use xlink:href="#DejaVuSans-3d" x="494.726562"/>
      <use xlink:href="#DejaVuSans-20" x="578.515625"/>
      <use xlink:href="#DejaVuSans-31" x="610.302734"/>
      <use xlink:href="#DejaVuSans-30" x="673.925781"/>
      <use xlink:href="#DejaVuSans-30" x="737.548828"/>
     </g>
    </g>
   </g>
  </g>
 </g>
 <defs>
  <clipPath id="p8c46582607">
   <rect x="52.160938" y="7.2" width="334.8" height="217.44"/>
  </clipPath>
 </defs>
</svg>
