<?xml version="1.0" encoding="utf-8" standalone="no"?>
<!DOCTYPE svg PUBLIC "-//W3C//DTD SVG 1.1//EN"
  "http://www.w3.org/Graphics/SVG/1.1/DTD/svg11.dtd">
<svg xmlns:xlink="http://www.w3.org/1999/xlink" width="424.36875pt" height="276.178125pt" viewBox="0 0 424.36875 276.178125" xmlns="http://www.w3.org/2000/svg" version="1.1">
 <metadata>
  <rdf:RDF xmlns:dc="http://purl.org/dc/elements/1.1/" xmlns:cc="http://creativecommons.org/ns#" xmlns:rdf="http://www.w3.org/1999/02/22-rdf-syntax-ns#">
   <cc:Work>
    <dc:type rdf:resource="http://purl.org/dc/dcmitype/StillImage"/>
    <dc:date>2024-09-29T16:01:23.691656</dc:date>
    <dc:format>image/svg+xml</dc:format>
    <dc:creator>
     <cc:Agent>
      <dc:title>Matplotlib v3.5.2, https://matplotlib.org/</dc:title>
     </cc:Agent>
    </dc:creator>
   </cc:Work>
  </rdf:RDF>
 </metadata>
 <defs>
  <style type="text/css">*{stroke-linejoin: round; stroke-linecap: butt}</style>
 </defs>
 <g id="figure_1">
  <g id="patch_1">
   <path d="M 0 276.178125 
L 424.36875 276.178125 
L 424.36875 0 
L 0 0 
z
" style="fill: #ffffff"/>
  </g>
  <g id="axes_1">
   <g id="patch_2">
    <path d="M 50.14375 238.6 
L 417.16875 238.6 
L 417.16875 7.2 
L 50.14375 7.2 
z
" style="fill: #ffffff"/>
   </g>
   <g id="matplotlib.axis_1">
    <g id="xtick_1">
     <g id="line2d_1">
      <defs>
       <path id="m384ed9ef96" d="M 0 0 
L 0 3.5 
" style="stroke: #000000; stroke-width: 0.8"/>
      </defs>
      <g>
       <use xlink:href="#m384ed9ef96" x="66.826705" y="238.6" style="stroke: #000000; stroke-width: 0.8"/>
      </g>
     </g>
     <g id="text_1">
      <!-- 0.00 -->
      <g transform="translate(55.693892 253.198437)scale(0.1 -0.1)">
       <defs>
        <path id="DejaVuSans-30" d="M 2034 4250 
Q 1547 4250 1301 3770 
Q 1056 3291 1056 2328 
Q 1056 1369 1301 889 
Q 1547 409 2034 409 
Q 2525 409 2770 889 
Q 3016 1369 3016 2328 
Q 3016 3291 2770 3770 
Q 2525 4250 2034 4250 
z
M 2034 4750 
Q 2819 4750 3233 4129 
Q 3647 3509 3647 2328 
Q 3647 1150 3233 529 
Q 2819 -91 2034 -91 
Q 1250 -91 836 529 
Q 422 1150 422 2328 
Q 422 3509 836 4129 
Q 1250 4750 2034 4750 
z
" transform="scale(0.015625)"/>
        <path id="DejaVuSans-2e" d="M 684 794 
L 1344 794 
L 1344 0 
L 684 0 
L 684 794 
z
" transform="scale(0.015625)"/>
       </defs>
       <use xlink:href="#DejaVuSans-30"/>
       <use xlink:href="#DejaVuSans-2e" x="63.623047"/>
       <use xlink:href="#DejaVuSans-30" x="95.410156"/>
       <use xlink:href="#DejaVuSans-30" x="159.033203"/>
      </g>
     </g>
    </g>
    <g id="xtick_2">
     <g id="line2d_2">
      <g>
       <use xlink:href="#m384ed9ef96" x="108.534091" y="238.6" style="stroke: #000000; stroke-width: 0.8"/>
      </g>
     </g>
     <g id="text_2">
      <!-- 0.25 -->
      <g transform="translate(97.401278 253.198437)scale(0.1 -0.1)">
       <defs>
        <path id="DejaVuSans-32" d="M 1228 531 
L 3431 531 
L 3431 0 
L 469 0 
L 469 531 
Q 828 903 1448 1529 
Q 2069 2156 2228 2338 
Q 2531 2678 2651 2914 
Q 2772 3150 2772 3378 
Q 2772 3750 2511 3984 
Q 2250 4219 1831 4219 
Q 1534 4219 1204 4116 
Q 875 4013 500 3803 
L 500 4441 
Q 881 4594 1212 4672 
Q 1544 4750 1819 4750 
Q 2544 4750 2975 4387 
Q 3406 4025 3406 3419 
Q 3406 3131 3298 2873 
Q 3191 2616 2906 2266 
Q 2828 2175 2409 1742 
Q 1991 1309 1228 531 
z
" transform="scale(0.015625)"/>
        <path id="DejaVuSans-35" d="M 691 4666 
L 3169 4666 
L 3169 4134 
L 1269 4134 
L 1269 2991 
Q 1406 3038 1543 3061 
Q 1681 3084 1819 3084 
Q 2600 3084 3056 2656 
Q 3513 2228 3513 1497 
Q 3513 744 3044 326 
Q 2575 -91 1722 -91 
Q 1428 -91 1123 -41 
Q 819 9 494 109 
L 494 744 
Q 775 591 1075 516 
Q 1375 441 1709 441 
Q 2250 441 2565 725 
Q 2881 1009 2881 1497 
Q 2881 1984 2565 2268 
Q 2250 2553 1709 2553 
Q 1456 2553 1204 2497 
Q 953 2441 691 2322 
L 691 4666 
z
" transform="scale(0.015625)"/>
       </defs>
       <use xlink:href="#DejaVuSans-30"/>
       <use xlink:href="#DejaVuSans-2e" x="63.623047"/>
       <use xlink:href="#DejaVuSans-32" x="95.410156"/>
       <use xlink:href="#DejaVuSans-35" x="159.033203"/>
      </g>
     </g>
    </g>
    <g id="xtick_3">
     <g id="line2d_3">
      <g>
       <use xlink:href="#m384ed9ef96" x="150.241477" y="238.6" style="stroke: #000000; stroke-width: 0.8"/>
      </g>
     </g>
     <g id="text_3">
      <!-- 0.50 -->
      <g transform="translate(139.108665 253.198437)scale(0.1 -0.1)">
       <use xlink:href="#DejaVuSans-30"/>
       <use xlink:href="#DejaVuSans-2e" x="63.623047"/>
       <use xlink:href="#DejaVuSans-35" x="95.410156"/>
       <use xlink:href="#DejaVuSans-30" x="159.033203"/>
      </g>
     </g>
    </g>
    <g id="xtick_4">
     <g id="line2d_4">
      <g>
       <use xlink:href="#m384ed9ef96" x="191.948864" y="238.6" style="stroke: #000000; stroke-width: 0.8"/>
      </g>
     </g>
     <g id="text_4">
      <!-- 0.75 -->
      <g transform="translate(180.816051 253.198437)scale(0.1 -0.1)">
       <defs>
        <path id="DejaVuSans-37" d="M 525 4666 
L 3525 4666 
L 3525 4397 
L 1831 0 
L 1172 0 
L 2766 4134 
L 525 4134 
L 525 4666 
z
" transform="scale(0.015625)"/>
       </defs>
       <use xlink:href="#DejaVuSans-30"/>
       <use xlink:href="#DejaVuSans-2e" x="63.623047"/>
       <use xlink:href="#DejaVuSans-37" x="95.410156"/>
       <use xlink:href="#DejaVuSans-35" x="159.033203"/>
      </g>
     </g>
    </g>
    <g id="xtick_5">
     <g id="line2d_5">
      <g>
       <use xlink:href="#m384ed9ef96" x="233.65625" y="238.6" style="stroke: #000000; stroke-width: 0.8"/>
      </g>
     </g>
     <g id="text_5">
      <!-- 1.00 -->
      <g transform="translate(222.523438 253.198437)scale(0.1 -0.1)">
       <defs>
        <path id="DejaVuSans-31" d="M 794 531 
L 1825 531 
L 1825 4091 
L 703 3866 
L 703 4441 
L 1819 4666 
L 2450 4666 
L 2450 531 
L 3481 531 
L 3481 0 
L 794 0 
L 794 531 
z
" transform="scale(0.015625)"/>
       </defs>
       <use xlink:href="#DejaVuSans-31"/>
       <use xlink:href="#DejaVuSans-2e" x="63.623047"/>
       <use xlink:href="#DejaVuSans-30" x="95.410156"/>
       <use xlink:href="#DejaVuSans-30" x="159.033203"/>
      </g>
     </g>
    </g>
    <g id="xtick_6">
     <g id="line2d_6">
      <g>
       <use xlink:href="#m384ed9ef96" x="275.363636" y="238.6" style="stroke: #000000; stroke-width: 0.8"/>
      </g>
     </g>
     <g id="text_6">
      <!-- 1.25 -->
      <g transform="translate(264.230824 253.198437)scale(0.1 -0.1)">
       <use xlink:href="#DejaVuSans-31"/>
       <use xlink:href="#DejaVuSans-2e" x="63.623047"/>
       <use xlink:href="#DejaVuSans-32" x="95.410156"/>
       <use xlink:href="#DejaVuSans-35" x="159.033203"/>
      </g>
     </g>
    </g>
    <g id="xtick_7">
     <g id="line2d_7">
      <g>
       <use xlink:href="#m384ed9ef96" x="317.071023" y="238.6" style="stroke: #000000; stroke-width: 0.8"/>
      </g>
     </g>
     <g id="text_7">
      <!-- 1.50 -->
      <g transform="translate(305.93821 253.198437)scale(0.1 -0.1)">
       <use xlink:href="#DejaVuSans-31"/>
       <use xlink:href="#DejaVuSans-2e" x="63.623047"/>
       <use xlink:href="#DejaVuSans-35" x="95.410156"/>
       <use xlink:href="#DejaVuSans-30" x="159.033203"/>
      </g>
     </g>
    </g>
    <g id="xtick_8">
     <g id="line2d_8">
      <g>
       <use xlink:href="#m384ed9ef96" x="358.778409" y="238.6" style="stroke: #000000; stroke-width: 0.8"/>
      </g>
     </g>
     <g id="text_8">
      <!-- 1.75 -->
      <g transform="translate(347.645597 253.198437)scale(0.1 -0.1)">
       <use xlink:href="#DejaVuSans-31"/>
       <use xlink:href="#DejaVuSans-2e" x="63.623047"/>
       <use xlink:href="#DejaVuSans-37" x="95.410156"/>
       <use xlink:href="#DejaVuSans-35" x="159.033203"/>
      </g>
     </g>
    </g>
    <g id="xtick_9">
     <g id="line2d_9">
      <g>
       <use xlink:href="#m384ed9ef96" x="400.485795" y="238.6" style="stroke: #000000; stroke-width: 0.8"/>
      </g>
     </g>
     <g id="text_9">
      <!-- 2.00 -->
      <g transform="translate(389.352983 253.198437)scale(0.1 -0.1)">
       <use xlink:href="#DejaVuSans-32"/>
       <use xlink:href="#DejaVuSans-2e" x="63.623047"/>
       <use xlink:href="#DejaVuSans-30" x="95.410156"/>
       <use xlink:href="#DejaVuSans-30" x="159.033203"/>
      </g>
     </g>
    </g>
    <g id="text_10">
     <!-- Driving frequency ($\omega_d)$ -->
     <g transform="translate(176.85625 266.878125)scale(0.1 -0.1)">
      <defs>
       <path id="DejaVuSans-44" d="M 1259 4147 
L 1259 519 
L 2022 519 
Q 2988 519 3436 956 
Q 3884 1394 3884 2338 
Q 3884 3275 3436 3711 
Q 2988 4147 2022 4147 
L 1259 4147 
z
M 628 4666 
L 1925 4666 
Q 3281 4666 3915 4102 
Q 4550 3538 4550 2338 
Q 4550 1131 3912 565 
Q 3275 0 1925 0 
L 628 0 
L 628 4666 
z
" transform="scale(0.015625)"/>
       <path id="DejaVuSans-72" d="M 2631 2963 
Q 2534 3019 2420 3045 
Q 2306 3072 2169 3072 
Q 1681 3072 1420 2755 
Q 1159 2438 1159 1844 
L 1159 0 
L 581 0 
L 581 3500 
L 1159 3500 
L 1159 2956 
Q 1341 3275 1631 3429 
Q 1922 3584 2338 3584 
Q 2397 3584 2469 3576 
Q 2541 3569 2628 3553 
L 2631 2963 
z
" transform="scale(0.015625)"/>
       <path id="DejaVuSans-69" d="M 603 3500 
L 1178 3500 
L 1178 0 
L 603 0 
L 603 3500 
z
M 603 4863 
L 1178 4863 
L 1178 4134 
L 603 4134 
L 603 4863 
z
" transform="scale(0.015625)"/>
       <path id="DejaVuSans-76" d="M 191 3500 
L 800 3500 
L 1894 563 
L 2988 3500 
L 3597 3500 
L 2284 0 
L 1503 0 
L 191 3500 
z
" transform="scale(0.015625)"/>
       <path id="DejaVuSans-6e" d="M 3513 2113 
L 3513 0 
L 2938 0 
L 2938 2094 
Q 2938 2591 2744 2837 
Q 2550 3084 2163 3084 
Q 1697 3084 1428 2787 
Q 1159 2491 1159 1978 
L 1159 0 
L 581 0 
L 581 3500 
L 1159 3500 
L 1159 2956 
Q 1366 3272 1645 3428 
Q 1925 3584 2291 3584 
Q 2894 3584 3203 3211 
Q 3513 2838 3513 2113 
z
" transform="scale(0.015625)"/>
       <path id="DejaVuSans-67" d="M 2906 1791 
Q 2906 2416 2648 2759 
Q 2391 3103 1925 3103 
Q 1463 3103 1205 2759 
Q 947 2416 947 1791 
Q 947 1169 1205 825 
Q 1463 481 1925 481 
Q 2391 481 2648 825 
Q 2906 1169 2906 1791 
z
M 3481 434 
Q 3481 -459 3084 -895 
Q 2688 -1331 1869 -1331 
Q 1566 -1331 1297 -1286 
Q 1028 -1241 775 -1147 
L 775 -588 
Q 1028 -725 1275 -790 
Q 1522 -856 1778 -856 
Q 2344 -856 2625 -561 
Q 2906 -266 2906 331 
L 2906 616 
Q 2728 306 2450 153 
Q 2172 0 1784 0 
Q 1141 0 747 490 
Q 353 981 353 1791 
Q 353 2603 747 3093 
Q 1141 3584 1784 3584 
Q 2172 3584 2450 3431 
Q 2728 3278 2906 2969 
L 2906 3500 
L 3481 3500 
L 3481 434 
z
" transform="scale(0.015625)"/>
       <path id="DejaVuSans-20" transform="scale(0.015625)"/>
       <path id="DejaVuSans-66" d="M 2375 4863 
L 2375 4384 
L 1825 4384 
Q 1516 4384 1395 4259 
Q 1275 4134 1275 3809 
L 1275 3500 
L 2222 3500 
L 2222 3053 
L 1275 3053 
L 1275 0 
L 697 0 
L 697 3053 
L 147 3053 
L 147 3500 
L 697 3500 
L 697 3744 
Q 697 4328 969 4595 
Q 1241 4863 1831 4863 
L 2375 4863 
z
" transform="scale(0.015625)"/>
       <path id="DejaVuSans-65" d="M 3597 1894 
L 3597 1613 
L 953 1613 
Q 991 1019 1311 708 
Q 1631 397 2203 397 
Q 2534 397 2845 478 
Q 3156 559 3463 722 
L 3463 178 
Q 3153 47 2828 -22 
Q 2503 -91 2169 -91 
Q 1331 -91 842 396 
Q 353 884 353 1716 
Q 353 2575 817 3079 
Q 1281 3584 2069 3584 
Q 2775 3584 3186 3129 
Q 3597 2675 3597 1894 
z
M 3022 2063 
Q 3016 2534 2758 2815 
Q 2500 3097 2075 3097 
Q 1594 3097 1305 2825 
Q 1016 2553 972 2059 
L 3022 2063 
z
" transform="scale(0.015625)"/>
       <path id="DejaVuSans-71" d="M 947 1747 
Q 947 1113 1208 752 
Q 1469 391 1925 391 
Q 2381 391 2643 752 
Q 2906 1113 2906 1747 
Q 2906 2381 2643 2742 
Q 2381 3103 1925 3103 
Q 1469 3103 1208 2742 
Q 947 2381 947 1747 
z
M 2906 525 
Q 2725 213 2448 61 
Q 2172 -91 1784 -91 
Q 1150 -91 751 415 
Q 353 922 353 1747 
Q 353 2572 751 3078 
Q 1150 3584 1784 3584 
Q 2172 3584 2448 3432 
Q 2725 3281 2906 2969 
L 2906 3500 
L 3481 3500 
L 3481 -1331 
L 2906 -1331 
L 2906 525 
z
" transform="scale(0.015625)"/>
       <path id="DejaVuSans-75" d="M 544 1381 
L 544 3500 
L 1119 3500 
L 1119 1403 
Q 1119 906 1312 657 
Q 1506 409 1894 409 
Q 2359 409 2629 706 
Q 2900 1003 2900 1516 
L 2900 3500 
L 3475 3500 
L 3475 0 
L 2900 0 
L 2900 538 
Q 2691 219 2414 64 
Q 2138 -91 1772 -91 
Q 1169 -91 856 284 
Q 544 659 544 1381 
z
M 1991 3584 
L 1991 3584 
z
" transform="scale(0.015625)"/>
       <path id="DejaVuSans-63" d="M 3122 3366 
L 3122 2828 
Q 2878 2963 2633 3030 
Q 2388 3097 2138 3097 
Q 1578 3097 1268 2742 
Q 959 2388 959 1747 
Q 959 1106 1268 751 
Q 1578 397 2138 397 
Q 2388 397 2633 464 
Q 2878 531 3122 666 
L 3122 134 
Q 2881 22 2623 -34 
Q 2366 -91 2075 -91 
Q 1284 -91 818 406 
Q 353 903 353 1747 
Q 353 2603 823 3093 
Q 1294 3584 2113 3584 
Q 2378 3584 2631 3529 
Q 2884 3475 3122 3366 
z
" transform="scale(0.015625)"/>
       <path id="DejaVuSans-79" d="M 2059 -325 
Q 1816 -950 1584 -1140 
Q 1353 -1331 966 -1331 
L 506 -1331 
L 506 -850 
L 844 -850 
Q 1081 -850 1212 -737 
Q 1344 -625 1503 -206 
L 1606 56 
L 191 3500 
L 800 3500 
L 1894 763 
L 2988 3500 
L 3597 3500 
L 2059 -325 
z
" transform="scale(0.015625)"/>
       <path id="DejaVuSans-28" d="M 1984 4856 
Q 1566 4138 1362 3434 
Q 1159 2731 1159 2009 
Q 1159 1288 1364 580 
Q 1569 -128 1984 -844 
L 1484 -844 
Q 1016 -109 783 600 
Q 550 1309 550 2009 
Q 550 2706 781 3412 
Q 1013 4119 1484 4856 
L 1984 4856 
z
" transform="scale(0.015625)"/>
       <path id="DejaVuSans-Oblique-3c9" d="M 1369 -91 
Q 72 -91 434 1766 
Q 575 2500 1256 3500 
L 1875 3500 
Q 1231 2500 1088 1750 
Q 819 397 1519 397 
Q 2166 397 2478 2078 
L 3009 2078 
Q 2669 388 3316 397 
Q 4013 403 4275 1750 
Q 4419 2500 4169 3500 
L 4788 3500 
Q 5075 2500 4934 1766 
Q 4578 -94 3278 -91 
Q 2428 -88 2503 844 
Q 2194 -91 1369 -91 
z
" transform="scale(0.015625)"/>
       <path id="DejaVuSans-Oblique-64" d="M 2675 525 
Q 2444 222 2128 65 
Q 1813 -91 1428 -91 
Q 903 -91 598 267 
Q 294 625 294 1247 
Q 294 1766 478 2236 
Q 663 2706 1013 3078 
Q 1244 3325 1534 3454 
Q 1825 3584 2144 3584 
Q 2481 3584 2739 3421 
Q 2997 3259 3138 2956 
L 3513 4863 
L 4091 4863 
L 3144 0 
L 2566 0 
L 2675 525 
z
M 891 1350 
Q 891 897 1095 644 
Q 1300 391 1663 391 
Q 1931 391 2161 520 
Q 2391 650 2566 903 
Q 2750 1166 2856 1509 
Q 2963 1853 2963 2188 
Q 2963 2622 2758 2865 
Q 2553 3109 2194 3109 
Q 1922 3109 1687 2981 
Q 1453 2853 1288 2613 
Q 1106 2353 998 2009 
Q 891 1666 891 1350 
z
" transform="scale(0.015625)"/>
       <path id="DejaVuSans-29" d="M 513 4856 
L 1013 4856 
Q 1481 4119 1714 3412 
Q 1947 2706 1947 2009 
Q 1947 1309 1714 600 
Q 1481 -109 1013 -844 
L 513 -844 
Q 928 -128 1133 580 
Q 1338 1288 1338 2009 
Q 1338 2731 1133 3434 
Q 928 4138 513 4856 
z
" transform="scale(0.015625)"/>
      </defs>
      <use xlink:href="#DejaVuSans-44" transform="translate(0 0.015625)"/>
      <use xlink:href="#DejaVuSans-72" transform="translate(77.001953 0.015625)"/>
      <use xlink:href="#DejaVuSans-69" transform="translate(118.115234 0.015625)"/>
      <use xlink:href="#DejaVuSans-76" transform="translate(145.898438 0.015625)"/>
      <use xlink:href="#DejaVuSans-69" transform="translate(205.078125 0.015625)"/>
      <use xlink:href="#DejaVuSans-6e" transform="translate(232.861328 0.015625)"/>
      <use xlink:href="#DejaVuSans-67" transform="translate(296.240234 0.015625)"/>
      <use xlink:href="#DejaVuSans-20" transform="translate(359.716797 0.015625)"/>
      <use xlink:href="#DejaVuSans-66" transform="translate(391.503906 0.015625)"/>
      <use xlink:href="#DejaVuSans-72" transform="translate(426.708984 0.015625)"/>
      <use xlink:href="#DejaVuSans-65" transform="translate(467.822266 0.015625)"/>
      <use xlink:href="#DejaVuSans-71" transform="translate(529.345703 0.015625)"/>
      <use xlink:href="#DejaVuSans-75" transform="translate(592.822266 0.015625)"/>
      <use xlink:href="#DejaVuSans-65" transform="translate(656.201172 0.015625)"/>
      <use xlink:href="#DejaVuSans-6e" transform="translate(717.724609 0.015625)"/>
      <use xlink:href="#DejaVuSans-63" transform="translate(781.103516 0.015625)"/>
      <use xlink:href="#DejaVuSans-79" transform="translate(836.083984 0.015625)"/>
      <use xlink:href="#DejaVuSans-20" transform="translate(895.263672 0.015625)"/>
      <use xlink:href="#DejaVuSans-28" transform="translate(927.050781 0.015625)"/>
      <use xlink:href="#DejaVuSans-Oblique-3c9" transform="translate(966.064453 0.015625)"/>
      <use xlink:href="#DejaVuSans-Oblique-64" transform="translate(1049.804688 -16.390625)scale(0.7)"/>
      <use xlink:href="#DejaVuSans-29" transform="translate(1096.972656 0.015625)"/>
     </g>
    </g>
   </g>
   <g id="matplotlib.axis_2">
    <g id="ytick_1">
     <g id="line2d_10">
      <defs>
       <path id="m8f24e82b8f" d="M 0 0 
L -3.5 0 
" style="stroke: #000000; stroke-width: 0.8"/>
      </defs>
      <g>
       <use xlink:href="#m8f24e82b8f" x="50.14375" y="235.191471" style="stroke: #000000; stroke-width: 0.8"/>
      </g>
     </g>
     <g id="text_11">
      <!-- 0.0 -->
      <g transform="translate(27.240625 238.99069)scale(0.1 -0.1)">
       <use xlink:href="#DejaVuSans-30"/>
       <use xlink:href="#DejaVuSans-2e" x="63.623047"/>
       <use xlink:href="#DejaVuSans-30" x="95.410156"/>
      </g>
     </g>
    </g>
    <g id="ytick_2">
     <g id="line2d_11">
      <g>
       <use xlink:href="#m8f24e82b8f" x="50.14375" y="205.954736" style="stroke: #000000; stroke-width: 0.8"/>
      </g>
     </g>
     <g id="text_12">
      <!-- 2.5 -->
      <g transform="translate(27.240625 209.753955)scale(0.1 -0.1)">
       <use xlink:href="#DejaVuSans-32"/>
       <use xlink:href="#DejaVuSans-2e" x="63.623047"/>
       <use xlink:href="#DejaVuSans-35" x="95.410156"/>
      </g>
     </g>
    </g>
    <g id="ytick_3">
     <g id="line2d_12">
      <g>
       <use xlink:href="#m8f24e82b8f" x="50.14375" y="176.718" style="stroke: #000000; stroke-width: 0.8"/>
      </g>
     </g>
     <g id="text_13">
      <!-- 5.0 -->
      <g transform="translate(27.240625 180.517219)scale(0.1 -0.1)">
       <use xlink:href="#DejaVuSans-35"/>
       <use xlink:href="#DejaVuSans-2e" x="63.623047"/>
       <use xlink:href="#DejaVuSans-30" x="95.410156"/>
      </g>
     </g>
    </g>
    <g id="ytick_4">
     <g id="line2d_13">
      <g>
       <use xlink:href="#m8f24e82b8f" x="50.14375" y="147.481264" style="stroke: #000000; stroke-width: 0.8"/>
      </g>
     </g>
     <g id="text_14">
      <!-- 7.5 -->
      <g transform="translate(27.240625 151.280483)scale(0.1 -0.1)">
       <use xlink:href="#DejaVuSans-37"/>
       <use xlink:href="#DejaVuSans-2e" x="63.623047"/>
       <use xlink:href="#DejaVuSans-35" x="95.410156"/>
      </g>
     </g>
    </g>
    <g id="ytick_5">
     <g id="line2d_14">
      <g>
       <use xlink:href="#m8f24e82b8f" x="50.14375" y="118.244529" style="stroke: #000000; stroke-width: 0.8"/>
      </g>
     </g>
     <g id="text_15">
      <!-- 10.0 -->
      <g transform="translate(20.878125 122.043748)scale(0.1 -0.1)">
       <use xlink:href="#DejaVuSans-31"/>
       <use xlink:href="#DejaVuSans-30" x="63.623047"/>
       <use xlink:href="#DejaVuSans-2e" x="127.246094"/>
       <use xlink:href="#DejaVuSans-30" x="159.033203"/>
      </g>
     </g>
    </g>
    <g id="ytick_6">
     <g id="line2d_15">
      <g>
       <use xlink:href="#m8f24e82b8f" x="50.14375" y="89.007793" style="stroke: #000000; stroke-width: 0.8"/>
      </g>
     </g>
     <g id="text_16">
      <!-- 12.5 -->
      <g transform="translate(20.878125 92.807012)scale(0.1 -0.1)">
       <use xlink:href="#DejaVuSans-31"/>
       <use xlink:href="#DejaVuSans-32" x="63.623047"/>
       <use xlink:href="#DejaVuSans-2e" x="127.246094"/>
       <use xlink:href="#DejaVuSans-35" x="159.033203"/>
      </g>
     </g>
    </g>
    <g id="ytick_7">
     <g id="line2d_16">
      <g>
       <use xlink:href="#m8f24e82b8f" x="50.14375" y="59.771057" style="stroke: #000000; stroke-width: 0.8"/>
      </g>
     </g>
     <g id="text_17">
      <!-- 15.0 -->
      <g transform="translate(20.878125 63.570276)scale(0.1 -0.1)">
       <use xlink:href="#DejaVuSans-31"/>
       <use xlink:href="#DejaVuSans-35" x="63.623047"/>
       <use xlink:href="#DejaVuSans-2e" x="127.246094"/>
       <use xlink:href="#DejaVuSans-30" x="159.033203"/>
      </g>
     </g>
    </g>
    <g id="ytick_8">
     <g id="line2d_17">
      <g>
       <use xlink:href="#m8f24e82b8f" x="50.14375" y="30.534322" style="stroke: #000000; stroke-width: 0.8"/>
      </g>
     </g>
     <g id="text_18">
      <!-- 17.5 -->
      <g transform="translate(20.878125 34.333541)scale(0.1 -0.1)">
       <use xlink:href="#DejaVuSans-31"/>
       <use xlink:href="#DejaVuSans-37" x="63.623047"/>
       <use xlink:href="#DejaVuSans-2e" x="127.246094"/>
       <use xlink:href="#DejaVuSans-35" x="159.033203"/>
      </g>
     </g>
    </g>
    <g id="text_19">
     <!-- Amplitude (A) -->
     <g transform="translate(14.798438 157.433594)rotate(-90)scale(0.1 -0.1)">
      <defs>
       <path id="DejaVuSans-41" d="M 2188 4044 
L 1331 1722 
L 3047 1722 
L 2188 4044 
z
M 1831 4666 
L 2547 4666 
L 4325 0 
L 3669 0 
L 3244 1197 
L 1141 1197 
L 716 0 
L 50 0 
L 1831 4666 
z
" transform="scale(0.015625)"/>
       <path id="DejaVuSans-6d" d="M 3328 2828 
Q 3544 3216 3844 3400 
Q 4144 3584 4550 3584 
Q 5097 3584 5394 3201 
Q 5691 2819 5691 2113 
L 5691 0 
L 5113 0 
L 5113 2094 
Q 5113 2597 4934 2840 
Q 4756 3084 4391 3084 
Q 3944 3084 3684 2787 
Q 3425 2491 3425 1978 
L 3425 0 
L 2847 0 
L 2847 2094 
Q 2847 2600 2669 2842 
Q 2491 3084 2119 3084 
Q 1678 3084 1418 2786 
Q 1159 2488 1159 1978 
L 1159 0 
L 581 0 
L 581 3500 
L 1159 3500 
L 1159 2956 
Q 1356 3278 1631 3431 
Q 1906 3584 2284 3584 
Q 2666 3584 2933 3390 
Q 3200 3197 3328 2828 
z
" transform="scale(0.015625)"/>
       <path id="DejaVuSans-70" d="M 1159 525 
L 1159 -1331 
L 581 -1331 
L 581 3500 
L 1159 3500 
L 1159 2969 
Q 1341 3281 1617 3432 
Q 1894 3584 2278 3584 
Q 2916 3584 3314 3078 
Q 3713 2572 3713 1747 
Q 3713 922 3314 415 
Q 2916 -91 2278 -91 
Q 1894 -91 1617 61 
Q 1341 213 1159 525 
z
M 3116 1747 
Q 3116 2381 2855 2742 
Q 2594 3103 2138 3103 
Q 1681 3103 1420 2742 
Q 1159 2381 1159 1747 
Q 1159 1113 1420 752 
Q 1681 391 2138 391 
Q 2594 391 2855 752 
Q 3116 1113 3116 1747 
z
" transform="scale(0.015625)"/>
       <path id="DejaVuSans-6c" d="M 603 4863 
L 1178 4863 
L 1178 0 
L 603 0 
L 603 4863 
z
" transform="scale(0.015625)"/>
       <path id="DejaVuSans-74" d="M 1172 4494 
L 1172 3500 
L 2356 3500 
L 2356 3053 
L 1172 3053 
L 1172 1153 
Q 1172 725 1289 603 
Q 1406 481 1766 481 
L 2356 481 
L 2356 0 
L 1766 0 
Q 1100 0 847 248 
Q 594 497 594 1153 
L 594 3053 
L 172 3053 
L 172 3500 
L 594 3500 
L 594 4494 
L 1172 4494 
z
" transform="scale(0.015625)"/>
       <path id="DejaVuSans-64" d="M 2906 2969 
L 2906 4863 
L 3481 4863 
L 3481 0 
L 2906 0 
L 2906 525 
Q 2725 213 2448 61 
Q 2172 -91 1784 -91 
Q 1150 -91 751 415 
Q 353 922 353 1747 
Q 353 2572 751 3078 
Q 1150 3584 1784 3584 
Q 2172 3584 2448 3432 
Q 2725 3281 2906 2969 
z
M 947 1747 
Q 947 1113 1208 752 
Q 1469 391 1925 391 
Q 2381 391 2643 752 
Q 2906 1113 2906 1747 
Q 2906 2381 2643 2742 
Q 2381 3103 1925 3103 
Q 1469 3103 1208 2742 
Q 947 2381 947 1747 
z
" transform="scale(0.015625)"/>
      </defs>
      <use xlink:href="#DejaVuSans-41"/>
      <use xlink:href="#DejaVuSans-6d" x="68.408203"/>
      <use xlink:href="#DejaVuSans-70" x="165.820312"/>
      <use xlink:href="#DejaVuSans-6c" x="229.296875"/>
      <use xlink:href="#DejaVuSans-69" x="257.080078"/>
      <use xlink:href="#DejaVuSans-74" x="284.863281"/>
      <use xlink:href="#DejaVuSans-75" x="324.072266"/>
      <use xlink:href="#DejaVuSans-64" x="387.451172"/>
      <use xlink:href="#DejaVuSans-65" x="450.927734"/>
      <use xlink:href="#DejaVuSans-20" x="512.451172"/>
      <use xlink:href="#DejaVuSans-28" x="544.238281"/>
      <use xlink:href="#DejaVuSans-41" x="583.251953"/>
      <use xlink:href="#DejaVuSans-29" x="651.660156"/>
     </g>
    </g>
   </g>
   <g id="line2d_18">
    <path d="M 66.826705 223.936974 
L 70.196998 224.164248 
L 73.567292 224.390702 
L 76.937586 224.615511 
L 80.30788 224.837856 
L 83.678174 225.056926 
L 87.048468 225.271919 
L 90.418761 225.461205 
L 93.789055 225.257071 
L 97.159349 225.087029 
L 100.529643 224.997197 
L 103.899937 225.020952 
L 107.270231 224.944284 
L 110.640525 224.746751 
L 114.010818 224.560559 
L 117.381112 224.402877 
L 120.751406 224.294489 
L 124.1217 224.243204 
L 127.491994 224.257227 
L 130.862288 224.363869 
L 134.232581 224.53768 
L 137.602875 224.714168 
L 140.973169 224.668908 
L 144.343463 224.933485 
L 147.713757 225.344179 
L 151.084051 225.391352 
L 154.454345 224.758612 
L 157.824638 224.309733 
L 161.194932 223.96392 
L 164.565226 223.830719 
L 167.93552 223.537074 
L 171.305814 222.655416 
L 174.676108 221.446577 
L 178.046402 219.797542 
L 181.416695 217.790272 
L 184.786989 215.518117 
L 188.157283 213.088262 
L 191.527577 210.558061 
L 194.897871 206.846928 
L 198.268165 202.943717 
L 201.638458 198.733219 
L 205.008752 193.056486 
L 208.379046 186.593861 
L 211.74934 178.701249 
L 215.119634 168.63191 
L 218.489928 155.711676 
L 221.860222 137.824509 
L 225.230515 112.829934 
L 228.600809 75.07802 
L 231.971103 20.2561 
L 235.341397 17.718182 
L 238.711691 66.774313 
L 242.081985 99.714953 
L 245.452278 121.305517 
L 248.822572 136.655929 
L 252.192866 147.622192 
L 255.56316 156.105483 
L 258.933454 163.119327 
L 262.303748 168.416097 
L 265.674042 173.074248 
L 269.044335 176.733533 
L 272.414629 180.539932 
L 275.784923 182.887203 
L 279.155217 185.282297 
L 282.525511 187.821364 
L 285.895805 190.375115 
L 289.266098 191.696536 
L 292.636392 192.819579 
L 296.006686 194.244313 
L 299.37698 195.524097 
L 302.747274 196.942854 
L 306.117568 198.345628 
L 309.487862 199.847082 
L 312.858155 201.249378 
L 316.228449 202.024084 
L 319.598743 202.506759 
L 322.969037 202.925668 
L 326.339331 203.432631 
L 329.709625 204.020841 
L 333.079919 204.538192 
L 336.450212 205.098114 
L 339.820506 205.64199 
L 343.1908 206.210443 
L 346.561094 206.723121 
L 349.931388 207.29648 
L 353.301682 207.823869 
L 356.671975 207.988466 
L 360.042269 208.289731 
L 363.412563 208.549707 
L 366.782857 209.007644 
L 370.153151 209.499304 
L 373.523445 210.102985 
L 376.893739 210.798023 
L 380.264032 211.339582 
L 383.634326 212.027267 
L 387.00462 212.821528 
L 390.374914 213.748577 
L 393.745208 214.777001 
L 397.115502 215.395905 
L 400.485795 215.607545 
" clip-path="url(#p94ca6883fc)" style="fill: none; stroke: #1f77b4; stroke-width: 1.5; stroke-linecap: square"/>
   </g>
   <g id="line2d_19">
    <path d="M 66.826705 224.33116 
L 70.196998 224.548925 
L 73.567292 224.766011 
L 76.937586 224.981743 
L 80.30788 225.195447 
L 83.678174 225.406457 
L 87.048468 225.614112 
L 90.418761 225.817762 
L 93.789055 226.016769 
L 97.159349 226.13023 
L 100.529643 225.997674 
L 103.899937 225.892289 
L 107.270231 225.677882 
L 110.640525 225.45637 
L 114.010818 225.243605 
L 117.381112 225.058293 
L 120.751406 224.9062 
L 124.1217 224.807343 
L 127.491994 224.780849 
L 130.862288 224.810567 
L 134.232581 224.916958 
L 137.602875 225.089999 
L 140.973169 225.252025 
L 144.343463 225.394747 
L 147.713757 225.577701 
L 151.084051 225.391224 
L 154.454345 225.042906 
L 157.824638 224.625337 
L 161.194932 224.19838 
L 164.565226 223.902036 
L 167.93552 223.452294 
L 171.305814 222.530154 
L 174.676108 221.35672 
L 178.046402 219.917543 
L 181.416695 218.237832 
L 184.786989 216.355742 
L 188.157283 214.3235 
L 191.527577 212.116134 
L 194.897871 209.077635 
L 198.268165 205.898118 
L 201.638458 202.605343 
L 205.008752 198.195386 
L 208.379046 193.539649 
L 211.74934 187.863565 
L 215.119634 181.044302 
L 218.489928 172.684372 
L 221.860222 162.560848 
L 225.230515 150.126664 
L 228.600809 134.896738 
L 231.971103 120.900658 
L 235.341397 120.555976 
L 238.711691 132.523895 
L 242.081985 144.286038 
L 245.452278 153.840568 
L 248.822572 161.471855 
L 252.192866 167.739796 
L 255.56316 172.682497 
L 258.933454 176.626011 
L 262.303748 180.300841 
L 265.674042 183.12363 
L 269.044335 186.212208 
L 272.414629 188.189573 
L 275.784923 190.062352 
L 279.155217 192.066692 
L 282.525511 194.194537 
L 285.895805 195.393628 
L 289.266098 196.311935 
L 292.636392 197.475588 
L 296.006686 198.591341 
L 299.37698 199.78592 
L 302.747274 200.953907 
L 306.117568 202.290709 
L 309.487862 203.45836 
L 312.858155 204.157911 
L 316.228449 204.579543 
L 319.598743 204.929413 
L 322.969037 205.369222 
L 326.339331 205.892866 
L 329.709625 206.3233 
L 333.079919 206.823179 
L 336.450212 207.31356 
L 339.820506 207.780744 
L 343.1908 208.244002 
L 346.561094 208.770747 
L 349.931388 209.354893 
L 353.301682 209.85725 
L 356.671975 210.350721 
L 360.042269 210.868259 
L 363.412563 211.412292 
L 366.782857 211.753073 
L 370.153151 212.236667 
L 373.523445 212.708482 
L 376.893739 213.285518 
L 380.264032 213.88891 
L 383.634326 214.4543 
L 387.00462 215.047209 
L 390.374914 215.587543 
L 393.745208 216.084361 
L 397.115502 216.41394 
L 400.485795 216.530298 
" clip-path="url(#p94ca6883fc)" style="fill: none; stroke: #ff7f0e; stroke-width: 1.5; stroke-linecap: square"/>
   </g>
   <g id="line2d_20">
    <path d="M 66.826705 224.995118 
L 70.196998 225.198098 
L 73.567292 225.400433 
L 76.937586 225.601479 
L 80.30788 225.800594 
L 83.678174 225.997144 
L 87.048468 226.190501 
L 90.418761 226.380046 
L 93.789055 226.565171 
L 97.159349 226.74528 
L 100.529643 226.919793 
L 103.899937 226.962788 
L 107.270231 226.717769 
L 110.640525 226.462607 
L 114.010818 226.211256 
L 117.381112 225.974029 
L 120.751406 225.770791 
L 124.1217 225.611681 
L 127.491994 225.499598 
L 130.862288 225.438523 
L 134.232581 225.43024 
L 137.602875 225.468004 
L 140.973169 225.538726 
L 144.343463 225.617811 
L 147.713757 225.65949 
L 151.084051 225.415112 
L 154.454345 225.144817 
L 157.824638 224.830601 
L 161.194932 224.457424 
L 164.565226 224.095534 
L 167.93552 223.575828 
L 171.305814 222.654741 
L 174.676108 221.619106 
L 178.046402 220.474526 
L 181.416695 219.185877 
L 184.786989 217.808309 
L 188.157283 216.356618 
L 191.527577 214.544103 
L 194.897871 212.459624 
L 198.268165 210.354714 
L 201.638458 208.070348 
L 205.008752 205.334649 
L 208.379046 202.552361 
L 211.74934 199.263805 
L 215.119634 195.715593 
L 218.489928 191.76852 
L 221.860222 187.559164 
L 225.230515 183.271879 
L 228.600809 179.394884 
L 231.971103 177.08832 
L 235.341397 177.060832 
L 238.711691 179.074327 
L 242.081985 181.95543 
L 245.452278 184.649979 
L 248.822572 187.305891 
L 252.192866 189.665272 
L 255.56316 191.717177 
L 258.933454 193.423818 
L 262.303748 195.122047 
L 265.674042 196.74165 
L 269.044335 197.879297 
L 272.414629 199.175923 
L 275.784923 200.51577 
L 279.155217 201.477472 
L 282.525511 202.293243 
L 285.895805 202.912549 
L 289.266098 203.746245 
L 292.636392 204.576245 
L 296.006686 205.40961 
L 299.37698 206.374622 
L 302.747274 207.248896 
L 306.117568 207.871351 
L 309.487862 208.224894 
L 312.858155 208.465817 
L 316.228449 208.765839 
L 319.598743 209.153465 
L 322.969037 209.483098 
L 326.339331 209.862007 
L 329.709625 210.255118 
L 333.079919 210.597576 
L 336.450212 210.954563 
L 339.820506 211.379635 
L 343.1908 211.818991 
L 346.561094 212.220271 
L 349.931388 212.62611 
L 353.301682 213.063903 
L 356.671975 213.439582 
L 360.042269 213.846598 
L 363.412563 214.302844 
L 366.782857 214.781981 
L 370.153151 215.202108 
L 373.523445 215.593557 
L 376.893739 216.024714 
L 380.264032 216.45464 
L 383.634326 216.850666 
L 387.00462 217.282929 
L 390.374914 217.747452 
L 393.745208 217.98453 
L 397.115502 218.045655 
L 400.485795 218.096113 
" clip-path="url(#p94ca6883fc)" style="fill: none; stroke: #2ca02c; stroke-width: 1.5; stroke-linecap: square"/>
   </g>
   <g id="line2d_21">
    <path d="M 66.826705 226.004354 
L 70.196998 226.18 
L 73.567292 226.355109 
L 76.937586 226.529299 
L 80.30788 226.702015 
L 83.678174 226.872773 
L 87.048468 227.040489 
L 90.418761 227.202928 
L 93.789055 227.362572 
L 97.159349 227.519042 
L 100.529643 227.671967 
L 103.899937 227.798333 
L 107.270231 227.778959 
L 110.640525 227.505078 
L 114.010818 227.218025 
L 117.381112 226.944932 
L 120.751406 226.695347 
L 124.1217 226.475701 
L 127.491994 226.288069 
L 130.862288 226.131866 
L 134.232581 226.003932 
L 137.602875 225.898513 
L 140.973169 225.8067 
L 144.343463 225.72561 
L 147.713757 225.639404 
L 151.084051 225.517387 
L 154.454345 225.269964 
L 157.824638 225.007659 
L 161.194932 224.72227 
L 164.565226 224.422137 
L 167.93552 224.090943 
L 171.305814 223.647847 
L 174.676108 222.880664 
L 178.046402 222.07401 
L 181.416695 221.252542 
L 184.786989 220.409558 
L 188.157283 219.423413 
L 191.527577 218.351558 
L 194.897871 217.273241 
L 198.268165 216.184676 
L 201.638458 214.972416 
L 205.008752 213.74885 
L 208.379046 212.505295 
L 211.74934 211.243967 
L 215.119634 210.014861 
L 218.489928 208.823264 
L 221.860222 207.773064 
L 225.230515 206.922321 
L 228.600809 206.324366 
L 231.971103 206.021482 
L 235.341397 206.012714 
L 238.711691 206.289667 
L 242.081985 206.720836 
L 245.452278 207.240957 
L 248.822572 207.803133 
L 252.192866 208.332319 
L 255.56316 208.884701 
L 258.933454 209.31465 
L 262.303748 209.827279 
L 265.674042 210.34949 
L 269.044335 210.788501 
L 272.414629 211.118093 
L 275.784923 211.450345 
L 279.155217 211.826736 
L 282.525511 212.254641 
L 285.895805 212.725375 
L 289.266098 213.143465 
L 292.636392 213.713825 
L 296.006686 213.856144 
L 299.37698 214.013429 
L 302.747274 214.222036 
L 306.117568 214.327509 
L 309.487862 214.519032 
L 312.858155 214.735749 
L 316.228449 214.93422 
L 319.598743 215.186726 
L 322.969037 215.386678 
L 326.339331 215.588155 
L 329.709625 215.859304 
L 333.079919 216.118145 
L 336.450212 216.377853 
L 339.820506 216.647391 
L 343.1908 216.901484 
L 346.561094 217.134987 
L 349.931388 217.424661 
L 353.301682 217.749142 
L 356.671975 218.015563 
L 360.042269 218.29231 
L 363.412563 218.588798 
L 366.782857 218.845992 
L 370.153151 219.113083 
L 373.523445 219.423466 
L 376.893739 219.76329 
L 380.264032 219.8725 
L 383.634326 219.913632 
L 387.00462 219.950403 
L 390.374914 219.99719 
L 393.745208 220.053794 
L 397.115502 220.119991 
L 400.485795 220.195535 
" clip-path="url(#p94ca6883fc)" style="fill: none; stroke: #d62728; stroke-width: 1.5; stroke-linecap: square"/>
   </g>
   <g id="line2d_22">
    <path d="M 66.826705 226.709651 
L 70.196998 226.86238 
L 73.567292 227.014746 
L 76.937586 227.166372 
L 80.30788 227.316789 
L 83.678174 227.465717 
L 87.048468 227.608769 
L 90.418761 227.749555 
L 93.789055 227.888235 
L 97.159349 228.024529 
L 100.529643 228.081818 
L 103.899937 227.958376 
L 107.270231 227.856075 
L 110.640525 227.71807 
L 114.010818 227.576838 
L 117.381112 227.339462 
L 120.751406 227.101435 
L 124.1217 226.88296 
L 127.491994 226.683316 
L 130.862288 226.504891 
L 134.232581 226.341328 
L 137.602875 226.192583 
L 140.973169 226.054346 
L 144.343463 225.922547 
L 147.713757 225.794487 
L 151.084051 225.667119 
L 154.454345 225.454811 
L 157.824638 225.228145 
L 161.194932 224.991821 
L 164.565226 224.744305 
L 167.93552 224.476644 
L 171.305814 224.1908 
L 174.676108 223.899799 
L 178.046402 223.589624 
L 181.416695 223.122366 
L 184.786989 222.506627 
L 188.157283 221.874768 
L 191.527577 221.234823 
L 194.897871 220.61511 
L 198.268165 219.968029 
L 201.638458 219.340255 
L 205.008752 218.723178 
L 208.379046 218.121147 
L 211.74934 217.565518 
L 215.119634 217.080196 
L 218.489928 216.631208 
L 221.860222 216.269363 
L 225.230515 215.997402 
L 228.600809 215.815284 
L 231.971103 215.726042 
L 235.341397 215.726285 
L 238.711691 215.800099 
L 242.081985 215.932645 
L 245.452278 216.044553 
L 248.822572 216.210842 
L 252.192866 216.37621 
L 255.56316 216.580868 
L 258.933454 216.717342 
L 262.303748 216.856937 
L 265.674042 216.998089 
L 269.044335 217.216124 
L 272.414629 217.373675 
L 275.784923 217.60345 
L 279.155217 217.840246 
L 282.525511 218.098634 
L 285.895805 218.097835 
L 289.266098 218.187564 
L 292.636392 218.237441 
L 296.006686 218.358518 
L 299.37698 218.438766 
L 302.747274 218.520507 
L 306.117568 218.673694 
L 309.487862 218.770689 
L 312.858155 218.936991 
L 316.228449 219.059639 
L 319.598743 219.172386 
L 322.969037 219.351349 
L 326.339331 219.508746 
L 329.709625 219.684746 
L 333.079919 219.866491 
L 336.450212 220.003008 
L 339.820506 220.165602 
L 343.1908 220.382638 
L 346.561094 220.567734 
L 349.931388 220.760555 
L 353.301682 220.949469 
L 356.671975 221.112102 
L 360.042269 221.136918 
L 363.412563 221.172849 
L 366.782857 221.219734 
L 370.153151 221.277377 
L 373.523445 221.300965 
L 376.893739 221.319194 
L 380.264032 221.347076 
L 383.634326 221.38448 
L 387.00462 221.431251 
L 390.374914 221.487205 
L 393.745208 221.552137 
L 397.115502 221.589698 
L 400.485795 221.614281 
" clip-path="url(#p94ca6883fc)" style="fill: none; stroke: #9467bd; stroke-width: 1.5; stroke-linecap: square"/>
   </g>
   <g id="patch_3">
    <path d="M 50.14375 238.6 
L 50.14375 7.2 
" style="fill: none; stroke: #000000; stroke-width: 0.8; stroke-linejoin: miter; stroke-linecap: square"/>
   </g>
   <g id="patch_4">
    <path d="M 417.16875 238.6 
L 417.16875 7.2 
" style="fill: none; stroke: #000000; stroke-width: 0.8; stroke-linejoin: miter; stroke-linecap: square"/>
   </g>
   <g id="patch_5">
    <path d="M 50.14375 238.6 
L 417.16875 238.6 
" style="fill: none; stroke: #000000; stroke-width: 0.8; stroke-linejoin: miter; stroke-linecap: square"/>
   </g>
   <g id="patch_6">
    <path d="M 50.14375 7.2 
L 417.16875 7.2 
" style="fill: none; stroke: #000000; stroke-width: 0.8; stroke-linejoin: miter; stroke-linecap: square"/>
   </g>
   <g id="legend_1">
    <g id="patch_7">
     <path d="M 328.4625 88.590625 
L 410.16875 88.590625 
Q 412.16875 88.590625 412.16875 86.590625 
L 412.16875 14.2 
Q 412.16875 12.2 410.16875 12.2 
L 328.4625 12.2 
Q 326.4625 12.2 326.4625 14.2 
L 326.4625 86.590625 
Q 326.4625 88.590625 328.4625 88.590625 
z
" style="fill: #ffffff; opacity: 0.8; stroke: #cccccc; stroke-linejoin: miter"/>
    </g>
    <g id="line2d_23">
     <path d="M 330.4625 20.298437 
L 340.4625 20.298437 
L 350.4625 20.298437 
" style="fill: none; stroke: #1f77b4; stroke-width: 1.5; stroke-linecap: square"/>
    </g>
    <g id="text_20">
     <!-- b =  0.05  -->
     <g transform="translate(358.4625 23.798437)scale(0.1 -0.1)">
      <defs>
       <path id="DejaVuSans-62" d="M 3116 1747 
Q 3116 2381 2855 2742 
Q 2594 3103 2138 3103 
Q 1681 3103 1420 2742 
Q 1159 2381 1159 1747 
Q 1159 1113 1420 752 
Q 1681 391 2138 391 
Q 2594 391 2855 752 
Q 3116 1113 3116 1747 
z
M 1159 2969 
Q 1341 3281 1617 3432 
Q 1894 3584 2278 3584 
Q 2916 3584 3314 3078 
Q 3713 2572 3713 1747 
Q 3713 922 3314 415 
Q 2916 -91 2278 -91 
Q 1894 -91 1617 61 
Q 1341 213 1159 525 
L 1159 0 
L 581 0 
L 581 4863 
L 1159 4863 
L 1159 2969 
z
" transform="scale(0.015625)"/>
       <path id="DejaVuSans-3d" d="M 678 2906 
L 4684 2906 
L 4684 2381 
L 678 2381 
L 678 2906 
z
M 678 1631 
L 4684 1631 
L 4684 1100 
L 678 1100 
L 678 1631 
z
" transform="scale(0.015625)"/>
      </defs>
      <use xlink:href="#DejaVuSans-62"/>
      <use xlink:href="#DejaVuSans-20" x="63.476562"/>
      <use xlink:href="#DejaVuSans-3d" x="95.263672"/>
      <use xlink:href="#DejaVuSans-20" x="179.052734"/>
      <use xlink:href="#DejaVuSans-20" x="210.839844"/>
      <use xlink:href="#DejaVuSans-30" x="242.626953"/>
      <use xlink:href="#DejaVuSans-2e" x="306.25"/>
      <use xlink:href="#DejaVuSans-30" x="338.037109"/>
      <use xlink:href="#DejaVuSans-35" x="401.660156"/>
      <use xlink:href="#DejaVuSans-20" x="465.283203"/>
     </g>
    </g>
    <g id="line2d_24">
     <path d="M 330.4625 34.976562 
L 340.4625 34.976562 
L 350.4625 34.976562 
" style="fill: none; stroke: #ff7f0e; stroke-width: 1.5; stroke-linecap: square"/>
    </g>
    <g id="text_21">
     <!-- b =  0.10  -->
     <g transform="translate(358.4625 38.476562)scale(0.1 -0.1)">
      <use xlink:href="#DejaVuSans-62"/>
      <use xlink:href="#DejaVuSans-20" x="63.476562"/>
      <use xlink:href="#DejaVuSans-3d" x="95.263672"/>
      <use xlink:href="#DejaVuSans-20" x="179.052734"/>
      <use xlink:href="#DejaVuSans-20" x="210.839844"/>
      <use xlink:href="#DejaVuSans-30" x="242.626953"/>
      <use xlink:href="#DejaVuSans-2e" x="306.25"/>
      <use xlink:href="#DejaVuSans-31" x="338.037109"/>
      <use xlink:href="#DejaVuSans-30" x="401.660156"/>
      <use xlink:href="#DejaVuSans-20" x="465.283203"/>
     </g>
    </g>
    <g id="line2d_25">
     <path d="M 330.4625 49.654687 
L 340.4625 49.654687 
L 350.4625 49.654687 
" style="fill: none; stroke: #2ca02c; stroke-width: 1.5; stroke-linecap: square"/>
    </g>
    <g id="text_22">
     <!-- b =  0.20  -->
     <g transform="translate(358.4625 53.154687)scale(0.1 -0.1)">
      <use xlink:href="#DejaVuSans-62"/>
      <use xlink:href="#DejaVuSans-20" x="63.476562"/>
      <use xlink:href="#DejaVuSans-3d" x="95.263672"/>
      <use xlink:href="#DejaVuSans-20" x="179.052734"/>
      <use xlink:href="#DejaVuSans-20" x="210.839844"/>
      <use xlink:href="#DejaVuSans-30" x="242.626953"/>
      <use xlink:href="#DejaVuSans-2e" x="306.25"/>
      <use xlink:href="#DejaVuSans-32" x="338.037109"/>
      <use xlink:href="#DejaVuSans-30" x="401.660156"/>
      <use xlink:href="#DejaVuSans-20" x="465.283203"/>
     </g>
    </g>
    <g id="line2d_26">
     <path d="M 330.4625 64.332812 
L 340.4625 64.332812 
L 350.4625 64.332812 
" style="fill: none; stroke: #d62728; stroke-width: 1.5; stroke-linecap: square"/>
    </g>
    <g id="text_23">
     <!-- b =  0.40  -->
     <g transform="translate(358.4625 67.832812)scale(0.1 -0.1)">
      <defs>
       <path id="DejaVuSans-34" d="M 2419 4116 
L 825 1625 
L 2419 1625 
L 2419 4116 
z
M 2253 4666 
L 3047 4666 
L 3047 1625 
L 3713 1625 
L 3713 1100 
L 3047 1100 
L 3047 0 
L 2419 0 
L 2419 1100 
L 313 1100 
L 313 1709 
L 2253 4666 
z
" transform="scale(0.015625)"/>
      </defs>
      <use xlink:href="#DejaVuSans-62"/>
      <use xlink:href="#DejaVuSans-20" x="63.476562"/>
      <use xlink:href="#DejaVuSans-3d" x="95.263672"/>
      <use xlink:href="#DejaVuSans-20" x="179.052734"/>
      <use xlink:href="#DejaVuSans-20" x="210.839844"/>
      <use xlink:href="#DejaVuSans-30" x="242.626953"/>
      <use xlink:href="#DejaVuSans-2e" x="306.25"/>
      <use xlink:href="#DejaVuSans-34" x="338.037109"/>
      <use xlink:href="#DejaVuSans-30" x="401.660156"/>
      <use xlink:href="#DejaVuSans-20" x="465.283203"/>
     </g>
    </g>
    <g id="line2d_27">
     <path d="M 330.4625 79.010937 
L 340.4625 79.010937 
L 350.4625 79.010937 
" style="fill: none; stroke: #9467bd; stroke-width: 1.5; stroke-linecap: square"/>
    </g>
    <g id="text_24">
     <!-- b =  0.60  -->
     <g transform="translate(358.4625 82.510937)scale(0.1 -0.1)">
      <defs>
       <path id="DejaVuSans-36" d="M 2113 2584 
Q 1688 2584 1439 2293 
Q 1191 2003 1191 1497 
Q 1191 994 1439 701 
Q 1688 409 2113 409 
Q 2538 409 2786 701 
Q 3034 994 3034 1497 
Q 3034 2003 2786 2293 
Q 2538 2584 2113 2584 
z
M 3366 4563 
L 3366 3988 
Q 3128 4100 2886 4159 
Q 2644 4219 2406 4219 
Q 1781 4219 1451 3797 
Q 1122 3375 1075 2522 
Q 1259 2794 1537 2939 
Q 1816 3084 2150 3084 
Q 2853 3084 3261 2657 
Q 3669 2231 3669 1497 
Q 3669 778 3244 343 
Q 2819 -91 2113 -91 
Q 1303 -91 875 529 
Q 447 1150 447 2328 
Q 447 3434 972 4092 
Q 1497 4750 2381 4750 
Q 2619 4750 2861 4703 
Q 3103 4656 3366 4563 
z
" transform="scale(0.015625)"/>
      </defs>
      <use xlink:href="#DejaVuSans-62"/>
      <use xlink:href="#DejaVuSans-20" x="63.476562"/>
      <use xlink:href="#DejaVuSans-3d" x="95.263672"/>
      <use xlink:href="#DejaVuSans-20" x="179.052734"/>
      <use xlink:href="#DejaVuSans-20" x="210.839844"/>
      <use xlink:href="#DejaVuSans-30" x="242.626953"/>
      <use xlink:href="#DejaVuSans-2e" x="306.25"/>
      <use xlink:href="#DejaVuSans-36" x="338.037109"/>
      <use xlink:href="#DejaVuSans-30" x="401.660156"/>
      <use xlink:href="#DejaVuSans-20" x="465.283203"/>
     </g>
    </g>
   </g>
  </g>
 </g>
 <defs>
  <clipPath id="p94ca6883fc">
   <rect x="50.14375" y="7.2" width="367.025" height="231.4"/>
  </clipPath>
 </defs>
</svg>
