<?xml version="1.0" encoding="utf-8" standalone="no"?>
<!DOCTYPE svg PUBLIC "-//W3C//DTD SVG 1.1//EN"
  "http://www.w3.org/Graphics/SVG/1.1/DTD/svg11.dtd">
<svg xmlns:xlink="http://www.w3.org/1999/xlink" width="400.523438pt" height="262.19625pt" viewBox="0 0 400.523438 262.19625" xmlns="http://www.w3.org/2000/svg" version="1.1">
 <metadata>
  <rdf:RDF xmlns:dc="http://purl.org/dc/elements/1.1/" xmlns:cc="http://creativecommons.org/ns#" xmlns:rdf="http://www.w3.org/1999/02/22-rdf-syntax-ns#">
   <cc:Work>
    <dc:type rdf:resource="http://purl.org/dc/dcmitype/StillImage"/>
    <dc:date>2024-09-24T14:37:56.870939</dc:date>
    <dc:format>image/svg+xml</dc:format>
    <dc:creator>
     <cc:Agent>
      <dc:title>Matplotlib v3.5.2, https://matplotlib.org/</dc:title>
     </cc:Agent>
    </dc:creator>
   </cc:Work>
  </rdf:RDF>
 </metadata>
 <defs>
  <style type="text/css">*{stroke-linejoin: round; stroke-linecap: butt}</style>
 </defs>
 <g id="figure_1">
  <g id="patch_1">
   <path d="M 0 262.19625 
L 400.523438 262.19625 
L 400.523438 0 
L 0 0 
z
" style="fill: #ffffff"/>
  </g>
  <g id="axes_1">
   <g id="patch_2">
    <path d="M 58.523438 224.64 
L 393.323438 224.64 
L 393.323438 7.2 
L 58.523438 7.2 
z
" style="fill: #ffffff"/>
   </g>
   <g id="matplotlib.axis_1">
    <g id="xtick_1">
     <g id="line2d_1">
      <defs>
       <path id="mc4378729de" d="M 0 0 
L 0 3.5 
" style="stroke: #000000; stroke-width: 0.8"/>
      </defs>
      <g>
       <use xlink:href="#mc4378729de" x="73.741619" y="224.64" style="stroke: #000000; stroke-width: 0.8"/>
      </g>
     </g>
     <g id="text_1">
      <!-- 0.0 -->
      <g transform="translate(65.790057 239.238438)scale(0.1 -0.1)">
       <defs>
        <path id="DejaVuSans-30" d="M 2034 4250 
Q 1547 4250 1301 3770 
Q 1056 3291 1056 2328 
Q 1056 1369 1301 889 
Q 1547 409 2034 409 
Q 2525 409 2770 889 
Q 3016 1369 3016 2328 
Q 3016 3291 2770 3770 
Q 2525 4250 2034 4250 
z
M 2034 4750 
Q 2819 4750 3233 4129 
Q 3647 3509 3647 2328 
Q 3647 1150 3233 529 
Q 2819 -91 2034 -91 
Q 1250 -91 836 529 
Q 422 1150 422 2328 
Q 422 3509 836 4129 
Q 1250 4750 2034 4750 
z
" transform="scale(0.015625)"/>
        <path id="DejaVuSans-2e" d="M 684 794 
L 1344 794 
L 1344 0 
L 684 0 
L 684 794 
z
" transform="scale(0.015625)"/>
       </defs>
       <use xlink:href="#DejaVuSans-30"/>
       <use xlink:href="#DejaVuSans-2e" x="63.623047"/>
       <use xlink:href="#DejaVuSans-30" x="95.410156"/>
      </g>
     </g>
    </g>
    <g id="xtick_2">
     <g id="line2d_2">
      <g>
       <use xlink:href="#mc4378729de" x="111.787074" y="224.64" style="stroke: #000000; stroke-width: 0.8"/>
      </g>
     </g>
     <g id="text_2">
      <!-- 2.5 -->
      <g transform="translate(103.835511 239.238438)scale(0.1 -0.1)">
       <defs>
        <path id="DejaVuSans-32" d="M 1228 531 
L 3431 531 
L 3431 0 
L 469 0 
L 469 531 
Q 828 903 1448 1529 
Q 2069 2156 2228 2338 
Q 2531 2678 2651 2914 
Q 2772 3150 2772 3378 
Q 2772 3750 2511 3984 
Q 2250 4219 1831 4219 
Q 1534 4219 1204 4116 
Q 875 4013 500 3803 
L 500 4441 
Q 881 4594 1212 4672 
Q 1544 4750 1819 4750 
Q 2544 4750 2975 4387 
Q 3406 4025 3406 3419 
Q 3406 3131 3298 2873 
Q 3191 2616 2906 2266 
Q 2828 2175 2409 1742 
Q 1991 1309 1228 531 
z
" transform="scale(0.015625)"/>
        <path id="DejaVuSans-35" d="M 691 4666 
L 3169 4666 
L 3169 4134 
L 1269 4134 
L 1269 2991 
Q 1406 3038 1543 3061 
Q 1681 3084 1819 3084 
Q 2600 3084 3056 2656 
Q 3513 2228 3513 1497 
Q 3513 744 3044 326 
Q 2575 -91 1722 -91 
Q 1428 -91 1123 -41 
Q 819 9 494 109 
L 494 744 
Q 775 591 1075 516 
Q 1375 441 1709 441 
Q 2250 441 2565 725 
Q 2881 1009 2881 1497 
Q 2881 1984 2565 2268 
Q 2250 2553 1709 2553 
Q 1456 2553 1204 2497 
Q 953 2441 691 2322 
L 691 4666 
z
" transform="scale(0.015625)"/>
       </defs>
       <use xlink:href="#DejaVuSans-32"/>
       <use xlink:href="#DejaVuSans-2e" x="63.623047"/>
       <use xlink:href="#DejaVuSans-35" x="95.410156"/>
      </g>
     </g>
    </g>
    <g id="xtick_3">
     <g id="line2d_3">
      <g>
       <use xlink:href="#mc4378729de" x="149.832528" y="224.64" style="stroke: #000000; stroke-width: 0.8"/>
      </g>
     </g>
     <g id="text_3">
      <!-- 5.0 -->
      <g transform="translate(141.880966 239.238438)scale(0.1 -0.1)">
       <use xlink:href="#DejaVuSans-35"/>
       <use xlink:href="#DejaVuSans-2e" x="63.623047"/>
       <use xlink:href="#DejaVuSans-30" x="95.410156"/>
      </g>
     </g>
    </g>
    <g id="xtick_4">
     <g id="line2d_4">
      <g>
       <use xlink:href="#mc4378729de" x="187.877983" y="224.64" style="stroke: #000000; stroke-width: 0.8"/>
      </g>
     </g>
     <g id="text_4">
      <!-- 7.5 -->
      <g transform="translate(179.92642 239.238438)scale(0.1 -0.1)">
       <defs>
        <path id="DejaVuSans-37" d="M 525 4666 
L 3525 4666 
L 3525 4397 
L 1831 0 
L 1172 0 
L 2766 4134 
L 525 4134 
L 525 4666 
z
" transform="scale(0.015625)"/>
       </defs>
       <use xlink:href="#DejaVuSans-37"/>
       <use xlink:href="#DejaVuSans-2e" x="63.623047"/>
       <use xlink:href="#DejaVuSans-35" x="95.410156"/>
      </g>
     </g>
    </g>
    <g id="xtick_5">
     <g id="line2d_5">
      <g>
       <use xlink:href="#mc4378729de" x="225.923438" y="224.64" style="stroke: #000000; stroke-width: 0.8"/>
      </g>
     </g>
     <g id="text_5">
      <!-- 10.0 -->
      <g transform="translate(214.790625 239.238438)scale(0.1 -0.1)">
       <defs>
        <path id="DejaVuSans-31" d="M 794 531 
L 1825 531 
L 1825 4091 
L 703 3866 
L 703 4441 
L 1819 4666 
L 2450 4666 
L 2450 531 
L 3481 531 
L 3481 0 
L 794 0 
L 794 531 
z
" transform="scale(0.015625)"/>
       </defs>
       <use xlink:href="#DejaVuSans-31"/>
       <use xlink:href="#DejaVuSans-30" x="63.623047"/>
       <use xlink:href="#DejaVuSans-2e" x="127.246094"/>
       <use xlink:href="#DejaVuSans-30" x="159.033203"/>
      </g>
     </g>
    </g>
    <g id="xtick_6">
     <g id="line2d_6">
      <g>
       <use xlink:href="#mc4378729de" x="263.968892" y="224.64" style="stroke: #000000; stroke-width: 0.8"/>
      </g>
     </g>
     <g id="text_6">
      <!-- 12.5 -->
      <g transform="translate(252.83608 239.238438)scale(0.1 -0.1)">
       <use xlink:href="#DejaVuSans-31"/>
       <use xlink:href="#DejaVuSans-32" x="63.623047"/>
       <use xlink:href="#DejaVuSans-2e" x="127.246094"/>
       <use xlink:href="#DejaVuSans-35" x="159.033203"/>
      </g>
     </g>
    </g>
    <g id="xtick_7">
     <g id="line2d_7">
      <g>
       <use xlink:href="#mc4378729de" x="302.014347" y="224.64" style="stroke: #000000; stroke-width: 0.8"/>
      </g>
     </g>
     <g id="text_7">
      <!-- 15.0 -->
      <g transform="translate(290.881534 239.238438)scale(0.1 -0.1)">
       <use xlink:href="#DejaVuSans-31"/>
       <use xlink:href="#DejaVuSans-35" x="63.623047"/>
       <use xlink:href="#DejaVuSans-2e" x="127.246094"/>
       <use xlink:href="#DejaVuSans-30" x="159.033203"/>
      </g>
     </g>
    </g>
    <g id="xtick_8">
     <g id="line2d_8">
      <g>
       <use xlink:href="#mc4378729de" x="340.059801" y="224.64" style="stroke: #000000; stroke-width: 0.8"/>
      </g>
     </g>
     <g id="text_8">
      <!-- 17.5 -->
      <g transform="translate(328.926989 239.238438)scale(0.1 -0.1)">
       <use xlink:href="#DejaVuSans-31"/>
       <use xlink:href="#DejaVuSans-37" x="63.623047"/>
       <use xlink:href="#DejaVuSans-2e" x="127.246094"/>
       <use xlink:href="#DejaVuSans-35" x="159.033203"/>
      </g>
     </g>
    </g>
    <g id="xtick_9">
     <g id="line2d_9">
      <g>
       <use xlink:href="#mc4378729de" x="378.105256" y="224.64" style="stroke: #000000; stroke-width: 0.8"/>
      </g>
     </g>
     <g id="text_9">
      <!-- 20.0 -->
      <g transform="translate(366.972443 239.238438)scale(0.1 -0.1)">
       <use xlink:href="#DejaVuSans-32"/>
       <use xlink:href="#DejaVuSans-30" x="63.623047"/>
       <use xlink:href="#DejaVuSans-2e" x="127.246094"/>
       <use xlink:href="#DejaVuSans-30" x="159.033203"/>
      </g>
     </g>
    </g>
    <g id="text_10">
     <!-- T -->
     <g transform="translate(222.869531 252.916563)scale(0.1 -0.1)">
      <defs>
       <path id="DejaVuSans-54" d="M -19 4666 
L 3928 4666 
L 3928 4134 
L 2272 4134 
L 2272 0 
L 1638 0 
L 1638 4134 
L -19 4134 
L -19 4666 
z
" transform="scale(0.015625)"/>
      </defs>
      <use xlink:href="#DejaVuSans-54"/>
     </g>
    </g>
   </g>
   <g id="matplotlib.axis_2">
    <g id="ytick_1">
     <g id="line2d_10">
      <defs>
       <path id="m91e4c7fbb2" d="M 0 0 
L -3.5 0 
" style="stroke: #000000; stroke-width: 0.8"/>
      </defs>
      <g>
       <use xlink:href="#m91e4c7fbb2" x="58.523438" y="216.243614" style="stroke: #000000; stroke-width: 0.8"/>
      </g>
     </g>
     <g id="text_11">
      <!-- −1.00 -->
      <g transform="translate(20.878125 220.042833)scale(0.1 -0.1)">
       <defs>
        <path id="DejaVuSans-2212" d="M 678 2272 
L 4684 2272 
L 4684 1741 
L 678 1741 
L 678 2272 
z
" transform="scale(0.015625)"/>
       </defs>
       <use xlink:href="#DejaVuSans-2212"/>
       <use xlink:href="#DejaVuSans-31" x="83.789062"/>
       <use xlink:href="#DejaVuSans-2e" x="147.412109"/>
       <use xlink:href="#DejaVuSans-30" x="179.199219"/>
       <use xlink:href="#DejaVuSans-30" x="242.822266"/>
      </g>
     </g>
    </g>
    <g id="ytick_2">
     <g id="line2d_11">
      <g>
       <use xlink:href="#m91e4c7fbb2" x="58.523438" y="191.254584" style="stroke: #000000; stroke-width: 0.8"/>
      </g>
     </g>
     <g id="text_12">
      <!-- −0.75 -->
      <g transform="translate(20.878125 195.053802)scale(0.1 -0.1)">
       <use xlink:href="#DejaVuSans-2212"/>
       <use xlink:href="#DejaVuSans-30" x="83.789062"/>
       <use xlink:href="#DejaVuSans-2e" x="147.412109"/>
       <use xlink:href="#DejaVuSans-37" x="179.199219"/>
       <use xlink:href="#DejaVuSans-35" x="242.822266"/>
      </g>
     </g>
    </g>
    <g id="ytick_3">
     <g id="line2d_12">
      <g>
       <use xlink:href="#m91e4c7fbb2" x="58.523438" y="166.265553" style="stroke: #000000; stroke-width: 0.8"/>
      </g>
     </g>
     <g id="text_13">
      <!-- −0.50 -->
      <g transform="translate(20.878125 170.064772)scale(0.1 -0.1)">
       <use xlink:href="#DejaVuSans-2212"/>
       <use xlink:href="#DejaVuSans-30" x="83.789062"/>
       <use xlink:href="#DejaVuSans-2e" x="147.412109"/>
       <use xlink:href="#DejaVuSans-35" x="179.199219"/>
       <use xlink:href="#DejaVuSans-30" x="242.822266"/>
      </g>
     </g>
    </g>
    <g id="ytick_4">
     <g id="line2d_13">
      <g>
       <use xlink:href="#m91e4c7fbb2" x="58.523438" y="141.276522" style="stroke: #000000; stroke-width: 0.8"/>
      </g>
     </g>
     <g id="text_14">
      <!-- −0.25 -->
      <g transform="translate(20.878125 145.075741)scale(0.1 -0.1)">
       <use xlink:href="#DejaVuSans-2212"/>
       <use xlink:href="#DejaVuSans-30" x="83.789062"/>
       <use xlink:href="#DejaVuSans-2e" x="147.412109"/>
       <use xlink:href="#DejaVuSans-32" x="179.199219"/>
       <use xlink:href="#DejaVuSans-35" x="242.822266"/>
      </g>
     </g>
    </g>
    <g id="ytick_5">
     <g id="line2d_14">
      <g>
       <use xlink:href="#m91e4c7fbb2" x="58.523438" y="116.287492" style="stroke: #000000; stroke-width: 0.8"/>
      </g>
     </g>
     <g id="text_15">
      <!-- 0.00 -->
      <g transform="translate(29.257813 120.08671)scale(0.1 -0.1)">
       <use xlink:href="#DejaVuSans-30"/>
       <use xlink:href="#DejaVuSans-2e" x="63.623047"/>
       <use xlink:href="#DejaVuSans-30" x="95.410156"/>
       <use xlink:href="#DejaVuSans-30" x="159.033203"/>
      </g>
     </g>
    </g>
    <g id="ytick_6">
     <g id="line2d_15">
      <g>
       <use xlink:href="#m91e4c7fbb2" x="58.523438" y="91.298461" style="stroke: #000000; stroke-width: 0.8"/>
      </g>
     </g>
     <g id="text_16">
      <!-- 0.25 -->
      <g transform="translate(29.257813 95.09768)scale(0.1 -0.1)">
       <use xlink:href="#DejaVuSans-30"/>
       <use xlink:href="#DejaVuSans-2e" x="63.623047"/>
       <use xlink:href="#DejaVuSans-32" x="95.410156"/>
       <use xlink:href="#DejaVuSans-35" x="159.033203"/>
      </g>
     </g>
    </g>
    <g id="ytick_7">
     <g id="line2d_16">
      <g>
       <use xlink:href="#m91e4c7fbb2" x="58.523438" y="66.30943" style="stroke: #000000; stroke-width: 0.8"/>
      </g>
     </g>
     <g id="text_17">
      <!-- 0.50 -->
      <g transform="translate(29.257813 70.108649)scale(0.1 -0.1)">
       <use xlink:href="#DejaVuSans-30"/>
       <use xlink:href="#DejaVuSans-2e" x="63.623047"/>
       <use xlink:href="#DejaVuSans-35" x="95.410156"/>
       <use xlink:href="#DejaVuSans-30" x="159.033203"/>
      </g>
     </g>
    </g>
    <g id="ytick_8">
     <g id="line2d_17">
      <g>
       <use xlink:href="#m91e4c7fbb2" x="58.523438" y="41.320399" style="stroke: #000000; stroke-width: 0.8"/>
      </g>
     </g>
     <g id="text_18">
      <!-- 0.75 -->
      <g transform="translate(29.257813 45.119618)scale(0.1 -0.1)">
       <use xlink:href="#DejaVuSans-30"/>
       <use xlink:href="#DejaVuSans-2e" x="63.623047"/>
       <use xlink:href="#DejaVuSans-37" x="95.410156"/>
       <use xlink:href="#DejaVuSans-35" x="159.033203"/>
      </g>
     </g>
    </g>
    <g id="ytick_9">
     <g id="line2d_18">
      <g>
       <use xlink:href="#m91e4c7fbb2" x="58.523438" y="16.331369" style="stroke: #000000; stroke-width: 0.8"/>
      </g>
     </g>
     <g id="text_19">
      <!-- 1.00 -->
      <g transform="translate(29.257813 20.130587)scale(0.1 -0.1)">
       <use xlink:href="#DejaVuSans-31"/>
       <use xlink:href="#DejaVuSans-2e" x="63.623047"/>
       <use xlink:href="#DejaVuSans-30" x="95.410156"/>
       <use xlink:href="#DejaVuSans-30" x="159.033203"/>
      </g>
     </g>
    </g>
    <g id="text_20">
     <!-- Y -->
     <g transform="translate(14.798438 118.973906)rotate(-90)scale(0.1 -0.1)">
      <defs>
       <path id="DejaVuSans-59" d="M -13 4666 
L 666 4666 
L 1959 2747 
L 3244 4666 
L 3922 4666 
L 2272 2222 
L 2272 0 
L 1638 0 
L 1638 2222 
L -13 4666 
z
" transform="scale(0.015625)"/>
      </defs>
      <use xlink:href="#DejaVuSans-59"/>
     </g>
    </g>
   </g>
   <g id="line2d_19">
    <defs>
     <path id="mfce9570963" d="M 0 1.5 
C 0.397805 1.5 0.77937 1.341951 1.06066 1.06066 
C 1.341951 0.77937 1.5 0.397805 1.5 0 
C 1.5 -0.397805 1.341951 -0.77937 1.06066 -1.06066 
C 0.77937 -1.341951 0.397805 -1.5 0 -1.5 
C -0.397805 -1.5 -0.77937 -1.341951 -1.06066 -1.06066 
C -1.341951 -0.77937 -1.5 -0.397805 -1.5 0 
C -1.5 0.397805 -1.341951 0.77937 -1.06066 1.06066 
C -0.77937 1.341951 -0.397805 1.5 0 1.5 
z
" style="stroke: #000000"/>
    </defs>
    <g clip-path="url(#p71c7eb1730)">
     <use xlink:href="#mfce9570963" x="73.741619" y="116.287492" style="stroke: #000000"/>
     <use xlink:href="#mfce9570963" x="76.785256" y="112.308912" style="stroke: #000000"/>
     <use xlink:href="#mfce9570963" x="79.828892" y="100.542884" style="stroke: #000000"/>
     <use xlink:href="#mfce9570963" x="82.872528" y="82.08782" style="stroke: #000000"/>
     <use xlink:href="#mfce9570963" x="85.916165" y="60.286914" style="stroke: #000000"/>
     <use xlink:href="#mfce9570963" x="88.959801" y="40.808371" style="stroke: #000000"/>
     <use xlink:href="#mfce9570963" x="92.003438" y="27.864956" style="stroke: #000000"/>
     <use xlink:href="#mfce9570963" x="95.047074" y="20.924551" style="stroke: #000000"/>
     <use xlink:href="#mfce9570963" x="98.09071" y="17.793521" style="stroke: #000000"/>
     <use xlink:href="#mfce9570963" x="101.134347" y="17.083636" style="stroke: #000000"/>
     <use xlink:href="#mfce9570963" x="104.177983" y="18.013859" style="stroke: #000000"/>
     <use xlink:href="#mfce9570963" x="107.221619" y="20.326524" style="stroke: #000000"/>
     <use xlink:href="#mfce9570963" x="110.265256" y="24.070393" style="stroke: #000000"/>
     <use xlink:href="#mfce9570963" x="113.308892" y="29.162927" style="stroke: #000000"/>
     <use xlink:href="#mfce9570963" x="116.352528" y="35.820538" style="stroke: #000000"/>
     <use xlink:href="#mfce9570963" x="119.396165" y="44.19073" style="stroke: #000000"/>
     <use xlink:href="#mfce9570963" x="122.439801" y="54.648631" style="stroke: #000000"/>
     <use xlink:href="#mfce9570963" x="125.483438" y="67.826163" style="stroke: #000000"/>
     <use xlink:href="#mfce9570963" x="128.527074" y="84.562236" style="stroke: #000000"/>
     <use xlink:href="#mfce9570963" x="131.57071" y="106.105478" style="stroke: #000000"/>
     <use xlink:href="#mfce9570963" x="134.614347" y="133.533426" style="stroke: #000000"/>
     <use xlink:href="#mfce9570963" x="137.657983" y="164.481931" style="stroke: #000000"/>
     <use xlink:href="#mfce9570963" x="140.701619" y="190.966333" style="stroke: #000000"/>
     <use xlink:href="#mfce9570963" x="143.745256" y="206.562963" style="stroke: #000000"/>
     <use xlink:href="#mfce9570963" x="146.788892" y="213.082629" style="stroke: #000000"/>
     <use xlink:href="#mfce9570963" x="149.832528" y="214.756364" style="stroke: #000000"/>
     <use xlink:href="#mfce9570963" x="152.876165" y="213.836484" style="stroke: #000000"/>
     <use xlink:href="#mfce9570963" x="155.919801" y="211.212756" style="stroke: #000000"/>
     <use xlink:href="#mfce9570963" x="158.963437" y="207.160953" style="stroke: #000000"/>
     <use xlink:href="#mfce9570963" x="162.007074" y="201.613132" style="stroke: #000000"/>
     <use xlink:href="#mfce9570963" x="165.05071" y="194.511102" style="stroke: #000000"/>
     <use xlink:href="#mfce9570963" x="168.094347" y="185.55186" style="stroke: #000000"/>
     <use xlink:href="#mfce9570963" x="171.137983" y="174.369278" style="stroke: #000000"/>
     <use xlink:href="#mfce9570963" x="174.181619" y="160.33968" style="stroke: #000000"/>
     <use xlink:href="#mfce9570963" x="177.225256" y="142.35936" style="stroke: #000000"/>
     <use xlink:href="#mfce9570963" x="180.268892" y="118.935356" style="stroke: #000000"/>
     <use xlink:href="#mfce9570963" x="183.312528" y="90.048705" style="stroke: #000000"/>
     <use xlink:href="#mfce9570963" x="186.356165" y="59.43795" style="stroke: #000000"/>
     <use xlink:href="#mfce9570963" x="189.399801" y="35.810487" style="stroke: #000000"/>
     <use xlink:href="#mfce9570963" x="192.443438" y="23.354082" style="stroke: #000000"/>
     <use xlink:href="#mfce9570963" x="195.487074" y="18.641176" style="stroke: #000000"/>
     <use xlink:href="#mfce9570963" x="198.53071" y="17.885494" style="stroke: #000000"/>
     <use xlink:href="#mfce9570963" x="201.574347" y="19.338436" style="stroke: #000000"/>
     <use xlink:href="#mfce9570963" x="204.617983" y="22.399747" style="stroke: #000000"/>
     <use xlink:href="#mfce9570963" x="207.661619" y="26.877317" style="stroke: #000000"/>
     <use xlink:href="#mfce9570963" x="210.705256" y="32.867981" style="stroke: #000000"/>
     <use xlink:href="#mfce9570963" x="213.748892" y="40.471448" style="stroke: #000000"/>
     <use xlink:href="#mfce9570963" x="216.792528" y="50.033541" style="stroke: #000000"/>
     <use xlink:href="#mfce9570963" x="219.836165" y="61.985399" style="stroke: #000000"/>
     <use xlink:href="#mfce9570963" x="222.879801" y="77.028522" style="stroke: #000000"/>
     <use xlink:href="#mfce9570963" x="225.923438" y="96.424011" style="stroke: #000000"/>
     <use xlink:href="#mfce9570963" x="228.967074" y="121.554169" style="stroke: #000000"/>
     <use xlink:href="#mfce9570963" x="232.01071" y="151.59553" style="stroke: #000000"/>
     <use xlink:href="#mfce9570963" x="235.054347" y="181.087895" style="stroke: #000000"/>
     <use xlink:href="#mfce9570963" x="238.097983" y="201.447035" style="stroke: #000000"/>
     <use xlink:href="#mfce9570963" x="241.141619" y="211.177854" style="stroke: #000000"/>
     <use xlink:href="#mfce9570963" x="244.185256" y="214.446766" style="stroke: #000000"/>
     <use xlink:href="#mfce9570963" x="247.228892" y="214.442123" style="stroke: #000000"/>
     <use xlink:href="#mfce9570963" x="250.272528" y="212.500995" style="stroke: #000000"/>
     <use xlink:href="#mfce9570963" x="253.316165" y="209.012199" style="stroke: #000000"/>
     <use xlink:href="#mfce9570963" x="256.359801" y="204.110819" style="stroke: #000000"/>
     <use xlink:href="#mfce9570963" x="259.403437" y="197.660479" style="stroke: #000000"/>
     <use xlink:href="#mfce9570963" x="262.447074" y="189.531373" style="stroke: #000000"/>
     <use xlink:href="#mfce9570963" x="265.49071" y="179.336143" style="stroke: #000000"/>
     <use xlink:href="#mfce9570963" x="268.534347" y="166.535449" style="stroke: #000000"/>
     <use xlink:href="#mfce9570963" x="271.577983" y="150.373407" style="stroke: #000000"/>
     <use xlink:href="#mfce9570963" x="274.621619" y="129.44999" style="stroke: #000000"/>
     <use xlink:href="#mfce9570963" x="277.665256" y="102.700135" style="stroke: #000000"/>
     <use xlink:href="#mfce9570963" x="280.708892" y="71.854224" style="stroke: #000000"/>
     <use xlink:href="#mfce9570963" x="283.752528" y="44.352508" style="stroke: #000000"/>
     <use xlink:href="#mfce9570963" x="286.796165" y="27.337273" style="stroke: #000000"/>
     <use xlink:href="#mfce9570963" x="289.839801" y="19.956136" style="stroke: #000000"/>
     <use xlink:href="#mfce9570963" x="292.883438" y="17.847482" style="stroke: #000000"/>
     <use xlink:href="#mfce9570963" x="295.927074" y="18.529459" style="stroke: #000000"/>
     <use xlink:href="#mfce9570963" x="298.97071" y="20.959633" style="stroke: #000000"/>
     <use xlink:href="#mfce9570963" x="302.014347" y="24.828124" style="stroke: #000000"/>
     <use xlink:href="#mfce9570963" x="305.057983" y="30.19602" style="stroke: #000000"/>
     <use xlink:href="#mfce9570963" x="308.101619" y="37.091588" style="stroke: #000000"/>
     <use xlink:href="#mfce9570963" x="311.145256" y="45.794773" style="stroke: #000000"/>
     <use xlink:href="#mfce9570963" x="314.188892" y="56.689766" style="stroke: #000000"/>
     <use xlink:href="#mfce9570963" x="317.232528" y="70.304207" style="stroke: #000000"/>
     <use xlink:href="#mfce9570963" x="320.276165" y="87.724221" style="stroke: #000000"/>
     <use xlink:href="#mfce9570963" x="323.319801" y="110.403506" style="stroke: #000000"/>
     <use xlink:href="#mfce9570963" x="326.363438" y="138.712863" style="stroke: #000000"/>
     <use xlink:href="#mfce9570963" x="329.407074" y="169.556746" style="stroke: #000000"/>
     <use xlink:href="#mfce9570963" x="332.45071" y="194.434856" style="stroke: #000000"/>
     <use xlink:href="#mfce9570963" x="335.494347" y="208.183144" style="stroke: #000000"/>
     <use xlink:href="#mfce9570963" x="338.537983" y="213.618688" style="stroke: #000000"/>
     <use xlink:href="#mfce9570963" x="341.581619" y="214.743449" style="stroke: #000000"/>
     <use xlink:href="#mfce9570963" x="344.625256" y="213.507947" style="stroke: #000000"/>
     <use xlink:href="#mfce9570963" x="347.668892" y="210.627585" style="stroke: #000000"/>
     <use xlink:href="#mfce9570963" x="350.712528" y="206.336024" style="stroke: #000000"/>
     <use xlink:href="#mfce9570963" x="353.756165" y="200.531409" style="stroke: #000000"/>
     <use xlink:href="#mfce9570963" x="356.799801" y="193.142724" style="stroke: #000000"/>
     <use xlink:href="#mfce9570963" x="359.843438" y="183.848991" style="stroke: #000000"/>
     <use xlink:href="#mfce9570963" x="362.887074" y="172.216218" style="stroke: #000000"/>
     <use xlink:href="#mfce9570963" x="365.93071" y="157.621181" style="stroke: #000000"/>
     <use xlink:href="#mfce9570963" x="368.974347" y="138.841318" style="stroke: #000000"/>
     <use xlink:href="#mfce9570963" x="372.017983" y="114.453846" style="stroke: #000000"/>
     <use xlink:href="#mfce9570963" x="375.061619" y="84.847729" style="stroke: #000000"/>
     <use xlink:href="#mfce9570963" x="378.105256" y="54.766653" style="stroke: #000000"/>
    </g>
   </g>
   <g id="patch_3">
    <path d="M 58.523438 224.64 
L 58.523438 7.2 
" style="fill: none; stroke: #000000; stroke-width: 0.8; stroke-linejoin: miter; stroke-linecap: square"/>
   </g>
   <g id="patch_4">
    <path d="M 393.323438 224.64 
L 393.323438 7.2 
" style="fill: none; stroke: #000000; stroke-width: 0.8; stroke-linejoin: miter; stroke-linecap: square"/>
   </g>
   <g id="patch_5">
    <path d="M 58.523438 224.64 
L 393.323438 224.64 
" style="fill: none; stroke: #000000; stroke-width: 0.8; stroke-linejoin: miter; stroke-linecap: square"/>
   </g>
   <g id="patch_6">
    <path d="M 58.523438 7.2 
L 393.323438 7.2 
" style="fill: none; stroke: #000000; stroke-width: 0.8; stroke-linejoin: miter; stroke-linecap: square"/>
   </g>
   <g id="legend_1">
    <g id="patch_7">
     <path d="M 293.29375 29.878125 
L 386.323438 29.878125 
Q 388.323438 29.878125 388.323438 27.878125 
L 388.323438 14.2 
Q 388.323438 12.2 386.323438 12.2 
L 293.29375 12.2 
Q 291.29375 12.2 291.29375 14.2 
L 291.29375 27.878125 
Q 291.29375 29.878125 293.29375 29.878125 
z
" style="fill: #ffffff; opacity: 0.8; stroke: #cccccc; stroke-linejoin: miter"/>
    </g>
    <g id="line2d_20">
     <g>
      <use xlink:href="#mfce9570963" x="305.29375" y="20.298438" style="stroke: #000000"/>
     </g>
    </g>
    <g id="text_21">
     <!-- a = 2, b = 2 -->
     <g transform="translate(323.29375 23.798438)scale(0.1 -0.1)">
      <defs>
       <path id="DejaVuSans-61" d="M 2194 1759 
Q 1497 1759 1228 1600 
Q 959 1441 959 1056 
Q 959 750 1161 570 
Q 1363 391 1709 391 
Q 2188 391 2477 730 
Q 2766 1069 2766 1631 
L 2766 1759 
L 2194 1759 
z
M 3341 1997 
L 3341 0 
L 2766 0 
L 2766 531 
Q 2569 213 2275 61 
Q 1981 -91 1556 -91 
Q 1019 -91 701 211 
Q 384 513 384 1019 
Q 384 1609 779 1909 
Q 1175 2209 1959 2209 
L 2766 2209 
L 2766 2266 
Q 2766 2663 2505 2880 
Q 2244 3097 1772 3097 
Q 1472 3097 1187 3025 
Q 903 2953 641 2809 
L 641 3341 
Q 956 3463 1253 3523 
Q 1550 3584 1831 3584 
Q 2591 3584 2966 3190 
Q 3341 2797 3341 1997 
z
" transform="scale(0.015625)"/>
       <path id="DejaVuSans-20" transform="scale(0.015625)"/>
       <path id="DejaVuSans-3d" d="M 678 2906 
L 4684 2906 
L 4684 2381 
L 678 2381 
L 678 2906 
z
M 678 1631 
L 4684 1631 
L 4684 1100 
L 678 1100 
L 678 1631 
z
" transform="scale(0.015625)"/>
       <path id="DejaVuSans-2c" d="M 750 794 
L 1409 794 
L 1409 256 
L 897 -744 
L 494 -744 
L 750 256 
L 750 794 
z
" transform="scale(0.015625)"/>
       <path id="DejaVuSans-62" d="M 3116 1747 
Q 3116 2381 2855 2742 
Q 2594 3103 2138 3103 
Q 1681 3103 1420 2742 
Q 1159 2381 1159 1747 
Q 1159 1113 1420 752 
Q 1681 391 2138 391 
Q 2594 391 2855 752 
Q 3116 1113 3116 1747 
z
M 1159 2969 
Q 1341 3281 1617 3432 
Q 1894 3584 2278 3584 
Q 2916 3584 3314 3078 
Q 3713 2572 3713 1747 
Q 3713 922 3314 415 
Q 2916 -91 2278 -91 
Q 1894 -91 1617 61 
Q 1341 213 1159 525 
L 1159 0 
L 581 0 
L 581 4863 
L 1159 4863 
L 1159 2969 
z
" transform="scale(0.015625)"/>
      </defs>
      <use xlink:href="#DejaVuSans-61"/>
      <use xlink:href="#DejaVuSans-20" x="61.279297"/>
      <use xlink:href="#DejaVuSans-3d" x="93.066406"/>
      <use xlink:href="#DejaVuSans-20" x="176.855469"/>
      <use xlink:href="#DejaVuSans-32" x="208.642578"/>
      <use xlink:href="#DejaVuSans-2c" x="272.265625"/>
      <use xlink:href="#DejaVuSans-20" x="304.052734"/>
      <use xlink:href="#DejaVuSans-62" x="335.839844"/>
      <use xlink:href="#DejaVuSans-20" x="399.316406"/>
      <use xlink:href="#DejaVuSans-3d" x="431.103516"/>
      <use xlink:href="#DejaVuSans-20" x="514.892578"/>
      <use xlink:href="#DejaVuSans-32" x="546.679688"/>
     </g>
    </g>
   </g>
  </g>
 </g>
 <defs>
  <clipPath id="p71c7eb1730">
   <rect x="58.523438" y="7.2" width="334.8" height="217.44"/>
  </clipPath>
 </defs>
</svg>
